<svg xmlns="http://www.w3.org/2000/svg" width="369" height="32" viewBox="0 0 369 32">
  <g fill="#221F20" fill-rule="evenodd">
    <path d="M16.8327273 17.4312727L23.0349091 17.4312727 23.0349091 14.2327273 16.8327273 14.2327273 16.8327273 17.4312727zM16.8327273 13.392L23.0349091 13.392 23.0349091 10.1934545 16.8327273 10.1934545 16.8327273 13.392zM22.5170909 28.2865455L22.5170909 23.344 10.5316364 23.344 10.0138182 23.44 10.0138182 28.2865455 22.5170909 28.2865455zM10.0138182 30.4509091C9.992 30.6021818 9.90618182 30.7636364 9.75636364 30.9367273 9.06545455 31.2378182 8.39781818 31.2814545 7.75345455 31.0647273 7.60218182 30.9803636 7.51490909 30.8290909 7.49454545 30.6138182L7.49454545 21.568 7.49454545 21.1781818C7.51490909 21.0938182 7.57890909 21.0705455 7.688 21.1156364L10.2072727 22.4712727 22.4545455 22.4712727 23.5847273 21.3410909C23.7127273 21.1476364 23.8858182 21.1476364 24.1025455 21.3410909L25.5876364 22.6021818C25.912 22.8378182 26.0705455 23.1389091 26.0705455 23.5054545 26.0516364 23.8065455 25.7505455 24.0450909 25.1672727 24.2152727 25.0392727 24.2385455 24.9941818 24.3694545 25.0392727 24.6050909L25.0392727 30.2923636C25.0174545 30.5701818 24.8981818 30.7636364 24.6814545 30.8712727 24.0792727 31.1301818 23.4887273 31.184 22.9069091 31.0341818 22.648 30.9483636 22.5170909 30.7636364 22.5170909 30.4858182L22.5170909 29.1272727 10.0138182 29.1272727 10.0138182 30.4509091zM10.0458182 10.1934545L8.30181818 10.4509091C8.02254545 10.5163636 7.87272727 10.4858182 7.84945455 10.3549091L7.62254545 9.38618182C7.56 9.16945455 7.64436364 9.09672727 7.88145455 9.16218182L10.0458182 9.35418182 14.344 9.35418182 14.344 6.34909091C14.344 6.19781818 14.4210909 6.144 14.5709091 6.18763636L17.0567273 6.54254545C17.7694545 6.62981818 18.1243636 6.92072727 18.1243636 7.41381818 18.1243636 7.88945455 17.7694545 8.21236364 17.0567273 8.38545455 16.9069091 8.42909091 16.8327273 8.53672727 16.8327273 8.70690909L16.8327273 9.35418182 22.616 9.35418182 24.1650909 7.83418182C24.4036364 7.59854545 24.6189091 7.59854545 24.8123636 7.83418182L26.3294545 9.38618182C27.3869091 10.4858182 27.1934545 11.2189091 25.7505455 11.5854545 25.5992727 11.6043636 25.5221818 11.7018182 25.5221818 11.8749091L25.5221818 13.392 25.6196364 13.392 26.9461818 11.4850909C27.0741818 11.2727273 27.2894545 11.2727273 27.5905455 11.4850909L29.9483636 13.392C30.1214545 13.5229091 30.1767273 13.7047273 30.1112727 13.9432727 30.0458182 14.0930909 29.8523636 14.1905455 29.528 14.2327273L25.5221818 14.2327273 25.5221818 19.4996364C25.5032727 19.7352727 25.3607273 19.9403636 25.1018182 20.1134545 24.5432727 20.352 24.0065455 20.3941818 23.4887273 20.2414545 23.1847273 20.1134545 23.0334545 19.9083636 23.0334545 19.6276364L23.0334545 18.272 16.8327273 18.272 16.8327273 20.8887273C16.8094545 21.1243636 16.6392727 21.3294545 16.3149091 21.5025455 15.7563636 21.7614545 15.2152727 21.8152727 14.6989091 21.664 14.4210909 21.5796364 14.3018182 21.4065455 14.344 21.1476364L14.344 18.272 9.65890909 18.272 7.75345455 18.4974545C7.60218182 18.5425455 7.51490909 18.5192727 7.49454545 18.4349091L7.20509091 17.3658182C7.18181818 17.2378182 7.28945455 17.1956364 7.52509091 17.2378182L9.65890909 17.4312727 14.344 17.4312727 14.344 14.2327273 5.10181818 14.2327273 4.94327273 17.3032727C4.42690909 23.6785455 3.06836364 28.0625455.872 30.4509091.613090909 30.6472727.406545455 30.6676364.255272727 30.5163636.147636364 30.3010909.255272727 29.9345455.579636364 29.4167273 2.00363636 25.4996364 2.70181818 19.0589091 2.67854545 10.096L2.67854545 5.80072727 2.67854545 3.37745455C2.70181818 3.07636364 2.84145455 3.01090909 3.09890909 3.184L5.33018182 4.57309091 13.7956364 4.57309091 13.7956364 1.14763636C13.7956364.996363636 13.8581818.942545455 13.9890909.984727273L16.6058182 1.43709091C17.4232727 1.568 17.832 1.86909091 17.832 2.34327273 17.8130909 2.92509091 17.4145455 3.26981818 16.6392727 3.37745455 16.424 3.39781818 16.3149091 3.49672727 16.3149091 3.66690909L16.3149091 4.57309091 22.616 4.57309091 24.7163636 2.40872727C24.9316364 2.17018182 25.1454545 2.17018182 25.3607273 2.40872727L28.2043636 4.47418182C28.44 4.64727273 28.5490909 4.85236364 28.5287273 5.09090909 28.4632727 5.26109091 28.2698182 5.36872727 27.9469091 5.41090909L5.19927273 5.41090909 5.19927273 5.80072727 5.19927273 10.096 5.13672727 13.392 14.344 13.392 14.344 10.1934545 10.0458182 10.1934545zM44.2302545 12.616C44.0789818 12.3149091 44.1226182 12.0909091 44.3582545 11.9396364 44.5735273 11.7665455 44.7786182 11.8087273 44.9720727 12.0676364 46.7189818 14.696 47.9655273 17.4 48.7218909 20.1781818 49.4520727 22.8269091 49.5713455 24.5621818 49.0768 25.3796364 48.8833455 25.6385455 48.5793455 25.7898182 48.1706182 25.832 47.7618909 25.832 47.4608 25.6705455 47.2673455 25.3461818 47.0506182 25.0450909 46.9313455 24.5927273 46.9124364 23.9905455 46.6113455 20.1985455 45.7153455 16.408 44.2302545 12.616L44.2302545 12.616zM50.7553455 1.53381818C50.7553455 1.38545455 50.8208 1.33163636 50.9517091 1.37527273L53.5684364 1.82618182C54.3858909 1.95418182 54.7960727 2.25818182 54.7960727 2.72945455 54.7728 3.29236364 54.3757091 3.624 53.5989818 3.73309091 53.3837091 3.77527273 53.2760727 3.88290909 53.2760727 4.056L53.2760727 7.96581818 60.2869818 7.96581818 62.2273455 5.80145455C62.3786182 5.62690909 62.5284364 5.62690909 62.6797091 5.80145455L65.3924364 7.80290909C65.7153455 8.01963636 65.8346182 8.24363636 65.7473455 8.48218182 65.6397091 8.67563636 65.4258909 8.78327273 65.1029818 8.80363636L41.3211636 8.80363636 39.4797091 9.06254545C39.2644364 9.10763636 39.1451636 9.06254545 39.1248 8.93454545L38.8004364 7.86836364C38.7815273 7.73890909 38.8978909 7.69527273 39.1568 7.73890909L41.3211636 7.96581818 50.7553455 7.96581818 50.7553455 1.53381818zM53.7298909 28.1592727C55.7953455 23.8058182 57.3691636 18.2290909 58.4455273 11.4232727 58.4891636 11.1847273 58.6186182 11.1221818 58.8353455 11.2269091L61.4520727 12.0996364C62.0964364 12.3149091 62.3786182 12.6698182 62.2898909 13.1672727 62.1618909 13.6618182 61.7182545 13.8654545 60.9662545 13.7810909 60.7728 13.7810909 60.6418909 13.8654545 60.5793455 14.04 59.0288 20.0050909 56.9909818 24.7556364 54.4717091 28.2858182L61.6760727 28.2858182 63.6164364 26.1214545C63.7677091 25.9512727 63.9175273 25.9512727 64.0688 26.1214545L66.7815273 28.1272727C67.1058909 28.3410909 67.2251636 28.568 67.1364364 28.8036364 67.0288 28.9767273 66.8149818 29.0843636 66.4920727 29.128L40.3204364 29.128 38.4455273 29.3854545C38.2535273 29.4290909 38.1444364 29.3854545 38.1226182 29.2574545L37.8011636 28.1898182C37.7778909 28.0618182 37.8971636 28.0196364 38.1560727 28.0618182L40.3204364 28.2858182 53.6644364 28.2858182 53.7298909 28.1592727zM95.5399273 25.4116364C95.3857455 25.3258182 95.3319273 25.2065455 95.3784727 25.0567273 95.3973818 24.9054545 95.5282909 24.8516364 95.7639273 24.8938182 96.9057455 25.0872727 98.1333818 25.5847273 99.4497455 26.3803636 101.644655 27.6734545 102.776291 28.8807273 102.840291 29.9992727 102.840291 30.3658182 102.678836 30.6989091 102.354473 31.0029091 102.034473 31.1963636 101.676655 31.2501818 101.289745 31.1643636 100.904291 31.0334545 100.225018 30.3236364 99.2533818 29.0305455 98.0490182 27.2632727 96.8097455 26.0589091 95.5399273 25.4116364L95.5399273 25.4116364zM89.6242909 22.7294545L96.1842909 22.7294545 96.1842909 18.2727273 89.6242909 18.2727273 89.6242909 22.7294545zM89.6242909 17.432L96.1842909 17.432 96.1842909 12.9738182 89.6242909 12.9738182 89.6242909 17.432zM89.6242909 12.1330909L96.1842909 12.1330909 96.1842909 7.80290909 89.6242909 7.80290909 89.6242909 12.1330909zM87.1050182 7.80290909L86.5232 7.80290909 84.6512 8.06181818C84.4344727 8.10545455 84.3152 8.06181818 84.2948364 7.93090909L83.9719273 6.86618182C83.9719273 6.73818182 84.0912 6.69309091 84.3268364 6.73818182L86.5232 6.96218182 87.1050182 6.96218182 87.1050182 1.40581818C87.1050182 1.256 87.1704727 1.20072727 87.2984727 1.24436364L89.9181091 1.69527273C90.7355636 1.82618182 91.1457455 2.12727273 91.1457455 2.60145455 91.1224727 3.16145455 90.7239273 3.49745455 89.9486545 3.60218182 89.7333818 3.64727273 89.6257455 3.752 89.6257455 3.92654545L89.6257455 6.96218182 96.1842909 6.96218182 96.1842909 1.53381818C96.1842909 1.38545455 96.2497455 1.33163636 96.3777455 1.37527273L98.9944727 1.82618182C99.8148364 1.95418182 100.225018 2.25818182 100.225018 2.72945455 100.201745 3.29236364 99.8046545 3.624 99.0279273 3.73309091 98.8359273 3.77527273 98.7384727 3.88290909 98.7384727 4.056L98.7384727 6.73818182 100.386473 4.86327273C100.534836 4.712 100.696291 4.712 100.869382 4.86327273L103.388655 6.80072727C103.713018 7.01745455 103.832291 7.23272727 103.745018 7.448 103.635927 7.64145455 103.411927 7.76072727 103.068655 7.80290909L98.7384727 7.80290909 98.7384727 22.7294545 99.4148364 22.7294545 101.3552 20.5650909C101.4832 20.3949091 101.633018 20.3949091 101.807564 20.5650909L104.520291 22.568C104.8432 22.7832727 104.963927 23.0116364 104.8752 23.2472727 104.767564 23.4392727 104.542109 23.56 104.198836 23.6021818L84.3588364 23.6021818 82.5173818 23.8290909C82.3006545 23.8712727 82.1842909 23.8290909 82.1624727 23.6981818L81.8381091 22.6334545C81.8177455 22.5054545 81.9370182 22.4603636 82.1959273 22.5054545L84.3588364 22.7294545 87.1050182 22.7294545 87.1050182 7.80290909zM89.1733818 24.5083636C89.2592 24.312 89.3784727 24.2698182 89.5282909 24.3774545L91.5966545 25.3810909C92.1130182 25.6589091 92.2948364 26.0167273 92.1450182 26.4458182 91.9748364 26.8123636 91.5544727 26.92 90.8868364 26.7701818 90.6482909 26.7047273 90.4853818 26.7585455 90.4010182 26.9316364 88.1624727 28.8690909 85.2330182 30.2698182 81.6141091 31.1309091 81.3755636 31.1309091 81.2242909 31.0567273 81.1617455 30.9054545 81.1399273 30.648 81.2359273 30.5054545 81.4512 30.4850909 84.5086545 29.3432727 86.9770182 27.5018182 88.8490182 24.9592727L89.1733818 24.5083636zM77.5733818 2.60145455C77.4453818 2.49381818 77.4002909 2.36290909 77.4453818 2.21309091 77.5312 2.08509091 77.6708364 2.04290909 77.8672 2.08509091 78.5537455 2.27854545 79.2752 2.65527273 80.0315636 3.21527273 81.4512 4.20727273 82.1304727 5.15272727 82.0650182 6.05890909 82.0228364 6.46909091 81.8075636 6.792 81.4206545 7.02763636 81.0962909 7.17890909 80.7413818 7.17890909 80.3530182 7.02763636 80.0519273 6.87781818 79.7930182 6.60727273 79.5762909 6.22181818L78.8010182 4.41090909C78.5232 3.67927273 78.1130182 3.07563636 77.5733818 2.60145455L77.5733818 2.60145455zM75.5399273 10.0967273C75.4090182 9.98763636 75.3784727 9.86109091 75.4439273 9.70981818 75.5486545 9.53672727 75.6912 9.50472727 75.8613818 9.61381818 76.5290182 9.87127273 77.2068364 10.3003636 77.8977455 10.9054545 78.6512 11.5512727 79.1253818 12.1214545 79.3188364 12.616 79.5762909 13.0901818 79.6621091 13.5454545 79.5762909 13.9745455 79.4919273 14.3629091 79.2446545 14.6421818 78.8359273 14.8152727 78.4693818 14.9432727 78.1130182 14.9112727 77.7668364 14.7178182 77.2722909 14.3716364 77.0250182 14.0167273 77.0250182 13.6501818 76.3355636 11.6050909 75.8410182 10.4196364 75.5399273 10.0967273L75.5399273 10.0967273zM83.5850182 8.02836364C83.7333818 8.09381818 83.7668364 8.28727273 83.6824727 8.61018182L79.6112 21.6647273C79.3726545 22.568 79.2213818 23.3883636 79.1559273 24.1185455 79.1559273 24.8516364 79.3406545 25.7781818 79.7072 26.8967273 80.1362909 28.1272727 80.2439273 29.1163636 80.0315636 29.8712727 79.8584727 30.4938182 79.4686545 30.872 78.8664727 31.0029091 78.3501091 31.0654545 77.9181091 30.8603636 77.5733818 30.3890909 77.2068364 29.8494545 77.1341091 28.7294545 77.3493818 27.0276364 77.4352 25.8625455 77.4119273 24.8632727 77.2839273 24.0225455 77.1762909 23.3127273 76.5392 22.8603636 75.3784727 22.664 74.9886545 22.5592727 74.8184727 22.4065455 74.8606545 22.2130909 74.8606545 22.0196364 75.0424727 21.9454545 75.4090182 21.9876364 76.1188364 22.0967273 76.7442909 22.0429091 77.2839273 21.8261818 77.6082909 21.6530909 77.9515636 21.1585455 78.3181091 20.3410909L83.0992 8.38618182C83.2272 8.08218182 83.3886545 7.96581818 83.5850182 8.02836364L83.5850182 8.02836364zM121.354909 11.4850909L135.667636 11.4850909 135.667636 7.93163636 121.354909 7.93163636 121.354909 11.4850909zM135.667636 7.09381818L135.667636 3.63636364 121.903273 3.63636364 121.354909 3.73236364 121.354909 7.09381818 135.667636 7.09381818zM121.354909 13.0370909C121.333091 13.1869091 121.256 13.3483636 121.128 13.5229091 120.418182 13.824 119.750545 13.8661818 119.125091 13.6494545 118.952 13.5650909 118.856 13.4138182 118.832727 13.1985455L118.832727 2.01890909 118.832727 1.63345455C118.856 1.54472727 118.931636 1.52581818 119.059636 1.568L121.289455 2.76363636 121.903273 2.79563636 135.247273 2.79563636 136.797818 1.27563636C137.033455 1.04 137.250182 1.04 137.443636 1.27563636L138.931636 2.82618182C140.008 3.92581818 139.824727 4.65890909 138.380364 5.02545455 138.230545 5.04436364 138.156364 5.14472727 138.156364 5.31490909L138.156364 13.4254545C138.133091 13.6843636 137.983273 13.8996364 137.701091 14.0712727 137.164364 14.2865455 136.636364 14.3170909 136.12 14.1672727 135.818909 14.0596364 135.667636 13.8661818 135.667636 13.5883636L135.667636 12.3578182 121.354909 12.3578182 121.354909 13.0370909zM137.477091 28.9338182L139.384 26.736C139.533818 26.5643636 139.696727 26.5643636 139.866909 26.736L142.582545 28.7723636C142.883636 28.9658182 142.991273 29.1810909 142.904 29.4167273 142.818182 29.6130909 142.602909 29.7294545 142.258182 29.7745455L116.733818 29.7745455 114.860364 30.0334545C114.665455 30.0756364 114.556364 30.0334545 114.537455 29.9025455L114.213091 28.8378182C114.192727 28.7069091 114.310545 28.6647273 114.568 28.7069091L116.733818 28.9338182 127.429091 28.9338182 127.429091 24.3461818 122.162182 24.3461818 120.287273 24.6050909C120.070545 24.6472727 119.965818 24.6050909 119.965818 24.4741818L119.642909 23.408C119.619636 23.2814545 119.727273 23.2349091 119.965818 23.2814545L122.162182 23.5054545 127.429091 23.5054545 127.429091 19.0472727 121.289455 19.0472727C119.414545 21.5883636 117.357818 23.3003636 115.119273 24.1847273 114.922909 24.2501818 114.784727 24.2152727 114.698909 24.0872727 114.633455 23.8938182 114.687273 23.7527273 114.860364 23.6669091 117.747636 21.5563636 119.631273 18.4450909 120.514182 14.3287273 120.556364 14.0930909 120.675636 14.0058182 120.869091 14.0712727L123.357818 14.88C124.133091 15.1389091 124.477818 15.4821818 124.392 15.9112727 124.261091 16.3665455 123.810182 16.5818182 123.033455 16.5585455 122.925818 16.5367273 122.528727 17.088 121.837818 18.2065455L127.429091 18.2065455 127.429091 13.7803636C127.429091 13.6305455 127.491636 13.5767273 127.622545 13.6189091L130.239273 14.0712727C131.056727 14.1789091 131.465455 14.48 131.465455 14.9774545 131.446545 15.536 131.048 15.8690909 130.272727 15.9767273 130.057455 16.0218182 129.948364 16.128 129.948364 16.3010909L129.948364 18.2065455 134.374545 18.2065455 136.442909 16.0421818C136.659636 15.8065455 136.883636 15.8065455 137.122182 16.0421818L139.962909 18.1105455C140.179636 18.2603636 140.275636 18.4654545 140.255273 18.7243636 140.213091 18.8974545 140.028364 19.0050909 139.704 19.0472727L129.948364 19.0472727 129.948364 23.5054545 132.92 23.5054545 134.826909 21.3090909C134.976727 21.136 135.139636 21.136 135.312727 21.3090909L138.025455 23.344C138.349818 23.5389091 138.466182 23.7527273 138.380364 23.9912727 138.272727 24.1847273 138.048727 24.304 137.701091 24.3461818L129.948364 24.3461818 129.948364 28.9338182 137.477091 28.9338182zM173.9888 14.1671273C172.695709 16.7329455 171.3488 18.5729455 169.949527 19.6929455 169.756073 19.8427636 169.6048 19.8544 169.497164 19.7264 169.366255 19.6187636 169.389527 19.4689455 169.559709 19.2725818 171.198982 16.8173091 172.329164 13.3831273 172.954618 8.96567273 172.974982 8.79549091 173.050618 8.73003636 173.178618 8.77221818L175.894255 9.38603636C176.5168 9.53585455 176.798982 9.86021818 176.733527 10.3547636 176.647709 10.7634909 176.257891 10.9685818 175.571345 10.9685818 175.354618 10.9685818 175.235345 11.0340364 175.216436 11.1649455L174.343709 13.4253091C175.139345 13.7918545 175.946618 14.3096727 176.766982 14.9773091 178.5968 16.4624 179.479709 17.7438545 179.414255 18.8202182 179.372073 19.2304 179.166982 19.5416727 178.800436 19.7584 178.457164 19.9314909 178.090618 19.9198545 177.702255 19.7264 177.401164 19.5765818 177.142255 19.3264 176.928436 18.9831273 175.548073 16.2893091 174.567709 14.6849455 173.9888 14.1671273L173.9888 14.1671273zM161.159709 14.8464C159.869527 17.5387636 158.5968 19.4456727 157.345891 20.5642182 157.153891 20.6951273 156.990982 20.7154909 156.864436 20.6296727 156.733527 20.5002182 156.755345 20.3285818 156.928436 20.1133091 158.736436 17.1416727 159.804073 13.4456727 160.128436 9.03112727 160.128436 8.85803636 160.190982 8.78385455 160.321891 8.80276364L163.065164 9.29003636C163.690618 9.39767273 163.991709 9.69876364 163.971345 10.1933091 163.886982 10.6049455 163.5088 10.8289455 162.841164 10.8711273 162.647709 10.8944 162.540073 10.9685818 162.5168 11.0994909L161.517527 13.9736727C162.054255 14.2980364 162.625891 14.7489455 163.228073 15.3322182 164.561891 16.6864 165.133527 17.8398545 164.940073 18.7896727 164.855709 19.1751273 164.605527 19.4456727 164.198255 19.5954909 163.833164 19.7045818 163.473891 19.6609455 163.130618 19.4689455 162.8528 19.2725818 162.636073 18.9714909 162.486255 18.5627636 161.968436 16.6442182 161.526255 15.4064 161.159709 14.8464L161.159709 14.8464zM175.181527 29.2900364L177.121891 27.1242182C177.273164 26.9511273 177.434618 26.9511273 177.6048 27.1242182L180.321891 29.1271273C180.621527 29.3438545 180.730618 29.5678545 180.641891 29.8064 180.534255 29.9998545 180.321891 30.1191273 179.997527 30.1613091L157.3808 30.1613091 155.505891 30.3882182C155.289164 30.4318545 155.1728 30.3969455 155.150982 30.2922182L154.826618 29.1925818C154.806255 29.0616727 154.924073 29.0194909 155.181527 29.0616727L157.3808 29.2900364 166.167709 29.2900364 166.167709 23.2158545 160.513891 23.2158545 158.673891 23.4733091C158.457164 23.5169455 158.337891 23.4733091 158.318982 23.3438545L157.994618 22.2471273C157.971345 22.1394909 158.090618 22.1045818 158.349527 22.1467636L160.513891 22.3431273 166.167709 22.3431273 166.167709 7.70749091C166.167709 7.55621818 166.233164 7.5024 166.364073 7.54458182L168.9808 7.99694545C169.798255 8.12785455 170.206982 8.42894545 170.206982 8.90312727 170.185164 9.48203636 169.786618 9.82967273 169.011345 9.9344 168.796073 9.97949091 168.686982 10.0754909 168.686982 10.2267636L168.686982 22.3431273 172.534255 22.3431273 174.471709 20.1787636C174.621527 20.0056727 174.784436 20.0056727 174.957527 20.1787636L177.670255 22.2122182C177.971345 22.4056727 178.080436 22.6209455 177.994618 22.8609455 177.886982 23.0529455 177.670255 23.1722182 177.345891 23.2158545L168.686982 23.2158545 168.686982 29.2900364 175.181527 29.2900364zM165.523345 5.31476364L165.523345 1.14749091C165.523345.996218182 165.5888.9424 165.7168.984581818L168.332073 1.43694545C169.150982 1.56785455 169.559709 1.86894545 169.559709 2.34312727 169.559709 2.9264 169.162618 3.26967273 168.366982 3.37730909 168.170618 3.39767273 168.073164 3.49658182 168.073164 3.66676364L168.073164 5.31476364 174.375709 5.31476364 176.442618 3.18385455C176.659345 2.94530909 176.883345 2.94530909 177.121891 3.18385455L179.965527 5.21876364C180.201164 5.39185455 180.310255 5.60421818 180.286982 5.86312727 180.224436 6.01730909 180.028073 6.11330909 179.708073 6.15549091L156.313164 6.15549091 156.313164 6.4144 156.313164 10.5511273 156.215709 15.2013091C155.786618 22.6325818 154.332073 27.6842182 151.854982 30.3547636 151.596073 30.5278545 151.392436 30.5394909 151.241164 30.3882182L152.179345 27.5765818C153.276073 23.9576727 153.815709 18.2834909 153.792436 10.5511273L153.792436 6.4144 153.792436 4.02167273C153.815709 3.69876364 153.955345 3.62458182 154.2128 3.79767273L156.670982 5.31476364 165.523345 5.31476364zM208.525818 19.0792727L212.886545 19.0792727 212.886545 16.0116364 208.525818 16.0116364 208.525818 19.0792727zM208.525818 15.1694545L212.886545 15.1694545 212.886545 12.0989091 208.525818 12.0989091 208.525818 15.1694545zM201.869818 19.0792727L206.037091 19.0792727 206.037091 16.0116364 201.869818 16.0116364 201.869818 19.0792727zM206.037091 12.0989091L202.549091 12.0989091 201.869818 12.1978182 201.869818 15.1694545 206.037091 15.1694545 206.037091 12.0989091zM199.384 23.6989091L197.539636 23.9563636C197.324364 24.0029091 197.208 23.9563636 197.184727 23.8298182L196.860364 22.7636364C196.841455 22.6327273 196.960727 22.5905455 197.219636 22.6327273L199.384 22.8610909 206.037091 22.8610909 206.037091 19.92 201.869818 19.92 201.869818 20.6298182C201.849455 20.7810909 201.772364 20.9309091 201.644364 21.0821818 200.931636 21.3832727 200.264 21.4283636 199.642909 21.2130909 199.468364 21.1243636 199.372364 20.9847273 199.349091 20.7927273L199.349091 10.5818182 199.349091 10.1934545C199.372364 10.1309091 199.446545 10.1076364 199.576 10.1309091L201.578909 11.2261818 202.549091 11.2610909 206.037091 11.2610909 206.037091 8.32 201.417455 8.32 199.542545 8.57890909C199.330182 8.62109091 199.210909 8.57890909 199.187636 8.448L198.898182 7.38327273C198.874909 7.25527273 198.982545 7.21018182 199.221091 7.25527273L201.417455 7.44872727 206.037091 7.44872727 206.037091 4.34618182C206.016727 4.19490909 206.090909 4.14109091 206.264 4.18472727L208.752727 4.70109091C209.571636 4.80872727 209.980364 5.14472727 209.980364 5.70472727 209.980364 6.24145455 209.602182 6.59636364 208.848727 6.76945455 208.610182 6.81163636 208.514182 6.93090909 208.556364 7.12436364L208.525818 7.44872727 211.401455 7.44872727 213.274909 5.38036364C213.426182 5.20727273 213.587636 5.20727273 213.762182 5.38036364L213.824727 5.47636364 214.374545 3.76436364 201.548364 3.76436364 199.932364 3.95636364C199.738909 5.46618182 199.360727 6.51054545 198.800727 7.09381818 198.284364 7.43709091 197.798545 7.568 197.346182 7.47927273 196.979636 7.43709091 196.701818 7.27563636 196.505455 6.99636364 196.335273 6.75781818 196.290182 6.44509091 196.377455 6.05963636 196.442909 5.69309091 196.797818 5.27272727 197.443636 4.79854545 198.326545 4.15272727 198.972364 3.17236364 199.384 1.85745455 199.384 1.664 199.468364 1.568 199.642909 1.568 199.769455 1.58836364 199.855273 1.696 199.900364 1.89236364L199.962909 2.79563636 201.548364 2.92509091 214.051636 2.92509091 215.568727 1.40654545C215.718545 1.25527273 215.88 1.26690909 216.054545 1.43709091L217.992 3.50545455C218.466182 3.97963636 218.573818 4.42327273 218.314909 4.832 218.057455 5.21890909 217.605091 5.31490909 216.957818 5.12145455 216.678545 5.03709091 215.968727 5.392 214.826909 6.18763636L216.281455 7.31781818C216.582545 7.51127273 216.690182 7.72654545 216.602909 7.96509091 216.517091 8.15854545 216.301818 8.27781818 215.957091 8.32L208.525818 8.32 208.525818 11.2610909 212.469091 11.2610909 214.019636 9.74109091C214.255273 9.50545455 214.472 9.50545455 214.665455 9.74109091L216.184 11.2916364C217.261818 12.3694545 217.065455 13.1025455 215.602182 13.4909091 215.452364 13.5112727 215.375273 13.6072727 215.375273 13.7803636L215.375273 20.2414545C215.354909 20.4989091 215.212364 20.7156364 214.954909 20.8887273 214.394909 21.104 213.858182 21.136 213.340364 20.9847273 213.037818 20.8770909 212.886545 20.6836364 212.886545 20.4029091L212.886545 19.92 208.525818 19.92 208.525818 22.8610909 213.792727 22.8610909 215.602182 20.8887273C215.730182 20.7389091 215.88 20.7389091 216.054545 20.8887273L218.412364 22.6981818C218.735273 22.9149091 218.856 23.1389091 218.767273 23.3774545 218.659636 23.5476364 218.434182 23.6552727 218.090909 23.6989091L208.525818 23.6989091 208.525818 26.608C208.549091 26.9090909 208.428364 27.1476364 208.170909 27.3178182 207.568727 27.5563636 206.973818 27.5767273 206.392 27.3832727 206.156364 27.2523636 206.037091 27.0589091 206.037091 26.8014545L206.037091 23.6989091 199.384 23.6989091zM190.949091 2.21236364C190.841455 2.10472727 190.809455 1.98836364 190.851636 1.85745455 190.895273 1.70763636 191.014545 1.65236364 191.208 1.696 191.983273 1.91127273 192.800727 2.28945455 193.664727 2.82618182 195.235636 3.90545455 195.989091 4.90618182 195.926545 5.83127273 195.881455 6.22109091 195.688 6.53381818 195.343273 6.76945455 195.020364 6.94254545 194.665455 6.95127273 194.278545 6.80145455 193.846545 6.608 193.533818 6.29527273 193.340364 5.86327273 192.326545 3.84 191.530909 2.62109091 190.949091 2.21236364L190.949091 2.21236364zM189.590545 8.67636364C189.462545 8.56727273 189.420364 8.43927273 189.462545 8.28654545 189.506182 8.11636364 189.625455 8.06254545 189.818909 8.128 190.570909 8.27781818 191.411636 8.59927273 192.338182 9.09672727 193.954182 10.0654545 194.761455 11.0225455 194.761455 11.9709091 194.761455 12.3796364 194.588364 12.704 194.245091 12.9396364 193.900364 13.1563636 193.545455 13.1869091 193.178909 13.0370909 192.812364 12.928 192.522909 12.7156364 192.306182 12.3912727 191.142545 10.3010909 190.239273 9.06181818 189.590545 8.67636364L189.590545 8.67636364zM193.210909 17.7861818L191.304 17.7861818 189.56 18.0450909C189.301091 18.1338182 189.161455 18.1105455 189.139636 17.9796364L188.848727 16.8829091C188.806545 16.752 188.915636 16.7098182 189.173091 16.752L191.304 16.9149091 192.856 16.9149091 194.472 15.3323636C194.621818 15.1810909 194.773091 15.1927273 194.922909 15.3629091L196.829818 17.2378182C197.173091 17.5621818 197.304 17.9287273 197.219636 18.3345455 197.110545 18.7461818 196.701818 19.0138182 195.989091 19.1447273 195.753455 19.1869091 195.656 19.3265455 195.699636 19.5650909L195.699636 24.8625455C196.150545 25.616 196.851636 26.2414545 197.798545 26.736 198.639273 27.1898182 199.650182 27.5025455 200.835636 27.6727273 206.264 28.256 211.939636 28.224 217.864 27.5767273 218.057455 27.5563636 218.176727 27.6305455 218.218909 27.8036364 218.261091 27.9767273 218.141818 28.1585455 217.864 28.352 217.196364 28.8261818 216.829818 29.4705455 216.764364 30.2923636 216.744 30.5047273 216.613091 30.6138182 216.377455 30.6138182 210.409455 30.656 206.383273 30.6021818 204.293091 30.4509091 199.619636 30.1309091 196.301818 28.4058182 194.341091 25.2843636 193.178909 26.9425455 192.210182 28.2007273 191.434909 29.0618182 191.283636 29.2130909 191.292364 29.44 191.465455 29.7410909 191.658909 30.1498182 191.584727 30.5047273 191.241455 30.8058182 190.895273 31.0225455 190.528727 30.8945455 190.141818 30.4203636L188.687273 28.4174545C188.451636 28.0930909 188.397818 27.8996364 188.525818 27.8341818 189.386909 27.5563636 190.949091 26.5963636 193.210909 24.96L193.210909 24.6705455 193.210909 17.7861818zM245.875055 13.4570182C244.883055 15.2010182 243.547782 16.4737455 241.869236 17.2693818 241.675782 17.3770182 241.546327 17.3668364 241.480873 17.2388364 241.395055 17.0453818 241.437236 16.9144727 241.610327 16.8490182 243.096873 15.5792 244.151418 13.7464727 244.775418 11.3581091 244.389964 10.7748364 243.9376 10.2701091 243.421236 9.83810909 243.290327 9.73338182 243.258327 9.60247273 243.323782 9.4512 243.431418 9.25774545 243.571055 9.21556364 243.744145 9.32029091L245.067782 10.0650182 245.067782 9.87156364 245.358691 6.93192727 245.358691 6.1552 244.324509 6.1552 242.579055 6.41410909C242.298327 6.49992727 242.147055 6.47956364 242.128145 6.34865455L241.869236 5.31447273C241.847418 5.14429091 241.943418 5.07883636 242.158691 5.12247273L244.324509 5.31447273 245.424145 5.31447273 245.424145 1.47156364C245.424145 1.23301818 245.508509 1.13556364 245.6816 1.1792L248.429236 1.56756364C249.008145 1.65338182 249.301964 1.90065455 249.301964 2.30938182 249.301964 2.74138182 248.923782 3.02210909 248.170327 3.15010909 248.0176 3.19229091 247.931782 3.30138182 247.911418 3.47447273L247.781964 5.31447273 249.784873 5.31447273 251.173964 3.92538182C251.2816 3.77556364 251.421236 3.7872 251.594327 3.95738182L253.597236 5.63883636C253.9856 5.9632 254.136873 6.33701818 254.051055 6.76901818 253.963782 7.15592727 253.534691 7.39447273 252.757964 7.48029091 252.584873 7.54574545 252.500509 7.7072 252.500509 7.96610909 252.218327 12.1639273 252.455418 14.8693818 253.210327 16.0737455 253.296145 16.2701091 253.403782 16.3661091 253.534691 16.3661091 253.662691 16.3864727 253.800873 16.2890182 253.952145 16.0737455L255.243782 13.9733818C255.352873 13.7377455 255.502691 13.6504727 255.699055 13.7159273 255.892509 13.8032 255.976873 13.9544727 255.957964 14.1668364 255.460509 16.8402909 255.364509 18.3573818 255.6656 18.7239273 256.096145 19.1762909 256.277964 19.6722909 256.215418 20.2104727 256.104873 20.7501091 255.7296 21.0162909 255.082327 21.0162909 254.352145 20.8664727 253.662691 20.5217455 253.016873 19.9821091 250.926691 18.3457455 249.934691 13.7377455 250.042327 6.1552L247.684509 6.1552C247.4256 8.48247273 247.114327 10.2381091 246.747782 11.4235636L246.939782 11.5515636C248.688145 13.2330182 249.493964 14.6221091 249.364509 15.7188364 249.278691 16.1275636 249.043055 16.4286545 248.653236 16.6250182 248.286691 16.7530182 247.931782 16.7210182 247.588509 16.5275636 247.178327 16.3122909 246.608145 15.2897455 245.875055 13.4570182L245.875055 13.4570182zM230.301236 21.9544727L228.557236 22.2133818C228.298327 22.3006545 228.158691 22.2890182 228.136873 22.1813818L227.877964 21.0162909C227.835782 20.9115636 227.931782 20.8664727 228.170327 20.8882909L230.301236 21.0817455 238.638691 21.0817455C238.766691 20.3952 238.832145 19.3261091 238.832145 17.8832 238.832145 17.5617455 238.971782 17.4206545 239.252509 17.4628364L241.835782 17.9486545C242.503418 18.0562909 242.837964 18.3457455 242.837964 18.8213818 242.814691 19.2722909 242.451055 19.5428364 241.738327 19.6272 241.437236 19.6722909 241.275782 19.8235636 241.255418 20.0824727L241.028509 21.0817455 248.587782 21.0817455 250.269236 19.3697455C250.440873 19.1981091 250.613964 19.2097455 250.787055 19.4032L252.531055 21.0512C252.983418 21.4177455 253.168145 21.8148364 253.079418 22.2468364 252.971782 22.6555636 252.596509 22.8810182 251.949236 22.9232 251.755782 22.9232 251.648145 23.0424727 251.627782 23.2810182 251.412509 25.9093818 251.011055 27.7813818 250.432145 28.8999273 249.764509 30.3006545 248.3216 31.0992 246.101964 31.2926545 246.080145 30.0650182 245.303418 29.1268364 243.776145 28.4824727 243.4096 28.3515636 243.278691 28.1581091 243.386327 27.9006545 243.451782 27.6650182 243.6336 27.5879273 243.9376 27.6722909 245.2496 28.0824727 246.218327 28.2439273 246.843782 28.1581091 247.469236 27.9428364 247.943418 27.5762909 248.267782 27.0599273 248.696873 26.1333818 248.9456 24.4315636 249.008145 21.9544727L240.835055 21.9544727C240.0176 24.6904727 238.885964 26.6846545 237.443055 27.9312 234.965964 29.7842909 231.767418 30.8068364 227.847418 31.0032 227.523055 31.0221091 227.349964 30.9377455 227.3296 30.7442909 227.3296 30.5275636 227.491055 30.3966545 227.815418 30.3544727 229.514327 29.9690182 231.034327 29.5166545 232.3696 29.0002909L234.468509 27.8686545C236.579055 26.4679273 237.914327 24.4970182 238.477236 21.9544727L230.301236 21.9544727zM232.563055 14.6221091L230.819055 14.6221091 228.880145 14.8461091C228.730327 14.8693818 228.6416 14.8344727 228.622691 14.7501091L228.333236 13.6504727C228.267782 13.4992 228.340509 13.4570182 228.557236 13.5224727L230.819055 13.7813818 232.563055 13.7813818 232.563055 11.6475636C232.542691 11.2606545 232.628509 11.0875636 232.820509 11.1297455L235.051782 11.5195636C235.719418 11.6272 236.053964 11.9064727 236.053964 12.3573818 236.053964 12.7239273 235.795055 12.9944727 235.278691 13.1675636 235.1056 13.2097455 235.040145 13.3493818 235.085236 13.5879273L235.085236 13.7813818 236.375418 13.7813818 237.960873 12.6817455C238.110691 12.5537455 238.280873 12.5421091 238.477236 12.6497455L240.996509 13.8119273C241.210327 13.9006545 241.309236 14.0592 241.287418 14.2977455 241.221964 14.5144727 241.051782 14.6221091 240.7696 14.6221091L235.085236 14.6221091 235.085236 16.5901091 239.735418 15.6562909C240.059782 15.5472 240.275055 15.6024727 240.384145 15.8148364 240.446691 16.0112 240.372509 16.1930182 240.155782 16.3661091 238.563055 17.0541091 236.784145 17.6475636 234.826327 18.1421091L229.848873 19.0788364C229.5056 19.1224727 229.355782 19.2635636 229.397964 19.4992 229.418327 20.0388364 229.224873 20.3399273 228.814691 20.4024727 228.405964 20.4257455 228.125236 20.1988364 227.973964 19.7275636L227.168145 17.1413818C227.102691 16.9028364 227.189964 16.8068364 227.4256 16.8490182 229.171055 16.9144727 230.883055 16.9144727 232.563055 16.8490182L232.563055 14.6221091zM233.338327 8.19010909L232.983418 9.87156364C232.229964 11.7435636 230.151418 12.9828364 226.747782 13.5879273 226.468509 13.5646545 226.318691 13.4570182 226.295418 13.2635636 226.295418 13.0061091 226.446691 12.8664727 226.747782 12.8432 227.371782 12.6701091 227.920145 12.4461091 228.394327 12.1639273 229.838691 11.4119273 230.656145 10.0882909 230.852509 8.19010909L229.171055 8.19010909 227.299055 8.44901818C227.102691 8.49410909 226.995055 8.44901818 226.974691 8.32101818L226.650327 7.25483636C226.631418 7.12392727 226.747782 7.08174545 227.005236 7.12392727L229.171055 7.35229091 232.531055 7.35229091 232.531055 4.89410909 230.691055 4.89410909 228.814691 5.15301818C228.599418 5.19810909 228.483055 5.15301818 228.459782 5.02501818L228.170327 3.95738182C228.147055 3.82938182 228.256145 3.7872 228.491782 3.82938182L230.691055 4.05629091 232.531055 4.05629091 232.531055 1.1472C232.531055.997381818 232.596509.942109091 232.724509.985745455L235.344145 1.43665455C236.1616 1.56756364 236.571782 1.86865455 236.571782 2.34283636 236.548509 2.92610909 236.151418 3.26938182 235.374691 3.37701818 235.182691 3.39738182 235.085236 3.49629091 235.085236 3.66792727L235.085236 4.05629091 236.020509 4.05629091 237.764509 2.18138182C237.851782 2.07374545 237.979782 2.07374545 238.152873 2.18138182L240.384145 3.89483636C240.685236 4.11010909 240.792873 4.33556364 240.704145 4.57410909 240.596509 4.74429091 240.384145 4.85192727 240.059782 4.89410909L235.085236 4.89410909 235.085236 7.35229091 236.763782 7.35229091 238.638691 5.24901818C238.789964 5.07883636 238.948509 5.07883636 239.1216 5.24901818L241.642327 7.18938182C241.943418 7.38283636 242.051055 7.59956364 241.965236 7.8352 241.880873 8.02865455 241.6656 8.14792727 241.320873 8.19010909L237.764509 8.19010909 237.764509 9.16174545C237.764509 9.50501818 237.883782 9.74065455 238.122327 9.87156364 238.8976 10.1726545 239.723782 10.1610182 240.608145 9.83810909 240.846691 9.79447273 241.124509 9.4512 241.448873 8.80392727 241.534691 8.50283636 241.684509 8.37483636 241.901236 8.41701818 242.139782 8.46065455 242.256145 8.66429091 242.256145 9.03083636L242.256145 9.83810909C242.7536 10.0330182 243.000873 10.3777455 243.000873 10.8722909 243.000873 11.2810182 242.730327 11.6155636 242.1936 11.8744727 241.352873 12.1537455 240.295418 12.2948364 239.0256 12.2948364 237.323782 12.2526545 236.2896 11.9719273 235.923055 11.4541091 235.579782 11.0032 235.406691 10.3661091 235.406691 9.5472L235.406691 8.19010909 233.338327 8.19010909zM278.735855 13.6501818C277.119855 21.7927273 272.392582 27.5018182 264.551127 30.7745455 264.312582 30.84 264.154036 30.7978182 264.065309 30.648 263.980945 30.408 264.053673 30.2465455 264.292218 30.1621818 267.221673 28.4370909 269.883491 26.1214545 272.273309 23.2152727 274.491491 20.2858182 275.946036 16.3323636 276.636945 11.3578182L266.523491 11.3578182 264.648582 11.5847273C264.455127 11.6269091 264.346036 11.5847273 264.324218 11.4538182L264.002764 10.3890909C263.980945 10.2581818 264.098764 10.216 264.357673 10.2581818L266.523491 10.4850909 276.764945 10.4850909C277.066036 8.18109091 277.215855 5.02472727 277.215855 1.01890909 277.215855.780363636 277.313309.684363636 277.508218.726545455L280.511855 1.14690909C281.287127 1.256 281.676945 1.58763636 281.676945 2.15054545 281.653673 2.68727273 281.189673 3.01163636 280.2864 3.11927273 280.071127 3.13818182 279.963491 3.23854545 279.963491 3.40872727 279.770036 6.05890909 279.543127 8.41672727 279.284218 10.4850909L287.394764 10.4850909 289.301673 8.32072727C289.451491 8.14763636 289.6144 8.14763636 289.784582 8.32072727L292.500218 10.3236364C292.801309 10.5389091 292.908945 10.7643636 292.821673 11.0029091 292.735855 11.1963636 292.520582 11.3156364 292.175855 11.3578182L279.477673 11.3578182C281.6304 20.2101818 286.210764 25.6385455 293.210036 27.6414545 293.468945 27.7069091 293.585309 27.8683636 293.564945 28.1272727 293.522764 28.3207273 293.361309 28.4370909 293.079127 28.4821818 291.852945 28.6101818 291.066036 29.1381818 290.721309 30.0647273 290.613673 30.2581818 290.452218 30.3003636 290.2384 30.1927273 289.439855 29.7636364 288.687855 29.2894545 287.975127 28.7716364 283.194036 25.0450909 280.145309 19.8349091 278.831855 13.1338182L278.735855 13.6501818zM317.764364 4.15301818L316.020364 4.41192727C315.738182 4.51956364 315.588364 4.50792727 315.568 4.37701818L315.341091 3.24683636C315.298909 3.11883636 315.383273 3.07665455 315.6 3.11883636L317.764364 3.31229091 326.715636 3.31229091 328.394182 1.56829091C328.568727 1.3952 328.738909 1.40538182 328.912 1.59883636L330.656 3.31229091C331.130182 3.65556364 331.301818 4.05701818 331.173818 4.50792727 331.066182 4.89483636 330.688 5.11010909 330.042182 5.15229091 329.848727 5.15229091 329.741091 5.27301818 329.719273 5.50865455 329.394909 7.98574545 329.008 9.6672 328.557091 10.5501091 327.847273 11.7981091 326.434909 12.5195636 324.324364 12.7159273 324.301091 11.5304727 323.818182 10.6475636 322.869818 10.0642909 322.525091 9.93483636 322.405818 9.74138182 322.514909 9.48247273 322.622545 9.22356364 322.804364 9.15083636 323.061818 9.25847273 324.011636 9.55956364 324.690909 9.67592727 325.099636 9.61338182 325.636364 9.44029091 326.045091 9.12756364 326.327273 8.6752 326.778182 7.83447273 327.037091 6.32901818 327.102545 4.15301818L322.321455 4.15301818C322.082909 6.56465455 321.480727 8.43956364 320.512 9.77483636 319.284364 11.4548364 317.787636 12.4657455 316.020364 12.8119273 315.738182 12.8541091 315.588364 12.8119273 315.568 12.6810182 315.480727 12.4453818 315.556364 12.2839273 315.793455 12.1981091 318.098909 10.9486545 319.466182 8.26647273 319.898182 4.15301818L317.764364 4.15301818zM317.505455 23.3428364L315.633455 23.6017455C315.437091 23.6250182 315.329455 23.5813818 315.310545 23.4737455L314.986182 22.3741091C314.962909 22.2664727 315.082182 22.2242909 315.341091 22.2461091L317.505455 22.4715636 321.511273 22.4715636 321.511273 17.6584727 318.119273 17.6584727C317.281455 18.9937455 316.417455 19.9828364 315.534545 20.6301091 315.383273 20.7581091 315.243636 20.7581091 315.117091 20.6301091 314.986182 20.5224727 315.008 20.3712 315.179636 20.1792 316.020364 18.8628364 316.709818 16.4628364 317.248 12.9733818 317.269818 12.8002909 317.344 12.7348364 317.474909 12.7784727L320.059636 13.3602909C320.638545 13.5115636 320.897455 13.8228364 320.834909 14.2984727 320.769455 14.6839273 320.402909 14.8802909 319.735273 14.8802909 319.543273 14.8802909 319.434182 14.9341091 319.412364 15.0388364L318.574545 16.8177455 321.511273 16.8177455 321.511273 12.5530182C321.492364 12.4032 321.565091 12.3493818 321.738182 12.3915636L324.226909 12.8744727C325.045818 13.0053818 325.454545 13.3486545 325.454545 13.9086545 325.454545 14.4482909 325.076364 14.8032 324.324364 14.9762909 324.107636 15.0199273 324 15.1392 324 15.3326545L324 16.8177455 324.744727 16.8177455 326.650182 14.8468364C326.820364 14.6301091 327.025455 14.6417455 327.264 14.8802909L329.752727 16.7217455C329.988364 16.8715636 330.097455 17.0766545 330.074182 17.3355636 330.011636 17.5086545 329.815273 17.6162909 329.493818 17.6584727L324 17.6584727 324 22.4715636 325.874909 22.4715636 327.716364 20.4032C327.866182 20.2330182 328.029091 20.2330182 328.202182 20.4032L330.721455 22.3086545C331.045818 22.5253818 331.162182 22.7522909 331.076364 22.9879273 330.968727 23.1813818 330.741818 23.3006545 330.398545 23.3428364L324 23.3428364 324 30.0337455C324.023273 30.3115636 323.892364 30.5399273 323.613091 30.7101091 323.031273 30.9690182 322.449455 30.9908364 321.869091 30.7755636 321.630545 30.6475636 321.511273 30.4628364 321.511273 30.2272L321.511273 23.3428364 317.505455 23.3428364zM310.074182 20.9530182L311.949091 20.9530182 311.949091 16.0104727 310.074182 16.0104727 310.074182 20.9530182zM310.074182 15.1697455L311.949091 15.1697455 311.949091 10.5821091 310.074182 10.5821091 310.074182 15.1697455zM307.716364 10.5821091L306.133818 10.5821091 305.744 10.6475636 305.744 15.1697455 307.716364 15.1697455 307.716364 10.5821091zM307.716364 20.9544727L307.716364 16.0104727 305.744 16.0104727 305.744 17.5930182 305.52 20.9544727 307.716364 20.9544727zM308.202182 9.74138182C308.932364 8.1472 309.514182 6.57629091 309.946182 5.02574545L308.167273 5.02574545 307.102545 5.15229091C306.241455 6.85410909 305.370182 8.17047273 304.485818 9.09556364L305.744 9.74138182 306.133818 9.74138182 308.202182 9.74138182zM301.773091 30.6781091C301.6 30.8715636 301.415273 30.9253818 301.221818 30.8410182 301.093818 30.7319273 301.082182 30.5704727 301.189818 30.3552 302.568727 27.3399273 303.258182 23.0853818 303.258182 17.5930182L303.258182 10.2926545 301.480727 11.5188364C301.307636 11.5842909 301.179636 11.5741091 301.093818 11.4853818 301.006545 11.3341091 301.255273 10.9908364 301.835636 10.4512 304.312727 7.76029091 305.552 4.68101818 305.552 1.21338182 305.573818.954472727 305.671273.846836364 305.844364.889018182L308.298182 1.30938182C309.073455 1.41701818 309.448727 1.68756364 309.429818 2.11665455 309.406545 2.5472 309.019636 2.81774545 308.267636 2.92538182 308.071273 2.96901818 307.963636 3.07665455 307.943273 3.24683636L307.553455 4.15301818 308.167273 4.18356364 309.525818 4.18356364 310.884364 2.66792727C311.010909 2.47156364 311.162182 2.46283636 311.335273 2.63301818L313.338182 4.50792727C313.832727 4.89483636 313.994182 5.30356364 313.824 5.73556364 313.627636 6.10210909 313.210182 6.24174545 312.562909 6.15592727 312.304 6.09047273 312.034909 6.20974545 311.755636 6.51083636L309.138909 9.74138182 311.463273 9.74138182 313.079273 8.25483636C313.210182 8.12683636 313.361455 8.1472 313.531636 8.32029091L315.082182 9.87229091C316.050909 10.8410182 315.901091 11.4432 314.631273 11.6817455 314.456727 11.7006545 314.392727 11.7661091 314.437818 11.8752L314.437818 28.5457455C314.437818 28.9995636 314.178909 29.4824727 313.662545 30.0002909 313.188364 30.4512 312.327273 30.7435636 311.076364 30.8715636L310.786909 29.6439273C310.548364 29.2133818 309.988364 28.7726545 309.105455 28.3202909 308.846545 28.2126545 308.772364 28.0613818 308.88 27.8693818 308.944 27.6730182 309.073455 27.5988364 309.266909 27.6410182 310.235636 27.8781091 310.992 27.9653818 311.528727 27.8999273 311.809455 27.8155636 311.949091 27.6526545 311.949091 27.4141091L311.949091 21.8257455 305.389091 21.8257455C304.894545 25.5959273 303.687273 28.5457455 301.773091 30.6781091L301.773091 30.6781091zM355.019927 13.2325818L354.793018 16.7860364C354.233018 23.4856727 352.369745 28.0936727 349.201745 30.6129455 348.942836 30.7642182 348.750836 30.7642182 348.622836 30.6129455 348.513745 30.4398545 348.557382 30.2813091 348.750836 30.1300364L350.074473 27.7693091C351.755927 24.2158545 352.585018 18.4224 352.5632 10.3889455L352.5632 6.05876364 352.5632 3.63549091C352.585018 3.3344 352.713018 3.25876364 352.951564 3.40858182L355.147927 4.76712727C359.585745 3.90603636 362.7072 2.84858182 364.516655 1.59912727 364.841018 1.32130909 365.056291 1.23258182 365.165382 1.34021818L367.264291 2.72930909C367.738473 3.05367273 367.878109 3.45076364 367.684655 3.9264 367.425745 4.29294545 366.983564 4.36858182 366.361018 4.15330909 366.080291 4.0224 365.833018 4.01076364 365.616291 4.1184 362.730473 5.02458182 359.207564 5.53076364 355.050473 5.6384L355.050473 10.3889455 355.050473 12.3918545 362.289745 12.3918545 364.3552 10.2274909C364.570473 10.0107636 364.798836 10.0107636 365.034473 10.2274909L367.846109 12.2944C368.0832 12.4660364 368.190836 12.6696727 368.167564 12.9082182 368.105018 13.0813091 367.920291 13.1874909 367.6192 13.2325818L363.547927 13.2325818 363.547927 30.2580364C363.547927 30.4747636 363.386473 30.6784 363.062109 30.8718545 362.525382 31.1307636 361.985745 31.1642182 361.449018 30.9678545 361.147927 30.8602182 361.005382 30.6987636 361.028655 30.4849455L361.028655 13.2325818 355.019927 13.2325818zM346.327564 30.2929455C346.349382 30.5707636 346.230109 30.7976727 345.9712 30.9678545 345.369018 31.2267636 344.775564 31.2500364 344.196655 31.0333091 343.958109 30.9053091 343.838836 30.7104 343.838836 30.4514909L343.838836 15.3969455C342.849745 18.7787636 341.275927 21.5874909 339.121745 23.8289455 338.841018 24.0020364 338.628655 24.0107636 338.477382 23.8609455 338.304291 23.7096727 338.334836 23.4740364 338.573382 23.1496727 340.746473 19.8973091 342.494836 15.3751273 343.806836 9.57876364L341.610473 9.57876364 339.542109 9.83767273C339.392291 9.88276364 339.303564 9.86094545 339.284655 9.77512727L338.9952 8.64494545C338.971927 8.51403636 339.0912 8.47185455 339.350109 8.51403636L341.610473 8.74094545 343.838836 8.74094545 343.838836 1.30967273C343.818473 1.1584 343.892655 1.10458182 344.065745 1.14676364L346.554473 1.66458182C347.371927 1.79258182 347.782109 2.12712727 347.782109 2.66676364 347.782109 3.20349091 347.403927 3.55985455 346.650473 3.73294545 346.4352 3.77512727 346.327564 3.8944 346.327564 4.08785455L346.327564 8.74094545 347.588655 8.74094545 348.942836 6.80058182C349.073745 6.6304 349.225018 6.63912727 349.398109 6.83549091L351.0112 8.77294545C351.227927 8.94603636 351.303564 9.11621818 351.238109 9.28930909 351.153745 9.48276364 350.999564 9.57876364 350.7872 9.57876364L346.327564 9.57876364 346.327564 11.9060364C346.9952 12.2304 347.696291 12.6929455 348.426473 13.2951273 350.128291 14.7816727 350.9152 16.0427636 350.7872 17.0769455 350.742109 17.4624 350.528291 17.7751273 350.139927 18.0136727 349.7952 18.1416727 349.428655 18.1213091 349.0432 17.9482182 348.761018 17.7984 348.513745 17.5278545 348.298473 17.1424 347.264291 14.9227636 346.608291 13.6194909 346.327564 13.2325818L346.327564 30.2929455z"/>
  </g>
</svg>
