<svg xmlns="http://www.w3.org/2000/svg" width="710" height="22" viewBox="0 0 710 22">
  <g fill="#221F20" fill-rule="evenodd">
    <path d="M8.0528 18.0711C9.2508 18.0711 10.0328 17.9151 10.5008 17.4991 10.9958 17.0551 11.1788 16.7171 11.3348 16.4301 11.5178 16.3521 11.8038 16.4301 11.9078 16.5871 11.5698 17.8891 11.1008 19.2441 10.7098 19.7641 9.6418 19.7131 8.5478 19.6861 7.3498 19.6861L3.5728 19.6861C2.1138 19.6861 1.2548 19.7131.6818 19.7641.6298 19.7381.4988 19.6341.4988 19.4251.4988 19.3471.6298 19.2441.7858 19.1391 1.9848 18.3581 2.8438 17.4721 4.7718 15.3881 6.4908 13.5391 8.4958 11.0121 8.4958 8.2251 8.4958 5.8551 7.3498 4.4231 5.2398 4.4231 3.6768 4.4231 2.5578 5.4911 1.8538 7.0271 1.6188 7.1581 1.2288 7.0271 1.2288 6.6891 2.0628 4.3971 4.1198 3.0161 6.4638 3.0161 9.0698 3.0161 10.7618 4.7611 10.7618 7.2621 10.7618 8.8771 10.0068 10.6481 7.9748 12.9921L6.3858 14.8151C4.2498 17.2641 4.0158 17.6801 4.0158 17.8371 4.0158 18.0191 4.1468 18.0711 4.8228 18.0711L8.0528 18.0711zM31.795 11.8201C31.795 7.5221 29.894 2.8861 24.919 2.8861 22.21 2.8861 18.693 4.7351 18.693 10.4391 18.693 14.2951 20.568 19.2961 25.7 19.2961 28.825 19.2961 31.795 16.9511 31.795 11.8201M16.089 11.2731C16.089 6.0641 19.996 2.0791 25.361 2.0791 31.378 2.0791 34.399 6.4281 34.399 11.0121 34.399 16.2741 30.389 20.1031 25.361 20.1031 19.579 20.1031 16.089 15.9621 16.089 11.2731M43.3751 7.653C43.3751 5.882 43.2971 5.308 42.1251 5.204L40.8741 5.1C40.6661 4.996 40.6401 4.632 40.8491 4.527 43.0361 4.136 44.4691 3.459 45.1461 3.016 45.2501 3.016 45.3551 3.068 45.4061 3.146 45.3551 3.615 45.3031 4.918 45.3031 6.402L45.3031 16.509C45.3031 18.514 45.3551 18.957 46.4221 19.035L47.5171 19.113C47.6731 19.269 47.6461 19.686 47.4641 19.764 46.4481 19.713 45.2761 19.686 44.3641 19.686 43.4271 19.686 42.2551 19.713 41.2391 19.764 41.0571 19.686 41.0301 19.269 41.1871 19.113L42.2551 19.035C43.3491 18.957 43.3751 18.514 43.3751 16.509L43.3751 7.653zM56.8018 4.9959C55.3438 4.9959 54.7708 5.0739 54.0158 6.3239 53.8328 6.4019 53.5728 6.3499 53.4678 6.1159 53.7288 5.4129 54.1188 4.2929 54.3538 3.3029 54.7708 3.3549 55.6828 3.3809 57.1158 3.3809L61.5168 3.3809C62.9498 3.3809 64.6948 3.3809 65.0068 3.3029 65.1118 3.3289 65.1898 3.4339 65.1898 3.5369 64.4598 4.6569 63.7048 6.0379 62.7418 7.9909L56.0988 21.3529C55.6828 21.4049 55.2918 21.1969 55.2138 20.8579L62.5848 5.9599C62.9758 5.1789 62.8448 4.9959 62.0118 4.9959L56.8018 4.9959zM79.7383 7.7078C80.5163 11.0288 81.8453 13.4568 83.9063 15.5408 85.5323 17.2358 87.6623 18.4038 89.7233 19.1828 89.8383 19.2288 89.7923 19.3888 89.6773 19.4348 89.0363 19.6638 88.7613 19.9838 88.4873 20.7168 88.3953 20.9688 88.2813 21.0838 88.1203 21.0838 87.9143 21.0838 87.5253 20.8778 86.9063 20.4648 85.2583 19.4118 83.6543 17.8308 82.6003 16.4108 81.0663 14.3728 79.9443 11.6468 79.3483 8.1428 78.8673 11.6928 77.9513 14.0068 76.4173 15.9988 74.6073 18.3578 72.2943 20.0068 68.7903 21.2438 68.6303 21.2898 68.4923 20.9688 68.6303 20.8998 72.1573 19.0448 74.3553 16.7548 75.8893 13.8228 76.7153 12.2428 77.2873 10.3188 77.6073 7.7078L71.1033 7.7078C70.4393 7.7078 69.9583 7.7538 69.2023 7.8458L68.9733 6.9758C69.8203 7.0898 70.3933 7.1358 71.1263 7.1358L77.6533 7.1358C77.7913 5.8068 77.8593 4.2958 77.8593 2.5778 77.8593 1.9818 77.8373 1.6148 77.7683.9048 80.1043 1.2488 80.4703 1.3868 80.4703 1.7068 80.4703 1.9128 80.3563 2.0508 79.6923 2.3258 79.6923 3.2188 79.6693 4.0658 79.6233 4.8678 79.5773 5.6698 79.5313 6.4258 79.4633 7.1358L85.9443 7.1358C87.0673 5.7838 87.2273 5.6458 87.3643 5.6458 87.5253 5.6458 87.7313 5.7838 88.8763 6.7238 89.3803 7.1578 89.4953 7.3418 89.4953 7.4788 89.4953 7.6398 89.4263 7.7078 89.1973 7.7078L79.7383 7.7078zM106.1358 6.8142C106.1818 6.3792 106.2038 5.8982 106.2038 5.2802 106.2038 4.7082 106.1818 4.4322 106.1128 3.7222 107.8758 3.9062 108.0818 3.9742 108.0818 4.2502 108.0818 4.3862 108.0358 4.4562 107.4878 4.7082 107.4878 5.5782 107.4418 6.2642 107.3498 6.8142L109.0898 6.8142 109.0898 5.6002C109.0898 5.1422 109.0898 4.9142 109.0218 4.3862 110.5788 4.5462 110.9228 4.6382 110.9228 4.8682 110.9228 5.0052 110.8078 5.1202 110.3728 5.3262L110.3728 5.7602C110.3728 6.8372 110.4188 7.3182 110.4188 7.4562 110.4188 7.8222 110.1208 7.9822 109.6628 7.9822 109.2738 7.9822 109.0898 7.8682 109.0898 7.5702L109.0898 7.3872 107.2118 7.3872C106.8918 8.3722 106.2958 8.9212 105.2198 9.4942 105.1278 9.5402 104.9448 9.4252 105.0138 9.3342 105.5858 8.6922 105.9058 8.1662 106.0668 7.3872L104.4638 7.3872 104.4638 7.6392C104.4638 7.9822 104.2118 8.1662 103.7308 8.1662 103.3188 8.1662 103.1808 8.0282 103.1808 7.7302 103.1808 7.5702 103.2038 7.0432 103.2038 5.7602 103.2038 5.3722 103.2038 5.1662 103.1808 4.9362 102.7458 5.3482 102.2418 5.7602 101.6688 6.1502 101.5548 6.2192 101.3488 6.0582 101.4408 5.9442 102.4248 4.8222 103.2268 3.4482 103.7308 2.2342 104.0288 1.5242 104.2348.9282 104.2808.4012 105.9298.8372 106.3648.9512 106.3648 1.2032 106.3648 1.4322 106.2498 1.5242 105.5398 1.6382 105.3798 1.9592 105.2198 2.2802 105.0358 2.5782L111.8618 2.5782C112.4338 1.9592 112.5258 1.8672 112.7088 1.8672 112.8688 1.8672 112.9838 1.9362 113.6248 2.4402 113.9228 2.7142 114.0148 2.8522 114.0148 3.0122 114.0148 3.1722 113.9228 3.3102 113.4418 3.6082 113.3728 5.7842 113.1438 7.7302 112.7318 8.8072 112.5258 9.2882 112.2508 9.6092 111.9298 9.8612 111.5868 10.1132 111.1288 10.2502 110.6478 10.2502 110.4188 10.2502 110.3498 10.2042 110.3038 9.8612 110.2118 9.3792 109.8688 9.1732 108.7238 8.8992 108.6098 8.8762 108.6098 8.6242 108.7238 8.6242 109.8688 8.7382 110.3268 8.7842 110.7158 8.7842 111.1518 8.7842 111.3348 8.5092 111.5638 7.4562 111.7928 6.5162 111.9298 5.1882 111.9758 3.1502L104.6928 3.1502C104.3718 3.6302 104.0058 4.0882 103.6158 4.5012 104.8528 4.6162 105.0138 4.6842 105.0138 4.9142 105.0138 5.0742 104.8988 5.1662 104.4638 5.3722L104.4638 6.8142 106.1358 6.8142zM106.0898 15.1512C106.1818 14.6932 106.2038 14.1672 106.2038 13.5932 106.2038 13.0672 106.1578 12.2652 106.1128 11.7852 107.7158 11.9452 108.0818 12.0592 108.0818 12.3352 108.0818 12.4712 107.9908 12.5632 107.4638 12.7692 107.4878 13.6852 107.4418 14.4872 107.3038 15.1512L109.1818 15.1512 109.1818 14.0522C109.1818 13.4112 109.1588 13.0902 109.1128 12.6092 110.7618 12.7692 111.0138 12.8382 111.0138 13.0902 111.0138 13.2272 110.9228 13.3192 110.4878 13.5022L110.4878 14.0062C110.4878 15.1512 110.5328 15.6092 110.5328 15.7472 110.5328 16.0902 110.2118 16.2512 109.7318 16.2512 109.3418 16.2512 109.1818 16.1132 109.1818 15.8152L109.1818 15.7242 107.1438 15.7242C106.6858 17.1902 105.6778 18.0602 103.8678 18.7242 103.7768 18.7472 103.6618 18.5642 103.7308 18.5182 104.8988 17.7392 105.6088 16.9152 105.9518 15.7242L104.3488 15.7242 104.3488 16.1822C104.3488 16.5482 104.0968 16.7092 103.6158 16.7092 103.2038 16.7092 103.0668 16.5712 103.0668 16.2732 103.0668 16.1822 103.0898 15.8152 103.0898 14.8992 103.0898 13.8912 103.0898 13.3652 103.0208 12.8832 102.4248 13.5482 101.7148 14.1432 100.9128 14.6712 100.7988 14.7392 100.6158 14.5332 100.7068 14.4412 101.1888 13.9152 101.6238 13.3652 101.9668 12.8382L99.1508 12.8382 99.1508 17.7852C100.7068 18.7702 102.7458 19.2962 106.4338 19.2962 109.7538 19.2962 112.1128 19.1822 114.9768 18.8622 115.0908 18.8382 115.0908 19.0902 114.9988 19.1362 114.3578 19.4802 114.2208 19.7092 114.1518 20.3962 114.1058 20.6942 114.0148 20.7862 113.6248 20.8082 112.5028 20.8772 110.4418 20.9002 107.8538 20.9002 102.4478 20.9002 100.4328 20.3282 98.6228 18.7472 97.3628 17.6942 96.5388 16.5022 95.8978 14.6932 95.4628 17.1212 94.6378 19.1602 93.2408 21.0142 93.1498 21.1292 92.8978 20.9682 92.9438 20.8542 94.1118 18.2892 94.5698 15.1052 94.7758 12.0832 94.8218 11.5092 94.7978 10.8452 94.7528 10.2962 96.5158 10.6172 96.9508 10.7542 96.9508 11.0052 96.9508 11.1662 96.8828 11.2572 96.2868 11.5332 96.2408 12.3352 96.1498 13.0672 96.0578 13.8002 96.4468 14.7852 96.9748 15.7472 97.6848 16.5482L97.6848 8.7612 94.9358 8.7612C94.5238 8.7612 94.2028 8.7842 93.6298 8.8992L93.4018 8.0282C93.9968 8.1432 94.3858 8.1892 94.9128 8.1892L97.4328 8.1892 97.4328 4.7302 95.6918 4.7302C95.2798 4.7302 94.9818 4.7542 94.4548 4.8682L94.2028 3.9982C94.7978 4.1122 95.1418 4.1582 95.6688 4.1582L97.4328 4.1582 97.4328 3.1722C97.4328 2.1192 97.4088 1.3642 97.3178.4702 99.3788.6992 99.6548.8822 99.6548 1.1122 99.6548 1.2722 99.5628 1.4322 98.9448 1.6612L98.9448 4.1582 99.9058 4.1582C100.5708 3.3102 100.7308 3.1962 100.8678 3.1962 101.0048 3.1962 101.1648 3.3102 101.8758 3.9522 102.1508 4.1802 102.2648 4.3642 102.2648 4.5012 102.2648 4.6622 102.1968 4.7302 101.9668 4.7302L98.9448 4.7302 98.9448 8.1892 100.1348 8.1892C100.7768 7.2962 100.9368 7.2042 101.0968 7.2042 101.2568 7.2042 101.3948 7.2962 102.1728 7.9602 102.4708 8.2122 102.5858 8.3952 102.5858 8.5322 102.5858 8.6692 102.5168 8.7612 102.2878 8.7612L99.1508 8.7612 99.1508 12.2652 99.9058 12.2652C100.5468 11.3492 100.7068 11.2352 100.8448 11.2352 100.9828 11.2352 101.1428 11.3492 101.8988 12.0592 102.0588 12.2432 102.1728 12.3792 102.1968 12.4952 102.5628 11.9212 102.8608 11.3732 103.0668 10.8452 103.3188 10.2502 103.5018 9.6772 103.5708 9.2192 105.1508 9.5852 105.4718 9.7232 105.4718 9.9522 105.4718 10.1592 105.3338 10.2502 104.7838 10.2962 104.7158 10.4332 104.6468 10.5472 104.5778 10.6852L112.0448 10.6852C112.6398 10.0892 112.7548 10.0212 112.9148 10.0212 113.0528 10.0212 113.1898 10.0892 113.7848 10.5712 114.0608 10.8232 114.1518 10.9602 114.1518 11.0972 114.1518 11.2352 114.0608 11.3492 113.6028 11.6932 113.4878 13.9602 113.3268 15.6092 113.0298 16.6402 112.8228 17.4182 112.5718 17.9222 112.2048 18.1982 111.8388 18.5182 111.3348 18.6322 110.8538 18.6322 110.5788 18.6322 110.5328 18.5872 110.4878 18.3122 110.4418 17.8312 110.1208 17.5792 108.7698 17.3272 108.6558 17.3042 108.6558 17.0522 108.7698 17.0522 109.9378 17.1442 110.4638 17.1672 110.7618 17.1672 111.2658 17.1672 111.4488 17.0062 111.6548 16.0672 111.8848 15.1052 112.0218 13.7092 112.1128 11.2572L104.2578 11.2572C103.9368 11.7612 103.6158 12.2432 103.2268 12.6772 104.7158 12.8152 104.8988 12.8832 104.8988 13.1132 104.8988 13.2512 104.8078 13.3412 104.3488 13.5252L104.3488 15.1512 106.0898 15.1512zM123.2344 9.7918L121.7684 9.7918C121.3564 9.7918 120.9444 9.8148 120.4174 9.9298L120.1884 9.0358C120.7604 9.1738 121.2184 9.2198 121.7684 9.2198L123.2344 9.2198 123.2344 8.9438C123.2344 8.3718 123.2344 7.9818 123.1664 7.4098 125.0444 7.6158 125.2274 7.7758 125.2274 7.9598 125.2274 8.0978 125.1124 8.2338 124.6774 8.3958L124.6774 9.2198 126.3494 9.2198C126.9444 8.5558 127.1054 8.4638 127.2194 8.4638 127.3804 8.4638 127.5404 8.5558 128.2274 9.1048 128.4334 9.2658 128.5484 9.4478 128.5484 9.5628 128.5484 9.7238 128.4794 9.7918 128.2504 9.7918L124.6774 9.7918 124.6774 11.5788C125.9374 11.3728 127.2884 11.1208 128.8234 10.7998 128.9374 10.7768 128.9834 11.0058 128.8694 11.0518 126.1894 12.1278 123.4404 12.8608 120.3944 13.4568 120.2804 13.9608 120.1424 14.1208 119.9824 14.1208 119.7984 14.1208 119.7074 14.0978 119.1574 12.0598 119.9364 12.0828 120.2804 12.0828 120.6924 12.0368 121.5404 11.9908 122.3644 11.8988 123.2344 11.7848L123.2344 9.7918zM133.7934 5.0508C133.6554 6.3098 133.3804 7.5478 132.8774 8.6918 134.1594 9.6318 134.8004 10.5478 134.8004 11.3498 134.8004 11.8538 134.4804 12.2888 134.0674 12.2888 133.7244 12.2888 133.5874 12.1048 133.1974 11.3038 132.9914 10.7768 132.6934 10.2268 132.3274 9.6998L132.2594 9.8148C131.3874 11.1438 130.2194 12.1278 128.2274 13.0208 129.9674 13.2268 130.4714 13.3648 130.4714 13.6168 130.4714 13.8688 130.2434 14.0288 129.6474 14.1888 129.6014 14.3958 129.5334 14.6248 129.4874 14.8308L135.0754 14.8308C135.7394 14.0748 135.8544 14.0068 136.0374 14.0068 136.1754 14.0068 136.3124 14.0748 137.0454 14.7628 137.3884 15.0828 137.4804 15.2208 137.4804 15.3568 137.4804 15.4948 137.3664 15.5868 136.8624 15.8848 136.6104 17.7848 136.3354 18.9308 135.9684 19.7548 135.6714 20.3508 135.3504 20.7168 134.8464 20.9688 134.4574 21.1518 133.9074 21.2668 133.4724 21.2668 133.1054 21.2668 132.9684 21.1978 132.9234 20.9458 132.8314 20.3048 132.3954 19.9608 130.5414 19.5258 130.3804 19.4798 130.4034 19.1598 130.5634 19.1828 132.1674 19.4118 132.8774 19.4798 133.6784 19.4798 134.2054 19.4798 134.4344 19.2508 134.6174 18.7248 134.8464 18.1058 135.0754 16.9608 135.2364 15.4028L129.3034 15.4028C127.9754 19.2968 124.6774 21.1058 119.0434 21.4958 118.9054 21.4958 118.8374 21.1978 118.9744 21.1748 123.8764 20.1218 126.4644 18.2208 127.5174 15.4028L121.9744 15.4028C121.3334 15.4028 120.8064 15.4268 120.1654 15.5628L119.9364 14.6708C120.7144 14.7848 121.2644 14.8308 121.9524 14.8308L127.7234 14.8308C127.8844 14.2808 127.9984 13.7088 128.0214 13.1128 127.8384 13.1818 127.6554 13.2728 127.4714 13.3418 127.3574 13.3878 127.2424 13.1588 127.3344 13.0908 129.3954 11.8758 130.4254 10.7998 131.1814 9.3568 131.2974 9.1278 131.4114 8.8988 131.5034 8.6468 131.1134 8.1888 130.6324 7.7538 130.1284 7.3638 130.0594 7.3178 130.1514 7.1118 130.2434 7.1578 130.7934 7.4338 131.2974 7.6848 131.7554 7.9598 132.0524 7.0208 132.2134 6.0358 132.3044 5.0508L131.8914 5.0508C131.1594 5.0738 130.7474 5.1198 130.2654 5.2338L130.0594 4.3638C130.6554 4.4558 131.0214 4.4788 131.8914 4.4788L132.3274 4.4788C132.3494 3.9978 132.3734 3.5168 132.3734 2.9668 132.3734 1.8668 132.3734 1.4788 132.2814.6988 134.4114.9048 134.5944.9748 134.5944 1.2948 134.5944 1.5008 134.4574 1.6608 133.9074 1.8908L133.9074 3.0808C133.9074 3.5848 133.8844 4.0438 133.8394 4.4788L135.3734 4.4788C135.9684 3.7918 136.0834 3.6998 136.2434 3.6998 136.3804 3.6998 136.4954 3.7918 137.0914 4.3178 137.4124 4.6388 137.5034 4.7758 137.5034 4.9138 137.5034 5.0738 137.4124 5.1878 136.9544 5.5318 136.9764 7.5938 137.0914 8.5558 137.3664 9.5178 137.5484 10.1358 137.7554 10.7538 138.0524 11.2118 138.2134 11.4408 138.3044 11.5098 138.3964 11.5098 138.5344 11.5098 138.7164 11.2118 139.3364 9.5858 139.3824 9.4718 139.5884 9.5858 139.5644 9.6998 139.3364 11.1208 139.2444 11.8538 139.2444 12.0138 139.2444 12.2658 139.2664 12.3348 139.5184 12.6318 139.6344 12.7688 139.7024 12.9758 139.7024 13.1358 139.7024 13.5028 139.4044 13.8228 138.9684 13.8228 138.6484 13.8228 138.2364 13.6168 137.8704 13.3188 137.0224 12.5628 136.4264 11.2348 136.0604 9.9518 135.6944 8.7158 135.5564 7.3878 135.5334 5.0508L133.7934 5.0508zM123.0964 5.5778C122.6164 7.5478 121.4484 8.5318 118.6534 9.2198 118.5394 9.2418 118.4254 8.9898 118.5394 8.9438 120.4174 8.1438 121.2644 7.1818 121.5624 5.5778L120.3024 5.5778C119.8674 5.5778 119.4784 5.6238 118.9744 5.7158L118.7454 4.8218C119.3184 4.9598 119.7764 5.0058 120.3264 5.0058L123.2804 5.0058 123.2804 3.2878 121.4024 3.2878C120.8984 3.2878 120.4634 3.3328 119.8904 3.4248L119.6384 2.5548C120.3264 2.6918 120.8064 2.7148 121.4024 2.7148L123.2804 2.7148 123.2804 2.0968C123.2804 1.6148 123.2574 1.2488 123.1664.5628 125.2044.8138 125.4334.9968 125.4334 1.2268 125.4334 1.4088 125.2724 1.5698 124.7464 1.7758L124.7464 2.7148 126.6474 2.7148C127.3344 1.8908 127.4944 1.7758 127.6324 1.7758 127.7924 1.7758 127.9524 1.8908 128.6854 2.4858 129.0294 2.7608 129.1434 2.9208 129.1434 3.0588 129.1434 3.2188 129.0754 3.2878 128.8234 3.2878L124.7464 3.2878 124.7464 5.0058 127.5174 5.0058C128.1814 4.2038 128.3654 4.0888 128.5024 4.0888 128.6394 4.0888 128.8004 4.2038 129.5554 4.7988 129.8314 5.0278 129.9454 5.2338 129.9454 5.3718 129.9454 5.5098 129.8764 5.5778 129.6474 5.5778L126.5784 5.5778 126.5784 6.4718C126.5784 6.8598 126.7384 6.9518 127.4034 6.9518 127.9074 6.9518 128.1594 6.9058 128.3194 6.7688 128.4794 6.6318 128.5934 6.2648 128.7084 5.8978 128.7314 5.8068 128.9144 5.8298 128.9144 5.9218 128.8914 6.1038 128.8914 6.3098 128.8914 6.4718 128.8914 6.5858 128.9834 6.6538 129.1434 6.6998 129.3954 6.7918 129.4644 6.9518 129.4644 7.2268 129.4644 7.5698 129.2574 7.7298 128.8234 7.8458 128.4794 7.9378 127.9294 7.9818 127.1284 7.9818 125.7084 7.9818 125.2504 7.6618 125.2504 6.7688 125.2504 6.6078 125.2724 6.4258 125.2724 6.1038L125.2724 5.5778 123.0964 5.5778z"/>
    <polygon points="171.81 4 171.81 10.802 178.589 10.802 178.589 11.81 171.81 11.81 171.81 18.635 170.779 18.635 170.779 11.81 164 11.81 164 10.802 170.779 10.802 170.779 4"/>
    <g transform="translate(203)">
      <path d="M3.5528 8.0837C3.5528 6.3127 3.4748 5.7387 2.3028 5.6347L1.0518 5.5307C.8438 5.4267.8178 5.0627 1.0268 4.9577 3.2138 4.5667 4.6468 3.8897 5.3228 3.4467 5.4278 3.4467 5.5328 3.4987 5.5838 3.5767 5.5328 4.0457 5.4808 5.3487 5.4808 6.8327L5.4808 16.9387C5.4808 18.9447 5.5328 19.3877 6.5998 19.4657L7.6948 19.5437C7.8508 19.6997 7.8238 20.1167 7.6418 20.1947 6.6258 20.1437 5.4538 20.1167 4.5418 20.1167 3.6048 20.1167 2.4328 20.1437 1.4168 20.1947 1.2348 20.1167 1.2078 19.6997 1.3638 19.5437L2.4328 19.4657C3.5268 19.3877 3.5528 18.9447 3.5528 16.9387L3.5528 8.0837zM21.1212 18.5017C22.3192 18.5017 23.1002 18.3457 23.5692 17.9297 24.0642 17.4857 24.2472 17.1477 24.4032 16.8607 24.5862 16.7827 24.8722 16.8607 24.9762 17.0177 24.6382 18.3197 24.1692 19.6747 23.7782 20.1947 22.7102 20.1437 21.6162 20.1167 20.4182 20.1167L16.6412 20.1167C15.1822 20.1167 14.3232 20.1437 13.7502 20.1947 13.6982 20.1687 13.5672 20.0647 13.5672 19.8557 13.5672 19.7777 13.6982 19.6747 13.8542 19.5697 15.0532 18.7887 15.9122 17.9027 17.8402 15.8187 19.5592 13.9697 21.5642 11.4427 21.5642 8.6557 21.5642 6.2857 20.4182 4.8537 18.3082 4.8537 16.7452 4.8537 15.6262 5.9217 14.9222 7.4577 14.6872 7.5887 14.2972 7.4577 14.2972 7.1197 15.1312 4.8277 17.1882 3.4467 19.5322 3.4467 22.1382 3.4467 23.8302 5.1917 23.8302 7.6927 23.8302 9.3077 23.0752 11.0787 21.0432 13.4227L19.4542 15.2457C17.3182 17.6947 17.0842 18.1107 17.0842 18.2677 17.0842 18.4497 17.2152 18.5017 17.8912 18.5017L21.1212 18.5017zM35.914 8.757L46.473 8.757 46.473 6.055 35.914 6.055 35.914 8.757zM35.914 5.481L46.473 5.481 46.473 2.847 35.914 2.847 35.914 5.481zM35.914 9.49C35.914 10.016 35.639 10.222 34.952 10.222 34.379 10.222 34.196 10.086 34.196 9.582 34.196 9.032 34.265 8.161 34.265 4.977 34.265 3.26 34.265 2.413 34.173 1.336 35.021 1.679 35.364 1.84 36.143 2.275L46.289 2.275C46.977 1.497 47.091 1.405 47.229 1.405 47.389 1.405 47.526 1.497 48.259 2.092 48.671 2.413 48.74 2.527 48.74 2.665 48.74 2.847 48.648 3.009 48.121 3.305L48.121 4.909C48.121 7.795 48.19 9.238 48.19 9.65 48.19 10.176 47.869 10.452 47.159 10.452 46.679 10.452 46.473 10.292 46.473 9.834L46.473 9.33 35.914 9.33 35.914 9.49zM48.648 20.415C49.679 19.247 49.839 19.133 49.977 19.133 50.137 19.133 50.297 19.247 51.328 20.094 51.763 20.507 51.878 20.643 51.878 20.781 51.878 20.919 51.786 20.987 51.58 20.987L32.822 20.987C32.341 20.987 31.951 21.033 31.356 21.125L31.127 20.231C31.769 20.369 32.181 20.415 32.776 20.415L40.472 20.415 40.472 17.048 36.006 17.048C35.548 17.048 35.204 17.093 34.631 17.208L34.379 16.315C35.021 16.429 35.41 16.475 35.96 16.475L40.472 16.475 40.472 13.475 35.96 13.475C34.929 14.918 33.486 16.338 31.929 17.277 31.814 17.345 31.608 17.139 31.699 17.048 33.005 15.788 34.082 14.048 34.769 12.558 35.112 11.758 35.364 11.002 35.433 10.406 37.402 10.886 37.814 11.024 37.814 11.3 37.814 11.528 37.608 11.688 36.944 11.803 36.784 12.17 36.578 12.536 36.349 12.902L40.472 12.902C40.472 11.712 40.449 10.886 40.357 9.97 42.579 10.2 42.831 10.383 42.831 10.634 42.831 10.841 42.693 10.978 42.098 11.23L42.098 12.902 46.953 12.902C47.961 11.78 48.121 11.688 48.259 11.688 48.419 11.688 48.625 11.78 49.633 12.604 50.091 12.971 50.183 13.108 50.183 13.246 50.183 13.384 50.114 13.475 49.885 13.475L42.098 13.475 42.098 16.475 46.267 16.475C47.183 15.49 47.343 15.376 47.48 15.376 47.641 15.376 47.823 15.49 48.763 16.223 49.198 16.544 49.289 16.681 49.289 16.819 49.289 16.979 49.221 17.048 48.992 17.048L42.098 17.048 42.098 20.415 48.648 20.415zM75.9161 13.2692C75.9161 13.8182 75.5721 14.2532 75.1141 14.2532 74.6341 14.2532 74.4961 14.1162 74.1521 13.1082 73.7181 12.0092 73.1451 11.0702 72.0221 10.0622 71.2901 11.6202 70.3741 12.8562 69.0681 14.1162 68.9771 14.1852 68.7711 14.0472 68.8391 13.9562 69.8011 12.4212 70.6481 10.3602 71.1301 8.3902 71.3581 7.4742 71.4501 6.6722 71.4961 5.8712 73.6261 6.4892 73.8551 6.5812 73.8551 6.9022 73.8551 7.1082 73.6261 7.2222 73.0541 7.3142 72.8021 8.2072 72.5041 8.9862 72.1831 9.6962 74.6341 10.9102 75.9161 12.1692 75.9161 13.2692L75.9161 13.2692zM65.8391 13.0622C65.8391 13.6122 65.4731 14.0472 65.0151 14.0472 64.6021 14.0472 64.4191 13.8412 64.2811 13.1772 64.0071 12.0552 63.5941 11.0702 62.9301 10.2002 62.1741 11.9172 61.1891 13.2462 59.7241 14.5742 59.6321 14.6662 59.4031 14.5282 59.4721 14.4142 60.7771 12.5132 61.6241 10.4742 62.0831 8.0702 62.2201 7.2912 62.2661 6.7182 62.2891 5.9172 64.5111 6.4432 64.6931 6.5352 64.6931 6.8332 64.6931 7.0392 64.4191 7.1762 63.8921 7.2912 63.6401 8.2302 63.3881 9.0542 63.0901 9.8102 64.8311 10.8862 65.8391 12.1002 65.8391 13.0622L65.8391 13.0622zM66.5491 16.5212L62.3121 16.5212C61.7391 16.5212 61.3041 16.5672 60.6171 16.6592L60.3651 15.7882C61.1211 15.9252 61.6021 15.9492 62.2431 15.9492L66.5491 15.9492 66.5491 9.3302C66.5491 7.1302 66.5251 5.8712 66.4351 5.0692 68.7471 5.2982 69.0221 5.4812 69.0221 5.7562 69.0221 5.9402 68.8391 6.1462 68.2211 6.3752L68.2211 15.9492 72.0221 15.9492C73.0081 14.8262 73.1901 14.7112 73.3281 14.7112 73.4881 14.7112 73.6481 14.8262 74.6341 15.6512 75.0921 16.0172 75.2061 16.1772 75.2061 16.3152 75.2061 16.4522 75.1381 16.5212 74.8861 16.5212L68.2211 16.5212 68.2211 20.5752 73.4421 20.5752C74.4741 19.3612 74.6341 19.2692 74.7711 19.2692 74.9321 19.2692 75.1381 19.3612 76.1461 20.2542 76.6031 20.6672 76.7411 20.7812 76.7411 20.9182 76.7411 21.0562 76.6721 21.1472 76.4431 21.1472L60.4801 21.1472C59.8611 21.1472 59.4261 21.1702 58.7381 21.2852L58.5101 20.4152C59.2881 20.5292 59.7701 20.5752 60.4101 20.5752L66.5491 20.5752 66.5491 16.5212zM73.2601 3.6262C74.2901 2.3892 74.4281 2.3212 74.5651 2.3212 74.7261 2.3212 74.8861 2.3892 75.9621 3.2602 76.4891 3.6722 76.5581 3.8332 76.5581 3.9932 76.5581 4.1302 76.4661 4.1992 76.2371 4.1992L59.5401 4.1992 59.5401 5.2522C59.5401 10.2222 59.2881 13.2232 58.6701 15.5362 58.0981 17.7112 57.1581 19.6132 55.6461 21.5142 55.5551 21.6282 55.2581 21.4912 55.3261 21.3532 56.4021 19.2692 56.9981 17.4152 57.3641 15.1692 57.7081 13.0622 57.8001 10.4282 57.8001 6.1232 57.8001 4.6112 57.8001 3.9702 57.6621 2.5732 58.5321 2.8932 58.9221 3.1232 59.7701 3.6262L65.9071 3.6262 65.9071 2.2522C65.9071 1.8392 65.8851 1.4972 65.7711.7872 68.0611 1.0392 68.3581 1.2212 68.3581 1.4972 68.3581 1.7032 68.1751 1.8852 67.5331 2.1152L67.5331 3.6262 73.2601 3.6262zM94.3204 4.9548C94.1374 5.3208 93.9314 5.6648 93.7254 6.0088 94.2294 7.0618 94.8244 8.0928 95.6714 8.9398 96.5424 7.7718 97.0694 6.3518 97.4814 4.9548L94.3204 4.9548zM99.1754 4.9548C98.6954 6.7188 97.8474 8.4128 96.6574 9.8098 98.0994 10.8638 99.7034 11.5738 101.6954 11.8938 101.8104 11.9178 101.7874 12.1238 101.6724 12.1458 101.1234 12.2838 100.8024 12.6738 100.6654 13.2918 100.6194 13.4978 100.5044 13.6358 100.3444 13.6358 100.2074 13.6358 99.9094 13.5198 99.5434 13.3378 98.2134 12.6738 96.9774 11.6878 95.9474 10.5658 94.5264 11.8718 92.7404 12.8098 90.4044 13.4518 90.2444 13.4978 90.1294 13.1998 90.2664 13.1318 92.3964 12.0778 93.9544 11.0018 95.1454 9.6038 94.4124 8.6428 93.8854 7.5428 93.4504 6.4208 92.9004 7.1538 92.2824 7.8638 91.5044 8.6428 91.4124 8.7338 91.1604 8.5738 91.2284 8.4588 92.3504 6.7188 93.0154 5.1388 93.5644 3.3058 93.8164 2.3898 93.9774 1.6798 94.0224.9698 96.0614 1.4728 96.3134 1.5648 96.3134 1.8398 96.3134 2.0458 96.0844 2.2068 95.4654 2.3438 95.1684 3.1228 94.8934 3.7868 94.6184 4.3828L98.7174 4.3828C99.4974 3.4208 99.6574 3.2828 99.7954 3.2828 99.9554 3.2828 100.1374 3.4208 101.0084 4.1308 101.3754 4.4288 101.4894 4.5648 101.4894 4.7028 101.4894 4.8868 101.4214 4.9548 101.1914 4.9548L99.1754 4.9548zM86.9914 8.3448L89.4194 8.3448 89.4194 6.0088 86.9914 6.0088 86.9914 8.3448zM83.2814 8.3448L85.6174 8.3448 85.6174 6.0088 83.2814 6.0088 83.2814 8.3448zM83.7164 14.8498C83.2584 14.8498 82.8454 14.9178 82.2054 14.9868L81.9754 14.1158C82.6634 14.2308 83.0974 14.2758 83.6934 14.2758L96.8394 14.2758C97.6654 13.3378 97.8474 13.2228 97.9854 13.2228 98.1454 13.2228 98.3294 13.3378 99.1994 14.0238 99.5884 14.3218 99.6794 14.4598 99.6794 14.5978 99.6794 14.7798 99.6114 14.8498 99.3814 14.8498L91.8014 14.8498 91.8014 17.3458 95.5114 17.3458C96.4054 16.3378 96.5654 16.2228 96.7024 16.2228 96.8634 16.2228 97.0234 16.3378 97.9394 17.0478 98.3294 17.3918 98.4204 17.5288 98.4204 17.6668 98.4204 17.8498 98.3514 17.9188 98.1234 17.9188L91.8014 17.9188 91.8014 20.7128 98.2374 20.7128C99.1754 19.6588 99.3594 19.5448 99.4974 19.5448 99.6334 19.5448 99.8174 19.6588 100.7794 20.4368 101.1914 20.7808 101.3064 20.9188 101.3064 21.0568 101.3064 21.2168 101.2374 21.2848 101.0084 21.2848L82.6634 21.2848C82.1134 21.2848 81.6774 21.3308 80.9674 21.3988L80.7394 20.5288C81.4714 20.6668 81.9994 20.7128 82.6174 20.7128L85.2964 20.7128 85.2964 18.3988C85.2964 17.5058 85.2734 16.7958 85.1824 16.1778 87.4264 16.4068 87.7014 16.5898 87.7014 16.8418 87.7014 17.0478 87.5414 17.2538 86.9224 17.4828L86.9224 20.7128 90.1524 20.7128 90.1524 14.8498 83.7164 14.8498zM89.3044 5.4358C89.8084 4.8868 89.9224 4.7948 90.0604 4.7948 90.2204 4.7948 90.3584 4.8868 90.9304 5.3208 91.2284 5.5508 91.2974 5.6648 91.2974 5.8248 91.2974 5.9398 91.2284 6.0548 90.7704 6.3518L90.7704 6.9018C90.7704 8.2298 90.8384 8.8478 90.8384 8.9858 90.8384 9.4438 90.5184 9.6038 90.0144 9.6038 89.6024 9.6038 89.4194 9.4668 89.4194 9.0778L89.4194 8.9168 87.0144 8.9168 87.0144 9.8338C89.2584 10.1078 90.3584 10.8178 90.3584 11.6658 90.3584 12.0778 90.0844 12.3758 89.7404 12.3758 89.4884 12.3758 89.2584 12.2378 89.0524 11.9398 88.4114 11.1388 87.8384 10.6118 87.0144 10.1998 87.0374 11.8038 87.0604 12.6738 87.0604 13.0858 87.0604 13.5438 86.7624 13.7268 86.1674 13.7268 85.6174 13.7268 85.4794 13.5438 85.4794 13.1538 85.4794 12.6958 85.5254 11.6198 85.5944 10.3598 84.2434 11.8258 82.7544 12.8098 80.5784 13.7268 80.4414 13.7718 80.2814 13.5198 80.3954 13.4518 82.2734 12.2618 84.0834 10.5658 85.0904 8.9168L83.2814 8.9168 83.2814 9.0318C83.2814 9.4668 83.0064 9.6498 82.4794 9.6498 82.0444 9.6498 81.8614 9.5358 81.8614 9.1458 81.8614 8.8938 81.9294 8.4588 81.9294 6.9468 81.9294 6.0548 81.9074 5.5268 81.8154 4.7028 82.5034 4.9548 82.7994 5.0928 83.4194 5.4358L85.6174 5.4358 85.6174 3.7868 82.4794 3.7868C82.0214 3.7868 81.6314 3.8328 81.0134 3.9008L80.7614 3.0308C81.4254 3.1688 81.8614 3.2148 82.4334 3.2148L85.6174 3.2148C85.5944 1.9318 85.5714 1.4728 85.5034.8548 87.5414 1.1068 87.6554 1.1528 87.6554 1.4278 87.6554 1.5878 87.6104 1.7028 86.9914 1.9768L86.9914 3.2148 89.3734 3.2148C90.1294 2.2978 90.2904 2.1838 90.4264 2.1838 90.5874 2.1838 90.7484 2.2978 91.6184 2.9628 91.9624 3.2608 92.0764 3.4208 92.0764 3.5578 92.0764 3.7188 92.0074 3.7868 91.7784 3.7868L86.9914 3.7868 86.9914 5.4358 89.3044 5.4358zM122.207 9.124L123.993 9.124 123.993 6.856 122.207 6.856 122.207 9.124zM122.207 6.283L123.993 6.283 123.993 4.131 122.207 4.131 122.207 6.283zM119.207 9.124L120.947 9.124 120.947 6.856 119.207 6.856 119.207 9.124zM119.207 6.283L120.947 6.283 120.947 4.131 119.207 4.131 119.207 6.283zM117.581 19.659C117.512 18.926 117.306 18.147 116.916 17.551 116.87 17.483 117.008 17.345 117.1 17.391 118.359 17.941 119.047 18.674 119.047 19.429 119.047 20.025 118.726 20.391 118.268 20.391 117.878 20.391 117.649 20.185 117.581 19.659L117.581 19.659zM116.87 16.04L123.215 16.04 123.215 13.842 116.87 13.842 116.87 16.04zM116.23 9.124L117.97 9.124 117.97 6.856 116.23 6.856 116.23 9.124zM116.23 6.283L117.97 6.283 117.97 4.131 116.23 4.131 116.23 6.283zM116.87 16.911C116.87 17.391 116.596 17.575 115.978 17.575 115.542 17.575 115.382 17.437 115.382 17.025 115.382 16.819 115.428 16.407 115.428 14.918 115.428 13.979 115.428 13.384 115.336 12.49 116.046 12.788 116.344 12.926 117.008 13.269L123.101 13.269C123.65 12.674 123.765 12.582 123.902 12.582 124.063 12.582 124.2 12.674 124.818 13.177 125.116 13.406 125.185 13.544 125.185 13.681 125.185 13.842 125.116 13.933 124.681 14.231L124.681 14.666C124.681 15.88 124.749 16.544 124.749 16.681 124.749 17.185 124.451 17.345 123.811 17.345 123.375 17.345 123.215 17.163 123.215 16.796L123.215 16.613 116.87 16.613 116.87 16.911zM117.97 3.557C117.97 2.435 117.947 1.725 117.855 1.061 119.619 1.245 119.825 1.405 119.825 1.588 119.825 1.725 119.665 1.863 119.207 2.069L119.207 3.557 120.947 3.557C120.947 2.435 120.925 1.703 120.833 1.015 122.619 1.245 122.803 1.405 122.803 1.611 122.803 1.749 122.665 1.885 122.207 2.092L122.207 3.557 123.833 3.557C124.36 2.917 124.475 2.825 124.635 2.825 124.772 2.825 124.887 2.917 125.505 3.489 125.803 3.741 125.872 3.901 125.872 4.039 125.872 4.199 125.803 4.313 125.299 4.611L125.299 5.711C125.299 7.841 125.368 9.192 125.368 9.49 125.368 9.902 125.116 10.062 124.566 10.062 124.2 10.062 124.039 9.948 123.993 9.696L116.23 9.696 116.23 9.788C116.23 10.222 116 10.428 115.474 10.428 115.038 10.428 114.855 10.292 114.855 9.925 114.855 9.444 114.924 8.528 114.924 5.825 114.924 4.428 114.924 3.718 114.832 2.733 115.565 3.053 115.817 3.191 116.436 3.557L117.97 3.557zM113.756 11.07C114.328 11.184 114.694 11.208 115.198 11.208L123.879 11.208C124.635 10.36 124.795 10.222 124.933 10.222 125.093 10.222 125.253 10.36 126.055 11.002 126.376 11.276 126.467 11.414 126.467 11.574 126.467 11.712 126.398 11.78 126.192 11.78L115.222 11.78C114.832 11.78 114.512 11.826 113.984 11.918L113.756 11.07zM124.085 20.643C124.864 19.705 125.047 19.613 125.185 19.613 125.322 19.613 125.482 19.705 126.307 20.415 126.628 20.689 126.765 20.85 126.765 20.987 126.765 21.125 126.673 21.217 126.444 21.217L114.901 21.217C114.488 21.217 114.168 21.239 113.642 21.353L113.412 20.507C113.984 20.598 114.352 20.643 114.878 20.643L120.673 20.643C121.062 19.843 121.337 19.155 121.543 18.513 121.681 18.079 121.771 17.643 121.841 17.254 123.283 17.803 123.719 18.033 123.719 18.261 123.719 18.468 123.559 18.583 122.963 18.629 122.505 19.269 121.933 19.979 121.223 20.643L124.085 20.643zM110.435 7.886L111.649 7.886 111.649 5.39 110.435 5.39 110.435 7.886zM108.465 15.971L111.259 15.971 111.259 13.681 108.465 13.681 108.465 15.971zM108.465 13.108L111.259 13.108 111.259 10.956 108.465 10.956 108.465 13.108zM109.29 7.886L109.29 6.123C109.29 5.459 109.29 4.909 109.198 4.107 109.748 4.383 110 4.474 110.526 4.817L111.648 4.817 111.648 2.505 108.099 2.505 108.099 7.886 109.29 7.886zM106.839 4.313C106.839 3.169 106.839 2.275 106.747 1.245 107.365 1.497 107.641 1.611 108.282 1.931L111.511 1.931C111.97 1.382 112.084 1.291 112.222 1.291 112.382 1.291 112.496 1.359 113.046 1.84 113.32 2.092 113.412 2.207 113.412 2.343 113.412 2.505 113.366 2.573 112.908 2.847L112.908 7.886 113.068 7.886C113.436 7.383 113.55 7.291 113.688 7.291 113.848 7.291 113.938 7.383 114.442 7.909 114.764 8.276 114.832 8.436 114.832 8.574 114.832 8.757 114.718 8.826 114.236 8.872 114.1 8.894 114.008 8.963 113.824 9.1 113.504 9.375 113.022 9.718 112.564 10.04 113.114 10.566 113.206 10.726 113.206 10.864 113.206 11.002 113.138 11.07 112.634 11.39L112.634 13.566C112.634 16.315 112.656 18.193 112.656 20.003 112.656 20.85 112.564 21.125 112.222 21.399 111.946 21.629 111.466 21.789 111.099 21.789 110.847 21.789 110.778 21.697 110.732 21.377 110.641 20.804 110.366 20.575 109.381 20.369 109.267 20.346 109.267 20.049 109.381 20.071 110.045 20.139 110.595 20.163 110.962 20.163 111.19 20.163 111.259 20.071 111.259 19.843L111.259 16.544 108.465 16.544C108.465 19.041 108.488 20.391 108.488 21.239 108.488 21.697 108.167 21.881 107.595 21.881 107.159 21.881 106.977 21.72 106.977 21.331 106.977 20.323 107.045 18.651 107.045 15.468 107.045 12.696 107.045 11.162 106.977 9.582 107.641 9.856 107.915 9.97 108.534 10.383L111.168 10.383C111.672 9.742 111.786 9.65 111.924 9.65 112.038 9.65 112.13 9.696 112.358 9.879 112.634 9.375 112.886 8.917 113.046 8.459L106.541 8.459C106.655 9.925 106.313 11.322 105.396 11.322 105.029 11.322 104.731 11.002 104.731 10.544 104.731 10.176 104.801 9.994 105.121 9.673 105.831 8.963 106.061 8.322 106.061 7.131 106.061 7.039 106.267 7.016 106.289 7.108 106.358 7.36 106.427 7.612 106.473 7.886L106.839 7.886 106.839 4.313zM147.3907 13.3142L147.3907 11.0702 143.9327 11.0702C143.9327 11.8262 143.9327 12.5582 143.9547 13.3142L147.3907 13.3142zM143.9327 10.4982L147.3907 10.4982 147.3907 8.4592 143.9327 8.4592 143.9327 10.4982zM142.3987 13.3142C142.4207 12.6962 142.4207 11.5052 142.4207 11.0702L139.1227 11.0702 139.1227 13.3142 142.3987 13.3142zM139.1227 10.4982L142.4207 10.4982 142.4207 8.4592 139.1227 8.4592 139.1227 10.4982zM147.1387 5.3672C147.8267 4.5652 148.0547 4.3822 148.1927 4.3592 148.3757 3.9472 148.5817 3.3752 148.6967 2.8012L138.1377 2.8012C138.0457 4.1532 137.4517 5.2292 136.5357 5.2292 136.0997 5.2292 135.7097 4.8632 135.7097 4.3822 135.7097 4.0612 135.8937 3.8092 136.3057 3.5352 137.1997 2.8932 137.6117 2.2072 137.7027 1.1532 137.7027 1.0392 137.9777 1.0392 138.0007 1.1532 138.0917 1.5192 138.1377 1.8852 138.1617 2.2292L148.3987 2.2292C149.1087 1.4272 149.2237 1.3352 149.3607 1.3352 149.5667 1.3352 149.7047 1.4272 150.6657 2.2972 151.1237 2.7102 151.1937 2.8712 151.1937 3.0312 151.1937 3.2602 150.9177 3.4212 150.2537 3.4212 150.0247 3.4212 149.9107 3.4432 149.7497 3.5812 149.4067 3.8332 149.0167 4.1302 148.5137 4.4742 148.6967 4.5652 148.9487 4.7712 149.3837 5.1152 149.7727 5.4132 149.8877 5.5502 149.8877 5.7102 149.8877 5.8712 149.8187 5.9402 149.5897 5.9402L143.9327 5.9402 143.9327 7.8862 147.2307 7.8862C147.8027 7.2222 147.9407 7.1302 148.0777 7.1302 148.2157 7.1302 148.3757 7.2222 149.0397 7.7492 149.3837 8.0462 149.4757 8.1612 149.4757 8.3222 149.4757 8.4592 149.3837 8.5962 148.9257 8.9172L148.9257 10.1302C148.9257 12.5362 148.9947 13.6582 148.9947 14.0012 148.9947 14.4602 148.6507 14.6892 148.0777 14.6892 147.5967 14.6892 147.3907 14.5052 147.3907 14.1162L147.3907 13.8872 143.9547 13.8872C143.9547 14.7802 143.9547 15.5362 143.9787 15.9942L148.1697 15.9942C149.0627 14.9412 149.2237 14.8032 149.3607 14.8032 149.5437 14.8032 149.6817 14.9412 150.5977 15.6972 150.9867 16.0402 151.1017 16.2012 151.1017 16.3372 151.1017 16.4982 151.0327 16.5672 150.8037 16.5672L143.9787 16.5672C144.0007 17.3692 144.0007 17.9182 144.0007 18.2152 144.0007 18.6732 143.7027 18.9032 143.0627 18.9032 142.5807 18.9032 142.3297 18.7432 142.3297 18.3992 142.3297 18.1012 142.3527 17.5292 142.3527 16.5672L137.4967 16.5672C137.0157 16.5672 136.6497 16.5892 136.0537 16.6812L135.8257 15.8572C136.5117 15.9492 136.9017 15.9942 137.4967 15.9942L142.3747 15.9942C142.3747 15.5362 142.3987 14.3452 142.3987 13.8872L139.1227 13.8872 139.1227 14.2082C139.1227 14.6432 138.8017 14.8722 138.2297 14.8722 137.7257 14.8722 137.5417 14.6892 137.5417 14.2992 137.5417 13.8872 137.6117 13.1312 137.6117 10.6342 137.6117 9.0542 137.6117 8.2072 137.5197 7.0852 138.2757 7.3602 138.5957 7.4972 139.2837 7.8862L142.4207 7.8862 142.4207 5.9402 138.9627 5.9402C138.5277 5.9402 138.1837 5.9852 137.6337 6.0542L137.4057 5.2292C138.0457 5.3212 138.4357 5.3672 138.9627 5.3672L142.4207 5.3672C142.4207 4.3372 142.3987 3.9702 142.3527 3.4432 144.2767 3.6722 144.5967 3.7872 144.5967 4.0392 144.5967 4.2222 144.4827 4.3372 143.9327 4.5652L143.9327 5.3672 147.1387 5.3672zM132.7787 4.8172C132.4347 3.7632 131.8857 2.7332 130.9467 1.8392 130.8547 1.7712 131.0377 1.5872 131.1527 1.6332 133.4657 2.3672 134.6107 3.6722 134.6107 4.7252 134.6107 5.3672 134.2447 5.8712 133.6717 5.8712 133.2367 5.8712 133.0307 5.6192 132.7787 4.8172L132.7787 4.8172zM134.7717 17.0712C135.3897 18.1472 135.9617 18.6512 136.8557 18.9952 137.9097 19.4072 139.5807 19.7272 142.9477 19.7272 145.3067 19.7272 148.2617 19.5672 151.4217 19.1552 151.5367 19.1322 151.5367 19.3832 151.4457 19.4292 150.8957 19.7052 150.7577 19.9112 150.6657 20.4602 150.6207 20.9642 150.5517 21.0332 150.2077 21.0562 148.1927 21.2392 146.0397 21.2852 144.0707 21.2852 139.7867 21.2852 137.7937 20.8732 136.5357 20.1172 135.4577 19.4532 134.7257 18.4912 134.1987 16.9562 133.4887 18.1252 132.7327 19.0632 131.6337 20.2312 131.6787 21.0332 131.5417 21.2622 131.2897 21.2622 131.0377 21.2622 130.6947 20.7582 129.8467 18.9252 130.3287 18.7892 130.7627 18.6292 131.1527 18.4212 131.7707 18.1012 132.4127 17.6892 133.1217 17.0472L133.1217 11.0242 131.6567 11.0242C131.0607 11.0242 130.6717 11.0702 130.0987 11.2082L129.8707 10.2922C130.5797 10.4062 131.0377 10.4522 131.6567 10.4522L132.9617 10.4522C133.6717 9.6502 133.8097 9.5582 133.9467 9.5582 134.1077 9.5582 134.2677 9.6722 134.9997 10.2922 135.3437 10.6122 135.4357 10.7262 135.4357 10.8862 135.4357 11.0242 135.3667 11.1162 134.7717 11.5282L134.7717 17.0712zM159.8633 10.2224L158.3973 10.2224C157.9853 10.2224 157.5733 10.2454 157.0463 10.3604L156.8173 9.4664C157.3893 9.6044 157.8473 9.6504 158.3973 9.6504L159.8633 9.6504 159.8633 9.3744C159.8633 8.8024 159.8633 8.4124 159.7953 7.8404 161.6733 8.0464 161.8563 8.2064 161.8563 8.3904 161.8563 8.5284 161.7413 8.6644 161.3063 8.8264L161.3063 9.6504 162.9783 9.6504C163.5733 8.9864 163.7343 8.8944 163.8483 8.8944 164.0093 8.8944 164.1693 8.9864 164.8563 9.5354 165.0623 9.6964 165.1763 9.8784 165.1763 9.9934 165.1763 10.1544 165.1083 10.2224 164.8793 10.2224L161.3063 10.2224 161.3063 12.0094C162.5663 11.8034 163.9173 11.5514 165.4523 11.2304 165.5663 11.2074 165.6123 11.4364 165.4983 11.4824 162.8183 12.5584 160.0693 13.2914 157.0233 13.8874 156.9093 14.3914 156.7713 14.5514 156.6113 14.5514 156.4273 14.5514 156.3363 14.5284 155.7863 12.4904 156.5653 12.5134 156.9093 12.5134 157.3213 12.4674 158.1693 12.4214 158.9933 12.3294 159.8633 12.2154L159.8633 10.2224zM170.4223 5.4814C170.2843 6.7414 170.0093 7.9784 169.5063 9.1234 170.7883 10.0624 171.4293 10.9784 171.4293 11.7804 171.4293 12.2844 171.1093 12.7194 170.6963 12.7194 170.3533 12.7194 170.2163 12.5354 169.8263 11.7344 169.6203 11.2074 169.3223 10.6584 168.9563 10.1304L168.8873 10.2454C168.0163 11.5744 166.8483 12.5584 164.8563 13.4514 166.5963 13.6584 167.1003 13.7954 167.1003 14.0474 167.1003 14.2994 166.8723 14.4594 166.2763 14.6204 166.2303 14.8264 166.1623 15.0554 166.1163 15.2614L171.7043 15.2614C172.3683 14.5054 172.4833 14.4374 172.6663 14.4374 172.8033 14.4374 172.9413 14.5054 173.6743 15.1934 174.0173 15.5134 174.1093 15.6514 174.1093 15.7874 174.1093 15.9254 173.9953 16.0174 173.4913 16.3154 173.2393 18.2154 172.9643 19.3614 172.5973 20.1854 172.3003 20.7814 171.9793 21.1474 171.4753 21.3994 171.0863 21.5824 170.5363 21.6974 170.1013 21.6974 169.7343 21.6974 169.5973 21.6284 169.5513 21.3764 169.4603 20.7354 169.0243 20.3914 167.1703 19.9564 167.0093 19.9104 167.0323 19.5904 167.1923 19.6134 168.7963 19.8424 169.5063 19.9104 170.3073 19.9104 170.8343 19.9104 171.0633 19.6814 171.2463 19.1554 171.4753 18.5374 171.7043 17.3914 171.8653 15.8334L165.9323 15.8334C164.6043 19.7274 161.3063 21.5374 155.6723 21.9264 155.5343 21.9264 155.4663 21.6284 155.6033 21.6054 160.5053 20.5524 163.0923 18.6514 164.1463 15.8334L158.6033 15.8334C157.9623 15.8334 157.4353 15.8574 156.7943 15.9934L156.5653 15.1014C157.3433 15.2154 157.8933 15.2614 158.5813 15.2614L164.3523 15.2614C164.5123 14.7114 164.6273 14.1394 164.6503 13.5434 164.4673 13.6124 164.2843 13.7044 164.1003 13.7724 163.9863 13.8184 163.8713 13.5894 163.9633 13.5204 166.0243 12.3064 167.0543 11.2304 167.8103 9.7874 167.9263 9.5584 168.0403 9.3294 168.1323 9.0774 167.7423 8.6204 167.2603 8.1844 166.7573 7.7944 166.6883 7.7484 166.7803 7.5424 166.8723 7.5884 167.4223 7.8644 167.9263 8.1164 168.3843 8.3904 168.6813 7.4514 168.8423 6.4664 168.9333 5.4814L168.5203 5.4814C167.7883 5.5044 167.3763 5.5504 166.8943 5.6644L166.6883 4.7944C167.2843 4.8864 167.6503 4.9094 168.5203 4.9094L168.9563 4.9094C168.9783 4.4284 169.0023 3.9474 169.0023 3.3974 169.0023 2.2974 169.0023 1.9094 168.9103 1.1294 171.0403 1.3354 171.2233 1.4054 171.2233 1.7254 171.2233 1.9314 171.0863 2.0914 170.5363 2.3214L170.5363 3.5114C170.5363 4.0154 170.5133 4.4744 170.4673 4.9094L172.0023 4.9094C172.5973 4.2224 172.7123 4.1304 172.8723 4.1304 173.0093 4.1304 173.1243 4.2224 173.7193 4.7484 174.0413 5.0694 174.1323 5.2064 174.1323 5.3444 174.1323 5.5044 174.0413 5.6184 173.5833 5.9624 173.6053 8.0244 173.7193 8.9864 173.9953 9.9484 174.1773 10.5664 174.3843 11.1844 174.6813 11.6424 174.8423 11.8714 174.9333 11.9404 175.0253 11.9404 175.1633 11.9404 175.3453 11.6424 175.9653 10.0164 176.0103 9.9024 176.2173 10.0164 176.1933 10.1304 175.9653 11.5514 175.8733 12.2844 175.8733 12.4444 175.8733 12.6964 175.8953 12.7654 176.1473 13.0624 176.2623 13.2004 176.3313 13.4064 176.3313 13.5664 176.3313 13.9334 176.0333 14.2534 175.5973 14.2534 175.2773 14.2534 174.8653 14.0474 174.4993 13.7494 173.6513 12.9934 173.0553 11.6654 172.6893 10.3824 172.3233 9.1464 172.1853 7.8184 172.1623 5.4814L170.4223 5.4814zM159.7253 6.0084C159.2453 7.9784 158.0773 8.9624 155.2823 9.6504 155.1683 9.6724 155.0533 9.4204 155.1683 9.3744 157.0463 8.5744 157.8933 7.6124 158.1913 6.0084L156.9313 6.0084C156.4963 6.0084 156.1073 6.0544 155.6033 6.1464L155.3743 5.2524C155.9473 5.3904 156.4053 5.4364 156.9553 5.4364L159.9093 5.4364 159.9093 3.7184 158.0313 3.7184C157.5273 3.7184 157.0923 3.7634 156.5193 3.8554L156.2673 2.9854C156.9553 3.1224 157.4353 3.1454 158.0313 3.1454L159.9093 3.1454 159.9093 2.5274C159.9093 2.0454 159.8863 1.6794 159.7953.9934 161.8333 1.2454 162.0623 1.4274 162.0623 1.6574 162.0623 1.8394 161.9013 2.0004 161.3753 2.2064L161.3753 3.1454 163.2763 3.1454C163.9633 2.3214 164.1233 2.2064 164.2603 2.2064 164.4213 2.2064 164.5813 2.3214 165.3143 2.9164 165.6583 3.1914 165.7723 3.3514 165.7723 3.4894 165.7723 3.6494 165.7043 3.7184 165.4523 3.7184L161.3753 3.7184 161.3753 5.4364 164.1463 5.4364C164.8103 4.6344 164.9943 4.5194 165.1313 4.5194 165.2683 4.5194 165.4283 4.6344 166.1843 5.2294 166.4603 5.4584 166.5743 5.6644 166.5743 5.8024 166.5743 5.9404 166.5053 6.0084 166.2763 6.0084L163.2073 6.0084 163.2073 6.9024C163.2073 7.2904 163.3673 7.3824 164.0323 7.3824 164.5363 7.3824 164.7883 7.3364 164.9483 7.1994 165.1083 7.0624 165.2223 6.6954 165.3373 6.3294 165.3603 6.2374 165.5433 6.2604 165.5433 6.3524 165.5203 6.5344 165.5203 6.7414 165.5203 6.9024 165.5203 7.0164 165.6123 7.0844 165.7723 7.1304 166.0243 7.2224 166.0923 7.3824 166.0923 7.6574 166.0923 8.0004 165.8863 8.1604 165.4523 8.2764 165.1083 8.3684 164.5583 8.4124 163.7573 8.4124 162.3373 8.4124 161.8793 8.0924 161.8793 7.1994 161.8793 7.0384 161.9013 6.8564 161.9013 6.5344L161.9013 6.0084 159.7253 6.0084zM190.1846 5.825C190.1846 4.771 189.7266 3.741 188.3986 3.741 187.3446 3.741 186.4066 4.703 186.4066 6.215 186.4066 7.222 186.7046 8.047 187.5746 9.238 189.5436 8.322 190.1846 7.314 190.1846 5.825M184.0926 14.552C184.0926 16.979 185.9706 18.559 187.8716 18.559 189.3376 18.559 190.4366 18.125 191.6506 16.911 189.8416 14.872 188.3066 13.062 186.3826 10.589 185.0546 11.39 184.0926 12.558 184.0926 14.552M184.5966 6.604C184.5966 4.749 186.0846 3.077 188.4216 3.077 190.7576 3.077 191.9256 4.291 191.9256 5.871 191.9256 7.887 190.2306 8.802 187.9406 9.788 189.4746 11.712 191.1236 13.635 192.8196 15.468 193.1856 14.918 193.5746 14.116 193.8266 13.36 194.0556 12.696 194.1476 12.192 194.1476 11.848 194.1476 11.574 194.1016 11.39 194.0096 11.254 193.7116 10.75 192.9106 10.635 192.3836 10.589 192.2236 10.566 192.1776 10.52 192.1776 10.268 192.1776 9.994 192.2236 9.948 192.3836 9.948 193.1856 9.994 194.0556 10.04 194.8796 10.04 195.7276 10.04 196.3696 9.994 197.1936 9.948 197.3536 9.948 197.3996 9.971 197.3996 10.222 197.3996 10.52 197.3536 10.566 197.1936 10.589 196.6666 10.68 196.1396 10.75 195.7276 11.254 195.3376 11.758 195.0856 12.422 194.6056 13.566 194.1696 14.506 193.7816 15.307 193.2996 15.926 194.8116 17.506 195.6356 18.239 196.1856 18.559 196.6216 18.765 197.1936 18.881 197.6746 18.926 197.8576 18.926 197.9036 18.949 197.9036 19.201 197.9036 19.429 197.8576 19.475 197.6746 19.475 197.0336 19.429 196.3236 19.384 195.7276 19.384 195.0636 19.384 194.6516 19.384 193.9416 19.429 193.5296 18.857 193.0716 18.377 192.1546 17.369 190.6666 18.971 189.1316 19.888 187.1166 19.888 184.2076 19.888 181.9856 18.01 181.9856 15.17 181.9856 12.604 183.6576 11.322 185.9486 10.04 184.9166 8.665 184.5966 7.589 184.5966 6.604M212.789 8.413L219.087 8.413 219.087 5.825 212.789 5.825 212.789 8.413zM212.789 5.252L219.087 5.252 219.087 2.733 212.789 2.733 212.789 5.252zM212.789 9.238C212.789 9.718 212.468 9.948 211.872 9.948 211.392 9.948 211.162 9.81 211.162 9.398 211.162 8.963 211.231 8.161 211.231 5.093 211.231 3.375 211.231 2.413 211.14 1.245 211.872 1.565 212.216 1.725 212.972 2.161L218.904 2.161C219.568 1.405 219.705 1.336 219.843 1.336 220.026 1.336 220.141 1.405 220.851 2.023 221.217 2.298 221.286 2.459 221.286 2.595 221.286 2.779 221.217 2.893 220.69 3.237L220.69 4.725C220.69 7.451 220.782 8.757 220.782 9.146 220.782 9.65 220.461 9.902 219.797 9.902 219.271 9.902 219.087 9.742 219.087 9.238L219.087 8.986 212.789 8.986 212.789 9.238zM216.751 19.567C217.645 19.751 218.721 19.819 220.141 19.819 221.194 19.819 222.248 19.751 223.668 19.475 223.806 19.453 223.806 19.727 223.69 19.797 223.072 20.163 222.935 20.391 222.774 21.101 222.729 21.399 222.66 21.445 222.385 21.468 221.973 21.514 221.423 21.514 220.828 21.514 218.309 21.514 216.591 21.147 215.193 20.391 213.842 19.635 212.834 18.537 211.987 16.796 211.186 18.926 209.857 20.483 207.658 21.857 207.544 21.926 207.338 21.697 207.43 21.605 209.032 20.117 210.292 18.009 210.819 15.536 210.956 14.849 211.048 14.162 211.071 13.292 213.041 13.727 213.338 13.864 213.338 14.139 213.338 14.3 213.224 14.414 212.605 14.597 212.491 15.147 212.376 15.651 212.216 16.132 213.018 17.575 213.911 18.445 215.171 19.063L215.171 11.918 211.048 11.918C210.544 11.918 210.2 11.94 209.628 12.055L209.399 11.184C210.04 11.3 210.452 11.344 211.048 11.344L220.438 11.344C221.332 10.268 221.515 10.131 221.652 10.131 221.813 10.131 221.973 10.268 222.958 11.048 223.393 11.414 223.508 11.551 223.508 11.688 223.508 11.848 223.438 11.918 223.21 11.918L216.751 11.918 216.751 15.216 219.591 15.216C220.438 14.208 220.599 14.093 220.736 14.093 220.896 14.093 221.057 14.208 221.973 14.964 222.385 15.284 222.5 15.445 222.5 15.582 222.5 15.719 222.408 15.788 222.179 15.788L216.751 15.788 216.751 19.567zM205.551 6.718L204.131 6.718C203.696 6.718 203.398 6.741 202.849 6.856L202.619 5.985C203.215 6.1 203.581 6.146 204.131 6.146L205.551 6.146 205.551 5.367C205.551 2.343 205.551 1.863 205.437.993 207.498 1.221 207.934 1.336 207.934 1.634 207.934 1.817 207.796 1.955 207.178 2.229L207.178 6.146 208.14 6.146C208.85 5.207 209.01 5.093 209.147 5.093 209.308 5.093 209.444 5.207 210.2 5.894 210.521 6.215 210.636 6.352 210.636 6.489 210.636 6.65 210.567 6.718 210.338 6.718L207.178 6.718 207.178 11.208C208.07 10.864 208.964 10.474 209.902 10.016 210.04 9.948 210.178 10.268 210.04 10.36 209.056 11.116 208.14 11.734 207.178 12.306L207.178 12.49C207.178 18.261 207.223 19.201 207.223 20.003 207.223 20.667 206.994 21.101 206.65 21.399 206.33 21.72 205.803 21.926 205.162 21.926 204.956 21.926 204.864 21.789 204.841 21.491 204.818 20.85 204.498 20.575 202.78 20.209 202.665 20.185 202.665 19.911 202.78 19.911 204.017 20.003 204.681 20.049 205.208 20.049 205.482 20.049 205.551 19.957 205.551 19.681L205.551 13.177C205.07 13.406 204.589 13.635 204.085 13.864 203.994 14.483 203.856 14.689 203.627 14.689 203.421 14.689 203.329 14.528 202.643 12.49 203.169 12.376 203.627 12.284 204.154 12.17 204.635 12.055 205.093 11.918 205.551 11.78L205.551 6.718zM240.2862 10.1306C240.2862 4.1306 240.2632 2.7786 240.1252 1.7256 242.4622 1.9546 242.7822 2.0456 242.7822 2.3436 242.7822 2.5496 242.6682 2.6876 241.9582 2.9846L241.9582 10.1306 244.6602 10.1306C245.8062 8.7796 245.9882 8.6886 246.1262 8.6886 246.2632 8.6886 246.4462 8.7796 247.5922 9.7186 248.1412 10.1766 248.2562 10.3376 248.2562 10.4976 248.2562 10.6346 248.1872 10.7036 247.9582 10.7036L241.9582 10.7036C241.9802 17.4376 242.0952 19.9336 242.0952 20.8266 242.0952 21.3766 241.7282 21.6516 240.9502 21.6516 240.4002 21.6516 240.1712 21.4456 240.1712 20.9876 240.1712 20.3686 240.2862 18.3076 240.2862 11.6196L240.2862 10.7036 235.2242 10.7036C235.0872 13.4516 234.6752 15.6736 233.5292 17.4836 232.3842 19.2926 230.7582 20.6206 228.2382 21.7666 228.1012 21.8346 227.8942 21.5366 228.0322 21.4456 230.0482 20.1396 231.3992 18.5826 232.2922 16.7276 233.0482 15.1476 233.3692 13.0176 233.5062 10.7036L229.7732 10.7036C229.0862 10.7036 228.5592 10.7496 227.8262 10.8406L227.5972 9.9706C228.4682 10.1086 229.0402 10.1306 229.7962 10.1306L233.5292 10.1306C233.5522 9.3296 233.5752 8.4826 233.5752 7.6566 233.5752 6.5806 233.5752 5.8946 233.5292 5.2526 232.1782 5.7566 230.6202 6.1006 228.7202 6.4206 228.5592 6.4426 228.4682 6.1006 228.6282 6.0546 231.3532 5.1606 233.3462 4.0846 235.1792 2.7786 235.7272 2.3896 236.2092 1.9316 236.5982 1.4506 237.9492 2.1606 238.6142 2.6186 238.6142 2.8936 238.6142 3.1226 238.3162 3.2146 237.5152 3.1456 236.7352 3.6956 235.9572 4.1766 235.1792 4.5656 235.8432 4.6806 235.9342 4.7946 235.9342 4.9776 235.9342 5.1606 235.8432 5.2526 235.2692 5.5046 235.2692 6.2826 235.2932 7.0626 235.2932 8.0926 235.2932 8.8026 235.2692 9.4896 235.2472 10.1306L240.2862 10.1306zM267.4395 6.1686C268.3095 5.2526 268.4475 5.1606 268.5845 5.1606 268.7915 5.1606 268.9735 5.2986 269.8215 6.0766 270.2795 6.4886 270.3715 6.6266 270.3715 6.8106 270.3715 7.0166 270.1875 7.1766 269.5015 7.2906 266.5465 11.5516 262.6755 14.8496 258.0265 17.0476 258.5065 17.5516 259.0565 17.9416 259.6295 18.2156 260.9125 18.8566 262.6985 19.1776 266.1115 19.1776 267.9895 19.1776 270.5995 18.9256 272.8905 18.5366 272.9815 18.5136 272.9595 18.7426 272.8905 18.7886 272.2495 19.1776 272.1115 19.4296 272.0435 20.1856 271.9975 20.5066 271.9285 20.6436 271.5395 20.6666 270.0735 20.8266 268.4015 20.8956 266.9355 20.8956 262.8815 20.8956 260.8425 20.3686 259.4225 19.4526 258.1865 18.6506 257.3165 17.6666 256.5605 15.6056 255.9645 17.1166 255.3915 18.1476 254.3845 19.6356 254.4075 20.2546 254.3155 20.5066 254.1325 20.5066 253.9035 20.5066 253.6295 20.1856 252.5755 18.5366 253.0095 18.3076 253.3995 18.0786 253.8805 17.7116 254.4535 17.2766 255.3915 16.4976 255.9875 15.5816 256.1255 15.3756 256.2625 15.1476 256.2625 15.0556 256.2625 14.9176 255.9875 14.7576 255.9875 14.5516 255.9875 14.4136 256.1935 14.3456 256.5375 14.3456 256.9035 14.3456 257.1095 14.4136 257.1095 14.5516 257.1095 14.7346 256.8575 14.8716 256.8575 15.0316 256.8575 15.1236 256.9035 15.2156 256.9725 15.3996 257.1555 15.8566 257.4075 16.2696 257.6825 16.6356 261.5305 14.2076 265.2405 10.6116 267.5075 6.7406L256.3775 6.7406C255.6675 6.7406 255.2315 6.7866 254.5455 6.9016L254.3155 5.9846C255.1175 6.1226 255.6435 6.1686 256.3545 6.1686L261.3245 6.1686 261.3245 3.4886C261.3005 2.6646 261.2785 2.0916 261.1645 1.2676 263.5685 1.4966 263.8435 1.6796 263.8435 1.9546 263.8435 2.1376 263.6605 2.3206 263.0425 2.5726L263.0425 6.1686 267.4395 6.1686zM286.462 16.979L293.653 16.979 293.653 14.253 286.462 14.253 286.462 16.979zM286.462 13.681L293.653 13.681 293.653 11.184 286.462 11.184 286.462 13.681zM286.462 10.612L293.653 10.612 293.653 8.161 286.462 8.161 286.462 10.612zM287.264 3.397C287.012 2.527 286.646 1.794 285.981 1.107 285.912 1.015 286.027.878 286.142.901 288.18 1.519 288.981 2.321 288.981 3.191 288.981 3.809 288.523 4.199 288.042 4.199 287.653 4.199 287.447 4.015 287.264 3.397L287.264 3.397zM286.462 17.849C286.462 18.331 286.188 18.583 285.546 18.583 285.042 18.583 284.813 18.377 284.813 17.941 284.813 17.093 284.904 16.063 284.904 12.33 284.904 9.696 284.904 8.253 284.79 6.65 285.614 7.016 285.958 7.154 286.691 7.589L288.455 7.589C288.752 6.787 288.936 5.94 289.05 5.093L284.652 5.093C284.148 5.093 283.714 5.115 283.164 5.207L282.935 4.359C283.554 4.474 284.058 4.519 284.652 4.519L290.929 4.519C291.363 3.603 291.639 2.893 291.867 2.229 292.027 1.703 292.119 1.267 292.188.809 293.769 1.359 294.615 1.725 294.615 1.955 294.615 2.229 294.387 2.343 293.608 2.389 292.989 3.237 292.417 3.833 291.593 4.519L294.799 4.519C295.715 3.421 295.898 3.283 296.036 3.283 296.196 3.283 296.356 3.397 297.364 4.199 297.822 4.565 297.937 4.725 297.937 4.863 297.937 5.023 297.845 5.093 297.616 5.093L291.089 5.093C290.539 5.985 289.875 6.81 289.165 7.589L293.517 7.589C294.157 6.81 294.295 6.718 294.455 6.718 294.593 6.718 294.73 6.81 295.44 7.428 295.784 7.703 295.853 7.841 295.853 8.001 295.853 8.184 295.761 8.322 295.28 8.642L295.28 10.978C295.28 14.483 295.371 17.002 295.371 17.712 295.371 18.239 295.051 18.491 294.387 18.491 293.883 18.491 293.653 18.285 293.653 17.827L293.653 17.551 286.462 17.551 286.462 17.849zM279.98 4.795C279.729 3.925 279.11 2.733 278.239 1.863 278.171 1.794 278.309 1.657 278.4 1.679 280.69 2.413 281.836 3.718 281.836 4.771 281.836 5.39 281.492 5.894 280.896 5.894 280.484 5.894 280.255 5.665 279.98 4.795L279.98 4.795zM281.858 17.139C282.522 18.239 283.118 18.719 284.012 19.063 285.088 19.453 286.714 19.797 289.966 19.797 292.257 19.797 295.119 19.659 298.212 19.223 298.326 19.201 298.349 19.453 298.258 19.499 297.708 19.797 297.547 20.003 297.479 20.552 297.41 21.056 297.364 21.125 296.998 21.171 295.097 21.308 292.967 21.353 291.089 21.353 286.783 21.353 284.768 20.895 283.53 20.071 282.546 19.429 281.836 18.491 281.263 17.048 280.553 18.239 279.774 19.109 278.675 20.231 278.698 21.079 278.583 21.262 278.309 21.262 278.033 21.262 277.69 20.781 276.865 18.881 277.369 18.743 277.827 18.559 278.263 18.353 278.858 18.079 279.499 17.667 280.187 17.071L280.187 11.07 278.606 11.07C278.011 11.07 277.599 11.116 277.071 11.254L276.843 10.314C277.461 10.452 277.965 10.498 278.606 10.498L280.026 10.498C280.759 9.696 280.874 9.604 281.011 9.604 281.171 9.604 281.309 9.696 282.064 10.338 282.408 10.658 282.477 10.772 282.477 10.932 282.477 11.07 282.431 11.162 281.858 11.574L281.858 17.139z"/>
    </g>
    <polygon points="533.81 4 533.81 10.802 540.589 10.802 540.589 11.81 533.81 11.81 533.81 18.635 532.779 18.635 532.779 11.81 526 11.81 526 10.802 532.779 10.802 532.779 4"/>
    <g transform="translate(565)">
      <path d="M12.1671 3.4929C11.9611 2.5309 11.5951 1.6609 10.9071.9289 10.8391.8369 10.9991.6769 11.1131.7219 12.8311 1.4089 13.8161 2.4399 13.8161 3.3559 13.8161 3.9509 13.4041 4.4329 12.9001 4.4329 12.4651 4.4329 12.3051 4.2489 12.1671 3.4929L12.1671 3.4929zM15.6941 14.7159C15.7171 17.5789 15.7631 19.7549 15.7631 20.5329 15.7631 21.0829 15.4421 21.3349 14.6871 21.3349 14.1141 21.3349 13.9311 21.0829 13.9311 20.6479 13.9311 20.1439 14.0451 18.5179 14.0451 14.7159L10.9991 14.7159C10.4271 14.7159 10.0151 14.7619 9.3731 14.8529L9.1441 13.9829C9.8771 14.1209 10.3571 14.1429 10.9991 14.1429L14.0451 14.1429 14.0451 9.9519 11.7091 9.9519C11.2511 9.9519 10.8391 9.9979 10.2431 10.0899L10.0151 9.1959C10.7011 9.3339 11.1131 9.3799 11.7091 9.3799L14.0451 9.3799 14.0451 5.5549 11.5031 5.5549C10.9761 5.5549 10.5641 5.5999 9.9231 5.6919L9.6931 4.8219C10.4031 4.9359 10.8611 4.9819 11.5031 4.9819L15.5801 4.9819C16.1521 3.9749 16.5881 3.0349 16.9081 2.1419 17.1381 1.5229 17.3201.9509 17.4351.3789 19.3591 1.2029 19.6561 1.3629 19.6561 1.6149 19.6561 1.8449 19.4501 1.9809 18.7861 2.0269 17.8481 3.2409 17.1831 4.0199 16.2671 4.9819L18.9001 4.9819C19.7261 3.9509 19.8861 3.8599 20.0231 3.8599 20.1841 3.8599 20.3211 3.9509 21.2141 4.7069 21.5581 5.0279 21.6721 5.2109 21.6721 5.3479 21.6721 5.4859 21.6031 5.5549 21.3741 5.5549L15.6941 5.5549 15.6941 9.3799 17.9161 9.3799C18.8101 8.3259 18.9701 8.2119 19.1071 8.2119 19.2671 8.2119 19.4041 8.3259 20.2981 9.1039 20.6871 9.4259 20.8021 9.5859 20.8021 9.7459 20.8021 9.8839 20.7331 9.9519 20.5041 9.9519L15.6941 9.9519 15.6941 14.1429 19.1071 14.1429C20.0001 13.0669 20.1601 12.9519 20.2981 12.9519 20.4581 12.9519 20.6421 13.0669 21.5801 13.8459 21.9931 14.1889 22.1071 14.3499 22.1071 14.5099 22.1071 14.6469 22.0161 14.7159 21.8101 14.7159L15.6941 14.7159zM3.4641 19.2289L6.5791 19.2289 6.5791 14.6699 3.4641 14.6699 3.4641 19.2289zM3.4641 20.6249C3.4641 21.0829 3.1661 21.3119 2.5481 21.3119 2.0661 21.3119 1.8381 21.1519 1.8381 20.7399 1.8381 20.2819 1.9061 19.5029 1.9061 16.8469 1.9061 15.2429 1.8841 14.3729 1.8141 13.2269 2.5941 13.5249 2.8921 13.7079 3.6011 14.0969L6.3731 14.0969C7.0831 13.3419 7.2201 13.2499 7.3571 13.2499 7.4951 13.2499 7.6331 13.3419 8.2971 13.9149 8.6171 14.1889 8.7091 14.3499 8.7091 14.4869 8.7091 14.6699 8.5951 14.8079 8.1131 15.1289L8.1131 16.3649C8.1131 18.7929 8.1821 20.0069 8.1821 20.3499 8.1821 20.8539 7.8841 21.0599 7.2431 21.0599 6.8081 21.0599 6.5791 20.8769 6.5791 20.4879L6.5791 19.8009 3.4641 19.8009 3.4641 20.6249zM1.7691 1.7289C2.4341 1.8669 2.8461 1.8899 3.3961 1.8899L6.0751 1.8899C6.9221.9289 7.0831.8369 7.2201.8369 7.3811.8369 7.5411.9289 8.4341 1.6839 8.8011 1.9809 8.9371 2.1189 8.9371 2.2569 8.9371 2.3939 8.8471 2.4629 8.6171 2.4629L3.3961 2.4629C2.9601 2.4629 2.6161 2.5089 2.0441 2.5999L1.7691 1.7289zM1.7241 10.8679C2.3641 11.0059 2.7541 11.0279 3.2801 11.0279L6.1891 11.0279C6.9451 10.1359 7.1291 10.0199 7.2661 10.0199 7.4031 10.0199 7.5871 10.1359 8.4111 10.7999 8.7551 11.0739 8.8471 11.2349 8.8471 11.3719 8.8471 11.5319 8.7771 11.6009 8.5491 11.6009L3.2801 11.6009C2.8681 11.6009 2.5481 11.6469 1.9981 11.7379L1.7241 10.8679zM1.7001 7.8899C2.3421 8.0059 2.7311 8.0519 3.2801 8.0519L6.0061 8.0519C6.7621 7.0889 6.9451 6.9749 7.0831 6.9749 7.2201 6.9749 7.3811 7.0889 8.2281 7.8219 8.5711 8.1199 8.6851 8.2579 8.6851 8.3939 8.6851 8.5549 8.5951 8.6239 8.3881 8.6239L3.2581 8.6239C2.8461 8.6239 2.5021 8.6699 1.9301 8.7619L1.7001 7.8899zM.8301 4.7989C1.4941 4.9359 1.9061 4.9819 2.5021 4.9819L6.4641 4.9819C7.3351 4.0199 7.4951 3.9059 7.6331 3.9059 7.7931 3.9059 7.9531 4.0199 8.8471 4.7299 9.2351 5.0279 9.3511 5.1879 9.3511 5.3259 9.3511 5.4859 9.2811 5.5549 9.0531 5.5549L2.5241 5.5549C2.0441 5.5549 1.6781 5.5779 1.0591 5.6689L.8301 4.7989zM43.8555 14.5789C43.4655 13.5939 42.8255 12.7689 41.9095 12.1279 41.8175 12.0589 41.9315 11.8529 42.0465 11.8759 44.1535 12.3569 45.4815 13.2729 45.4815 14.2809 45.4815 14.8989 45.1155 15.2889 44.6345 15.2889 44.2675 15.2889 44.0615 15.0829 43.8555 14.5789L43.8555 14.5789zM38.7485 20.0059L41.4975 20.0059 41.4975 15.8149 38.7485 15.8149 38.7485 20.0059zM38.1755 13.9829C37.9695 13.1809 37.6485 12.4719 37.1445 11.9219 37.0765 11.8529 37.2135 11.7159 37.3055 11.7379 38.8165 12.2419 39.7795 13.0439 39.7795 13.8229 39.7795 14.3949 39.3895 14.8309 38.8855 14.8309 38.4965 14.8309 38.3365 14.6249 38.1755 13.9829L38.1755 13.9829zM36.5045 7.9139L41.4975 7.9139 41.4975 5.8749 36.5045 5.8749 36.5045 7.9139zM36.5045 5.3029L41.4975 5.3029 41.4975 3.3109 36.5045 3.3109 36.5045 5.3029zM34.5335 20.0059L37.2595 20.0059 37.2595 15.8149 34.5335 15.8149 34.5335 20.0059zM32.9765 13.9599C32.9305 12.9979 32.7935 12.4259 32.4045 11.8989 32.3355 11.8079 32.5185 11.6929 32.6105 11.7379 33.9165 12.4489 34.5565 13.1129 34.5565 13.8689 34.5565 14.4639 34.1675 14.8989 33.5945 14.8989 33.1605 14.8989 32.9995 14.6469 32.9765 13.9599L32.9765 13.9599zM30.3655 20.0059L33.0455 20.0059 33.0455 15.8149 30.3655 15.8149 30.3655 20.0059zM26.1285 14.5789C26.1285 14.0289 26.3355 13.7769 27.0895 13.5939 28.0755 13.2959 28.8075 12.6779 29.1745 11.6929 29.2205 11.5559 29.5185 11.6469 29.4955 11.7839 29.2895 13.8919 28.2585 15.4029 27.0455 15.4029 26.4955 15.4029 26.1285 15.0829 26.1285 14.5789L26.1285 14.5789zM41.2905 2.7369C41.9775 1.9809 42.1155 1.9129 42.2525 1.9129 42.4135 1.9129 42.5735 2.0049 43.2135 2.5549 43.5355 2.8519 43.6035 2.9889 43.6035 3.1269 43.6035 3.2869 43.5815 3.3559 43.0315 3.7449L43.0315 5.3029 43.8095 5.3029C44.5435 4.3869 44.7495 4.2489 44.8865 4.2489 45.0465 4.2489 45.2755 4.3869 46.0545 5.0969 46.3755 5.3719 46.4895 5.5089 46.4895 5.6459 46.4895 5.8059 46.4215 5.8749 46.1915 5.8749L43.0315 5.8749C43.0535 7.4559 43.0995 8.2119 43.0995 8.4639 43.0995 8.9899 42.7795 9.2199 42.1615 9.2199 41.7035 9.2199 41.4975 9.0579 41.4975 8.6459L41.4975 8.4859 36.5045 8.4859 36.5045 10.6849 43.1235 10.6849C43.9935 9.6079 44.2215 9.4719 44.3595 9.4719 44.5195 9.4719 44.7255 9.6079 45.6875 10.4099 46.1005 10.7309 46.2145 10.8909 46.2145 11.0279 46.2145 11.1889 46.1455 11.2579 45.9175 11.2579L27.6855 11.2579C27.1135 11.2579 26.7015 11.3039 26.0375 11.3949L25.7855 10.5239C26.5415 10.6389 26.9995 10.6849 27.6395 10.6849L34.9225 10.6849 34.9225 8.4859 30.0455 8.4859C29.4495 8.4859 28.9915 8.5319 28.3735 8.6459L28.1435 7.7759C28.8995 7.8899 29.3805 7.9139 30.0215 7.9139L34.9225 7.9139 34.9225 5.8749 28.0755 5.8749C27.4115 5.8749 26.9755 5.8979 26.1975 6.0129L25.9675 5.1419C26.7935 5.2569 27.2965 5.3029 28.0295 5.3029L34.9225 5.3029 34.9225 3.3099 30.2735 3.3099C29.6555 3.3099 29.2665 3.3559 28.6475 3.4709L28.4195 2.5769C29.1515 2.6919 29.5875 2.7369 30.2285 2.7369L34.9225 2.7369C34.9225 1.7069 34.9005.9749 34.8085.2639 36.9625.4929 37.2365.6529 37.2365.8829 37.2365 1.0889 37.0985 1.2249 36.5045 1.4549L36.5045 2.7369 41.2905 2.7369zM43.8095 20.0069C44.5885 18.9759 44.7715 18.8149 44.9095 18.8149 45.0695 18.8149 45.3215 18.9759 46.1695 19.7319 46.5585 20.0529 46.6725 20.2129 46.6725 20.3499 46.6725 20.5109 46.5815 20.5789 46.3755 20.5789L27.5255 20.5789C26.9295 20.5789 26.4955 20.6019 25.8315 20.7169L25.6015 19.8469C26.3795 19.9609 26.8615 20.0069 27.5255 20.0069L28.8075 20.0069 28.8075 17.1429C28.8075 16.1589 28.8075 15.4259 28.6935 14.3949 29.4725 14.6699 29.7935 14.8079 30.5035 15.2429L41.3815 15.2429C42.0005 14.5789 42.1155 14.5099 42.2525 14.5099 42.4135 14.5099 42.5495 14.5789 43.2595 15.1289 43.5815 15.3809 43.6495 15.5409 43.6495 15.6779 43.6495 15.8389 43.5575 15.9529 43.0535 16.2969L43.0535 20.0069 43.8095 20.0069zM62.2833 10.0203C62.2833 10.6393 61.9393 11.0283 61.4353 11.0283 60.9543 11.0283 60.7943 10.8913 60.4283 9.9523 60.0613 9.0363 59.6953 8.6003 58.8473 7.8683 58.7563 7.7763 58.8703 7.6623 58.9853 7.6843 61.2753 8.1883 62.2833 9.0133 62.2833 10.0203L62.2833 10.0203zM61.9853 15.4253C61.9853 16.0213 61.6193 16.4333 61.1153 16.4333 60.7483 16.4333 60.4503 16.2273 60.2213 15.6553 59.6953 14.4633 59.1683 13.8453 58.2063 13.0673 58.0923 12.9753 58.2293 12.8373 58.3663 12.8613 60.7483 13.3413 61.9853 14.3493 61.9853 15.4253L61.9853 15.4253zM56.4423 7.1343C56.2363 8.5783 55.9623 10.1123 55.6403 11.6473L65.5133 11.6473C65.6273 10.3643 65.7193 8.8523 65.8103 7.1343L56.4423 7.1343zM64.8253 16.7773C65.0543 15.7013 65.2833 14.2113 65.4673 12.1973L55.5263 12.1973C55.1603 13.8693 54.7483 15.5413 54.3123 17.0983L64.7573 17.0983 64.8253 16.7773zM65.6033 6.5853C66.2913 5.8303 66.4293 5.7383 66.5653 5.7383 66.7263 5.7383 66.8873 5.8303 67.6653 6.4483 68.0543 6.7463 68.1233 6.8823 68.1233 7.0203 68.1233 7.2493 68.0093 7.3863 67.4823 7.6623 67.3903 9.1733 67.3213 10.4793 67.2303 11.6473L68.1233 11.6473C69.0393 10.4793 69.2223 10.3643 69.3833 10.3643 69.5433 10.3643 69.7263 10.4793 70.7343 11.3033 71.1703 11.6693 71.2843 11.8303 71.2843 11.9673 71.2843 12.1053 71.2153 12.1973 70.9863 12.1973L67.1843 12.1973C67.0013 14.3033 66.7953 15.9073 66.5653 17.0983L67.3903 17.0983C68.2833 15.9753 68.4903 15.8383 68.6273 15.8383 68.7873 15.8383 68.9943 15.9753 69.9563 16.7773 70.3903 17.1433 70.5053 17.3043 70.5053 17.4183 70.5053 17.5793 70.4363 17.6473 70.2083 17.6473L66.4513 17.6473 66.1993 18.6093C65.8553 19.7083 65.4213 20.4183 64.8033 20.8543 64.4133 21.1523 63.9093 21.2883 63.2913 21.2883 62.7873 21.2883 62.7633 21.2663 62.6723 20.7853 62.5813 20.1213 62.2603 19.8233 60.4283 19.2503 60.2903 19.2053 60.3133 18.9073 60.4503 18.9303 61.7563 19.1593 62.5353 19.2283 63.2913 19.2283 64.0013 19.2283 64.2993 18.8843 64.6193 17.6473L54.1523 17.6473 53.9463 18.3803C53.7863 18.9983 53.4883 19.1363 52.8463 19.1363 52.1373 19.1363 51.9763 18.9533 51.9763 18.7243 51.9763 18.5413 52.0453 18.3123 52.1593 17.9453 52.8013 15.9753 53.3283 14.0513 53.7403 12.1973L52.1373 12.1973C51.6333 12.1973 51.2433 12.2193 50.6483 12.3333L50.4193 11.4873C51.1063 11.6013 51.5183 11.6473 52.1143 11.6473L53.8543 11.6473C54.0603 10.6623 54.2443 9.7233 54.4043 8.8063 54.6103 7.5473 54.7483 6.5393 54.7943 5.6233 55.5503 5.9203 56.0983 6.1723 56.8083 6.5853L65.6033 6.5853zM55.4583 4.1123C54.1523 6.1723 52.5723 7.7763 50.6023 9.0363 50.4873 9.1043 50.2813 8.8983 50.3733 8.8063 52.0913 7.0883 53.6023 4.6843 54.5183 2.4163 54.7943 1.6843 55.0223.9743 55.1373.3093 56.9463.8363 57.6103 1.1343 57.6103 1.4553 57.6103 1.6843 57.4283 1.8213 56.6723 1.9363 56.3963 2.5083 56.0983 3.0583 55.8013 3.5623L66.7723 3.5623C67.8483 2.2563 68.0093 2.1423 68.1693 2.1423 68.3293 2.1423 68.5133 2.2563 69.6353 3.1503 70.1623 3.5843 70.2533 3.7453 70.2533 3.8823 70.2533 4.0423 70.1843 4.1123 69.9563 4.1123L55.4583 4.1123zM81.306 7.112L89.78 7.112 89.78 2.531 81.306 2.531 81.306 7.112zM81.283 7.684C81.261 9.265 81.191 10.845 81.009 12.403L89.78 12.403 89.78 7.684 81.283 7.684zM80.917 12.975C80.825 13.663 80.688 14.258 80.527 14.853 79.887 17.327 78.535 19.457 76.245 21.152 76.107 21.244 75.855 21.037 75.97 20.923 77.596 19.022 78.443 17.281 78.947 14.945 79.383 12.998 79.589 10.639 79.589 6.883 79.589 3.333 79.565 2.211 79.429.905 80.367 1.295 80.733 1.477 81.513 1.959L89.598 1.959C90.308 1.18 90.422 1.089 90.56 1.089 90.72 1.089 90.857 1.18 91.704 1.821 92.048 2.119 92.14 2.233 92.14 2.394 92.14 2.554 92.071 2.646 91.521 3.035L91.521 7.662C91.521 17.167 91.59 17.923 91.59 19.045 91.59 19.938 91.361 20.396 90.696 20.74 90.354 20.946 89.758 21.083 89.368 21.083 89.002 21.083 88.934 20.992 88.864 20.602 88.772 19.938 88.017 19.526 86.208 19.228 86.07 19.205 86.07 18.907 86.208 18.907 87.742 19.022 88.728 19.067 89.368 19.067 89.689 19.067 89.78 18.93 89.78 18.587L89.78 12.975 80.917 12.975zM115.835 12.7459L115.835 10.5019 112.377 10.5019C112.377 11.2579 112.377 11.9899 112.399 12.7459L115.835 12.7459zM112.377 9.9299L115.835 9.9299 115.835 7.8909 112.377 7.8909 112.377 9.9299zM110.843 12.7459C110.865 12.1279 110.865 10.9369 110.865 10.5019L107.567 10.5019 107.567 12.7459 110.843 12.7459zM107.567 9.9299L110.865 9.9299 110.865 7.8909 107.567 7.8909 107.567 9.9299zM115.583 4.7989C116.271 3.9969 116.499 3.8139 116.637 3.7909 116.82 3.3789 117.026 2.8059 117.141 2.2329L106.582 2.2329C106.49 3.5849 105.896 4.6609 104.98 4.6609 104.544 4.6609 104.154 4.2949 104.154 3.8139 104.154 3.4929 104.338 3.2409 104.75 2.9669 105.644 2.3249 106.056 1.6389 106.147.5849 106.147.4709 106.422.4709 106.445.5849 106.536.9509 106.582 1.3169 106.605 1.6609L116.843 1.6609C117.553.8589 117.668.7669 117.805.7669 118.011.7669 118.148.8589 119.11 1.7289 119.568 2.1419 119.638 2.3029 119.638 2.4629 119.638 2.6919 119.362 2.8519 118.698 2.8519 118.469 2.8519 118.355 2.8749 118.194 3.0129 117.851 3.2639 117.462 3.5619 116.958 3.9059 117.141 3.9969 117.393 4.2029 117.828 4.5469 118.217 4.8449 118.332 4.9819 118.332 5.1419 118.332 5.3029 118.263 5.3719 118.034 5.3719L112.377 5.3719 112.377 7.3179 115.675 7.3179C116.247 6.6539 116.385 6.5619 116.522 6.5619 116.66 6.5619 116.82 6.6539 117.484 7.1809 117.828 7.4779 117.92 7.5929 117.92 7.7539 117.92 7.8899 117.828 8.0279 117.37 8.3479L117.37 9.5619C117.37 11.9679 117.438 13.0899 117.438 13.4329 117.438 13.8919 117.095 14.1209 116.522 14.1209 116.041 14.1209 115.835 13.9369 115.835 13.5479L115.835 13.3189 112.399 13.3189C112.399 14.2119 112.399 14.9679 112.423 15.4259L116.614 15.4259C117.507 14.3729 117.668 14.2349 117.805 14.2349 117.988 14.2349 118.126 14.3729 119.042 15.1289 119.431 15.4719 119.546 15.6329 119.546 15.7689 119.546 15.9299 119.477 15.9989 119.248 15.9989L112.423 15.9989C112.445 16.8009 112.445 17.3499 112.445 17.6469 112.445 18.1049 112.147 18.3349 111.507 18.3349 111.025 18.3349 110.773 18.1749 110.773 17.8309 110.773 17.5329 110.797 16.9609 110.797 15.9989L105.941 15.9989C105.46 15.9989 105.094 16.0209 104.498 16.1129L104.269 15.2889C104.956 15.3809 105.346 15.4259 105.941 15.4259L110.819 15.4259C110.819 14.9679 110.843 13.7769 110.843 13.3189L107.567 13.3189 107.567 13.6389C107.567 14.0749 107.246 14.3039 106.674 14.3039 106.17 14.3039 105.986 14.1209 105.986 13.7309 105.986 13.3189 106.056 12.5629 106.056 10.0659 106.056 8.4859 106.056 7.6389 105.964 6.5169 106.72 6.7919 107.04 6.9289 107.728 7.3179L110.865 7.3179 110.865 5.3719 107.407 5.3719C106.972 5.3719 106.628 5.4169 106.078 5.4859L105.85 4.6609C106.49 4.7529 106.88 4.7989 107.407 4.7989L110.865 4.7989C110.865 3.7679 110.843 3.4019 110.797 2.8749 112.721 3.1039 113.041 3.2189 113.041 3.4709 113.041 3.6539 112.927 3.7679 112.377 3.9969L112.377 4.7989 115.583 4.7989zM101.223 4.2489C100.879 3.1949 100.33 2.1649 99.391 1.2709 99.299 1.2029 99.482 1.0189 99.597 1.0649 101.91 1.7989 103.055 3.1039 103.055 4.1569 103.055 4.7989 102.688 5.3029 102.116 5.3029 101.681 5.3029 101.475 5.0509 101.223 4.2489L101.223 4.2489zM103.216 16.5029C103.834 17.5789 104.406 18.0829 105.3 18.4269 106.354 18.8389 108.025 19.1589 111.392 19.1589 113.751 19.1589 116.706 18.9989 119.866 18.5869 119.98 18.5639 119.98 18.8149 119.89 18.8609 119.34 19.1369 119.202 19.3429 119.11 19.8919 119.064 20.3959 118.996 20.4649 118.652 20.4879 116.637 20.6709 114.484 20.7169 112.515 20.7169 108.231 20.7169 106.238 20.3049 104.98 19.5489 103.902 18.8849 103.17 17.9229 102.643 16.3879 101.933 17.5559 101.177 18.4949 100.078 19.6629 100.123 20.4649 99.986 20.6939 99.734 20.6939 99.482 20.6939 99.139 20.1899 98.291 18.3569 98.772 18.2209 99.207 18.0599 99.597 17.8529 100.215 17.5329 100.856 17.1209 101.566 16.4789L101.566 10.4559 100.101 10.4559C99.505 10.4559 99.116 10.5019 98.543 10.6389L98.314 9.7229C99.024 9.8379 99.482 9.8839 100.101 9.8839L101.406 9.8839C102.116 9.0819 102.254 8.9899 102.391 8.9899 102.552 8.9899 102.712 9.1039 103.444 9.7229 103.788 10.0439 103.88 10.1579 103.88 10.3179 103.88 10.4559 103.811 10.5479 103.216 10.9599L103.216 16.5029zM128.3077 9.6541L126.8417 9.6541C126.4297 9.6541 126.0177 9.6771 125.4907 9.7921L125.2617 8.8981C125.8337 9.0361 126.2917 9.0821 126.8417 9.0821L128.3077 9.0821 128.3077 8.8061C128.3077 8.2341 128.3077 7.8441 128.2397 7.2721 130.1177 7.4781 130.3007 7.6381 130.3007 7.8221 130.3007 7.9601 130.1857 8.0961 129.7507 8.2581L129.7507 9.0821 131.4227 9.0821C132.0187 8.4181 132.1787 8.3261 132.2927 8.3261 132.4537 8.3261 132.6137 8.4181 133.3007 8.9671 133.5067 9.1281 133.6207 9.3101 133.6207 9.4251 133.6207 9.5861 133.5527 9.6541 133.3237 9.6541L129.7507 9.6541 129.7507 11.4411C131.0107 11.2351 132.3617 10.9831 133.8967 10.6621 134.0107 10.6391 134.0567 10.8681 133.9427 10.9141 131.2627 11.9901 128.5137 12.7231 125.4677 13.3191 125.3537 13.8231 125.2157 13.9831 125.0557 13.9831 124.8717 13.9831 124.7807 13.9601 124.2307 11.9221 125.0097 11.9451 125.3537 11.9451 125.7657 11.8991 126.6137 11.8531 127.4377 11.7611 128.3077 11.6471L128.3077 9.6541zM138.8667 4.9131C138.7287 6.1721 138.4537 7.4101 137.9507 8.5551 139.2327 9.4941 139.8737 10.4101 139.8737 11.2121 139.8737 11.7151 139.5537 12.1511 139.1407 12.1511 138.7977 12.1511 138.6597 11.9671 138.2707 11.1661 138.0647 10.6391 137.7667 10.0891 137.4007 9.5621L137.3317 9.6771C136.4607 11.0061 135.2927 11.9901 133.3007 12.8831 135.0407 13.0891 135.5447 13.2271 135.5447 13.4791 135.5447 13.7311 135.3167 13.8911 134.7207 14.0511 134.6747 14.2581 134.6067 14.4871 134.5607 14.6931L140.1487 14.6931C140.8137 13.9371 140.9277 13.8691 141.1107 13.8691 141.2477 13.8691 141.3857 13.9371 142.1187 14.6251 142.4617 14.9451 142.5537 15.0831 142.5537 15.2191 142.5537 15.3571 142.4397 15.4491 141.9357 15.7471 141.6837 17.6471 141.4087 18.7931 141.0417 19.6171 140.7437 20.2131 140.4237 20.5791 139.9197 20.8311 139.5307 21.0141 138.9807 21.1291 138.5457 21.1291 138.1787 21.1291 138.0417 21.0601 137.9957 20.8081 137.9047 20.1671 137.4687 19.8231 135.6147 19.3881 135.4527 19.3421 135.4767 19.0221 135.6367 19.0451 137.2407 19.2741 137.9507 19.3421 138.7517 19.3421 139.2787 19.3421 139.5077 19.1131 139.6907 18.5871 139.9197 17.9681 140.1487 16.8231 140.3097 15.2651L134.3767 15.2651C133.0487 19.1591 129.7507 20.9681 124.1167 21.3581 123.9787 21.3581 123.9107 21.0601 124.0477 21.0371 128.9497 19.9841 131.5377 18.0831 132.5907 15.2651L127.0477 15.2651C126.4067 15.2651 125.8797 15.2891 125.2387 15.4251L125.0097 14.5331C125.7877 14.6471 126.3377 14.6931 127.0257 14.6931L132.7967 14.6931C132.9567 14.1431 133.0717 13.5711 133.0947 12.9751 132.9117 13.0441 132.7287 13.1351 132.5447 13.2041 132.4307 13.2501 132.3157 13.0211 132.4077 12.9521 134.4687 11.7381 135.4987 10.6621 136.2547 9.2191 136.3707 8.9901 136.4847 8.7611 136.5757 8.5091 136.1867 8.0511 135.7047 7.6161 135.2007 7.2261 135.1327 7.1801 135.2247 6.9741 135.3167 7.0201 135.8667 7.2961 136.3707 7.5471 136.8277 7.8221 137.1257 6.8831 137.2867 5.8981 137.3777 4.9131L136.9647 4.9131C136.2327 4.9361 135.8207 4.9821 135.3387 5.0961L135.1327 4.2261C135.7287 4.3181 136.0947 4.3401 136.9647 4.3401L137.4007 4.3401C137.4227 3.8601 137.4467 3.3791 137.4467 2.8291 137.4467 1.7291 137.4467 1.3401 137.3547.5611 139.4847.7671 139.6677.8371 139.6677 1.1571 139.6677 1.3631 139.5307 1.5231 138.9807 1.7531L138.9807 2.9431C138.9807 3.4471 138.9577 3.9061 138.9117 4.3401L140.4467 4.3401C141.0417 3.6541 141.1567 3.5621 141.3167 3.5621 141.4537 3.5621 141.5687 3.6541 142.1637 4.1801 142.4857 4.5011 142.5757 4.6381 142.5757 4.7761 142.5757 4.9361 142.4857 5.0501 142.0277 5.3941 142.0497 7.4561 142.1637 8.4181 142.4397 9.3801 142.6217 9.9981 142.8277 10.6161 143.1257 11.0741 143.2867 11.3031 143.3777 11.3721 143.4697 11.3721 143.6077 11.3721 143.7897 11.0741 144.4097 9.4481 144.4547 9.3341 144.6617 9.4481 144.6377 9.5621 144.4097 10.9831 144.3177 11.7151 144.3177 11.8761 144.3177 12.1281 144.3397 12.1971 144.5917 12.4941 144.7067 12.6311 144.7757 12.8381 144.7757 12.9981 144.7757 13.3651 144.4777 13.6851 144.0417 13.6851 143.7217 13.6851 143.3097 13.4791 142.9437 13.1811 142.0957 12.4251 141.4997 11.0971 141.1337 9.8141 140.7677 8.5781 140.6297 7.2501 140.6067 4.9131L138.8667 4.9131zM128.1697 5.4401C127.6897 7.4101 126.5217 8.3941 123.7267 9.0821 123.6127 9.1041 123.4977 8.8521 123.6127 8.8061 125.4907 8.0061 126.3377 7.0441 126.6357 5.4401L125.3757 5.4401C124.9407 5.4401 124.5517 5.4861 124.0477 5.5781L123.8187 4.6841C124.3917 4.8221 124.8497 4.8681 125.3997 4.8681L128.3537 4.8681 128.3537 3.1501 126.4757 3.1501C125.9717 3.1501 125.5367 3.1951 124.9637 3.2871L124.7117 2.4171C125.3997 2.5541 125.8797 2.5771 126.4757 2.5771L128.3537 2.5771 128.3537 1.9591C128.3537 1.4771 128.3307 1.1111 128.2397.4251 130.2777.6761 130.5067.8591 130.5067 1.0891 130.5067 1.2711 130.3457 1.4321 129.8197 1.6381L129.8197 2.5771 131.7207 2.5771C132.4077 1.7531 132.5677 1.6381 132.7047 1.6381 132.8657 1.6381 133.0257 1.7531 133.7587 2.3481 134.1027 2.6231 134.2167 2.7831 134.2167 2.9211 134.2167 3.0811 134.1487 3.1501 133.8967 3.1501L129.8197 3.1501 129.8197 4.8681 132.5907 4.8681C133.2547 4.0661 133.4387 3.9511 133.5757 3.9511 133.7127 3.9511 133.8727 4.0661 134.6287 4.6611 134.9047 4.8901 135.0187 5.0961 135.0187 5.2341 135.0187 5.3721 134.9507 5.4401 134.7207 5.4401L131.6517 5.4401 131.6517 6.3341C131.6517 6.7221 131.8117 6.8141 132.4767 6.8141 132.9807 6.8141 133.2327 6.7681 133.3927 6.6311 133.5527 6.4941 133.6667 6.1271 133.7817 5.7601 133.8047 5.6691 133.9877 5.6921 133.9877 5.7841 133.9647 5.9661 133.9647 6.1721 133.9647 6.3341 133.9647 6.4481 134.0567 6.5161 134.2167 6.5621 134.4687 6.6541 134.5367 6.8141 134.5367 7.0891 134.5367 7.4321 134.3307 7.5921 133.8967 7.7081 133.5527 7.8001 133.0027 7.8441 132.2017 7.8441 130.7817 7.8441 130.3237 7.5241 130.3237 6.6311 130.3237 6.4701 130.3457 6.2881 130.3457 5.9661L130.3457 5.4401 128.1697 5.4401z"/>
    </g>
  </g>
</svg>
