<svg xmlns="http://www.w3.org/2000/svg" width="221" height="58" viewBox="0 0 221 58">
  <g fill="#221F20" fill-rule="evenodd" transform="translate(.666)">
    <path d="M11.7850057 14.38819L15.8955218 14.38819 15.8955218 7.90504759 11.7850057 7.90504759 11.7850057 14.38819zM5.89894118 22.0882653C5.91611006 22.3147382 5.81881973 22.4853094 5.60707021 22.5985458 5.16926376 22.7949178 4.72430361 22.8106849 4.26932827 22.6487139 4.10765465 22.5498112 4.02753321 22.4122075 4.02753321 22.2330359L4.02753321 7.90504759 2.12894118 7.90504759.74398482 8.10141958C.579449715 8.13438714.492174573 8.10141958.475005693 8.00395027L.231779886 7.17546115C.216041746 7.09375894.304747628 7.06939161.500759013 7.10235917L2.12894118 7.24712976 4.02753321 7.24712976 4.02753321.815588772C4.01036433.70235237 4.05900949.660784577 4.17203795.693752137L6.0463074 1.05926204C6.67726376 1.15529798 6.99345731 1.41617172 6.99345731 1.83901651 6.99345731 2.24466084 6.70301708 2.51270144 6.1178444 2.64170493 5.97190892 2.67610587 5.89894118 2.76354157 5.89894118 2.9111789L5.89894118 7.24712976 9.91216698 7.24712976 9.91216698.619216783C9.89642884.505980381 9.9522277.46584596 10.082425.497380148L11.9566945.888690754C12.5719127.98472669 12.8795218 1.23700019 12.8795218 1.64264452 12.8795218 2.04972222 12.5962353 2.31776282 12.0282315 2.44819969 11.8665579 2.47973388 11.7850057 2.57003632 11.7850057 2.71480692L11.7850057 7.24712976 15.8955218 7.24712976 15.8955218.619216783C15.8797837.505980381 15.9370133.46584596 16.0672106.497380148L17.9386186.888690754C18.5552676.98472669 18.8643074 1.23700019 18.8643074 1.64264452 18.8643074 2.04972222 18.5781594 2.31776282 18.0115863 2.44819969 17.8499127 2.47973388 17.7683605 2.57003632 17.7683605 2.71480692L17.7683605 7.24712976 18.4007476 7.24712976 19.8601025 5.61595221C19.9731309 5.48551535 20.0947438 5.48551535 20.2249412 5.61595221L22.2694687 7.15109382C22.4955256 7.29729779 22.5756471 7.45926884 22.5112638 7.63844037 22.4311423 7.78321096 22.2694687 7.8735134 22.0262429 7.90504759L17.7683605 7.90504759 17.7683605 16.1913722C17.7855294 16.4020779 17.6868083 16.5726492 17.4764896 16.7030861 17.0386831 16.8980247 16.6023074 16.9152251 16.1630702 16.7503873 15.9842277 16.6543514 15.8955218 16.5067141 15.8955218 16.3132088L15.8955218 15.0461078 11.7850057 15.0461078 11.7850057 16.3619435C11.8007438 16.5898497 11.7048843 16.7675878 11.4931347 16.8980247 11.056759 17.0929633 10.6089374 17.1087304 10.1568235 16.9467593 9.99228843 16.84929 9.91216698 16.7030861 9.91216698 16.5067141L9.91216698 7.90504759 5.89894118 7.90504759 5.89894118 20.2105478 17.3062315 20.2105478 18.8871992 18.5793702C19.0503036 18.4159658 19.2119772 18.4159658 19.3736509 18.5793702L21.514038 20.1388792C21.6928805 20.2678827 21.7744326 20.4226869 21.7572638 20.6018584 21.7086186 20.7322953 21.5626831 20.8125641 21.3194573 20.8455317L5.89894118 20.8455317 5.89894118 22.0882653zM38.1506831 9.34415326L43.2097799 9.34415326 43.2097799 6.10329876 38.1506831 6.10329876 38.1506831 9.34415326zM38.1506831 5.44538092L43.2097799 5.44538092 43.2097799 2.2776284 38.1506831 2.2776284 38.1506831 5.44538092zM31.316038 9.34415326L36.2778444 9.34415326 36.2778444 6.10329876 31.316038 6.10329876 31.316038 9.34415326zM36.2778444 2.2776284L31.8268121 2.2776284 31.316038 2.34929701 31.316038 5.44538092 36.2778444 5.44538092 36.2778444 2.2776284zM38.564167 10.0006377L36.3264896 10.0006377C35.7742239 10.895062 35.035962 11.7393182 34.1131347 12.5362731L34.6224782 12.5850078C35.223389 12.6323091 35.5395825 12.8444481 35.5710588 13.2171249 35.5710588 13.5267333 35.3049412 13.7460392 34.7698444 13.8750427 34.5580949 13.9094437 34.469389 14.0140798 34.5008653 14.1932514 34.4865579 16.9711267 34.0001063 18.952047 33.0429412 20.1388792 31.8425503 21.4547148 30.0755863 22.3233384 27.7406186 22.7461832 27.546038 22.7461832 27.4401632 22.6888483 27.424425 22.5756119 27.4072562 22.4279746 27.4888083 22.3319386 27.6676509 22.283204 29.48326 21.7471228 30.8210019 20.8369314 31.6808767 19.55263L32.0943605 18.6510389C32.6609336 16.84929 32.824038 15.2080789 32.5793814 13.7302721L32.1430057 13.9968794C30.2944896 14.9887729 28.437389 15.7212261 26.571704 16.1913722 26.3284782 16.271641 26.175389 16.2401068 26.1110057 16.0924695 26.0451917 15.9476989 26.1267438 15.8000616 26.3542315 15.655291 30.1971992 14.3064878 32.824038 12.4230367 34.2347476 10.0006377L31.316038 10.0006377 31.316038 10.9022288C31.2988691 11.0168986 31.2344858 11.130135 31.1214573 11.2433714 30.6020987 11.472711 30.1070626 11.5042451 29.6377799 11.3422741 29.5075825 11.2777723 29.4346148 11.1717028 29.4188767 11.0254988L29.4188767 1.05926204 29.4188767.766854118C29.4346148.70235237 29.4904137.685151904 29.5891347.718119464L31.2430702 1.61971057 31.8268121 1.64264452 42.9179089 1.64264452 44.0610702.497380148C44.238482.319641997 44.4015863.319641997 44.5475218.497380148L45.6906831 1.66844522C46.500482 2.49693434 46.3559772 3.04878263 45.2528767 3.32542347 45.1384175 3.34119056 45.0826186 3.41572591 45.0826186 3.54329604L45.0826186 11.0011315C45.0654497 11.180303 44.9610057 11.3336739 44.766425 11.4641107 44.3443567 11.6432822 43.9394573 11.6748164 43.5488653 11.5601467 43.3228083 11.4641107 43.2097799 11.3164734 43.2097799 11.1215348L43.2097799 10.0006377 39.488425 10.0006377C41.7733169 12.5362731 44.7578406 14.0054796 48.4391347 14.4111239 48.5850702 14.3967902 48.6737761 14.4526917 48.7066831 14.5831286 48.7381594 14.696365 48.6494535 14.7938343 48.4391347 14.8755365 47.6608121 15.2983813 47.2230057 15.8416294 47.1257154 16.5067141 47.1099772 16.7030861 46.9797799 16.7503873 46.7365541 16.6543514 44.9853283 16.036568 43.4601594 15.2252793 42.1639089 14.2176187 42.0337116 14.3466222 41.8148083 14.4526917 41.5071992 14.5329606 41.3455256 14.5673615 41.2639734 14.6547972 41.2639734 14.8024345L41.2639734 22.283204C41.2797116 22.4939097 41.1824213 22.664481 40.9721025 22.7949178 40.534296 22.9898564 40.0964896 23.0056235 39.6586831 22.8422191 39.4798406 22.7461832 39.389704 22.6071461 39.389704 22.4279746L39.389704 12.7068444C39.3753966 12.593608 39.4311954 12.5534736 39.5613928 12.5850078L40.6802315 12.828681C39.8532638 11.9356902 39.1464782 10.9925313 38.564167 10.0006377L38.564167 10.0006377zM56.3438304 7.8326623C56.3438304 7.71942589 56.3924755 7.67929147 56.4911966 7.71082566L58.4598949 8.05196824C59.0765438 8.13367045 59.3841529 8.36014326 59.3841529 8.7342534 59.3684148 9.15709819 59.0679594 9.4093717 58.4842175 9.48964054 58.3225438 9.5226081 58.2409917 9.60287694 58.2409917 9.73331381L58.2409917 20.5767744 62.7163465 20.5767744 62.7163465 3.22723747 54.8358304 3.22723747 53.450874 3.42217609C53.2877696 3.45514365 53.1990638 3.42217609 53.1818949 3.32614015L52.9386691 2.52058498C52.9229309 2.42311568 53.0116368 2.39014812 53.2076482 2.42311568L54.8358304 2.59368697 69.0158949 2.59368697 70.4752497.961076049C70.5882782.83063918 70.7027374.83063918 70.8157658.961076049L72.8588626 2.47185033C73.1020884 2.63382139 73.1907943 2.80439268 73.126411 2.9835642 73.0462896 3.11400107 72.8846159 3.19570328 72.6413901 3.22723747L64.6135078 3.22723747 64.6135078 10.7811089 67.2660998 10.7811089 68.822745 9.17429866C68.9844186 8.99512714 69.1532459 8.99512714 69.3320884 9.17429866L71.4724755 10.7080069C71.651318 10.8384438 71.7328702 11.0004148 71.7157013 11.1953534 71.6670562 11.3100232 71.5211207 11.3831252 71.2778949 11.4146594L64.6135078 11.4146594 64.6135078 20.5767744 69.9659063 20.5767744 71.4238304 18.9441635C71.5368588 18.8137266 71.6584717 18.8137266 71.7886691 18.9441635L73.8331966 20.4549377C74.0592535 20.6183422 74.139375 20.7874801 74.0764224 20.9666516 73.9948702 21.1128556 73.8331966 21.2017247 73.5899708 21.2346922L53.8872497 21.2346922 52.5022934 21.4052635C52.339189 21.4367977 52.2504831 21.4138637 52.2333142 21.3321615L51.9900884 20.5036724C51.9743503 20.4219702 52.0644869 20.390436 52.2590676 20.4076365L53.8872497 20.5767744 56.3438304 20.5767744 56.3438304 7.8326623zM91.2461613 13.2429256L88.231592 13.2429256 86.8194516 13.4120635C86.657778 13.4464645 86.5676414 13.4120635 86.553334 13.3160276L86.333 12.5104724C86.3172619 12.4144365 86.3973833 12.3814689 86.5762258 12.4144365L88.231592 12.5850078 91.2461613 12.5850078 91.2461613 6.17496737 87.841 6.17496737 86.4317211 6.37133936C86.2843548 6.40430692 86.2028027 6.37133936 86.1870645 6.27387005L85.9438387 5.46831488C85.9281006 5.37227894 86.0182372 5.33931138 86.2113871 5.37227894L87.841 5.54285023 91.2461613 5.54285023 91.2461613.596282828C91.2461613.483046426 91.2948065.441478632 91.3920968.474446193L93.3622258.815588772C93.9788748.913058081 94.2864839 1.14096426 94.2864839 1.49787393 94.2707457 1.92071873 93.9702903 2.17155886 93.3865484 2.25326107 93.2248748 2.28479526 93.1433226 2.36649747 93.1433226 2.49693434L93.1433226 5.54285023 95.1864194 5.54285023 96.6228824 3.90880594C96.7359108 3.77980245 96.8575237 3.77980245 96.9877211 3.90880594L99.0293871 5.4210136C99.2726129 5.58298465 99.3627495 5.75355594 99.2969355 5.93129409 99.2153833 6.07893143 99.0451252 6.16063364 98.787592 6.17496737L93.1433226 6.17496737 93.1433226 12.5850078 94.5297097 12.5850078 95.9661727 10.9509635C96.0792011 10.8233934 96.200814 10.8233934 96.3310114 10.9509635L98.3726774 12.4631711C98.6001651 12.6251422 98.6802865 12.7957135 98.6159032 12.974885 98.5500892 13.121089 98.3884156 13.2113914 98.1308824 13.2429256L93.1433226 13.2429256 93.1433226 20.9673683 96.0391404 20.9673683 97.4970645 19.3347574C97.5943548 19.2043205 97.708814 19.2043205 97.8375806 19.3347574L99.8806774 20.8455317C100.123903 21.0075027 100.21404 21.178074 100.149657 21.3572455 100.066674 21.486249 99.8978463 21.5679512 99.6374516 21.6009188L86.5032581 21.6009188 85.1183017 21.7958574C84.9537666 21.8273916 84.8650607 21.7958574 84.8493226 21.6969547L84.6060968 20.8942663C84.5903586 20.796797 84.6790645 20.7638294 84.8736452 20.796797L86.5032581 20.9673683 91.2461613 20.9673683 91.2461613 13.2429256zM82.5644307.401344211C82.595907.288107809 82.6774592.253706876 82.8076565.303874903L84.461592 1.03346134C84.962351 1.21263287 85.1569317 1.46490637 85.0439032 1.79028186 84.9308748 2.08268978 84.6547419 2.17872572 84.2169355 2.08268978 84.0867381 2.04972222 83.9908786 2.07408955 83.9264953 2.15579176 82.271129 4.65702622 80.3982903 6.47597552 78.3065484 7.61263967 78.1277059 7.69577525 77.9903548 7.67857479 77.8930645 7.56533838 77.8286812 7.43490152 77.8687419 7.31306488 78.0146774 7.1983951 80.0420361 5.59158489 81.4999602 3.54329604 82.3941727 1.05926204L82.5644307.401344211zM78.039 14.3623893C77.8773264 14.461292 77.7628672 14.4526917 77.6984839 14.3394553 77.6183624 14.2262189 77.6498387 14.1129825 77.7972049 13.9968794 80.1808178 11.5945476 81.9220285 8.61313345 83.025129 5.05550369 83.0737742 4.90929973 83.1467419 4.8591317 83.2440323 4.90929973L85.1655161 5.7865235C85.5704156 5.99722922 85.7177818 6.28247028 85.6047533 6.63937995 85.4902941 6.93178788 85.182685 7.02065695 84.6790645 6.90742055 84.500222 6.87445299 84.4129469 6.89882032 84.4129469 6.98052253L83.0737742 9.1979493 83.0737742 22.4050406C83.0580361 22.5340441 82.992222 22.6730812 82.8791935 22.8192852 82.3941727 23.0629584 81.9077211 23.1030929 81.4212694 22.9411218 81.2424269 22.8278854 81.1680285 22.6888483 81.2009355 22.5268772L81.2009355 11.707784C80.0992657 12.9103833 79.0448102 13.7947739 78.039 14.3623893L78.039 14.3623893zM115.910975 1.44827925L117.224394 1.44827925 118.31891.351749534 119.411996 1.42391193C120.125935 2.10619709 119.915616 2.49750769 118.781039 2.59354363 118.650842 2.62651119 118.602197 2.69101294 118.633673 2.78991562 119.834064 6.346112 122.217677 8.70974274 125.784512 9.87937444 125.996261 9.92810909 126.093552 10.0413455 126.076383 10.220517 126.044907 10.366721 125.89754 10.4555901 125.640007 10.489991 124.813039 10.6677291 124.269358 11.1393086 124.008964 11.9018626 123.928842 12.0968012 123.807229 12.138369 123.644125 12.0236992 120.38633 9.55399895 118.37614 6.24147584 117.613556 2.08182976L115.910975 2.08182976 114.597556 2.27676838C114.387237 2.35847059 114.271347 2.37423768 114.257039 2.32550303L114.062459 1.37517727C114.04529 1.29490843 114.118258 1.2705411 114.279931 1.30207529L115.910975 1.44827925zM109.07633 11.0490061L107.76291 11.2439448C107.551161 11.2926794 107.438132 11.2926794 107.420964 11.2439448L107.203491 10.3194197C107.186322 10.2534846 107.267874 10.2291172 107.446717 10.2448843L109.07633 10.3910883 118.585028 10.3910883 119.655222 9.12542067C119.721036 9.01075089 119.816895 9.01791775 119.947093 9.14835462L121.456523 10.6347616C121.699749 10.8469007 121.787024 11.0819737 121.722641 11.3414141 121.673996 11.6022878 121.407878 11.7714257 120.921427 11.8531279L120.77406 11.9276633 120.068706 18.9210862C119.745358 20.7400355 119.226 21.8924667 118.51206 22.3812466 117.962656 22.7696905 117.134258 23.0133638 116.032588 23.1108331 115.949605 22.0874053 115.400201 21.4051202 114.378652 21.065411 114.19981 20.9822754 114.126842 20.8618721 114.158318 20.6984677 114.208394 20.5364966 114.321423 20.4705615 114.500265 20.5035291 115.827992 20.7644028 116.727928 20.795937 117.198641 20.6009984 117.490512 20.4547944 117.726584 20.1552196 117.905427 19.6994073 118.472 18.2703352 118.781039 15.3878237 118.829685 11.0490061L112.992265 11.0490061C112.683225 14.3629626 111.839089 16.9616664 110.461286 18.8465508 109.651487 19.9846483 108.645677 20.9091734 107.446717 21.6244261 106.29354 22.3067113 105.257685 22.7381563 104.331996 22.9173278 104.137415 22.9818296 104.03154 22.9402618 104.017233 22.7954912 103.95285 22.6306534 104.000064 22.517417 104.163169 22.4529152 105.556709 21.7878305 106.845806 20.8360714 108.029028 19.601938 109.733039 17.6683189 110.770326 14.8173416 111.143749 11.0490061L109.07633 11.0490061zM109.83033 1.76505451C109.863237 1.57011589 109.943358 1.48841368 110.073556 1.52138124L111.873427 2.10619709C112.408523 2.26816814 112.643165 2.53764211 112.578781 2.91175225 112.481491 3.23569437 112.148129 3.36613124 111.581556 3.30019611 111.43562 3.28442902 111.296838 3.4707674 111.168072 3.86207801 109.319556 7.88985385 106.918774 10.6834962 103.967157 12.2430052 103.805483 12.3075069 103.692455 12.2917398 103.628072 12.1942705 103.562258 11.9993319 103.788315 11.6983237 104.309104 11.2926794 107.080447 8.59650633 108.847411 5.72832859 109.611427 2.69101294L109.83033 1.76505451zM143.564748 8.02688423L146.434812 8.02688423 146.434812 3.32542347 143.564748 3.32542347 143.564748 8.02688423zM138.919135 8.02688423L141.691909 8.02688423 141.691909 3.32542347 138.919135 3.32542347 138.919135 8.02688423zM137.021973 8.02688423L137.021973 3.32542347 134.565393 3.32542347 134.053188 3.39852545 134.053188 8.02688423 137.021973 8.02688423zM145.170038 15.312715C146.693776 14.2262189 147.828353 12.8688155 148.575199 11.2433714 148.606676 11.1473355 148.688228 11.1387352 148.818425 11.2204375L150.27778 12.2667991C150.698417 12.5764075 150.828615 12.8688155 150.666941 13.1454563 150.503837 13.4206638 150.211966 13.4607982 149.789898 13.2672929 149.661131 13.1855907 149.563841 13.1855907 149.499457 13.2672929 148.234683 14.5186268 146.888357 15.3786502 145.461909 15.8487962 146.888357 18.1880596 148.858486 19.7576022 151.372296 20.5531237 151.598353 20.6018584 151.72855 20.6978943 151.760027 20.8455317 151.777195 20.9759685 151.68849 21.0806047 151.493909 21.1608735 150.715586 21.3730126 150.189074 21.8603592 149.91151 22.6243465 149.864296 22.75335 149.62107 22.6487139 149.183264 22.3061379 145.760934 20.1632465 143.669192 16.5325148 142.908038 11.4153761L141.278425 11.6590493 141.278425 22.4279746C141.278425 22.6071461 141.163966 22.7691171 140.937909 22.9167545 140.515841 23.1116931 140.110941 23.134627 139.72178 22.9898564 139.477123 22.9081542 139.372679 22.7863176 139.405586 22.6243465L139.405586 11.8525546 138.894812 11.8525546C136.349526 11.9672244 134.224877 11.942857 132.522296 11.7794526 132.327715 11.7479184 132.246163 11.6504491 132.27907 11.4870447 132.294808 11.3422741 132.376361 11.2691721 132.522296 11.2691721 134.840095 11.203237 137.192231 10.9437966 139.575844 10.4894176 141.796353 10.0493724 143.443135 9.54769211 144.513328 8.97720998 144.78803 8.79947183 144.966873 8.75073718 145.048425 8.83243939L146.434812 10.0751731C146.791066 10.3661476 146.865465 10.675756 146.653715 11.0011315 146.426228 11.2605719 146.092865 11.2777723 145.65649 11.0498662 145.380357 10.9194293 144.723647 10.9925313 143.686361 11.2691721 144.157074 13.121089 144.650679 14.4684588 145.170038 15.312715L145.170038 15.312715zM136.462554 16.5568821C136.558414 16.4264452 136.657135 16.4020779 136.754425 16.4837801L138.21378 17.3610039C138.618679 17.6046772 138.748877 17.8884848 138.602941 18.2138603 138.424099 18.4890678 138.092167 18.5464027 137.605715 18.3844316 137.426873 18.3514641 137.30526 18.3758314 137.240877 18.4575336 135.423837 19.837871 133.017332 20.8211643 130.01707 21.4045468 129.821059 21.4045468 129.716615 21.3400451 129.699446 21.2110416 129.685139 21.03187 129.756676 20.9344007 129.91978 20.9172003 132.482235 20.1546463 134.565393 18.8230435 136.170683 16.9209586L136.462554 16.5568821zM135.732877 12.2438652C135.830167 12.1449625 135.918873 12.1377956 136.000425 12.2194979L137.45978 13.1454563C137.848941 13.3733625 137.970554 13.6485699 137.824619 13.9739454 137.645776 14.2176187 137.322429 14.2663533 136.851715 14.118716 136.688611 14.0714147 136.558414 14.0957821 136.462554 14.1932514 134.79145 15.3958506 132.643909 16.1756051 130.01707 16.5325148 129.821059 16.5482819 129.716615 16.4837801 129.699446 16.3361428 129.685139 16.1584046 129.756676 16.0609353 129.91978 16.0451682 132.190364 15.3958506 134.030296 14.2491529 135.441006 12.6093751L135.732877 12.2438652zM146.167264 2.69187296L147.383393 1.4735066C147.496421 1.3602702 147.618034 1.36743706 147.748231 1.49787393L149.183264 2.93554623C149.42649 3.16345241 149.515195 3.43865987 149.450812 3.76403535 149.370691 4.05644328 149.061651 4.2513819 148.526554 4.3488512 148.347712 4.38038539 148.274744 4.49362179 148.307651 4.68856041L148.307651 8.02688423 148.794102 8.02688423 149.789898 6.66231391C149.905787 6.53331041 150.010231 6.53331041 150.107522 6.66231391L151.226361 8.05268493C151.388034 8.18312179 151.445264 8.31355866 151.396619 8.44112879 151.330805 8.58876612 151.226361 8.6618681 151.080425 8.6618681L131.426349 8.6618681 129.895457 8.85537335C129.76526 8.88977428 129.690861 8.87257382 129.676554 8.80663869L129.45622 7.95521562C129.441913 7.85631294 129.530619 7.82477875 129.725199 7.85631294L131.426349 8.02688423 132.18178 8.02688423 132.18178 2.10562374C132.164611 1.87915093 132.230425 1.80604895 132.376361 1.88775117L133.738425 2.64170493 134.565393 2.69187296 138.627264 2.69187296C138.901966 1.89491803 139.105131 1.10656333 139.235328.326808858 139.299712.0516013986 139.421324-.0458679099 139.598736.0358343046L141.400038.66938481C141.968042.880090521 142.194099 1.16389821 142.08107 1.52080789 142.016687 1.83041628 141.707647 1.95225291 141.156812 1.88775117 141.07526 1.8705507 140.646038 2.14002467 139.867715 2.69187296L146.167264 2.69187296zM168.909878 12.852475C169.347685 13.957605 169.874197 14.9566654 170.490846 15.8496563 171.867218 13.4616582 172.719939 10.4315094 173.044717 6.76064324L168.009943 6.76064324 167.742394 7.46729573C168.017096 9.64458807 168.406258 11.43917 168.909878 12.852475L168.909878 12.852475zM167.035609 9.07553932C166.274455 10.5705465 165.463225 11.7889129 164.603351 12.7306384 164.458846 12.8610753 164.337233 12.8782757 164.238512 12.779373 164.125483 12.6991042 164.134068 12.5772676 164.264265 12.4138631L165.480394 10.0014977C166.809552 6.68754126 167.474846 3.55275629 167.474846.595709479 167.490584.465272611 167.547814.400770862 167.643673.400770862L169.736846.668811461C170.206129.734746581 170.44077.952619153 170.44077 1.32672929 170.409294 1.61913722 170.133161 1.80690897 169.613802 1.88861119 169.469298 1.90294491 169.387745 1.9602798 169.370576 2.05774911 169.062967 3.40655233 168.690975 4.76252242 168.253169 6.12852611L172.945996 6.12852611 174.528394 4.49448182C174.690068 4.31674367 174.851742 4.31674367 175.014846 4.49448182L177.155233 6.05399075C177.334076 6.16866053 177.412766 6.32203135 177.398459 6.51696997 177.348383 6.64740684 177.211032 6.72767568 176.984975 6.76064324L174.916125 6.76064324C174.577039 11.0492928 173.458201 14.500853 171.561039 17.1181906 173.084778 18.7579684 175.029153 19.911833 177.398459 20.5769177 177.591609 20.6256524 177.681745 20.7403221 177.666007 20.9180603 177.666007 21.0642643 177.53581 21.1531333 177.276846 21.1861009 176.319681 21.3151044 175.662971 21.706415 175.306717 22.3557326 175.193688 22.5349041 175.014846 22.5506712 174.77162 22.4044672 173.101946 21.4455413 171.649745 20.1555063 170.417878 18.5300622 168.341874 20.7403221 165.876709 22.1435935 163.023814 22.7456098 162.844971 22.7943445 162.731943 22.7456098 162.681867 22.5994059 162.633222 22.4532019 162.690451 22.3471324 162.853556 22.2826306 165.511871 21.1617336 167.742394 19.4889882 169.540835 17.2629612 168.260322 15.2318728 167.426201 12.5041656 167.035609 9.07553932L167.035609 9.07553932zM161.854899 9.63598784L161.854899 3.61725804 157.308007 3.61725804 155.994588 3.81219666C155.782838 3.86093131 155.678394 3.83656399 155.678394 3.74052805L155.482383 3.00807486C155.435169 2.84467044 155.499552 2.78876892 155.678394 2.83750357L157.308007 2.98370754 161.563028 2.98370754 162.731943 1.83844316C162.893616 1.65927164 163.046706 1.65927164 163.194072 1.83844316L164.337233 3.00807486C165.147032 3.82079689 165.002527 4.37264518 163.899427 4.66505311 163.802136 4.68225357 163.753491 4.75535556 163.753491 4.88435905L163.753491 11.7559453C163.736322 11.9508839 163.623294 12.112855 163.411544 12.2432918 162.990907 12.4052629 162.586007 12.4296302 162.196846 12.3163938 161.967928 12.2346916 161.854899 12.089921 161.854899 11.8777819L161.854899 10.2695383 157.648523 10.2695383 157.648523 16.946186C157.631354 17.4665001 157.785874 17.8477771 158.110652 18.0914503 158.386785 18.286389 158.961943 18.3996254 159.836125 18.4325929L162.367104 18.3594909C162.690451 18.3121897 162.966584 18.2046868 163.194072 18.0427157 163.567495 17.7675082 163.938057 16.8487167 164.31291 15.2892077 164.360125 15.0627349 164.458846 14.9652656 164.603351 14.9967998 164.766455 15.0140003 164.848007 15.1100362 164.848007 15.2892077L164.799362 17.1898592C164.799362 17.612704 164.961036 17.9122788 165.285814 18.0914503 165.62633 18.2218872 165.795157 18.4899278 165.795157 18.8955721 165.795157 19.334184 165.381673 19.6910937 164.556136 19.9677345 163.729169 20.2114078 162.188261 20.3332444 159.934846 20.3332444 158.312387 20.3332444 157.209286 20.0652038 156.626975 19.5291226 156.058971 19.0417761 155.774254 18.2777887 155.774254 17.2385939L155.774254 9.02680466C155.759946 8.8806007 155.815745 8.84763314 155.945943 8.92933535L157.330899 9.63598784 161.854899 9.63598784zM200.771743 9.41739858C200.705929 9.30416218 200.705929 9.22102659 200.771743 9.17372531 200.867603 9.076256 200.966324 9.076256 201.063614 9.17372531 201.435607 9.41739858 201.784707 9.76570802 202.109485 10.220087 202.708965 11.0815437 202.894962 11.7967964 202.667474 12.3658452 202.554446 12.6252855 202.344127 12.7800897 202.036518 12.8288244 201.793292 12.8603586 201.565804 12.7714895 201.354055 12.5593504 201.192381 12.3973794 201.087937 12.1795068 201.039292 11.9014326 201.006385 10.6357649 200.917679 9.80584244 200.771743 9.41739858L200.771743 9.41739858zM198.339485 10.0996837L198.339485 8.31943549C197.561163 8.51437411 197.18774 8.70214586 197.220647 8.88131739 197.252123 9.22102659 197.163417 9.457533 196.953098 9.5865365L198.070506 9.97784711 198.339485 10.0996837zM197.243539 3.15499551C197.488195 2.58594676 197.634131 1.98393044 197.682776 1.35181331L197.877356.279650913C197.893094.149214044 197.974647.109079623 198.119151.157814277L199.774518.741196756C200.309614.903167813 200.544256 1.16404155 200.479872 1.52095122 200.39832 1.83055962 200.097865 1.98393044 199.579937 1.98393044 199.401094 1.98393044 199.279482 2.06563265 199.215098 2.22760371L197.853034 3.73981136C198.29084 4.25869209 198.461098 4.75463887 198.362377 5.22478495 198.297994 5.50142578 198.119151 5.70496463 197.82728 5.8354015 197.569747 5.91710371 197.317937 5.87553592 197.074711 5.71356486 196.864392 5.58312799 196.709872 5.38102251 196.612582 5.10294831 196.43374 3.9490837 196.22199 3.20373017 195.978764 2.86258759 195.898643 2.78088537 195.882905 2.68341606 195.930119 2.57017966 196.011671 2.45550989 196.117546 2.43974279 196.247743 2.52001164 196.572521 2.63468141 196.904453 2.84538712 197.243539 3.15499551L197.243539 3.15499551zM193.1087 11.6348253L193.1087 9.90474512 191.067034 9.90474512 190.531937 9.97784711 190.531937 11.6348253 193.1087 11.6348253zM190.531937 12.7299217C190.531937 12.8288244 190.474707 12.9420608 190.361679 13.0724976 189.84089 13.2832034 189.363022 13.3161709 188.926647 13.1685336 188.796449 13.1212323 188.723482 13.0151628 188.706313 12.8517583L188.706313 8.80678203 188.706313 8.54017481C188.723482 8.45847259 188.780711 8.44127213 188.878002 8.49000678L190.215743 9.19809264 191.067034 9.24682729 193.037163 9.24682729 193.838377 8.46707282C193.951406 8.31943549 194.081603 8.31226863 194.228969 8.44127213L195.299163 9.36866393C195.542389 9.54783545 195.655417 9.75710779 195.639679 10.0007811 195.639679 10.2444543 195.420776 10.4150256 194.982969 10.5139283 194.885679 10.5296954 194.852772 10.6271647 194.885679 10.8063362L194.885679 12.681187C194.86851 12.8933261 194.786958 13.0395301 194.642453 13.1212323 194.187478 13.2989705 193.76684 13.3391049 193.377679 13.2430689 193.198836 13.1771338 193.1087 13.0395301 193.1087 12.8288244L193.1087 12.2669425 190.531937 12.2669425 190.531937 12.7299217zM190.531937 17.7753918C191.049865 18.1495019 191.633607 18.4892111 192.281732 18.7988195L192.550711 18.5795136C193.473539 17.7495911 194.260446 16.8566002 194.908571 15.8976742L188.464518 15.8976742C189.096905 16.6458945 189.785091 17.2708448 190.531937 17.7753918L190.531937 17.7753918zM190.968313 6.00453941L189.437421 6.1751107C189.307224 6.20951164 189.234256 6.2009114 189.218518 6.15217675L188.998184 5.2735196C188.982446 5.17748366 189.071151 5.14308273 189.267163 5.17748366L190.968313 5.34662158 191.966969 5.34662158 192.768184 4.17842325 190.019732 4.17842325 188.48884 4.3719285C188.358643 4.40632943 188.285675 4.38912896 188.269937 4.32319384L188.049603 3.47177077C188.035296 3.37286808 188.122571 3.3413339 188.318582 3.37286808L190.019732 3.54343937 192.91555 3.54343937 193.716764 2.37524105 190.775163 2.37524105 189.241409 2.57017966C189.112643 2.60171385 189.039675 2.58594676 189.023937 2.52001164L188.805034 1.66858856C188.787865 1.56968588 188.878002 1.53815169 189.071151 1.56968588L190.775163 1.74025717 192.06426 1.74025717 193.085808.279650913C193.181668.149214044 193.294696.157814277 193.424893.30401824L194.642453 1.76462449C194.786958 1.91226183 194.837034 2.04126533 194.786958 2.1559351 194.724005 2.30070569 194.625284 2.37524105 194.495087 2.37524105L195.493743 3.56924007C195.639679 3.71401066 195.695478 3.85304777 195.664002 3.98348463 195.598187 4.1139215 195.485159 4.17842325 195.322055 4.17842325L193.546506 4.17842325 194.545163 5.37242228C194.691098 5.51719287 194.738313 5.65622997 194.691098 5.78666684 194.642453 5.93143743 194.536578 6.00453941 194.373474 6.00453941L193.546506 6.00453941 194.642453 7.2730738C194.786958 7.41784439 194.837034 7.55688149 194.786958 7.68731836 194.724005 7.83208895 194.6167 7.90519093 194.472195 7.90519093L191.067034 7.90519093 189.534711 8.10156292C189.404514 8.13309711 189.331546 8.11733001 189.314377 8.05282826L189.096905 7.17417111C189.079736 7.09390227 189.169872 7.06953495 189.363022 7.10250251L191.067034 7.2472731 192.06426 7.2472731 192.938442 6.00453941 190.968313 6.00453941zM186.251163 9.41739858C186.169611 9.31992927 186.169611 9.22962683 186.251163 9.14935798 186.348453 9.06765577 186.435728 9.076256 186.518711 9.17372531 186.890704 9.40019812 187.256973 9.74994093 187.613227 10.220087 188.245614 11.0987442 188.44878 11.8139969 188.221292 12.3658452 188.106833 12.6252855 187.896514 12.7800897 187.588905 12.8288244 187.344248 12.8603586 187.126776 12.7800897 186.932195 12.5851511 186.753353 12.4231801 186.640324 12.2024407 186.591679 11.9272333 186.47722 10.4981612 186.364191 9.66107185 186.251163 9.41739858L186.251163 9.41739858zM183.987732 10.220087L183.987732 8.34523619C183.21084 8.5559419 182.837417 8.73368005 182.868893 8.88131739 182.917539 9.30416218 182.797356 9.55500231 182.504055 9.63527115L183.502711 9.92767908C183.728768 9.97784711 183.891872 10.0753164 183.987732 10.220087L183.987732 10.220087zM195.395022 7.12543646C195.347808 6.91616412 195.420776 6.82586167 195.615356 6.85882923L197.561163 6.90756389C198.48399 5.89990324 199.352449 4.51956583 200.162248 2.76368491 200.210893 2.63468141 200.30103 2.61031408 200.431227 2.6920163L201.889151 3.66527601C202.377034 3.95768394 202.537277 4.26729233 202.377034 4.59266781 202.213929 4.86787527 201.889151 4.94957749 201.4027 4.83634108 201.223857 4.78617306 201.079353 4.83634108 200.966324 4.98111167 200.528518 5.50142578 199.993421 6.03894035 199.361034 6.58935526L199.019087 6.85882923 200.966324 6.54062061 200.723098 5.90850348C200.625808 5.82680126 200.617224 5.72933195 200.697345 5.61609555 200.763159 5.51719287 200.860449 5.51002601 200.989216 5.59172822 201.362639 5.78666684 201.753231 6.087675 202.158131 6.49331933 202.837732 7.28884089 203.098127 7.99549338 202.936453 8.61184341 202.837732 8.88991762 202.644582 9.076256 202.35128 9.17372531 202.092317 9.1894924 201.849091 9.12499066 201.623034 8.97735332 201.362639 8.73368005 201.185227 8.1488642 201.087937 7.22433914L200.115034 7.68731836 200.115034 13.1212323C200.097865 13.2832034 199.984836 13.4294073 199.774518 13.5598442L199.239421 13.7046148 201.232442 15.1910217C201.411284 15.3056915 201.492836 15.4604957 201.475668 15.6554343 201.428453 15.7844378 201.282518 15.86614 201.039292 15.8976742L197.413797 15.8976742C196.199098 17.4571832 195.063091 18.6511822 194.008635 19.4796713 195.794199 19.9842183 198.379546 20.2938267 201.767539 20.4070631 201.897736 20.4070631 201.987872 20.4801651 202.036518 20.6249357 202.050825 20.7396055 201.979288 20.8614421 201.816184 20.9904456 201.070768 21.4304909 200.650131 22.0540078 200.55284 22.8681632 200.535671 23.0301342 200.446965 23.1032362 200.283861 23.0860357 196.977421 22.6646243 194.277614 21.8605025 192.185872 20.6736703 189.785091 21.9407713 186.591679 22.6889916 182.602776 22.9168978 182.408195 22.9326649 182.30232 22.8595629 182.286582 22.6975919 182.269413 22.5184203 182.342381 22.4281179 182.504055 22.4281179 185.926385 21.9407713 188.706313 21.0563807 190.8467 19.7735126 189.64774 18.8633213 188.617607 17.7094567 187.757732 16.3119188 186.152442 17.6134207 184.329679 18.4419098 182.286582 18.7988195 182.076263 18.8145866 181.961804 18.765852 181.946066 18.6511822 181.911728 18.5064116 181.986127 18.4075089 182.164969 18.3587743 184.96922 17.1733755 186.817736 15.4604957 187.710518 13.2172682 187.757732 13.0868314 187.847869 13.0395301 187.978066 13.0724976L189.727861 13.7046148C190.280127 13.9009868 190.506184 14.1847945 190.410324 14.5589046 190.313034 14.8986138 189.979671 15.0376509 189.413098 14.9731492 189.30007 14.9244145 189.192764 14.9645489 189.096905 15.0949858L188.926647 15.2655571 197.243539 15.2655571 198.775861 13.6816808 198.631356 13.6315128C198.403869 13.551244 198.305148 13.4380076 198.339485 13.2903702L198.339485 10.9511068 198.313732 10.9511068C197.860187 10.9998415 197.634131 11.0729435 197.634131 11.1718461 197.099034 12.0806041 196.572521 12.754289 196.053163 13.1943343 195.87432 13.3563053 195.735539 13.40504 195.639679 13.3391049 195.542389 13.2430689 195.542389 13.1126321 195.639679 12.950661 195.882905 12.2196412 196.02884 11.3997523 196.077485 10.489561L196.247743 9.5865365 196.296389 9.46469986C196.166191 9.28696171 195.865736 8.50720725 195.395022 7.12543646L195.395022 7.12543646zM182.773034 3.22809749C182.950446 2.6762492 183.064905 2.08283312 183.112119 1.44784924L183.332453.375686849C183.348191.246683353 183.421159.205115559 183.551356.253850214L185.229614.81573211C185.764711.977703166 185.999353 1.23714353 185.934969 1.59548658 185.853417 1.8878945 185.552962 2.04986556 185.035034 2.08283312 184.856191 2.06563265 184.734578 2.14016801 184.670195 2.30070569 184.361155 2.78948561 183.947671 3.26823192 183.429743 3.73981136 183.883288 4.16122279 184.077869 4.65716956 184.013485 5.22478495 183.930502 5.50142578 183.760244 5.71356486 183.502711 5.85976882 183.242317 5.94003767 182.981922 5.90850348 182.724389 5.76086614 182.512639 5.61609555 182.350965 5.4125567 182.237937 5.15168296 182.026187 4.07952057 181.824453 3.39866878 181.629872 3.10626086 181.54689 3.0575262 181.532582 2.97582399 181.581227 2.86258759 181.645611 2.73215072 181.751485 2.70778339 181.897421 2.78948561 182.172123 2.87118782 182.463994 3.01595841 182.773034 3.22809749L182.773034 3.22809749zM181.897421 9.44176591C181.767224 9.27836148 181.491091 8.50720725 181.069022 7.12543646 181.020377 6.91616412 181.086191 6.82586167 181.263603 6.85882923L183.308131 6.93193122C184.232389 5.85976882 185.042187 4.44503048 185.740389 2.6920163 185.787603 2.54581233 185.87774 2.51284477 186.007937 2.59311362L187.54026 3.49470472C188.009542 3.78711265 188.171216 4.0881208 188.026711 4.3977292 187.865038 4.68870375 187.523091 4.78617306 187.005163 4.68870375 186.890704 4.65716956 186.120965 5.38102251 184.694518 6.85882923L186.713292 6.54062061 186.518711 5.8096008C186.452897 5.72933195 186.452897 5.63186265 186.518711 5.51719287 186.600263 5.43692403 186.704707 5.43692403 186.834905 5.51719287 187.191159 5.74509905 187.531675 6.0618743 187.856453 6.46751863 188.196969 6.90756389 188.405857 7.28167403 188.48884 7.58984905 188.553224 7.96252582 188.536055 8.2879013 188.440195 8.56310876 188.309998 8.80678203 188.091094 8.97018646 187.783485 9.0504553 187.507353 9.08485624 187.264127 8.99455379 187.053808 8.78384808 186.82632 8.52297434 186.713292 8.0356278 186.713292 7.32037508L185.764711 7.76042034 185.764711 13.1212323C185.747542 13.2832034 185.643098 13.4294073 185.448518 13.5598442 185.059356 13.7533494 184.670195 13.7791501 184.281034 13.6315128 184.053546 13.551244 183.956256 13.4380076 183.987732 13.2903702L183.987732 10.7332342C183.843227 10.8780048 183.624324 10.94394 183.332453 10.9281729 183.233732 10.9281729 183.153611 10.9998415 183.089227 11.1474788 182.618514 12.0892043 182.090571 12.8603586 181.50826 13.4609415 181.362324 13.640113 181.232127 13.6974479 181.119098 13.6315128 181.00607 13.551244 180.988901 13.4208071 181.069022 13.2430689 181.312248 12.3973794 181.499675 11.1876132 181.629872 9.6123372 181.66278 9.44893277 181.751485 9.39159788 181.897421 9.44176591L181.897421 9.44176591zM219.548776 11.1711294C219.678973 12.4052629 219.435747 13.3555887 218.819098 14.0221067 218.138066 14.770327 217.278191 15.2490733 216.240905 15.459779L215.827421 14.7531265C216.800324 14.5094533 217.465618 14.2414127 217.821872 13.9475714 218.113743 13.7053315 218.26111 13.5347602 218.26111 13.4372909 218.26111 12.998679 218.153804 12.779373 217.943485 12.779373 217.489941 12.779373 217.116518 12.6331691 216.824647 12.3407611 216.517038 12.0483532 216.362518 11.658476 216.362518 11.1711294 216.362518 10.69955 216.499869 10.318273 216.777432 10.0258651 217.083611 9.71625668 217.472772 9.56288586 217.943485 9.56288586 218.316909 9.56288586 218.664578 9.70765645 218.989356 10.0014977 219.281227 10.2609381 219.467224 10.6522487 219.548776 11.1711294M10.8607476 47.6911593L14.4848121 47.6911593 14.4848121 45.2773605 10.8607476 45.2773605 10.8607476 47.6911593zM10.8607476 44.6452434L14.4848121 44.6452434 14.4848121 42.2314446 10.8607476 42.2314446 10.8607476 44.6452434zM10.8607476 41.5978941L14.4848121 41.5978941 14.4848121 39.2829981 10.8607476 39.2829981 10.8607476 41.5978941zM10.8607476 49.4929081C10.8450095 49.6405455 10.7791954 49.785316 10.666167 49.93152 10.1797154 50.1594262 9.6946945 50.1995606 9.20824288 50.0533566 9.02940038 49.9401202 8.95643264 49.8025165 8.98790892 49.6405455L8.98790892 41.9146694C8.1437723 43.0197993 7.30965085 43.8726558 6.48268311 44.4732387 6.33674763 44.570708 6.21513472 44.570708 6.1178444 44.4732387 6.0534611 44.3757694 6.07778368 44.2539328 6.19081214 44.1077288 7.81184061 42.0938409 9.07804554 39.1783619 9.98656546 35.3598584 10.0180417 35.2136544 10.0738406 35.1563195 10.1568235 35.1907205L12.174167 35.8472049C12.6277116 35.9776418 12.8222922 36.2370822 12.7579089 36.6269594 12.6448805 36.8863998 12.344425 37.0082364 11.8579734 36.9924693 11.6791309 36.9924693 11.5832713 37.0340371 11.5661025 37.1143059L10.8865009 38.6508809 14.4848121 38.6508809C14.7766831 37.5930523 14.9626793 36.586825 15.0456622 35.627899 15.0599696 35.3684586 15.1501063 35.2537889 15.3117799 35.2867564L17.1116509 35.604965C17.6796546 35.701001 17.9386186 35.9289071 17.8899734 36.2858168 17.8413283 36.5954252 17.5737799 36.7645631 17.0873283 36.7989641 16.8941784 36.7989641 16.7382277 36.8792329 16.6251992 37.0426373 16.2846831 37.5615181 15.8626148 38.0975993 15.360425 38.6508809L17.3062315 38.6508809 18.8871992 37.0168366C19.0503036 36.8548656 19.2119772 36.8548656 19.3736509 37.0168366L21.514038 38.5763456C21.6928805 38.7067824 21.7744326 38.8601533 21.7572638 39.0393248 21.7086186 39.1697617 21.5626831 39.2514639 21.3194573 39.2829981L16.3590816 39.2829981 16.3590816 41.5978941 16.6738444 41.5978941 18.2075977 40.0383852C18.3349336 39.8764141 18.4894535 39.8764141 18.668296 40.0383852L20.6627476 41.5247922C20.8415901 41.655229 20.9217116 41.8186334 20.9059734 42.0121387 20.8573283 42.1253751 20.7128235 42.1984771 20.4695977 42.2314446L16.3590816 42.2314446 16.3590816 44.64381 16.7711347 44.64381 18.2791347 43.0843011C18.4250702 42.92233 18.5867438 42.92233 18.7655863 43.0843011L20.760038 44.570708C20.9388805 44.7011449 21.0204326 44.8645493 21.0032638 45.0580546 20.9546186 45.171291 20.8086831 45.244393 20.5654573 45.2773605L16.3590816 45.2773605 16.3590816 47.6897259 17.9872638 47.6897259 19.5439089 46.0814823C19.7055825 45.9023108 19.8772713 45.9023108 20.0561139 46.0814823L22.1950702 47.6166239C22.3567438 47.7470608 22.4311423 47.9104652 22.4139734 48.1039705 22.3653283 48.2172069 22.2279772 48.2903089 22.0004896 48.3232764L10.8607476 48.3232764 10.8607476 49.4929081zM2.93158634 36.1152455C2.83572676 36.0335433 2.80138899 35.9446742 2.83572676 35.8472049 2.89867932 35.7339685 2.99740038 35.701001 3.12759772 35.7497356 4.35803416 36.0751111 5.1850019 36.6197925 5.60707021 37.3823465 5.83455787 37.7234891 5.9390019 38.0488646 5.9246945 38.3570396 5.89035674 38.6652146 5.72868311 38.9017211 5.43681214 39.0636921 5.1778482 39.1783619 4.91029981 39.1783619 4.63416698 39.0636921 4.39094118 38.9662228 4.18920683 38.7727176 4.02753321 38.4788763 3.52391271 37.1472735 3.159074 36.3589188 2.93158634 36.1152455L2.93158634 36.1152455zM8.03932827 37.0899386C8.15235674 37.1386733 8.16952562 37.2777104 8.08797343 37.5041832L5.1206186 45.1311566C4.97611385 45.7647071 4.89313093 46.3581232 4.87739279 46.9099714 4.91029981 47.2668811 5.03191271 47.7226935 5.2422315 48.2745418 5.51836433 48.8751247 5.62423909 49.3796717 5.55842505 49.785316 5.46113472 50.2568955 5.19358634 50.5564703 4.75577989 50.6869071 4.33371157 50.7843765 4.00177989 50.655373 3.75855408 50.2984633 3.53249715 50.0203891 3.45809867 49.4198061 3.54108159 48.4938477 3.57255787 47.8760643 3.54108159 47.3485833 3.44236053 46.9099714 3.31216319 46.438392 2.71983681 46.1545843 1.66681214 46.0585484 1.39211006 45.9926132 1.25332827 45.8793768 1.25332827 45.7159724 1.25332827 45.5697685 1.39211006 45.4966665 1.66681214 45.4966665 2.34927514 45.529634 2.9230019 45.4077974 3.39371537 45.1311566 3.65411006 45.0179202 3.93739658 44.6681774 4.24500569 44.0847949L7.65016698 37.3092446C7.76462619 37.0985389 7.89482353 37.0254369 8.03932827 37.0899386L8.03932827 37.0899386zM1.18036053 39.9409159C1.08307021 39.8592137 1.05874763 39.7631777 1.10882353 39.648508 1.17177609 39.5352716 1.27908159 39.502304 1.42358634 39.5510387 1.89429981 39.6972426 2.39648956 39.9495161 2.93158634 40.3064258 3.88875142 40.988711 4.34229602 41.6795963 4.29365085 42.3776486 4.26217457 42.6700565 4.10765465 42.9051296 3.83152182 43.0843011 3.54108159 43.1660033 3.26351803 43.1574031 3.00598482 43.0599338 2.77849715 42.9466974 2.58391651 42.7431585 2.42081214 42.4507506 1.93579127 41.1033807 1.52087666 40.2662914 1.18036053 39.9409159L1.18036053 39.9409159zM2.61539279 52.808298L1.20468311 53.0018032C1.05874763 53.0347708.978626186 53.0018032.961457306 52.9043339L.718231499 52.1002121C.702493359 52.0027428.791199241 51.9712086.987210626 52.0027428L2.61539279 52.1733141 11.056759 52.1733141 11.056759 49.7122141C11.0395901 49.5989777 11.0882353 49.5588432 11.2012638 49.5903774L13.098425 49.9802547C13.715074 50.077724 14.0226831 50.3299975 14.0226831 50.7356418 14.0226831 51.1412861 13.7308121 51.4107601 13.1485009 51.5397636 12.9853966 51.5727312 12.9195825 51.6616002 12.9524896 51.8078042L12.928167 52.1733141 18.4007476 52.1733141 19.8601025 50.5163359C19.9731309 50.385899 20.0947438 50.385899 20.2249412 50.5163359L22.2694687 52.0514775C22.4955256 52.1976814 22.5756471 52.3610859 22.5112638 52.538824 22.4311423 52.6864613 22.2694687 52.773897 22.0262429 52.808298L12.928167 52.808298 12.928167 57.1929835C12.9439051 57.4051226 12.8480455 57.5756939 12.636296 57.7061307 12.1984896 57.899636 11.7520987 57.9154031 11.2999848 57.753432 11.1368805 57.6559627 11.056759 57.518359 11.056759 57.3391875L11.056759 52.808298 2.61539279 52.808298zM42.626038 51.8809062L45.4961025 51.8809062 45.4961025 49.2005002 42.626038 49.2005002 42.626038 51.8809062zM42.626038 48.5425824L45.4961025 48.5425824 45.4961025 45.7661404 42.626038 45.7661404 42.626038 48.5425824zM38.5398444 42.3532813L41.872038 42.3532813 41.872038 39.0880594 38.5398444 39.0880594 38.5398444 42.3532813zM37.8588121 51.8809062L40.7531992 51.8809062 40.7531992 49.2005002 37.8588121 49.2005002 37.8588121 51.8809062zM40.7531992 45.7647071L38.3681556 45.7647071 37.8588121 45.8378091 37.8588121 48.5425824 40.7531992 48.5425824 40.7531992 45.7647071zM37.8588121 52.5144567L37.8588121 57.1929835C37.8416433 57.372155 37.7529374 57.5097587 37.589833 57.607228 37.0876433 57.7691991 36.6340987 57.7691991 36.2277685 57.607228 36.0660949 57.5097587 35.977389 57.372155 35.9616509 57.1929835L35.9616509 44.7427127 35.9616509 44.1564635C35.9616509 43.9457578 36.0589412 43.9127902 36.2535218 44.0589942L37.8588121 45.1067892 38.3681556 45.1311566 45.1312638 45.1311566 46.3473928 44.0102595C46.4446831 43.9127902 46.5577116 43.9285573 46.6879089 44.0589942L47.853962 45.2042585C48.5850702 45.9367117 48.470611 46.3982576 47.5148767 46.5946296 47.3846793 46.6089633 47.3360342 46.6576979 47.3675104 46.7394002L47.3675104 55.9746171C47.3675104 56.3157597 47.1743605 56.6812696 46.7837685 57.0711469 46.4275142 57.4122894 45.779389 57.6315954 44.8393928 57.7290647 44.7406717 56.8360738 44.3128805 56.1695557 43.5488653 55.7323772 43.3557154 55.6334746 43.2984858 55.5116379 43.3786072 55.365434 43.4444213 55.2364305 43.5488653 55.196296 43.6962315 55.2435973 44.3271879 55.4227688 44.8222239 55.5030377 45.1799089 55.4872706 45.3902277 55.4227688 45.4961025 55.3009322 45.4961025 55.1217607L45.4961025 52.5144567 42.626038 52.5144567 42.626038 56.8762082C42.626038 57.0539464 42.504425 57.2087506 42.2611992 57.3391875 41.8548691 57.5341261 41.4499696 57.5584934 41.0450702 57.4122894 40.8175825 57.3477877 40.7202922 57.2331179 40.7531992 57.0711469L40.7531992 52.5144567 37.8588121 52.5144567zM32.2159734 43.1817704C32.0528691 43.214738 31.9641632 43.1817704 31.948425 43.0843011L31.7295218 42.2801793C31.7123529 42.18271 31.7939051 42.1511758 31.9727476 42.18271L33.6266831 42.3547146 36.6412524 42.3547146 36.6412524 39.0880594 34.9401025 39.0880594 33.5537154 39.2829981C33.390611 39.3159656 33.3019051 39.2829981 33.286167 39.1855287L33.0429412 38.381407C33.0257723 38.2839376 33.1159089 38.2509701 33.3090588 38.2839376L34.9401025 38.4545089 36.6412524 38.4545089 36.6412524 35.604965C36.6412524 35.4888619 36.6913283 35.4487275 36.7886186 35.481695L38.7587476 35.8228376C39.3753966 35.9203069 39.681575 36.1467797 39.681575 36.5051228 39.6672676 36.9279676 39.3668121 37.1788077 38.7830702 37.2605099 38.6199658 37.2934775 38.5398444 37.3751797 38.5398444 37.5041832L38.5398444 38.4545089 41.872038 38.4545089 41.872038 35.604965C41.872038 35.4888619 41.9120987 35.4487275 41.9936509 35.481695L43.9881025 35.8228376C44.6033207 35.9203069 44.9123605 36.1467797 44.9123605 36.5051228 44.8951917 36.9279676 44.596167 37.1788077 44.012425 37.2605099 43.8493207 37.2934775 43.7691992 37.3751797 43.7691992 37.5041832L43.7691992 38.4545089 44.1826831 38.4545089 45.591962 36.895C45.7064213 36.7645631 45.8280342 36.7645631 45.9582315 36.895L47.853962 38.3326723C48.0828805 38.4946434 48.1630019 38.6652146 48.0986186 38.8443862 48.0328046 38.974823 47.8711309 39.0565253 47.6107362 39.0880594L43.7691992 39.0880594 43.7691992 42.3547146 44.5704137 42.3547146 46.0311992 40.7206704C46.1270588 40.5902335 46.241518 40.5902335 46.3717154 40.7206704L48.4148121 42.2314446C48.658038 42.3948491 48.7467438 42.563987 48.6823605 42.7431585 48.6008083 42.8907958 48.4305503 42.9782315 48.1715863 43.0126325L35.3779089 43.0126325C35.36074 50.2411284 34.2833928 54.9268221 32.1430057 57.0711469 31.948425 57.2015837 31.8268121 57.2087506 31.778167 57.0955142 31.6808767 56.9493102 31.6966148 56.8188733 31.8268121 56.7056369 32.9442201 54.2689042 33.5050702 49.7208143 33.5050702 43.0599338L32.2159734 43.1817704zM26.670425 47.47042C26.5244896 47.5850897 26.4028767 47.5922566 26.3055863 47.4947873 26.1925579 47.4145185 26.1997116 47.2998487 26.3284782 47.1536447 28.5675863 43.8067207 29.8480987 39.8764141 30.1728767 35.3598584 30.1886148 35.2136544 30.2458444 35.1563195 30.3431347 35.1907205L32.4091233 35.554797C32.8640987 35.6522663 33.0830019 35.8887727 33.065833 36.2628829 33.0028805 36.5538574 32.7267476 36.7172618 32.240296 36.748796 32.0771917 36.7645631 31.987055 36.821898 31.9727476 36.9208007 31.5506793 38.6093131 30.9755218 40.2906587 30.2458444 41.963404L30.8295863 42.0852407C31.1371954 42.1669429 31.2831309 42.3690484 31.2673928 42.6944239 31.2344858 42.9710647 31.024167 43.1574031 30.6350057 43.2548724 30.4890702 43.2878399 30.4318406 43.3451748 30.4647476 43.4254437L30.4647476 57.2660855C30.4475787 57.4610241 30.3431347 57.6229951 30.1471233 57.753432 29.7107476 57.9483706 29.2729412 57.972738 28.833704 57.826534 28.6405541 57.7448318 28.5590019 57.6229951 28.5919089 57.4610241L28.5919089 45.1311566C27.97526 46.0413479 27.3357192 46.8211024 26.670425 47.47042L26.670425 47.47042zM67.6542596 55.7065765C67.6370907 56.0634862 67.4353564 56.4289961 67.0461951 56.8031063 66.6570338 57.175783 65.9516789 57.4280565 64.9301306 57.5584934 64.9787757 56.794506 64.3535423 56.1451884 63.0572918 55.6091072 62.8469731 55.5446055 62.7568364 55.4227688 62.7897435 55.2435973 62.8226505 55.0801929 62.9514171 55.0242914 63.1789047 55.0744594L65.1247112 55.3410666C65.400844 55.3095324 65.5782558 55.2435973 65.659808 55.146128L65.7327757 54.7562508 65.7327757 46.7164662 62.2546467 46.7164662 60.843937 46.9099714C60.6980015 46.942939 60.6164493 46.9099714 60.6007112 46.8125021L60.3574854 46.0083803C60.3417472 45.910911 60.4304531 45.8793768 60.6250338 45.910911L62.2546467 46.0814823 65.7327757 46.0814823 65.7327757 41.3054862C65.7327757 41.2080169 65.7885746 41.1750493 65.9030338 41.2080169L67.1921306 41.4029555C68.3925214 40.3795278 69.5600053 39.1697617 70.6945822 37.7722238L62.5465176 37.7722238 61.2330983 37.9671624C61.0070414 38.015897 60.8854285 37.9929631 60.8682596 37.8940604L60.6736789 37.0426373C60.6565101 36.9767022 60.7380622 36.9609351 60.9169047 36.9924693L62.5465176 37.1143059 70.3297435 37.1143059 71.7404531 36.2127148C71.8692197 36.0994784 71.9994171 36.1396129 72.1296144 36.3345515L73.1511628 37.6991218C73.4430338 38.0574648 73.5074171 38.381407 73.3471742 38.6738149 73.1354247 38.9017211 72.8106467 38.9504557 72.3728402 38.8200188 72.1782596 38.7555171 72.0080015 38.7870513 71.862066 38.9174882 70.5815537 39.9251488 69.3167795 40.8023726 68.0677435 41.5491595 68.5055499 41.6466288 68.7244531 41.8501676 68.7244531 42.1583427 68.7072843 42.5324528 68.4239977 42.7832929 67.8731628 42.9137298 67.6943203 42.9309303 67.6227833 43.0197993 67.6542596 43.1817704L67.6542596 46.0814823 70.1594854 46.0814823 71.6188402 44.4245041C71.7332994 44.2940672 71.8463279 44.2940672 71.9593564 44.4245041L74.0024531 45.9596457C74.2456789 46.1058497 74.3343848 46.2692541 74.2700015 46.4469922 74.1884493 46.5946296 74.0267757 46.6820653 73.7835499 46.7164662L67.6542596 46.7164662 67.6542596 55.7065765zM54.6416789 49.4685408C55.4028326 49.7122141 56.1897397 50.1106915 57.0009693 50.6639732L57.7306467 48.2501744C58.3630338 45.1798912 58.6062596 43.0527669 58.4603241 41.8659347L56.319937 41.8659347C55.8334854 44.5635412 55.274066 47.0963098 54.6416789 49.4685408L54.6416789 49.4685408zM54.520066 50.0533566C54.2611021 50.9148133 54.0350452 51.3935596 53.8390338 51.4924623 53.369751 51.6372329 52.9562672 51.6286327 52.6000129 51.4666616 52.3882634 51.3534252 52.3224493 51.198621 52.4040015 51.0036824 53.1007719 48.664419 53.7975423 45.6185031 54.4957435 41.8659347L53.8876789 41.8659347 52.5742596 42.0608733C52.3796789 42.1253751 52.2738042 42.109608 52.258066 42.0121387L52.0391628 41.1836496C52.0219939 41.0861803 52.1035461 41.0446125 52.2823886 41.0618129L53.8876789 41.2080169 54.5930338 41.2080169C54.9664569 38.8042517 55.1925139 36.9036002 55.274066 35.5060624 55.274066 35.3440913 55.3713564 35.2795895 55.565937 35.3111237L57.3171628 35.627899C57.8679977 35.6924007 58.1369769 35.9289071 58.119808 36.3345515 58.0883317 36.659927 57.827937 36.8706327 57.3414854 36.968102 57.1311666 36.9838691 57.0167074 37.0741715 57.0009693 37.2361426L56.4415499 41.2080169 58.4360015 41.2080169 59.5061951 39.9896505C59.6521306 39.810479 59.798066 39.810479 59.9440015 39.9896505L61.1114854 41.1349149C61.3547112 41.3785882 61.4520015 41.6394619 61.4033564 41.9146694 61.3074968 42.1425756 61.0141951 42.2801793 60.5291742 42.3289139 60.3989769 42.3461144 60.3245784 42.417783 60.3088402 42.5482199 59.9196789 46.415458 59.2472311 49.4198061 58.290066 51.5641309 59.8152349 52.7337626 60.5763886 53.7500235 60.5763886 54.6100468 60.5763886 54.9182218 60.4461913 55.1618951 60.1872273 55.3410666 59.9282634 55.4872706 59.660715 55.5116379 59.3845822 55.4141686 59.1084493 55.3324664 58.8895461 55.1618951 58.7278725 54.9038881L57.4387757 53.1480072C56.1410945 55.0801929 54.4399446 56.5436659 52.3310338 57.5341261 52.120715 57.5842941 51.9819332 57.5498932 51.9175499 57.4366568 51.8860736 57.2746857 51.9433032 57.1614493 52.087808 57.0955142 54.0350452 55.746711 55.5087074 54.0166307 56.5145176 51.9052735 55.8978687 51.1584866 55.2325746 50.5407032 54.520066 50.0533566L54.520066 50.0533566zM96.8894292 37.7963044L98.1055583 36.6754074C98.2028486 36.5779381 98.315877 36.5951385 98.4460744 36.724142L99.6135583 37.8937737C100.326067 38.6247936 100.213038 39.0806059 99.2730421 39.2597774 99.1428448 39.2741111 99.0941996 39.3228458 99.1271066 39.404548L99.1271066 50.17634C99.1271066 50.5160492 98.932526 50.8743922 98.5433647 51.247069 98.1856797 51.605412 97.5375545 51.8318848 96.5975583 51.9293542L96.378655 51.0033957C96.1998125 50.6780202 95.779175 50.3454779 95.1138808 50.0057687 94.9193002 49.9240665 94.8620706 49.8093967 94.9436228 49.6631927 94.9922679 49.5012217 95.0895583 49.4438868 95.2354937 49.4926214 95.9651712 49.671793 96.533175 49.7362947 96.9380744 49.6875601 97.1498239 49.6230583 97.2542679 49.4926214 97.2542679 49.2976828L97.2542679 38.4298549 94.116655 38.4298549 93.7761389 38.480023 93.7761389 54.2456836C93.75897 54.4234218 93.6788486 54.5610255 93.5329131 54.6599282 93.0135545 54.8218992 92.5600099 54.8218992 92.1708486 54.6599282 92.009175 54.5610255 91.9190383 54.4234218 91.9033002 54.2456836L91.9033002 37.4078606 91.9033002 36.8459787C91.9033002 36.6195059 92.0005905 36.5779381 92.1951712 36.724142L93.8247841 37.7963044 96.8894292 37.7963044zM85.2875583 37.6013658C85.2718201 37.3576925 85.327619 37.2774237 85.4578163 37.3576925L86.7712357 38.1145131C87.9716266 37.1555871 88.838655 36.2367955 89.3737518 35.3595717 89.4381351 35.2463353 89.526841 35.2305682 89.6413002 35.3122704L91.100655 36.1393262C91.5556304 36.415967 91.7258884 36.7169752 91.6114292 37.0423507 91.4483249 37.3333252 91.1163932 37.3820599 90.6142034 37.1871213 90.4997442 37.1383866 90.3953002 37.1555871 90.2980099 37.2358559 89.1949093 37.9998433 88.1504691 38.5273242 87.160397 38.8197322L87.160397 49.7362947 87.4036228 49.6144581C88.4738163 49.2088138 89.4867803 48.689933 90.4439454 48.0549491 90.5426664 47.9574798 90.638526 47.9574798 90.7358163 48.0549491 90.8331066 48.1366514 90.8245222 48.2341207 90.7114937 48.3473571 89.917433 49.2575484 88.5625222 50.3540781 86.6496228 51.6369462 85.9528524 52.0282568 85.6280744 52.3364319 85.6767195 52.5629047 85.789748 52.9699824 85.7010421 53.2537901 85.4091712 53.4171945 85.068655 53.5619651 84.7681996 53.399994 84.5092357 52.9298479L83.5120099 51.173967C83.4304577 50.9962289 83.4633647 50.8815591 83.6093002 50.8342578L85.0200099 50.4200132 85.2875583 50.3712786 85.2875583 37.6013658zM79.790655 36.3098975C79.6933647 36.2281953 79.6604577 36.1321593 79.6933647 36.0174895 79.7420099 35.9042531 79.8393002 35.8712856 79.9852357 35.9200202 80.5847157 36.0504571 81.2099491 36.3356982 81.8580744 36.7728767 83.0255583 37.5038965 83.6093002 38.2506834 83.6093002 39.0161042 83.5763932 39.3228458 83.4390421 39.5665191 83.1958163 39.7456906 82.9368524 39.8918946 82.669304 39.909095 82.3931712 39.7958586 82.1342072 39.6811889 81.9224577 39.4948505 81.7607841 39.2339767 80.869433 37.5927656 80.2127233 36.6195059 79.790655 36.3098975L79.790655 36.3098975zM78.3556228 40.9898577C78.2740706 40.9081554 78.249748 40.8106861 78.282655 40.6960164 78.315562 40.5670129 78.4042679 40.5254451 78.5502034 40.5756131 79.1511142 40.7203837 79.7992395 41.0213918 80.4960099 41.4757708 81.6964008 42.2397582 82.2958808 43.0037456 82.2958808 43.7662996 82.2629738 44.075908 82.1170383 44.3195812 81.8580744 44.4973194 81.5976797 44.6435233 81.331562 44.6607238 81.0554292 44.546054 80.7964653 44.4328176 80.5847157 44.2536461 80.4230421 44.0099728 79.5789055 42.3687617 78.8907195 41.3625344 78.3556228 40.9898577L78.3556228 40.9898577zM81.0067841 47.6650719L79.4744615 47.6650719 78.1853647 47.8600105C77.9736152 47.9245123 77.8605867 47.9101786 77.8448486 47.8112759L77.6259454 47.0071541C77.5930383 46.8939177 77.6745905 46.8523499 77.8691712 46.8853174L79.4744615 47.0315214 80.7392357 47.0315214 81.9553647 45.8131551C82.0698239 45.6999186 82.1914368 45.7085189 82.3202034 45.8375224L83.7309131 47.2522607C83.989877 47.495934 84.0871674 47.7797417 84.0227841 48.1036838 83.9412319 48.3975251 83.6336228 48.5910303 83.098526 48.689933 82.9196835 48.7214672 82.8481465 48.8347036 82.8796228 49.0296422L82.8796228 53.2695571C83.2201389 53.8386059 83.7466512 54.3101854 84.4620213 54.6828621 85.1101465 54.9924705 85.8713002 55.2103431 86.7469131 55.34078 90.4768524 55.7464243 94.7161351 55.6575552 99.4676228 55.0741727 99.6135583 55.0397718 99.7022641 55.0971067 99.7351712 55.2433106 99.7509093 55.3737475 99.6693571 55.5041844 99.4919454 55.6331879 98.9725867 56.0230651 98.6893002 56.5190119 98.640655 57.1210282 98.6249169 57.2829993 98.5347803 57.3632681 98.3731066 57.3632681 93.9306588 57.4607374 90.9218125 57.4535706 89.35086 57.3389008L88.7656873 57.3389008C85.6366588 57.0952275 83.3331674 55.8539272 81.8580744 53.6106997 81.0797518 54.7315968 80.4058732 55.6016537 79.8393002 56.2194371 79.757748 56.2997059 79.7663324 56.4545101 79.8636228 56.6809829 80.0252964 57.0049251 79.9766512 57.274399 79.7176873 57.4851047 79.4415545 57.6485092 79.1582679 57.5582067 78.866397 57.2170641L77.7962034 55.6833559C77.6173609 55.4224822 77.5773002 55.2834451 77.6745905 55.2691113 78.1767803 55.0899398 79.2870345 54.4477891 81.0067841 53.3440925L81.0067841 52.8553126 81.0067841 47.6650719zM118.342088 52.8077246C119.087504 51.7183618 119.559648 50.3853256 119.752798 48.811483L116.080088 48.811483 114.523443 51.7828635C115.805386 52.0107697 117.077314 52.3533456 118.342088 52.8077246L118.342088 52.8077246zM113.696476 40.1352812C113.614923 40.0707794 113.600616 39.9819103 113.649261 39.8686739 113.729383 39.7540042 113.835257 39.7382371 113.964024 39.8185059 114.370354 39.9976774 114.792422 40.2986856 115.228798 40.720097 116.007121 41.5170519 116.331899 42.2237044 116.201701 42.8414878 116.120149 43.0851611 115.926999 43.2714995 115.61939 43.4019364 115.376164 43.4664381 115.132939 43.4177035 114.888282 43.2557324 114.676532 43.142496 114.514859 42.9303569 114.40183 42.6207485 114.191512 41.3550809 113.95687 40.5265918 113.696476 40.1352812L113.696476 40.1352812zM116.736798 35.4080197C116.736798 35.2947833 116.785443 35.2546489 116.882734 35.2861831L118.852863 35.628759C119.469512 35.7262283 119.777121 35.9527011 119.777121 36.3096108 119.761383 36.7496561 119.460927 37.0019296 118.877185 37.0664313 118.715512 37.0979655 118.633959 37.1796677 118.633959 37.3086712L118.633959 38.3578997 120.386616 38.3578997 121.84454 36.7238554C121.957569 36.5948519 122.079181 36.5948519 122.209379 36.7238554L124.253906 38.236063C124.479963 38.3980341 124.561515 38.5686054 124.497132 38.7463435 124.431318 38.8939808 124.269644 38.9828499 124.00925 39.0158175L113.331637 39.0158175 111.94525 39.1849554C111.783576 39.217923 111.693439 39.1849554 111.679132 39.0889195L111.435906 38.2833643C111.418737 38.1873284 111.508874 38.1543608 111.702024 38.1873284L113.331637 38.3578997 116.736798 38.3578997 116.736798 35.4080197zM120.360863 39.7697713C120.360863 39.6737353 120.425246 39.6407678 120.556874 39.6737353L122.429713 40.2098165C122.996286 40.3545871 123.25668 40.5982604 123.206605 40.9408363 123.140791 41.2332443 122.817443 41.3780148 122.235132 41.3780148 122.087766 41.3780148 121.983322 41.4683173 121.917508 41.6474888 121.415318 42.441577 120.751455 43.2227648 119.923056 43.9867522L121.358088 43.9867522 122.793121 42.3283406C122.906149 42.1993371 123.027762 42.1993371 123.157959 42.3283406L125.201056 43.8649156C125.428544 44.0268866 125.510096 44.1888577 125.445713 44.3522621 125.379899 44.4970327 125.218225 44.5873352 124.95783 44.6188693L112.214229 44.6188693 110.802088 44.8152413C110.640415 44.8467755 110.551709 44.8152413 110.53454 44.7163387L110.291314 43.9136502C110.275576 43.8161809 110.365713 43.7832134 110.560293 43.8161809L112.214229 43.9867522 119.146164 43.9867522C119.599709 43.1252955 120.004608 41.7205908 120.360863 39.7697713L120.360863 39.7697713zM113.479003 53.4169078C113.315899 53.5616784 112.983967 53.5874791 112.480346 53.4900098 112.043971 53.3911071 111.792161 53.2692705 111.726346 53.1244999 111.661963 52.9610955 111.717762 52.7819239 111.896605 52.5884187 112.643451 51.4660883 113.291576 50.3451912 113.842411 49.2257275L114.062745 48.811483 112.115508 48.811483 110.704798 49.0064216C110.543124 49.0379558 110.452988 49.0064216 110.43868 48.9075189L110.195455 48.1048305C110.195455 48.0059278 110.28273 47.9743936 110.461572 48.0059278L112.115508 48.1764991 114.328863 48.1764991 115.570745 45.1305832C115.61939 44.9514117 115.732419 44.9041104 115.911261 44.9858126L117.612411 45.6666644C118.083124 45.861603 118.269121 46.1396772 118.173261 46.4965869 118.025895 46.820529 117.716855 46.9753332 117.247572 46.9595661 117.054422 46.9265986 116.907056 47.0154676 116.811197 47.2261733L116.371959 48.1764991 121.625637 48.1764991 123.084992 46.5195209C123.199451 46.3905174 123.312479 46.3905174 123.426939 46.5195209L125.470035 48.0560958C125.71183 48.2008664 125.801967 48.3642709 125.736153 48.542009 125.654601 48.6896463 125.492927 48.7785154 125.249701 48.811483L121.700035 48.811483C121.422472 50.5501634 120.831576 52.0609377 119.923056 53.3438058L120.287895 53.4900098C121.764419 54.1393274 122.85035 54.7728779 123.548551 55.3906613 123.920544 55.8450403 124.123709 56.2750519 124.155185 56.6806963 124.170923 57.0720069 124.10654 57.3472143 123.962035 57.5091854 123.7975 57.6711564 123.597197 57.7528587 123.35254 57.7528587 123.140791 57.7700591 122.906149 57.6568227 122.648616 57.4131495 121.463963 56.3065861 120.223512 55.3261596 118.92583 54.4632695 116.964286 56.2506846 114.0141 57.3070799 110.073842 57.631022 109.894999 57.6482225 109.796278 57.5837207 109.781971 57.4360834 109.781971 57.2913128 109.853508 57.2081772 109.999443 57.1938435L112.870939 56.4628237C114.441891 55.909542 116.02429 54.9921838 117.612411 53.7093157 116.575124 53.1560341 115.456286 52.6686875 114.257326 52.2458427L113.479003 53.4169078zM108.564411 55.9009418C108.548673 56.2420844 108.354092 56.6075943 107.9821 56.9989049 107.57577 57.373015 106.870415 57.6224218 105.864605 57.7528587 105.91325 57.1035411 105.41106 56.5187252 104.358035 55.9998445 104.146286 55.9353427 104.05758 55.8049059 104.089056 55.6085339 104.106225 55.4479962 104.227838 55.3820611 104.453895 55.4135953L106.034863 55.5841666C106.293827 55.5526324 106.472669 55.4795304 106.569959 55.3648606 106.651512 55.2516242 106.684419 55.1140205 106.66868 54.950616L106.66868 49.2730288 105.767314 49.7861761C105.637117 49.8492444 105.598487 49.9882815 105.645701 50.2004206 105.75873 50.5888645 105.66287 50.8741056 105.355261 51.0518437 105.029052 51.1665135 104.737181 50.9959422 104.479648 50.5415632L103.506745 48.7627483C103.408024 48.5835768 103.449515 48.4703404 103.628358 48.4201724L106.66868 47.5429486 106.66868 41.5729535 105.742992 41.5729535 104.187777 41.7693254C104.073318 41.8008596 104.008935 41.7850925 103.993197 41.7205908L103.772863 40.8677343C103.757124 40.770265 103.84583 40.7372975 104.040411 40.770265L105.742992 40.9408363 106.66868 40.9408363 106.66868 35.4080197C106.651512 35.3119838 106.70731 35.2790162 106.837508 35.3119838L108.661701 35.578591C109.311257 35.6774937 109.634605 35.9039665 109.634605 36.2623095 109.618866 36.6364197 109.342734 36.8800929 108.807637 36.9933293 108.613056 37.0076631 108.532935 37.1065657 108.564411 37.2857373L108.564411 40.9408363 109.125261 40.9408363 110.145379 39.4773633C110.226931 39.3483598 110.331375 39.3555267 110.461572 39.503164L111.679132 40.9637703C111.839375 41.0942071 111.896605 41.224644 111.847959 41.3550809 111.783576 41.4998515 111.670548 41.5729535 111.508874 41.5729535L108.564411 41.5729535 108.564411 46.7889948C109.408548 46.3833505 110.251254 45.9103377 111.09539 45.3742565 111.19125 45.2767872 111.28854 45.2767872 111.387261 45.3742565 111.483121 45.4559587 111.474536 45.5620282 111.361508 45.6910317 110.583185 46.5367213 109.651773 47.3336763 108.564411 48.0790298L108.564411 55.9009418zM147.261494 37.5781452L133.227365 37.5781452 131.913945 37.7730838C131.703627 37.8375855 131.589167 37.8132182 131.573429 37.6999818L131.378849 36.8714927C131.36311 36.7897905 131.443232 36.7654232 131.622074 36.7983907L133.227365 36.9445947 146.775042 36.9445947 148.477623 36.1877742C148.639296 36.1075053 148.769494 36.1648402 148.866784 36.3583455L149.669429 37.8218185C149.928393 38.1959286 149.952716 38.5198707 149.742397 38.7965115 149.514909 38.9900168 149.191562 38.998617 148.769494 38.8194455 148.590651 38.7391767 148.421824 38.7463435 148.25872 38.8452462 146.361558 40.0478455 144.52878 41.0698398 142.761816 41.914096 142.989304 42.0287658 143.102332 42.1921702 143.102332 42.4014426 143.102332 42.7927532 142.810461 43.0521936 142.22815 43.181197 142.049308 43.1983975 141.974909 43.2958668 142.007816 43.473605L142.007816 55.9496765C141.990647 56.3065861 141.788913 56.6806963 141.399752 57.0720069 140.977683 57.4604507 140.256591 57.7213245 139.235042 57.850328 139.137752 56.9731042 138.326522 56.3151864 136.802784 55.8780078 136.575296 55.8120727 136.478006 55.6830692 136.510913 55.4866972 136.54382 55.3261596 136.681171 55.2602244 136.924397 55.2917586L139.332332 55.6085339C139.624203 55.5769997 139.818784 55.5038977 139.916074 55.3906613 139.997627 55.2602244 140.029103 55.1140205 140.013365 54.950616L140.013365 41.4769175C139.997627 41.3780148 140.046272 41.3464807 140.1593 41.3780148L141.861881 41.6474888C143.661752 40.5753264 145.461623 39.217923 147.261494 37.5781452M171.171878 50.0527833C171.106064 49.9725145 171.123233 49.8836454 171.219093 49.7861761 171.317814 49.6715063 171.415104 49.6801065 171.510964 49.80911 171.867218 50.0857509 172.216318 50.4842283 172.558265 51.0031091 173.142007 51.9133004 173.287943 52.6772878 172.994641 53.2950712 172.865874 53.5545115 172.646971 53.7007155 172.337931 53.7322497 172.063229 53.7322497 171.828588 53.6276135 171.632576 53.4169078 171.455165 53.2535034 171.357874 53.0184303 171.340706 52.7102553 171.422258 51.4101868 171.366459 50.5243627 171.171878 50.0527833L171.171878 50.0527833zM168.592254 50.5157625C168.545039 50.4025261 168.569362 50.313657 168.666652 50.2491553 168.762512 50.1832202 168.852649 50.2075875 168.934201 50.3208239 169.306193 50.694934 169.622387 51.1908808 169.882781 51.8086642 170.367802 52.8636261 170.432186 53.6921153 170.075931 54.2926982 169.897089 54.5378049 169.653863 54.6596415 169.347685 54.6596415 169.054383 54.642441 168.83548 54.5120042 168.690975 54.2683309 168.560778 54.0576252 168.496394 53.7981848 168.496394 53.4900098 168.673806 51.9792355 168.705282 50.987342 168.592254 50.5157625L168.592254 50.5157625zM168.982846 47.6905859L168.982846 44.7163387 165.722189 44.7163387 165.722189 47.6404179 166.526265 47.6905859 168.982846 47.6905859zM165.72362 44.0842215L168.982846 44.0842215 168.982846 41.0125049 165.72362 41.0125049 165.72362 44.0842215zM165.72362 40.3545871L168.982846 40.3545871 168.982846 37.1868346 165.72362 37.1868346 165.72362 40.3545871zM166.039814 50.9300071C166.006907 50.8167707 166.055552 50.7279016 166.185749 50.6633998 166.298778 50.6146652 166.396068 50.6633998 166.47762 50.8081704 166.735153 51.3299179 166.939749 51.962035 167.085685 52.7102553 167.264527 54.0891594 167.092838 55.0079509 166.57348 55.4623299 166.330254 55.674469 166.064136 55.7318039 165.772265 55.6343346 165.496132 55.5526324 165.300121 55.3648606 165.187093 55.0738861 165.091233 54.8130123 165.082649 54.5378049 165.164201 54.2453969 165.795157 52.6686875 166.087028 51.5649909 166.039814 50.9300071L166.039814 50.9300071zM165.722189 49.2730288C165.707882 49.4694008 165.617745 49.6141714 165.456072 49.7130741 164.952451 49.8750451 164.498907 49.8750451 164.094007 49.7130741 163.930903 49.6141714 163.842197 49.4694008 163.825028 49.2730288L163.825028 36.1648402 163.825028 35.6043917C163.825028 35.3764855 163.923749 35.3349177 164.116899 35.4811217L165.772265 36.5532841 172.023169 36.5532841 173.555491 34.9937751C173.701427 34.8318041 173.854516 34.8318041 174.016189 34.9937751L176.012072 36.4801821C176.189483 36.610619 176.269605 36.77259 176.255298 36.9675286 176.206652 37.0821984 176.067871 37.1553004 175.841814 37.1868346L170.880007 37.1868346 170.880007 40.3545871 171.681222 40.3545871 173.116254 38.8939808C173.246451 38.7320098 173.400971 38.7377433 173.579814 38.9169148L175.451222 40.2829185C175.630064 40.411922 175.711616 40.5753264 175.694447 40.7688317 175.647233 40.8992685 175.499867 40.9809707 175.256641 41.0125049L170.880007 41.0125049 170.880007 44.0842215 171.875802 44.0842215 173.312265 42.5978146C173.441032 42.4358435 173.594121 42.441577 173.772964 42.6207485L175.647233 44.0096862C175.824645 44.1243559 175.906197 44.2791601 175.890459 44.4726654 175.841814 44.6031023 175.694447 44.6848045 175.451222 44.7163387L170.880007 44.7163387 170.880007 47.6905859 174.429673 47.6905859 175.499867 46.3976842C175.56425 46.2844478 175.662971 46.2930481 175.791738 46.4234849L177.299738 47.9342592C177.527225 48.1277645 177.617362 48.3642709 177.568717 48.6409117 177.520072 48.9003521 177.252523 49.0709233 176.764641 49.1511922 176.602967 49.1683927 176.512831 49.3145966 176.498523 49.5912375L176.060717 54.0748256C175.881874 55.1140205 175.711616 55.8536405 175.549943 56.2922524 175.355362 56.7150972 175.086383 57.0476395 174.747298 57.2913128 174.195032 57.6797567 173.35948 57.92343 172.242072 58.0223326 172.159089 56.964504 171.649745 56.2506846 170.709749 55.8780078 170.515169 55.7963056 170.432186 55.674469 170.466523 55.5124979 170.515169 55.3648606 170.636781 55.3003589 170.831362 55.3175593 172.094706 55.6085339 172.95458 55.674469 173.408125 55.5124979 173.637043 55.3992615 173.814455 55.1785222 173.943222 54.8545801 174.381028 53.7981848 174.625685 51.6223258 174.672899 48.3227031L166.526265 48.3227031 165.722189 48.4201724 165.722189 49.2730288zM163.338576 51.0031091C163.3071 50.8583385 163.355745 50.7766362 163.485943 50.7594358 163.598971 50.7594358 163.671939 50.8339711 163.703415 50.9801751 163.899427 51.8244313 163.946641 52.7417895 163.850781 53.7322497 163.75206 54.6596415 163.510265 55.3490935 163.121104 55.8049059 162.794895 56.128848 162.45581 56.2922524 162.098125 56.2922524 161.840592 56.2922524 161.611673 56.1933497 161.418523 55.9984111 160.980717 55.528265 161.118068 54.950616 161.832007 54.2683309 162.641806 53.3911071 163.145427 52.3031776 163.338576 51.0031091L163.338576 51.0031091zM160.153749 48.6409117L160.153749 38.8194455 158.256588 38.8194455 157.575556 38.9169148 157.575556 48.6409117 160.153749 48.6409117zM157.575556 51.0518437C157.558387 51.1665135 157.492573 51.2797499 157.379544 51.3944197 156.861616 51.6223258 156.357996 51.65386 155.872975 51.491889 155.742778 51.4259538 155.678394 51.3213177 155.678394 51.1736803L155.678394 37.5781452 155.678394 37.2857373C155.678394 37.2198021 155.727039 37.204035 155.822899 37.2370026L157.501157 38.1371603 158.256588 38.1615277 160.080781 38.1615277 161.198189 37.042064C161.311218 36.9288276 161.432831 36.9359944 161.563028 37.0664313L162.780588 38.309165C162.958 38.4883365 163.063874 38.7234096 163.095351 39.0158175 163.063874 39.2752578 162.780588 39.4773633 162.245491 39.6250007 162.066649 39.6737353 161.993681 39.811339 162.025157 40.0392452L162.025157 50.6633998C162.025157 50.8741056 161.945036 51.0289098 161.783362 51.1249457 161.246835 51.3370848 160.768967 51.3528519 160.34833 51.1736803 160.218132 51.0934115 160.153749 50.9715749 160.153749 50.8081704L160.153749 49.2730288 157.575556 49.2730288 157.575556 51.0518437zM192.088153 52.5878453C192.557436 52.5706449 192.979504 52.7498164 193.352927 53.1239265 193.611891 53.399134 193.742088 53.7818444 193.742088 54.2691909 193.72492 54.7078028 193.57183 55.0804796 193.279959 55.390088 192.955181 55.7469976 192.557436 55.9261692 192.088153 55.9261692 191.584532 55.9261692 191.179633 55.7727983 190.872024 55.4631899 190.580153 55.1550149 190.434217 54.7565375 190.434217 54.2691909 190.434217 53.7818444 190.595891 53.3762 190.920669 53.0508246 191.228278 52.7412162 191.617439 52.5878453 192.088153 52.5878453M192.088153 36.7247154C193.676274 36.7247154 195.055508 37.1231929 196.222992 37.9187144 197.406214 38.7314364 197.99854 39.8437333 197.99854 41.2570382 197.99854 42.2962331 197.803959 43.1490895 197.414798 43.8156076 196.944085 44.595362 196.167193 45.3335487 195.07983 46.0330343 194.058282 46.6823519 193.392988 47.3159024 193.085379 47.9336859 192.66331 48.7793754 192.452992 49.8988391 192.452992 51.296377L191.723314 51.296377C191.706145 49.2495215 191.935064 47.7717148 192.404346 46.8615235 192.760601 46.081769 193.410157 45.3994838 194.350153 44.814668 195.225766 44.2298521 195.800923 43.6851707 196.077056 43.1820571 196.401834 42.6130083 196.563508 41.9722909 196.563508 41.2570382 196.563508 40.0874065 196.125701 39.1843821 195.250088 38.5522649 194.277185 37.8542127 193.22273 37.5044699 192.088153 37.5044699 190.790472 37.4887028 189.777508 37.7811107 189.04783 38.3816936 188.285246 38.9665095 187.904669 39.3965211 187.904669 39.673162 187.8875 39.9168352 188.179371 40.1519083 188.780282 40.3783811 189.348286 40.5747531 189.631572 40.9316627 189.631572 41.4505435 189.631572 41.826087 189.485637 42.1657962 189.193766 42.4754046 188.886157 42.7835796 188.495565 42.9383838 188.026282 42.9383838 187.621383 42.9383838 187.263698 42.7921798 186.956088 42.4997719 186.615572 42.1743964 186.445314 41.6956501 186.445314 41.0620996 186.445314 39.908235 187.011887 38.8848073 188.147895 37.9918164 189.218088 37.1475602 190.531508 36.7247154 192.088153 36.7247154"/>
  </g>
</svg>
