<svg xmlns="http://www.w3.org/2000/svg" width="409" height="32" viewBox="0 0 409 32">
  <g fill="none" fill-rule="evenodd">
    <path fill="#221F20" d="M16.8327273 17.4312727L23.0349091 17.4312727 23.0349091 14.2327273 16.8327273 14.2327273 16.8327273 17.4312727zM16.8327273 13.392L23.0349091 13.392 23.0349091 10.1934545 16.8327273 10.1934545 16.8327273 13.392zM22.5170909 28.2865455L22.5170909 23.344 10.5316364 23.344 10.0138182 23.44 10.0138182 28.2865455 22.5170909 28.2865455zM10.0138182 30.4509091C9.992 30.6021818 9.90618182 30.7636364 9.75636364 30.9367273 9.06545455 31.2378182 8.39781818 31.2814545 7.75345455 31.0647273 7.60218182 30.9803636 7.51490909 30.8290909 7.49454545 30.6138182L7.49454545 21.568 7.49454545 21.1781818C7.51490909 21.0938182 7.57890909 21.0705455 7.688 21.1156364L10.2072727 22.4712727 22.4545455 22.4712727 23.5847273 21.3410909C23.7127273 21.1476364 23.8858182 21.1476364 24.1025455 21.3410909L25.5876364 22.6021818C25.912 22.8378182 26.0705455 23.1389091 26.0705455 23.5054545 26.0516364 23.8065455 25.7505455 24.0450909 25.1672727 24.2152727 25.0392727 24.2385455 24.9941818 24.3694545 25.0392727 24.6050909L25.0392727 30.2923636C25.0174545 30.5701818 24.8981818 30.7636364 24.6814545 30.8712727 24.0792727 31.1301818 23.4887273 31.184 22.9069091 31.0341818 22.648 30.9483636 22.5170909 30.7636364 22.5170909 30.4858182L22.5170909 29.1272727 10.0138182 29.1272727 10.0138182 30.4509091zM10.0458182 10.1934545L8.30181818 10.4509091C8.02254545 10.5163636 7.87272727 10.4858182 7.84945455 10.3549091L7.62254545 9.38618182C7.56 9.16945455 7.64436364 9.09672727 7.88145455 9.16218182L10.0458182 9.35418182 14.344 9.35418182 14.344 6.34909091C14.344 6.19781818 14.4210909 6.144 14.5709091 6.18763636L17.0567273 6.54254545C17.7694545 6.62981818 18.1243636 6.92072727 18.1243636 7.41381818 18.1243636 7.88945455 17.7694545 8.21236364 17.0567273 8.38545455 16.9069091 8.42909091 16.8327273 8.53672727 16.8327273 8.70690909L16.8327273 9.35418182 22.616 9.35418182 24.1650909 7.83418182C24.4036364 7.59854545 24.6189091 7.59854545 24.8123636 7.83418182L26.3294545 9.38618182C27.3869091 10.4858182 27.1934545 11.2189091 25.7505455 11.5854545 25.5992727 11.6043636 25.5221818 11.7018182 25.5221818 11.8749091L25.5221818 13.392 25.6196364 13.392 26.9461818 11.4850909C27.0741818 11.2727273 27.2894545 11.2727273 27.5905455 11.4850909L29.9483636 13.392C30.1214545 13.5229091 30.1767273 13.7047273 30.1112727 13.9432727 30.0458182 14.0930909 29.8523636 14.1905455 29.528 14.2327273L25.5221818 14.2327273 25.5221818 19.4996364C25.5032727 19.7352727 25.3607273 19.9403636 25.1018182 20.1134545 24.5432727 20.352 24.0065455 20.3941818 23.4887273 20.2414545 23.1847273 20.1134545 23.0334545 19.9083636 23.0334545 19.6276364L23.0334545 18.272 16.8327273 18.272 16.8327273 20.8887273C16.8094545 21.1243636 16.6392727 21.3294545 16.3149091 21.5025455 15.7563636 21.7614545 15.2152727 21.8152727 14.6989091 21.664 14.4210909 21.5796364 14.3018182 21.4065455 14.344 21.1476364L14.344 18.272 9.65890909 18.272 7.75345455 18.4974545C7.60218182 18.5425455 7.51490909 18.5192727 7.49454545 18.4349091L7.20509091 17.3658182C7.18181818 17.2378182 7.28945455 17.1956364 7.52509091 17.2378182L9.65890909 17.4312727 14.344 17.4312727 14.344 14.2327273 5.10181818 14.2327273 4.94327273 17.3032727C4.42690909 23.6785455 3.06836364 28.0625455.872 30.4509091.613090909 30.6472727.406545455 30.6676364.255272727 30.5163636.147636364 30.3010909.255272727 29.9345455.579636364 29.4167273 2.00363636 25.4996364 2.70181818 19.0589091 2.67854545 10.096L2.67854545 5.80072727 2.67854545 3.37745455C2.70181818 3.07636364 2.84145455 3.01090909 3.09890909 3.184L5.33018182 4.57309091 13.7956364 4.57309091 13.7956364 1.14763636C13.7956364.996363636 13.8581818.942545455 13.9890909.984727273L16.6058182 1.43709091C17.4232727 1.568 17.832 1.86909091 17.832 2.34327273 17.8130909 2.92509091 17.4145455 3.26981818 16.6392727 3.37745455 16.424 3.39781818 16.3149091 3.49672727 16.3149091 3.66690909L16.3149091 4.57309091 22.616 4.57309091 24.7163636 2.40872727C24.9316364 2.17018182 25.1454545 2.17018182 25.3607273 2.40872727L28.2043636 4.47418182C28.44 4.64727273 28.5490909 4.85236364 28.5287273 5.09090909 28.4632727 5.26109091 28.2698182 5.36872727 27.9469091 5.41090909L5.19927273 5.41090909 5.19927273 5.80072727 5.19927273 10.096 5.13672727 13.392 14.344 13.392 14.344 10.1934545 10.0458182 10.1934545zM44.2302545 12.616C44.0789818 12.3149091 44.1226182 12.0909091 44.3582545 11.9396364 44.5735273 11.7665455 44.7786182 11.8087273 44.9720727 12.0676364 46.7189818 14.696 47.9655273 17.4 48.7218909 20.1781818 49.4520727 22.8269091 49.5713455 24.5621818 49.0768 25.3796364 48.8833455 25.6385455 48.5793455 25.7898182 48.1706182 25.832 47.7618909 25.832 47.4608 25.6705455 47.2673455 25.3461818 47.0506182 25.0450909 46.9313455 24.5927273 46.9124364 23.9905455 46.6113455 20.1985455 45.7153455 16.408 44.2302545 12.616L44.2302545 12.616zM50.7553455 1.53381818C50.7553455 1.38545455 50.8208 1.33163636 50.9517091 1.37527273L53.5684364 1.82618182C54.3858909 1.95418182 54.7960727 2.25818182 54.7960727 2.72945455 54.7728 3.29236364 54.3757091 3.624 53.5989818 3.73309091 53.3837091 3.77527273 53.2760727 3.88290909 53.2760727 4.056L53.2760727 7.96581818 60.2869818 7.96581818 62.2273455 5.80145455C62.3786182 5.62690909 62.5284364 5.62690909 62.6797091 5.80145455L65.3924364 7.80290909C65.7153455 8.01963636 65.8346182 8.24363636 65.7473455 8.48218182 65.6397091 8.67563636 65.4258909 8.78327273 65.1029818 8.80363636L41.3211636 8.80363636 39.4797091 9.06254545C39.2644364 9.10763636 39.1451636 9.06254545 39.1248 8.93454545L38.8004364 7.86836364C38.7815273 7.73890909 38.8978909 7.69527273 39.1568 7.73890909L41.3211636 7.96581818 50.7553455 7.96581818 50.7553455 1.53381818zM53.7298909 28.1592727C55.7953455 23.8058182 57.3691636 18.2290909 58.4455273 11.4232727 58.4891636 11.1847273 58.6186182 11.1221818 58.8353455 11.2269091L61.4520727 12.0996364C62.0964364 12.3149091 62.3786182 12.6698182 62.2898909 13.1672727 62.1618909 13.6618182 61.7182545 13.8654545 60.9662545 13.7810909 60.7728 13.7810909 60.6418909 13.8654545 60.5793455 14.04 59.0288 20.0050909 56.9909818 24.7556364 54.4717091 28.2858182L61.6760727 28.2858182 63.6164364 26.1214545C63.7677091 25.9512727 63.9175273 25.9512727 64.0688 26.1214545L66.7815273 28.1272727C67.1058909 28.3410909 67.2251636 28.568 67.1364364 28.8036364 67.0288 28.9767273 66.8149818 29.0843636 66.4920727 29.128L40.3204364 29.128 38.4455273 29.3854545C38.2535273 29.4290909 38.1444364 29.3854545 38.1226182 29.2574545L37.8011636 28.1898182C37.7778909 28.0618182 37.8971636 28.0196364 38.1560727 28.0618182L40.3204364 28.2858182 53.6644364 28.2858182 53.7298909 28.1592727zM95.5399273 25.4116364C95.3857455 25.3258182 95.3319273 25.2065455 95.3784727 25.0567273 95.3973818 24.9054545 95.5282909 24.8516364 95.7639273 24.8938182 96.9057455 25.0872727 98.1333818 25.5847273 99.4497455 26.3803636 101.644655 27.6734545 102.776291 28.8807273 102.840291 29.9992727 102.840291 30.3658182 102.678836 30.6989091 102.354473 31.0029091 102.034473 31.1963636 101.676655 31.2501818 101.289745 31.1643636 100.904291 31.0334545 100.225018 30.3236364 99.2533818 29.0305455 98.0490182 27.2632727 96.8097455 26.0589091 95.5399273 25.4116364L95.5399273 25.4116364zM89.6242909 22.7294545L96.1842909 22.7294545 96.1842909 18.2727273 89.6242909 18.2727273 89.6242909 22.7294545zM89.6242909 17.432L96.1842909 17.432 96.1842909 12.9738182 89.6242909 12.9738182 89.6242909 17.432zM89.6242909 12.1330909L96.1842909 12.1330909 96.1842909 7.80290909 89.6242909 7.80290909 89.6242909 12.1330909zM87.1050182 7.80290909L86.5232 7.80290909 84.6512 8.06181818C84.4344727 8.10545455 84.3152 8.06181818 84.2948364 7.93090909L83.9719273 6.86618182C83.9719273 6.73818182 84.0912 6.69309091 84.3268364 6.73818182L86.5232 6.96218182 87.1050182 6.96218182 87.1050182 1.40581818C87.1050182 1.256 87.1704727 1.20072727 87.2984727 1.24436364L89.9181091 1.69527273C90.7355636 1.82618182 91.1457455 2.12727273 91.1457455 2.60145455 91.1224727 3.16145455 90.7239273 3.49745455 89.9486545 3.60218182 89.7333818 3.64727273 89.6257455 3.752 89.6257455 3.92654545L89.6257455 6.96218182 96.1842909 6.96218182 96.1842909 1.53381818C96.1842909 1.38545455 96.2497455 1.33163636 96.3777455 1.37527273L98.9944727 1.82618182C99.8148364 1.95418182 100.225018 2.25818182 100.225018 2.72945455 100.201745 3.29236364 99.8046545 3.624 99.0279273 3.73309091 98.8359273 3.77527273 98.7384727 3.88290909 98.7384727 4.056L98.7384727 6.73818182 100.386473 4.86327273C100.534836 4.712 100.696291 4.712 100.869382 4.86327273L103.388655 6.80072727C103.713018 7.01745455 103.832291 7.23272727 103.745018 7.448 103.635927 7.64145455 103.411927 7.76072727 103.068655 7.80290909L98.7384727 7.80290909 98.7384727 22.7294545 99.4148364 22.7294545 101.3552 20.5650909C101.4832 20.3949091 101.633018 20.3949091 101.807564 20.5650909L104.520291 22.568C104.8432 22.7832727 104.963927 23.0116364 104.8752 23.2472727 104.767564 23.4392727 104.542109 23.56 104.198836 23.6021818L84.3588364 23.6021818 82.5173818 23.8290909C82.3006545 23.8712727 82.1842909 23.8290909 82.1624727 23.6981818L81.8381091 22.6334545C81.8177455 22.5054545 81.9370182 22.4603636 82.1959273 22.5054545L84.3588364 22.7294545 87.1050182 22.7294545 87.1050182 7.80290909zM89.1733818 24.5083636C89.2592 24.312 89.3784727 24.2698182 89.5282909 24.3774545L91.5966545 25.3810909C92.1130182 25.6589091 92.2948364 26.0167273 92.1450182 26.4458182 91.9748364 26.8123636 91.5544727 26.92 90.8868364 26.7701818 90.6482909 26.7047273 90.4853818 26.7585455 90.4010182 26.9316364 88.1624727 28.8690909 85.2330182 30.2698182 81.6141091 31.1309091 81.3755636 31.1309091 81.2242909 31.0567273 81.1617455 30.9054545 81.1399273 30.648 81.2359273 30.5054545 81.4512 30.4850909 84.5086545 29.3432727 86.9770182 27.5018182 88.8490182 24.9592727L89.1733818 24.5083636zM77.5733818 2.60145455C77.4453818 2.49381818 77.4002909 2.36290909 77.4453818 2.21309091 77.5312 2.08509091 77.6708364 2.04290909 77.8672 2.08509091 78.5537455 2.27854545 79.2752 2.65527273 80.0315636 3.21527273 81.4512 4.20727273 82.1304727 5.15272727 82.0650182 6.05890909 82.0228364 6.46909091 81.8075636 6.792 81.4206545 7.02763636 81.0962909 7.17890909 80.7413818 7.17890909 80.3530182 7.02763636 80.0519273 6.87781818 79.7930182 6.60727273 79.5762909 6.22181818L78.8010182 4.41090909C78.5232 3.67927273 78.1130182 3.07563636 77.5733818 2.60145455L77.5733818 2.60145455zM75.5399273 10.0967273C75.4090182 9.98763636 75.3784727 9.86109091 75.4439273 9.70981818 75.5486545 9.53672727 75.6912 9.50472727 75.8613818 9.61381818 76.5290182 9.87127273 77.2068364 10.3003636 77.8977455 10.9054545 78.6512 11.5512727 79.1253818 12.1214545 79.3188364 12.616 79.5762909 13.0901818 79.6621091 13.5454545 79.5762909 13.9745455 79.4919273 14.3629091 79.2446545 14.6421818 78.8359273 14.8152727 78.4693818 14.9432727 78.1130182 14.9112727 77.7668364 14.7178182 77.2722909 14.3716364 77.0250182 14.0167273 77.0250182 13.6501818 76.3355636 11.6050909 75.8410182 10.4196364 75.5399273 10.0967273L75.5399273 10.0967273zM83.5850182 8.02836364C83.7333818 8.09381818 83.7668364 8.28727273 83.6824727 8.61018182L79.6112 21.6647273C79.3726545 22.568 79.2213818 23.3883636 79.1559273 24.1185455 79.1559273 24.8516364 79.3406545 25.7781818 79.7072 26.8967273 80.1362909 28.1272727 80.2439273 29.1163636 80.0315636 29.8712727 79.8584727 30.4938182 79.4686545 30.872 78.8664727 31.0029091 78.3501091 31.0654545 77.9181091 30.8603636 77.5733818 30.3890909 77.2068364 29.8494545 77.1341091 28.7294545 77.3493818 27.0276364 77.4352 25.8625455 77.4119273 24.8632727 77.2839273 24.0225455 77.1762909 23.3127273 76.5392 22.8603636 75.3784727 22.664 74.9886545 22.5592727 74.8184727 22.4065455 74.8606545 22.2130909 74.8606545 22.0196364 75.0424727 21.9454545 75.4090182 21.9876364 76.1188364 22.0967273 76.7442909 22.0429091 77.2839273 21.8261818 77.6082909 21.6530909 77.9515636 21.1585455 78.3181091 20.3410909L83.0992 8.38618182C83.2272 8.08218182 83.3886545 7.96581818 83.5850182 8.02836364L83.5850182 8.02836364zM161.354909 11.4850909L175.667636 11.4850909 175.667636 7.93163636 161.354909 7.93163636 161.354909 11.4850909zM175.667636 7.09381818L175.667636 3.63636364 161.903273 3.63636364 161.354909 3.73236364 161.354909 7.09381818 175.667636 7.09381818zM161.354909 13.0370909C161.333091 13.1869091 161.256 13.3483636 161.128 13.5229091 160.418182 13.824 159.750545 13.8661818 159.125091 13.6494545 158.952 13.5650909 158.856 13.4138182 158.832727 13.1985455L158.832727 2.01890909 158.832727 1.63345455C158.856 1.54472727 158.931636 1.52581818 159.059636 1.568L161.289455 2.76363636 161.903273 2.79563636 175.247273 2.79563636 176.797818 1.27563636C177.033455 1.04 177.250182 1.04 177.443636 1.27563636L178.931636 2.82618182C180.008 3.92581818 179.824727 4.65890909 178.380364 5.02545455 178.230545 5.04436364 178.156364 5.14472727 178.156364 5.31490909L178.156364 13.4254545C178.133091 13.6843636 177.983273 13.8996364 177.701091 14.0712727 177.164364 14.2865455 176.636364 14.3170909 176.12 14.1672727 175.818909 14.0596364 175.667636 13.8661818 175.667636 13.5883636L175.667636 12.3578182 161.354909 12.3578182 161.354909 13.0370909zM177.477091 28.9338182L179.384 26.736C179.533818 26.5643636 179.696727 26.5643636 179.866909 26.736L182.582545 28.7723636C182.883636 28.9658182 182.991273 29.1810909 182.904 29.4167273 182.818182 29.6130909 182.602909 29.7294545 182.258182 29.7745455L156.733818 29.7745455 154.860364 30.0334545C154.665455 30.0756364 154.556364 30.0334545 154.537455 29.9025455L154.213091 28.8378182C154.192727 28.7069091 154.310545 28.6647273 154.568 28.7069091L156.733818 28.9338182 167.429091 28.9338182 167.429091 24.3461818 162.162182 24.3461818 160.287273 24.6050909C160.070545 24.6472727 159.965818 24.6050909 159.965818 24.4741818L159.642909 23.408C159.619636 23.2814545 159.727273 23.2349091 159.965818 23.2814545L162.162182 23.5054545 167.429091 23.5054545 167.429091 19.0472727 161.289455 19.0472727C159.414545 21.5883636 157.357818 23.3003636 155.119273 24.1847273 154.922909 24.2501818 154.784727 24.2152727 154.698909 24.0872727 154.633455 23.8938182 154.687273 23.7527273 154.860364 23.6669091 157.747636 21.5563636 159.631273 18.4450909 160.514182 14.3287273 160.556364 14.0930909 160.675636 14.0058182 160.869091 14.0712727L163.357818 14.88C164.133091 15.1389091 164.477818 15.4821818 164.392 15.9112727 164.261091 16.3665455 163.810182 16.5818182 163.033455 16.5585455 162.925818 16.5367273 162.528727 17.088 161.837818 18.2065455L167.429091 18.2065455 167.429091 13.7803636C167.429091 13.6305455 167.491636 13.5767273 167.622545 13.6189091L170.239273 14.0712727C171.056727 14.1789091 171.465455 14.48 171.465455 14.9774545 171.446545 15.536 171.048 15.8690909 170.272727 15.9767273 170.057455 16.0218182 169.948364 16.128 169.948364 16.3010909L169.948364 18.2065455 174.374545 18.2065455 176.442909 16.0421818C176.659636 15.8065455 176.883636 15.8065455 177.122182 16.0421818L179.962909 18.1105455C180.179636 18.2603636 180.275636 18.4654545 180.255273 18.7243636 180.213091 18.8974545 180.028364 19.0050909 179.704 19.0472727L169.948364 19.0472727 169.948364 23.5054545 172.92 23.5054545 174.826909 21.3090909C174.976727 21.136 175.139636 21.136 175.312727 21.3090909L178.025455 23.344C178.349818 23.5389091 178.466182 23.7527273 178.380364 23.9912727 178.272727 24.1847273 178.048727 24.304 177.701091 24.3461818L169.948364 24.3461818 169.948364 28.9338182 177.477091 28.9338182zM213.9888 14.1671273C212.695709 16.7329455 211.3488 18.5729455 209.949527 19.6929455 209.756073 19.8427636 209.6048 19.8544 209.497164 19.7264 209.366255 19.6187636 209.389527 19.4689455 209.559709 19.2725818 211.198982 16.8173091 212.329164 13.3831273 212.954618 8.96567273 212.974982 8.79549091 213.050618 8.73003636 213.178618 8.77221818L215.894255 9.38603636C216.5168 9.53585455 216.798982 9.86021818 216.733527 10.3547636 216.647709 10.7634909 216.257891 10.9685818 215.571345 10.9685818 215.354618 10.9685818 215.235345 11.0340364 215.216436 11.1649455L214.343709 13.4253091C215.139345 13.7918545 215.946618 14.3096727 216.766982 14.9773091 218.5968 16.4624 219.479709 17.7438545 219.414255 18.8202182 219.372073 19.2304 219.166982 19.5416727 218.800436 19.7584 218.457164 19.9314909 218.090618 19.9198545 217.702255 19.7264 217.401164 19.5765818 217.142255 19.3264 216.928436 18.9831273 215.548073 16.2893091 214.567709 14.6849455 213.9888 14.1671273L213.9888 14.1671273zM201.159709 14.8464C199.869527 17.5387636 198.5968 19.4456727 197.345891 20.5642182 197.153891 20.6951273 196.990982 20.7154909 196.864436 20.6296727 196.733527 20.5002182 196.755345 20.3285818 196.928436 20.1133091 198.736436 17.1416727 199.804073 13.4456727 200.128436 9.03112727 200.128436 8.85803636 200.190982 8.78385455 200.321891 8.80276364L203.065164 9.29003636C203.690618 9.39767273 203.991709 9.69876364 203.971345 10.1933091 203.886982 10.6049455 203.5088 10.8289455 202.841164 10.8711273 202.647709 10.8944 202.540073 10.9685818 202.5168 11.0994909L201.517527 13.9736727C202.054255 14.2980364 202.625891 14.7489455 203.228073 15.3322182 204.561891 16.6864 205.133527 17.8398545 204.940073 18.7896727 204.855709 19.1751273 204.605527 19.4456727 204.198255 19.5954909 203.833164 19.7045818 203.473891 19.6609455 203.130618 19.4689455 202.8528 19.2725818 202.636073 18.9714909 202.486255 18.5627636 201.968436 16.6442182 201.526255 15.4064 201.159709 14.8464L201.159709 14.8464zM215.181527 29.2900364L217.121891 27.1242182C217.273164 26.9511273 217.434618 26.9511273 217.6048 27.1242182L220.321891 29.1271273C220.621527 29.3438545 220.730618 29.5678545 220.641891 29.8064 220.534255 29.9998545 220.321891 30.1191273 219.997527 30.1613091L197.3808 30.1613091 195.505891 30.3882182C195.289164 30.4318545 195.1728 30.3969455 195.150982 30.2922182L194.826618 29.1925818C194.806255 29.0616727 194.924073 29.0194909 195.181527 29.0616727L197.3808 29.2900364 206.167709 29.2900364 206.167709 23.2158545 200.513891 23.2158545 198.673891 23.4733091C198.457164 23.5169455 198.337891 23.4733091 198.318982 23.3438545L197.994618 22.2471273C197.971345 22.1394909 198.090618 22.1045818 198.349527 22.1467636L200.513891 22.3431273 206.167709 22.3431273 206.167709 7.70749091C206.167709 7.55621818 206.233164 7.5024 206.364073 7.54458182L208.9808 7.99694545C209.798255 8.12785455 210.206982 8.42894545 210.206982 8.90312727 210.185164 9.48203636 209.786618 9.82967273 209.011345 9.9344 208.796073 9.97949091 208.686982 10.0754909 208.686982 10.2267636L208.686982 22.3431273 212.534255 22.3431273 214.471709 20.1787636C214.621527 20.0056727 214.784436 20.0056727 214.957527 20.1787636L217.670255 22.2122182C217.971345 22.4056727 218.080436 22.6209455 217.994618 22.8609455 217.886982 23.0529455 217.670255 23.1722182 217.345891 23.2158545L208.686982 23.2158545 208.686982 29.2900364 215.181527 29.2900364zM205.523345 5.31476364L205.523345 1.14749091C205.523345.996218182 205.5888.9424 205.7168.984581818L208.332073 1.43694545C209.150982 1.56785455 209.559709 1.86894545 209.559709 2.34312727 209.559709 2.9264 209.162618 3.26967273 208.366982 3.37730909 208.170618 3.39767273 208.073164 3.49658182 208.073164 3.66676364L208.073164 5.31476364 214.375709 5.31476364 216.442618 3.18385455C216.659345 2.94530909 216.883345 2.94530909 217.121891 3.18385455L219.965527 5.21876364C220.201164 5.39185455 220.310255 5.60421818 220.286982 5.86312727 220.224436 6.01730909 220.028073 6.11330909 219.708073 6.15549091L196.313164 6.15549091 196.313164 6.4144 196.313164 10.5511273 196.215709 15.2013091C195.786618 22.6325818 194.332073 27.6842182 191.854982 30.3547636 191.596073 30.5278545 191.392436 30.5394909 191.241164 30.3882182L192.179345 27.5765818C193.276073 23.9576727 193.815709 18.2834909 193.792436 10.5511273L193.792436 6.4144 193.792436 4.02167273C193.815709 3.69876364 193.955345 3.62458182 194.2128 3.79767273L196.670982 5.31476364 205.523345 5.31476364zM248.525818 19.0792727L252.886545 19.0792727 252.886545 16.0116364 248.525818 16.0116364 248.525818 19.0792727zM248.525818 15.1694545L252.886545 15.1694545 252.886545 12.0989091 248.525818 12.0989091 248.525818 15.1694545zM241.869818 19.0792727L246.037091 19.0792727 246.037091 16.0116364 241.869818 16.0116364 241.869818 19.0792727zM246.037091 12.0989091L242.549091 12.0989091 241.869818 12.1978182 241.869818 15.1694545 246.037091 15.1694545 246.037091 12.0989091zM239.384 23.6989091L237.539636 23.9563636C237.324364 24.0029091 237.208 23.9563636 237.184727 23.8298182L236.860364 22.7636364C236.841455 22.6327273 236.960727 22.5905455 237.219636 22.6327273L239.384 22.8610909 246.037091 22.8610909 246.037091 19.92 241.869818 19.92 241.869818 20.6298182C241.849455 20.7810909 241.772364 20.9309091 241.644364 21.0821818 240.931636 21.3832727 240.264 21.4283636 239.642909 21.2130909 239.468364 21.1243636 239.372364 20.9847273 239.349091 20.7927273L239.349091 10.5818182 239.349091 10.1934545C239.372364 10.1309091 239.446545 10.1076364 239.576 10.1309091L241.578909 11.2261818 242.549091 11.2610909 246.037091 11.2610909 246.037091 8.32 241.417455 8.32 239.542545 8.57890909C239.330182 8.62109091 239.210909 8.57890909 239.187636 8.448L238.898182 7.38327273C238.874909 7.25527273 238.982545 7.21018182 239.221091 7.25527273L241.417455 7.44872727 246.037091 7.44872727 246.037091 4.34618182C246.016727 4.19490909 246.090909 4.14109091 246.264 4.18472727L248.752727 4.70109091C249.571636 4.80872727 249.980364 5.14472727 249.980364 5.70472727 249.980364 6.24145455 249.602182 6.59636364 248.848727 6.76945455 248.610182 6.81163636 248.514182 6.93090909 248.556364 7.12436364L248.525818 7.44872727 251.401455 7.44872727 253.274909 5.38036364C253.426182 5.20727273 253.587636 5.20727273 253.762182 5.38036364L253.824727 5.47636364 254.374545 3.76436364 241.548364 3.76436364 239.932364 3.95636364C239.738909 5.46618182 239.360727 6.51054545 238.800727 7.09381818 238.284364 7.43709091 237.798545 7.568 237.346182 7.47927273 236.979636 7.43709091 236.701818 7.27563636 236.505455 6.99636364 236.335273 6.75781818 236.290182 6.44509091 236.377455 6.05963636 236.442909 5.69309091 236.797818 5.27272727 237.443636 4.79854545 238.326545 4.15272727 238.972364 3.17236364 239.384 1.85745455 239.384 1.664 239.468364 1.568 239.642909 1.568 239.769455 1.58836364 239.855273 1.696 239.900364 1.89236364L239.962909 2.79563636 241.548364 2.92509091 254.051636 2.92509091 255.568727 1.40654545C255.718545 1.25527273 255.88 1.26690909 256.054545 1.43709091L257.992 3.50545455C258.466182 3.97963636 258.573818 4.42327273 258.314909 4.832 258.057455 5.21890909 257.605091 5.31490909 256.957818 5.12145455 256.678545 5.03709091 255.968727 5.392 254.826909 6.18763636L256.281455 7.31781818C256.582545 7.51127273 256.690182 7.72654545 256.602909 7.96509091 256.517091 8.15854545 256.301818 8.27781818 255.957091 8.32L248.525818 8.32 248.525818 11.2610909 252.469091 11.2610909 254.019636 9.74109091C254.255273 9.50545455 254.472 9.50545455 254.665455 9.74109091L256.184 11.2916364C257.261818 12.3694545 257.065455 13.1025455 255.602182 13.4909091 255.452364 13.5112727 255.375273 13.6072727 255.375273 13.7803636L255.375273 20.2414545C255.354909 20.4989091 255.212364 20.7156364 254.954909 20.8887273 254.394909 21.104 253.858182 21.136 253.340364 20.9847273 253.037818 20.8770909 252.886545 20.6836364 252.886545 20.4029091L252.886545 19.92 248.525818 19.92 248.525818 22.8610909 253.792727 22.8610909 255.602182 20.8887273C255.730182 20.7389091 255.88 20.7389091 256.054545 20.8887273L258.412364 22.6981818C258.735273 22.9149091 258.856 23.1389091 258.767273 23.3774545 258.659636 23.5476364 258.434182 23.6552727 258.090909 23.6989091L248.525818 23.6989091 248.525818 26.608C248.549091 26.9090909 248.428364 27.1476364 248.170909 27.3178182 247.568727 27.5563636 246.973818 27.5767273 246.392 27.3832727 246.156364 27.2523636 246.037091 27.0589091 246.037091 26.8014545L246.037091 23.6989091 239.384 23.6989091zM230.949091 2.21236364C230.841455 2.10472727 230.809455 1.98836364 230.851636 1.85745455 230.895273 1.70763636 231.014545 1.65236364 231.208 1.696 231.983273 1.91127273 232.800727 2.28945455 233.664727 2.82618182 235.235636 3.90545455 235.989091 4.90618182 235.926545 5.83127273 235.881455 6.22109091 235.688 6.53381818 235.343273 6.76945455 235.020364 6.94254545 234.665455 6.95127273 234.278545 6.80145455 233.846545 6.608 233.533818 6.29527273 233.340364 5.86327273 232.326545 3.84 231.530909 2.62109091 230.949091 2.21236364L230.949091 2.21236364zM229.590545 8.67636364C229.462545 8.56727273 229.420364 8.43927273 229.462545 8.28654545 229.506182 8.11636364 229.625455 8.06254545 229.818909 8.128 230.570909 8.27781818 231.411636 8.59927273 232.338182 9.09672727 233.954182 10.0654545 234.761455 11.0225455 234.761455 11.9709091 234.761455 12.3796364 234.588364 12.704 234.245091 12.9396364 233.900364 13.1563636 233.545455 13.1869091 233.178909 13.0370909 232.812364 12.928 232.522909 12.7156364 232.306182 12.3912727 231.142545 10.3010909 230.239273 9.06181818 229.590545 8.67636364L229.590545 8.67636364zM233.210909 17.7861818L231.304 17.7861818 229.56 18.0450909C229.301091 18.1338182 229.161455 18.1105455 229.139636 17.9796364L228.848727 16.8829091C228.806545 16.752 228.915636 16.7098182 229.173091 16.752L231.304 16.9149091 232.856 16.9149091 234.472 15.3323636C234.621818 15.1810909 234.773091 15.1927273 234.922909 15.3629091L236.829818 17.2378182C237.173091 17.5621818 237.304 17.9287273 237.219636 18.3345455 237.110545 18.7461818 236.701818 19.0138182 235.989091 19.1447273 235.753455 19.1869091 235.656 19.3265455 235.699636 19.5650909L235.699636 24.8625455C236.150545 25.616 236.851636 26.2414545 237.798545 26.736 238.639273 27.1898182 239.650182 27.5025455 240.835636 27.6727273 246.264 28.256 251.939636 28.224 257.864 27.5767273 258.057455 27.5563636 258.176727 27.6305455 258.218909 27.8036364 258.261091 27.9767273 258.141818 28.1585455 257.864 28.352 257.196364 28.8261818 256.829818 29.4705455 256.764364 30.2923636 256.744 30.5047273 256.613091 30.6138182 256.377455 30.6138182 250.409455 30.656 246.383273 30.6021818 244.293091 30.4509091 239.619636 30.1309091 236.301818 28.4058182 234.341091 25.2843636 233.178909 26.9425455 232.210182 28.2007273 231.434909 29.0618182 231.283636 29.2130909 231.292364 29.44 231.465455 29.7410909 231.658909 30.1498182 231.584727 30.5047273 231.241455 30.8058182 230.895273 31.0225455 230.528727 30.8945455 230.141818 30.4203636L228.687273 28.4174545C228.451636 28.0930909 228.397818 27.8996364 228.525818 27.8341818 229.386909 27.5563636 230.949091 26.5963636 233.210909 24.96L233.210909 24.6705455 233.210909 17.7861818zM285.875055 13.4570182C284.883055 15.2010182 283.547782 16.4737455 281.869236 17.2693818 281.675782 17.3770182 281.546327 17.3668364 281.480873 17.2388364 281.395055 17.0453818 281.437236 16.9144727 281.610327 16.8490182 283.096873 15.5792 284.151418 13.7464727 284.775418 11.3581091 284.389964 10.7748364 283.9376 10.2701091 283.421236 9.83810909 283.290327 9.73338182 283.258327 9.60247273 283.323782 9.4512 283.431418 9.25774545 283.571055 9.21556364 283.744145 9.32029091L285.067782 10.0650182 285.067782 9.87156364 285.358691 6.93192727 285.358691 6.1552 284.324509 6.1552 282.579055 6.41410909C282.298327 6.49992727 282.147055 6.47956364 282.128145 6.34865455L281.869236 5.31447273C281.847418 5.14429091 281.943418 5.07883636 282.158691 5.12247273L284.324509 5.31447273 285.424145 5.31447273 285.424145 1.47156364C285.424145 1.23301818 285.508509 1.13556364 285.6816 1.1792L288.429236 1.56756364C289.008145 1.65338182 289.301964 1.90065455 289.301964 2.30938182 289.301964 2.74138182 288.923782 3.02210909 288.170327 3.15010909 288.0176 3.19229091 287.931782 3.30138182 287.911418 3.47447273L287.781964 5.31447273 289.784873 5.31447273 291.173964 3.92538182C291.2816 3.77556364 291.421236 3.7872 291.594327 3.95738182L293.597236 5.63883636C293.9856 5.9632 294.136873 6.33701818 294.051055 6.76901818 293.963782 7.15592727 293.534691 7.39447273 292.757964 7.48029091 292.584873 7.54574545 292.500509 7.7072 292.500509 7.96610909 292.218327 12.1639273 292.455418 14.8693818 293.210327 16.0737455 293.296145 16.2701091 293.403782 16.3661091 293.534691 16.3661091 293.662691 16.3864727 293.800873 16.2890182 293.952145 16.0737455L295.243782 13.9733818C295.352873 13.7377455 295.502691 13.6504727 295.699055 13.7159273 295.892509 13.8032 295.976873 13.9544727 295.957964 14.1668364 295.460509 16.8402909 295.364509 18.3573818 295.6656 18.7239273 296.096145 19.1762909 296.277964 19.6722909 296.215418 20.2104727 296.104873 20.7501091 295.7296 21.0162909 295.082327 21.0162909 294.352145 20.8664727 293.662691 20.5217455 293.016873 19.9821091 290.926691 18.3457455 289.934691 13.7377455 290.042327 6.1552L287.684509 6.1552C287.4256 8.48247273 287.114327 10.2381091 286.747782 11.4235636L286.939782 11.5515636C288.688145 13.2330182 289.493964 14.6221091 289.364509 15.7188364 289.278691 16.1275636 289.043055 16.4286545 288.653236 16.6250182 288.286691 16.7530182 287.931782 16.7210182 287.588509 16.5275636 287.178327 16.3122909 286.608145 15.2897455 285.875055 13.4570182L285.875055 13.4570182zM270.301236 21.9544727L268.557236 22.2133818C268.298327 22.3006545 268.158691 22.2890182 268.136873 22.1813818L267.877964 21.0162909C267.835782 20.9115636 267.931782 20.8664727 268.170327 20.8882909L270.301236 21.0817455 278.638691 21.0817455C278.766691 20.3952 278.832145 19.3261091 278.832145 17.8832 278.832145 17.5617455 278.971782 17.4206545 279.252509 17.4628364L281.835782 17.9486545C282.503418 18.0562909 282.837964 18.3457455 282.837964 18.8213818 282.814691 19.2722909 282.451055 19.5428364 281.738327 19.6272 281.437236 19.6722909 281.275782 19.8235636 281.255418 20.0824727L281.028509 21.0817455 288.587782 21.0817455 290.269236 19.3697455C290.440873 19.1981091 290.613964 19.2097455 290.787055 19.4032L292.531055 21.0512C292.983418 21.4177455 293.168145 21.8148364 293.079418 22.2468364 292.971782 22.6555636 292.596509 22.8810182 291.949236 22.9232 291.755782 22.9232 291.648145 23.0424727 291.627782 23.2810182 291.412509 25.9093818 291.011055 27.7813818 290.432145 28.8999273 289.764509 30.3006545 288.3216 31.0992 286.101964 31.2926545 286.080145 30.0650182 285.303418 29.1268364 283.776145 28.4824727 283.4096 28.3515636 283.278691 28.1581091 283.386327 27.9006545 283.451782 27.6650182 283.6336 27.5879273 283.9376 27.6722909 285.2496 28.0824727 286.218327 28.2439273 286.843782 28.1581091 287.469236 27.9428364 287.943418 27.5762909 288.267782 27.0599273 288.696873 26.1333818 288.9456 24.4315636 289.008145 21.9544727L280.835055 21.9544727C280.0176 24.6904727 278.885964 26.6846545 277.443055 27.9312 274.965964 29.7842909 271.767418 30.8068364 267.847418 31.0032 267.523055 31.0221091 267.349964 30.9377455 267.3296 30.7442909 267.3296 30.5275636 267.491055 30.3966545 267.815418 30.3544727 269.514327 29.9690182 271.034327 29.5166545 272.3696 29.0002909L274.468509 27.8686545C276.579055 26.4679273 277.914327 24.4970182 278.477236 21.9544727L270.301236 21.9544727zM272.563055 14.6221091L270.819055 14.6221091 268.880145 14.8461091C268.730327 14.8693818 268.6416 14.8344727 268.622691 14.7501091L268.333236 13.6504727C268.267782 13.4992 268.340509 13.4570182 268.557236 13.5224727L270.819055 13.7813818 272.563055 13.7813818 272.563055 11.6475636C272.542691 11.2606545 272.628509 11.0875636 272.820509 11.1297455L275.051782 11.5195636C275.719418 11.6272 276.053964 11.9064727 276.053964 12.3573818 276.053964 12.7239273 275.795055 12.9944727 275.278691 13.1675636 275.1056 13.2097455 275.040145 13.3493818 275.085236 13.5879273L275.085236 13.7813818 276.375418 13.7813818 277.960873 12.6817455C278.110691 12.5537455 278.280873 12.5421091 278.477236 12.6497455L280.996509 13.8119273C281.210327 13.9006545 281.309236 14.0592 281.287418 14.2977455 281.221964 14.5144727 281.051782 14.6221091 280.7696 14.6221091L275.085236 14.6221091 275.085236 16.5901091 279.735418 15.6562909C280.059782 15.5472 280.275055 15.6024727 280.384145 15.8148364 280.446691 16.0112 280.372509 16.1930182 280.155782 16.3661091 278.563055 17.0541091 276.784145 17.6475636 274.826327 18.1421091L269.848873 19.0788364C269.5056 19.1224727 269.355782 19.2635636 269.397964 19.4992 269.418327 20.0388364 269.224873 20.3399273 268.814691 20.4024727 268.405964 20.4257455 268.125236 20.1988364 267.973964 19.7275636L267.168145 17.1413818C267.102691 16.9028364 267.189964 16.8068364 267.4256 16.8490182 269.171055 16.9144727 270.883055 16.9144727 272.563055 16.8490182L272.563055 14.6221091zM273.338327 8.19010909L272.983418 9.87156364C272.229964 11.7435636 270.151418 12.9828364 266.747782 13.5879273 266.468509 13.5646545 266.318691 13.4570182 266.295418 13.2635636 266.295418 13.0061091 266.446691 12.8664727 266.747782 12.8432 267.371782 12.6701091 267.920145 12.4461091 268.394327 12.1639273 269.838691 11.4119273 270.656145 10.0882909 270.852509 8.19010909L269.171055 8.19010909 267.299055 8.44901818C267.102691 8.49410909 266.995055 8.44901818 266.974691 8.32101818L266.650327 7.25483636C266.631418 7.12392727 266.747782 7.08174545 267.005236 7.12392727L269.171055 7.35229091 272.531055 7.35229091 272.531055 4.89410909 270.691055 4.89410909 268.814691 5.15301818C268.599418 5.19810909 268.483055 5.15301818 268.459782 5.02501818L268.170327 3.95738182C268.147055 3.82938182 268.256145 3.7872 268.491782 3.82938182L270.691055 4.05629091 272.531055 4.05629091 272.531055 1.1472C272.531055.997381818 272.596509.942109091 272.724509.985745455L275.344145 1.43665455C276.1616 1.56756364 276.571782 1.86865455 276.571782 2.34283636 276.548509 2.92610909 276.151418 3.26938182 275.374691 3.37701818 275.182691 3.39738182 275.085236 3.49629091 275.085236 3.66792727L275.085236 4.05629091 276.020509 4.05629091 277.764509 2.18138182C277.851782 2.07374545 277.979782 2.07374545 278.152873 2.18138182L280.384145 3.89483636C280.685236 4.11010909 280.792873 4.33556364 280.704145 4.57410909 280.596509 4.74429091 280.384145 4.85192727 280.059782 4.89410909L275.085236 4.89410909 275.085236 7.35229091 276.763782 7.35229091 278.638691 5.24901818C278.789964 5.07883636 278.948509 5.07883636 279.1216 5.24901818L281.642327 7.18938182C281.943418 7.38283636 282.051055 7.59956364 281.965236 7.8352 281.880873 8.02865455 281.6656 8.14792727 281.320873 8.19010909L277.764509 8.19010909 277.764509 9.16174545C277.764509 9.50501818 277.883782 9.74065455 278.122327 9.87156364 278.8976 10.1726545 279.723782 10.1610182 280.608145 9.83810909 280.846691 9.79447273 281.124509 9.4512 281.448873 8.80392727 281.534691 8.50283636 281.684509 8.37483636 281.901236 8.41701818 282.139782 8.46065455 282.256145 8.66429091 282.256145 9.03083636L282.256145 9.83810909C282.7536 10.0330182 283.000873 10.3777455 283.000873 10.8722909 283.000873 11.2810182 282.730327 11.6155636 282.1936 11.8744727 281.352873 12.1537455 280.295418 12.2948364 279.0256 12.2948364 277.323782 12.2526545 276.2896 11.9719273 275.923055 11.4541091 275.579782 11.0032 275.406691 10.3661091 275.406691 9.5472L275.406691 8.19010909 273.338327 8.19010909zM318.735855 13.6501818C317.119855 21.7927273 312.392582 27.5018182 304.551127 30.7745455 304.312582 30.84 304.154036 30.7978182 304.065309 30.648 303.980945 30.408 304.053673 30.2465455 304.292218 30.1621818 307.221673 28.4370909 309.883491 26.1214545 312.273309 23.2152727 314.491491 20.2858182 315.946036 16.3323636 316.636945 11.3578182L306.523491 11.3578182 304.648582 11.5847273C304.455127 11.6269091 304.346036 11.5847273 304.324218 11.4538182L304.002764 10.3890909C303.980945 10.2581818 304.098764 10.216 304.357673 10.2581818L306.523491 10.4850909 316.764945 10.4850909C317.066036 8.18109091 317.215855 5.02472727 317.215855 1.01890909 317.215855.780363636 317.313309.684363636 317.508218.726545455L320.511855 1.14690909C321.287127 1.256 321.676945 1.58763636 321.676945 2.15054545 321.653673 2.68727273 321.189673 3.01163636 320.2864 3.11927273 320.071127 3.13818182 319.963491 3.23854545 319.963491 3.40872727 319.770036 6.05890909 319.543127 8.41672727 319.284218 10.4850909L327.394764 10.4850909 329.301673 8.32072727C329.451491 8.14763636 329.6144 8.14763636 329.784582 8.32072727L332.500218 10.3236364C332.801309 10.5389091 332.908945 10.7643636 332.821673 11.0029091 332.735855 11.1963636 332.520582 11.3156364 332.175855 11.3578182L319.477673 11.3578182C321.6304 20.2101818 326.210764 25.6385455 333.210036 27.6414545 333.468945 27.7069091 333.585309 27.8683636 333.564945 28.1272727 333.522764 28.3207273 333.361309 28.4370909 333.079127 28.4821818 331.852945 28.6101818 331.066036 29.1381818 330.721309 30.0647273 330.613673 30.2581818 330.452218 30.3003636 330.2384 30.1927273 329.439855 29.7636364 328.687855 29.2894545 327.975127 28.7716364 323.194036 25.0450909 320.145309 19.8349091 318.831855 13.1338182L318.735855 13.6501818zM357.764364 4.15301818L356.020364 4.41192727C355.738182 4.51956364 355.588364 4.50792727 355.568 4.37701818L355.341091 3.24683636C355.298909 3.11883636 355.383273 3.07665455 355.6 3.11883636L357.764364 3.31229091 366.715636 3.31229091 368.394182 1.56829091C368.568727 1.3952 368.738909 1.40538182 368.912 1.59883636L370.656 3.31229091C371.130182 3.65556364 371.301818 4.05701818 371.173818 4.50792727 371.066182 4.89483636 370.688 5.11010909 370.042182 5.15229091 369.848727 5.15229091 369.741091 5.27301818 369.719273 5.50865455 369.394909 7.98574545 369.008 9.6672 368.557091 10.5501091 367.847273 11.7981091 366.434909 12.5195636 364.324364 12.7159273 364.301091 11.5304727 363.818182 10.6475636 362.869818 10.0642909 362.525091 9.93483636 362.405818 9.74138182 362.514909 9.48247273 362.622545 9.22356364 362.804364 9.15083636 363.061818 9.25847273 364.011636 9.55956364 364.690909 9.67592727 365.099636 9.61338182 365.636364 9.44029091 366.045091 9.12756364 366.327273 8.6752 366.778182 7.83447273 367.037091 6.32901818 367.102545 4.15301818L362.321455 4.15301818C362.082909 6.56465455 361.480727 8.43956364 360.512 9.77483636 359.284364 11.4548364 357.787636 12.4657455 356.020364 12.8119273 355.738182 12.8541091 355.588364 12.8119273 355.568 12.6810182 355.480727 12.4453818 355.556364 12.2839273 355.793455 12.1981091 358.098909 10.9486545 359.466182 8.26647273 359.898182 4.15301818L357.764364 4.15301818zM357.505455 23.3428364L355.633455 23.6017455C355.437091 23.6250182 355.329455 23.5813818 355.310545 23.4737455L354.986182 22.3741091C354.962909 22.2664727 355.082182 22.2242909 355.341091 22.2461091L357.505455 22.4715636 361.511273 22.4715636 361.511273 17.6584727 358.119273 17.6584727C357.281455 18.9937455 356.417455 19.9828364 355.534545 20.6301091 355.383273 20.7581091 355.243636 20.7581091 355.117091 20.6301091 354.986182 20.5224727 355.008 20.3712 355.179636 20.1792 356.020364 18.8628364 356.709818 16.4628364 357.248 12.9733818 357.269818 12.8002909 357.344 12.7348364 357.474909 12.7784727L360.059636 13.3602909C360.638545 13.5115636 360.897455 13.8228364 360.834909 14.2984727 360.769455 14.6839273 360.402909 14.8802909 359.735273 14.8802909 359.543273 14.8802909 359.434182 14.9341091 359.412364 15.0388364L358.574545 16.8177455 361.511273 16.8177455 361.511273 12.5530182C361.492364 12.4032 361.565091 12.3493818 361.738182 12.3915636L364.226909 12.8744727C365.045818 13.0053818 365.454545 13.3486545 365.454545 13.9086545 365.454545 14.4482909 365.076364 14.8032 364.324364 14.9762909 364.107636 15.0199273 364 15.1392 364 15.3326545L364 16.8177455 364.744727 16.8177455 366.650182 14.8468364C366.820364 14.6301091 367.025455 14.6417455 367.264 14.8802909L369.752727 16.7217455C369.988364 16.8715636 370.097455 17.0766545 370.074182 17.3355636 370.011636 17.5086545 369.815273 17.6162909 369.493818 17.6584727L364 17.6584727 364 22.4715636 365.874909 22.4715636 367.716364 20.4032C367.866182 20.2330182 368.029091 20.2330182 368.202182 20.4032L370.721455 22.3086545C371.045818 22.5253818 371.162182 22.7522909 371.076364 22.9879273 370.968727 23.1813818 370.741818 23.3006545 370.398545 23.3428364L364 23.3428364 364 30.0337455C364.023273 30.3115636 363.892364 30.5399273 363.613091 30.7101091 363.031273 30.9690182 362.449455 30.9908364 361.869091 30.7755636 361.630545 30.6475636 361.511273 30.4628364 361.511273 30.2272L361.511273 23.3428364 357.505455 23.3428364zM350.074182 20.9530182L351.949091 20.9530182 351.949091 16.0104727 350.074182 16.0104727 350.074182 20.9530182zM350.074182 15.1697455L351.949091 15.1697455 351.949091 10.5821091 350.074182 10.5821091 350.074182 15.1697455zM347.716364 10.5821091L346.133818 10.5821091 345.744 10.6475636 345.744 15.1697455 347.716364 15.1697455 347.716364 10.5821091zM347.716364 20.9544727L347.716364 16.0104727 345.744 16.0104727 345.744 17.5930182 345.52 20.9544727 347.716364 20.9544727zM348.202182 9.74138182C348.932364 8.1472 349.514182 6.57629091 349.946182 5.02574545L348.167273 5.02574545 347.102545 5.15229091C346.241455 6.85410909 345.370182 8.17047273 344.485818 9.09556364L345.744 9.74138182 346.133818 9.74138182 348.202182 9.74138182zM341.773091 30.6781091C341.6 30.8715636 341.415273 30.9253818 341.221818 30.8410182 341.093818 30.7319273 341.082182 30.5704727 341.189818 30.3552 342.568727 27.3399273 343.258182 23.0853818 343.258182 17.5930182L343.258182 10.2926545 341.480727 11.5188364C341.307636 11.5842909 341.179636 11.5741091 341.093818 11.4853818 341.006545 11.3341091 341.255273 10.9908364 341.835636 10.4512 344.312727 7.76029091 345.552 4.68101818 345.552 1.21338182 345.573818.954472727 345.671273.846836364 345.844364.889018182L348.298182 1.30938182C349.073455 1.41701818 349.448727 1.68756364 349.429818 2.11665455 349.406545 2.5472 349.019636 2.81774545 348.267636 2.92538182 348.071273 2.96901818 347.963636 3.07665455 347.943273 3.24683636L347.553455 4.15301818 348.167273 4.18356364 349.525818 4.18356364 350.884364 2.66792727C351.010909 2.47156364 351.162182 2.46283636 351.335273 2.63301818L353.338182 4.50792727C353.832727 4.89483636 353.994182 5.30356364 353.824 5.73556364 353.627636 6.10210909 353.210182 6.24174545 352.562909 6.15592727 352.304 6.09047273 352.034909 6.20974545 351.755636 6.51083636L349.138909 9.74138182 351.463273 9.74138182 353.079273 8.25483636C353.210182 8.12683636 353.361455 8.1472 353.531636 8.32029091L355.082182 9.87229091C356.050909 10.8410182 355.901091 11.4432 354.631273 11.6817455 354.456727 11.7006545 354.392727 11.7661091 354.437818 11.8752L354.437818 28.5457455C354.437818 28.9995636 354.178909 29.4824727 353.662545 30.0002909 353.188364 30.4512 352.327273 30.7435636 351.076364 30.8715636L350.786909 29.6439273C350.548364 29.2133818 349.988364 28.7726545 349.105455 28.3202909 348.846545 28.2126545 348.772364 28.0613818 348.88 27.8693818 348.944 27.6730182 349.073455 27.5988364 349.266909 27.6410182 350.235636 27.8781091 350.992 27.9653818 351.528727 27.8999273 351.809455 27.8155636 351.949091 27.6526545 351.949091 27.4141091L351.949091 21.8257455 345.389091 21.8257455C344.894545 25.5959273 343.687273 28.5457455 341.773091 30.6781091L341.773091 30.6781091zM395.019927 13.2325818L394.793018 16.7860364C394.233018 23.4856727 392.369745 28.0936727 389.201745 30.6129455 388.942836 30.7642182 388.750836 30.7642182 388.622836 30.6129455 388.513745 30.4398545 388.557382 30.2813091 388.750836 30.1300364L390.074473 27.7693091C391.755927 24.2158545 392.585018 18.4224 392.5632 10.3889455L392.5632 6.05876364 392.5632 3.63549091C392.585018 3.3344 392.713018 3.25876364 392.951564 3.40858182L395.147927 4.76712727C399.585745 3.90603636 402.7072 2.84858182 404.516655 1.59912727 404.841018 1.32130909 405.056291 1.23258182 405.165382 1.34021818L407.264291 2.72930909C407.738473 3.05367273 407.878109 3.45076364 407.684655 3.9264 407.425745 4.29294545 406.983564 4.36858182 406.361018 4.15330909 406.080291 4.0224 405.833018 4.01076364 405.616291 4.1184 402.730473 5.02458182 399.207564 5.53076364 395.050473 5.6384L395.050473 10.3889455 395.050473 12.3918545 402.289745 12.3918545 404.3552 10.2274909C404.570473 10.0107636 404.798836 10.0107636 405.034473 10.2274909L407.846109 12.2944C408.0832 12.4660364 408.190836 12.6696727 408.167564 12.9082182 408.105018 13.0813091 407.920291 13.1874909 407.6192 13.2325818L403.547927 13.2325818 403.547927 30.2580364C403.547927 30.4747636 403.386473 30.6784 403.062109 30.8718545 402.525382 31.1307636 401.985745 31.1642182 401.449018 30.9678545 401.147927 30.8602182 401.005382 30.6987636 401.028655 30.4849455L401.028655 13.2325818 395.019927 13.2325818zM386.327564 30.2929455C386.349382 30.5707636 386.230109 30.7976727 385.9712 30.9678545 385.369018 31.2267636 384.775564 31.2500364 384.196655 31.0333091 383.958109 30.9053091 383.838836 30.7104 383.838836 30.4514909L383.838836 15.3969455C382.849745 18.7787636 381.275927 21.5874909 379.121745 23.8289455 378.841018 24.0020364 378.628655 24.0107636 378.477382 23.8609455 378.304291 23.7096727 378.334836 23.4740364 378.573382 23.1496727 380.746473 19.8973091 382.494836 15.3751273 383.806836 9.57876364L381.610473 9.57876364 379.542109 9.83767273C379.392291 9.88276364 379.303564 9.86094545 379.284655 9.77512727L378.9952 8.64494545C378.971927 8.51403636 379.0912 8.47185455 379.350109 8.51403636L381.610473 8.74094545 383.838836 8.74094545 383.838836 1.30967273C383.818473 1.1584 383.892655 1.10458182 384.065745 1.14676364L386.554473 1.66458182C387.371927 1.79258182 387.782109 2.12712727 387.782109 2.66676364 387.782109 3.20349091 387.403927 3.55985455 386.650473 3.73294545 386.4352 3.77512727 386.327564 3.8944 386.327564 4.08785455L386.327564 8.74094545 387.588655 8.74094545 388.942836 6.80058182C389.073745 6.6304 389.225018 6.63912727 389.398109 6.83549091L391.0112 8.77294545C391.227927 8.94603636 391.303564 9.11621818 391.238109 9.28930909 391.153745 9.48276364 390.999564 9.57876364 390.7872 9.57876364L386.327564 9.57876364 386.327564 11.9060364C386.9952 12.2304 387.696291 12.6929455 388.426473 13.2951273 390.128291 14.7816727 390.9152 16.0427636 390.7872 17.0769455 390.742109 17.4624 390.528291 17.7751273 390.139927 18.0136727 389.7952 18.1416727 389.428655 18.1213091 389.0432 17.9482182 388.761018 17.7984 388.513745 17.5278545 388.298473 17.1424 387.264291 14.9227636 386.608291 13.6194909 386.327564 13.2325818L386.327564 30.2929455z"/>
    <path stroke="#221F20" stroke-width=".5" d="M111.279855,14.9966545 L154.431855,14.9966545"/>
  </g>
</svg>
