<svg xmlns="http://www.w3.org/2000/svg" width="61" height="50" viewBox="0 0 61 50">
  <g fill="#A79173" fill-rule="evenodd">
    <path d="M18.6991909,33.5391992 L18.3966455,33.0316895 C47.1491,15.9876244 59.7130091,0.158041857 59.8371,-0.000112337541 L60.3027364,0.364586514 C60.1786455,0.521560453 47.5450091,16.4396621 18.6991909,33.5391992"/>
    <path d="M20.9047 26.2224432C17.4431545 26.2224432 13.5443364 26.064289 9.24606364 25.657101L9.30160909 25.0681537C28.2473364 26.8704033 39.3304273 23.7993794 39.4403364 23.7686927L39.6010636 24.3352152C39.5159727 24.3600006 32.7855182 26.2224432 20.9047 26.2224432M12.5304545 49.0287502C11.2871818 48.3548245 10.8286364 46.8016087 11.5034545 45.5611605 12.1770909 44.319532 13.7335455 43.8604127 14.9744545 44.5343385 16.2177273 45.2094444 16.6786364 46.76148 16.0026364 48.0031084 15.3278182 49.2435566 13.7725455 49.7026759 12.5304545 49.0287502M1.52701818 45.7312352C.284927273 45.0573095-.1748 43.5040937.500018182 42.2636455 1.17483636 41.0231973 2.73010909 40.5628978 3.9722 41.2368235 5.21547273 41.9119295 5.6752 43.463965 4.9992 44.7055935 4.32438182 45.9472219 2.77029091 46.4051609 1.52701818 45.7312352M10.5707636 39.8231138C9.32749091 39.1491881 8.86894545 37.5959723 9.54376364 36.3543439 10.2185818 35.1150759 11.7738545 34.6547764 13.0147636 35.3287021 14.2580364 36.0038081 14.7189455 37.5558436 14.0429455 38.7974721 13.3681273 40.0391005 11.8128545 40.4970396 10.5707636 39.8231138"/>
    <path d="M8.41489091,26.8379463 C7.17161818,26.1640206 6.71189091,24.6108048 7.38789091,23.3703566 C8.06270909,22.1299084 9.6168,21.6696089 10.8588909,22.3435346 C12.1021636,23.0186405 12.5630727,24.5706761 11.8870727,25.8123046 C11.2122545,27.0527528 9.65698182,27.511872 8.41489091,26.8379463"/>
  </g>
</svg>
