<svg xmlns="http://www.w3.org/2000/svg" width="67" height="61" viewBox="0 0 67 61">
  <g fill="#A79173" fill-rule="evenodd">
    <path d="M.421209091 60.805229L.183663636 60.5420321C.482663636 60.2717536 30.4074818 33.3029227 56.9523 20.5998362L57.1047545 20.9196853C30.6083909 33.5991667.720209091 60.5349505.421209091 60.805229M60.2773455.414049794C61.6908.414049794 62.8383455 1.55889732 62.8383455 2.97166278 62.8383455 4.38324797 61.6908 5.5280955 60.2773455 5.5280955 58.8638909 5.5280955 57.7163455 4.38324797 57.7163455 2.97166278 57.7163455 1.55889732 58.8638909.414049794 60.2773455.414049794M43.3844364 9.36392485C44.7978909 9.36392485 45.9442545 10.5099526 45.9442545 11.9215378 45.9442545 13.333123 44.7978909 14.4791508 43.3844364 14.4791508 41.9698 14.4791508 40.8234364 13.333123 40.8234364 11.9215378 40.8234364 10.5099526 41.9698 9.36392485 43.3844364 9.36392485M64.4137091 11.9215378C65.8271636 11.9215378 66.9747091 13.0663854 66.9747091 14.4791508 66.9747091 15.890736 65.8271636 17.0355835 64.4137091 17.0355835 63.0002545 17.0355835 61.8527091 15.890736 61.8527091 14.4791508 61.8527091 13.0663854 63.0002545 11.9215378 64.4137091 11.9215378M60.5728 23.4150989C62.3207091 23.4150989 63.7388909 24.8302248 63.7388909 26.5770025 63.7388909 28.3214196 62.3207091 29.7365456 60.5728 29.7365456 58.8248909 29.7365456 57.4067091 28.3214196 57.4067091 26.5770025 57.4067091 24.8302248 58.8248909 23.4150989 60.5728 23.4150989M30.2148455 9.69463235C31.9627545 9.69463235 33.3809364 11.1097583 33.3809364 12.856536 33.3809364 14.6009531 31.9627545 16.0160791 30.2148455 16.0160791 28.4669364 16.0160791 27.0487545 14.6009531 27.0487545 12.856536 27.0487545 11.1097583 28.4669364 9.69463235 30.2148455 9.69463235"/>
    <path d="M40.0549 29.8950539L39.6164455 29.5008487C39.6767182 29.4335741 45.8269 22.6766132 60.1162636 13.3219106L60.4389 13.8152573C46.2145364 23.1286509 40.1151727 29.8277793 40.0549 29.8950539M32.0544636 34.6310639L31.4883727 34.4599269C31.5143727 34.3737682 34.1959182 25.6434206 43.1328273 11.1003163L43.6362818 11.4083629C34.7454636 25.8782914 32.0804636 34.5449052 32.0544636 34.6310639"/>
    <path d="M36.7240636,21.5467549 C36.7181545,21.4830211 36.0882455,15.0565316 37.9567,3.14067532 L38.5405182,3.23273522 C36.6850636,15.0612527 37.3055182,21.4240084 37.3126091,21.4865619 L36.7240636,21.5467549 Z"/>
  </g>
</svg>
