<svg xmlns="http://www.w3.org/2000/svg" width="37" height="40" viewBox="0 0 37 40">
  <g fill="#A79173" fill-rule="evenodd">
    <path d="M22.2469,26.9160087 L21.7434455,26.6091424 C31.0171727,11.4523053 32.9884455,0.881939879 33.0073545,0.778077423 L33.5888091,0.880759624 C33.5699,0.98698259 31.5844455,11.6564894 22.2469,26.9160087"/>
    <path d="M10.2382091 24.2291578L10.0124818 23.6826996C27.5873 16.4312118 35.9616636 8.53884538 36.0443909 8.46094854L36.4533 8.88702066C36.3693909 8.96609775 27.9264818 16.9292795 10.2382091 24.2291578M18.0320636 37.0115575C16.1328818 36.9903129 14.6083364 35.4359168 14.6296091 33.5380665 14.6520636 31.6402161 16.2085182 30.1188672 18.1077 30.141292 20.0092455 30.1613564 21.5314273 31.718113 21.5101545 33.614783 21.4900636 35.5114531 19.9312455 37.0328021 18.0320636 37.0115575"/>
    <path d="M10.0559727 25.6619876C8.64251818 25.645464 7.50915455 24.4888139 7.52451818 23.0760485 7.53988182 21.6644633 8.69924545 20.5314183 10.1127 20.5479419 11.5273364 20.5632852 12.6607 21.7211155 12.6441545 23.1327007 12.6299727 24.5466464 11.4694273 25.6785111 10.0559727 25.6619876M3.17389091 33.9996643C4.58734545 33.9996643 5.73489091 35.1445118 5.73489091 36.556097 5.73489091 37.9688624 4.58734545 39.11371 3.17389091 39.11371 1.76043636 39.11371.612890909 37.9688624.612890909 36.556097.612890909 35.1445118 1.76043636 33.9996643 3.17389091 33.9996643"/>
  </g>
</svg>
