<svg xmlns="http://www.w3.org/2000/svg" width="45" height="59" viewBox="0 0 45 59">
  <g fill="#A79173" fill-rule="evenodd">
    <path d="M31.6696 7.55621502C30.2561455 7.55621502 29.1097818 6.41136749 29.1097818 4.99978229 29.1097818 3.58701684 30.2561455 2.44216931 31.6696 2.44216931 33.0842364 2.44216931 34.2306 3.58701684 34.2306 4.99978229 34.2306 6.41136749 33.0842364 7.55621502 31.6696 7.55621502M42.2367091 18.2706896C40.8220727 18.2706896 39.6745273 17.1258421 39.6745273 15.7142569 39.6745273 14.3014914 40.8220727 13.1566439 42.2367091 13.1566439 43.6489818 13.1566439 44.7965273 14.3014914 44.7965273 15.7142569 44.7965273 17.1258421 43.6489818 18.2706896 42.2367091 18.2706896M29.1097818 15.7142569C27.6951455 15.7142569 26.5487818 14.5682291 26.5487818 13.1566439 26.5487818 11.7450587 27.6951455 10.5990309 29.1097818 10.5990309 30.5232364 10.5990309 31.6696 11.7450587 31.6696 13.1566439 31.6696 14.5682291 30.5232364 15.7142569 29.1097818 15.7142569M40.2655545 5.55639063C38.8521 5.55639063 37.7057364 4.41154311 37.7057364 2.99877765 37.7057364 1.58719245 38.8521.442344925 40.2655545.442344925 41.6801909.442344925 42.8277364 1.58719245 42.8277364 2.99877765 42.8277364 4.41154311 41.6801909 5.55639063 40.2655545 5.55639063M16.8750091 34.0969674L16.5523727 33.6036207C30.7672818 24.2961284 36.8749182 17.5899184 36.9351909 17.5226439L37.3736455 17.9168491C37.3133727 17.9841236 31.1643727 24.7422648 16.8750091 34.0969674"/>
    <path d="M0.816581818,58.5354492 L0.380490909,58.1388835 C21.1013091,35.3658597 28.7724909,20.8286567 28.8481273,20.6846655 L29.3716727,20.9561242 C29.2972182,21.1012956 21.5976727,35.6986917 0.816581818,58.5354492"/>
  </g>
</svg>
