<svg xmlns="http://www.w3.org/2000/svg" width="71" height="70" viewBox="0 0 71 70">
  <g fill="#A79173" fill-rule="evenodd">
    <path d="M0.361718182,69.4276486 L0.0544454545,69.2506103 C0.1939,69.0098382 14.4052636,44.9503363 50.5039,16.2123029 L50.7249,16.4884826 C14.6841727,45.1816663 0.499990909,69.189237 0.361718182,69.4276486"/>
    <path d="M17.4599091 39.3104869L17.2519091 39.0248652C17.3937273 38.9210027 31.8024545 28.6091132 60.0892727 21.1829476L60.1790909 21.5264018C31.962 28.9325031 17.6017273 39.2078047 17.4599091 39.3104869M50.6142818 13.7932518C52.0277364 13.7932518 53.1752818 14.9380994 53.1752818 16.3508648 53.1752818 17.76245 52.0277364 18.9072975 50.6142818 18.9072975 49.2008273 18.9072975 48.0532818 17.76245 48.0532818 16.3508648 48.0532818 14.9380994 49.2008273 13.7932518 50.6142818 13.7932518M67.7634091 11.2356389C69.1780455 11.2356389 70.3232273 12.3816666 70.3232273 13.7932518 70.3232273 15.204837 69.1780455 16.3508648 67.7634091 16.3508648 66.3499545 16.3508648 65.2024091 15.204837 65.2024091 13.7932518 65.2024091 12.3816666 66.3499545 11.2356389 67.7634091 11.2356389M65.2024091 25.4332825C66.9420455 25.4332825 68.3519545 26.841327 68.3519545 28.5786626 68.3519545 30.3159982 66.9420455 31.7240427 65.2024091 31.7240427 63.4627727 31.7240427 62.0528636 30.3159982 62.0528636 28.5786626 62.0528636 26.841327 63.4627727 25.4332825 65.2024091 25.4332825M57.5424545.122238026C58.9559091.122238026 60.1034545 1.26708555 60.1034545 2.67867075 60.1034545 4.09143621 58.9559091 5.23628373 57.5424545 5.23628373 56.129 5.23628373 54.9826364 4.09143621 54.9826364 2.67867075 54.9826364 1.26708555 56.129.122238026 57.5424545.122238026"/>
  </g>
</svg>
