<svg xmlns="http://www.w3.org/2000/svg" width="44" height="64" viewBox="0 0 44 64">
  <g fill="#A79173" fill-rule="evenodd">
    <path d="M1.27455455,63.1989766 L0.715554545,63.0077752 C0.780554545,62.8177541 7.49800909,43.6480495 29.1465545,18.0553961 L29.5991909,18.4354382 C8.02864545,43.9348515 1.34073636,63.0089555 1.27455455,63.1989766"/>
    <path d="M12.7522545 34.0707507L12.4130727 33.5868461C12.5076182 33.5207518 22.0673455 26.9361082 40.6620727 22.41219L40.8027091 22.9857941C22.3143455 27.4837466 12.8456182 34.0046565 12.7522545 34.0707507M29.8955909 1.40270359C31.2913182 1.63285335 32.2344091 2.95001813 32.0039545 4.34271925 31.7735 5.73660062 30.4545909 6.67962451 29.0588636 6.4482945 27.6643182 6.21696448 26.7212273 4.90097995 26.9516818 3.50709858 27.1821364 2.11439746 28.4998636 1.17255383 29.8955909 1.40270359M41.4563727.414948025C43.1310091.691127738 44.2631909 2.27148943 43.9866455 3.94391102 43.7089182 5.61633262 42.1264636 6.74701708 40.4518273 6.47083737 38.7783727 6.19465766 37.6450091 4.61429597 37.9227364 2.94187437 38.1992818 1.26945278 39.7829182.138768312 41.4563727.414948025M34.7659818 9.4606598C36.1617091 9.69080956 37.1048 11.0067941 36.8743455 12.4006755 36.6438909 13.7945568 35.3249818 14.7375807 33.9292545 14.5050705 32.5335273 14.2749207 31.5916182 12.9589362 31.8220727 11.5650548 32.0525273 10.1711734 33.3702545 9.22932978 34.7659818 9.4606598"/>
    <path d="M41.1540636,20.4632347 C42.8594273,20.7453157 44.0128818,22.3551837 43.7316091,24.0571117 C43.4479727,25.7602199 41.8371545,26.9133292 40.1317909,26.6312483 C38.4252455,26.347987 37.2729727,24.7392992 37.5554273,23.036191 C37.8367,21.3330827 39.4498818,20.1823339 41.1540636,20.4632347"/>
  </g>
</svg>
