<svg xmlns="http://www.w3.org/2000/svg" width="53" height="46" viewBox="0 0 53 46">
  <g fill="#A79173" fill-rule="evenodd">
    <path d="M11.8923727 34.1532072L11.6843727 33.8652249C30.4599182 20.3619254 38.1618273 8.67503856 38.2362818 8.5581933L38.5341 8.75175515C38.4584636 8.86742016 30.7270091 20.6062382 11.8923727 34.1532072M26.0799818 26.4296173L25.8719818 26.141635C44.6534364 12.6347947 52.3494364.951448643 52.4238909.83460338L52.7217091 1.02934549C52.6460727 1.14501049 44.9122545 12.8826483 26.0799818 26.4296173M3.23992727 45.7633774C1.84774545 46.0124113.515836364 45.0882715.266472727 43.6979309.0171090909 42.3075903.944836364 40.9774427 2.33583636 40.7284088 3.72801818 40.479375 5.05874545 41.4058753 5.30810909 42.7950356 5.55747273 44.1853763 4.63210909 45.5143436 3.23992727 45.7633774M18.3958 40.4544716C17.0036182 40.7035054 15.6717091 39.7781854 15.4223455 38.3878448 15.1729818 36.9975042 16.1007091 35.6685368 17.4917091 35.419503 18.8838909 35.1704691 20.2146182 36.0957892 20.4639818 37.4849496 20.7133455 38.8752902 19.7879818 40.2054378 18.3958 40.4544716M4.92271818 30.0522925C3.53053636 30.3013264 2.20099091 29.3760063 1.95162727 27.9856657 1.70108182 26.5953251 2.62762727 25.2663578 4.01980909 25.0173239 5.41199091 24.7682901 6.74271818 25.6947904 6.99208182 27.0839508 7.24144545 28.4742914 6.31608182 29.8032587 4.92271818 30.0522925"/>
  </g>
</svg>
