<svg xmlns="http://www.w3.org/2000/svg" width="76" height="62" viewBox="0 0 76 62">
  <g fill="#A79173" fill-rule="evenodd">
    <path d="M0.797609091,60.7026831 C1.10133636,60.3486066 30.9930636,33.3939387 57.5863364,20.6684273 L57.8167909,21.0166026 C31.2566091,33.7905044 1.41688182,60.6991424 1.11788182,60.9706011 L1.07415455,61.0095495 L0.797609091,60.7026831 Z"/>
    <path d="M57.6671727 20.5639747L57.5608091 20.6147257C30.9521727 33.3484989 1.06044545 60.3055273.761445455 60.5758057L.675172727 60.6548828.753172727 60.7422217.9919 61.0054186 1.07108182 61.0927575 1.15853636 61.0136804C1.45635455 60.7434019 31.2901727 33.8406653 57.8149 21.1482011L57.9212636 21.0974501 57.8704455 20.9912271 57.7179909 20.671378 57.6671727 20.5639747zM57.6116273 20.7221289L57.7640818 21.0419781C31.2677182 33.7202793 1.37835455 60.6548828 1.07935455 60.9263415L.841809091 60.6631446C1.14080909 60.3928661 31.0668091 33.4240352 57.6116273 20.7221289L57.6116273 20.7221289zM73.1920091 5.64920802C74.6054636 5.64920802 75.7518273 6.7952358 75.7518273 8.206821 75.7518273 9.6184062 74.6054636 10.764434 73.1920091 10.764434 71.7773727 10.764434 70.6310091 9.6184062 70.6310091 8.206821 70.6310091 6.7952358 71.7773727 5.64920802 73.1920091 5.64920802M68.0700091 17.905686C69.4846455 17.905686 70.6310091 19.0517138 70.6310091 20.463299 70.6310091 21.8748842 69.4846455 23.020912 68.0700091 23.020912 66.6565545 23.020912 65.5101909 21.8748842 65.5101909 20.463299 65.5101909 19.0517138 66.6565545 17.905686 68.0700091 17.905686M60.9364364.535162309C62.3498909.535162309 63.4974364 1.68000984 63.4974364 3.09277529 63.4974364 4.50436049 62.3498909 5.64920802 60.9364364 5.64920802 59.5229818 5.64920802 58.3754364 4.50436049 58.3754364 3.09277529 58.3754364 1.68000984 59.5229818.535162309 60.9364364.535162309"/>
    <path d="M40.7139909 30.0160484L40.2755364 29.6218431C40.3358091 29.5545686 46.4848091 22.7964274 60.7753545 13.4417248L61.0979909 13.9350715C46.8819 23.2425639 40.7742636 29.9487738 40.7139909 30.0160484M32.7135545 34.7521764L32.1474636 34.5810394C32.1734636 34.4948807 34.8550091 25.7645332 43.7919182 11.2214288L44.2953727 11.5294754C35.4045545 25.9994039 32.7395545 34.6660177 32.7135545 34.7521764"/>
    <path d="M37.3819727,21.6677494 C37.3760636,21.6040156 36.7473364,15.1763459 38.6157909,3.26166981 L39.1996091,3.35372971 C37.3429727,15.1928695 37.9634273,21.5450028 37.9705182,21.6075564 L37.3819727,21.6677494 Z"/>
  </g>
</svg>
