<svg xmlns="http://www.w3.org/2000/svg" width="70" height="77" viewBox="0 0 70 77">
  <g fill="#A79173" fill-rule="evenodd">
    <path d="M.329309091 76.5587026C.464036364 76.3427159 14.0915818 54.563467 47.9329455 29.0109423L48.2874909 29.4818641C14.5465818 54.9600327.965127273 76.6519427.832763636 76.8679294L.329309091 76.5587026zM22.7864545 49.008478L22.283 48.6992511C22.3822727 48.5387364 32.5388182 32.3090474 57.7505455 13.2727115L58.1062727 13.7424531C32.9926364 32.7056131 22.8857273 48.8479632 22.7864545 49.008478M55.3303.673369415C56.7437545.673369415 57.8901182 1.81821694 57.8901182 3.22980214 57.8901182 4.6425676 56.7437545 5.78741512 55.3303 5.78741512 53.9156636 5.78741512 52.7693 4.6425676 52.7693 3.22980214 52.7693 1.81821694 53.9156636.673369415 55.3303.673369415"/>
    <path d="M56.6886818 11.0006023C58.1021364 11.0006023 59.2485 12.1454498 59.2485 13.557035 59.2485 14.9698004 58.1021364 16.114648 56.6886818 16.114648 55.2740455 16.114648 54.1276818 14.9698004 54.1276818 13.557035 54.1276818 12.1454498 55.2740455 11.0006023 56.6886818 11.0006023M40.3890455 11.0006023C41.8036818 11.0006023 42.9500455 12.1454498 42.9500455 13.557035 42.9500455 14.9698004 41.8036818 16.114648 40.3890455 16.114648 38.9767727 16.114648 37.8292273 14.9698004 37.8292273 13.557035 37.8292273 12.1454498 38.9767727 11.0006023 40.3890455 11.0006023M59.2486182 18.5882268C60.6620727 18.5882268 61.8096182 19.7342546 61.8096182 21.1458398 61.8096182 22.557425 60.6620727 23.7034528 59.2486182 23.7034528 57.8351636 23.7034528 56.6888 22.557425 56.6888 21.1458398 56.6888 19.7342546 57.8351636 18.5882268 59.2486182 18.5882268M56.0817 30.0322171C57.4951545 30.0322171 58.6427 31.1770646 58.6427 32.5886498 58.6427 34.0014153 57.4951545 35.1462628 56.0817 35.1462628 54.6682455 35.1462628 53.5207 34.0014153 53.5207 32.5886498 53.5207 31.1770646 54.6682455 30.0322171 56.0817 30.0322171M48.1725 39.1067271C49.5859545 39.1067271 50.7323182 40.2515746 50.7323182 41.6631598 50.7323182 43.0759253 49.5859545 44.2207728 48.1725 44.2207728 46.7578636 44.2207728 45.6115 43.0759253 45.6115 41.6631598 45.6115 40.2515746 46.7578636 39.1067271 48.1725 39.1067271M66.9304364 5.10274909C68.3438909 5.10274909 69.4914364 6.24877687 69.4914364 7.66036207 69.4914364 9.07194727 68.3438909 10.2179751 66.9304364 10.2179751 65.5169818 10.2179751 64.3706182 9.07194727 64.3706182 7.66036207 64.3706182 6.24877687 65.5169818 5.10274909 66.9304364 5.10274909"/>
  </g>
</svg>
