<svg xmlns="http://www.w3.org/2000/svg" width="61" height="50" viewBox="0 0 61 50">
  <path fill="#A79173" fill-rule="evenodd" d="M12.0971032,25.3038855 C19.8448154,25.8727882 26.1309859,25.6259401 30.7135782,25.1791116 C50.7747716,11.419506 59.7324167,0.133306759 59.8371,-0.000112337541 L60.3027364,0.364586514 C60.199593,0.495061944 51.4538601,11.5145788 31.9392862,25.0506998 C36.7697203,24.5088662 39.3872044,23.7835272 39.4403364,23.7686927 L39.6010636,24.3352152 C39.5440481,24.3518228 36.5034407,25.1934896 30.9289926,25.7470896 C27.2307541,28.2803075 23.158714,30.8956347 18.6991909,33.5391992 L18.3966455,33.0316895 C22.4950279,30.602224 26.2644959,28.197434 29.7159061,25.8591882 C27.2134081,26.0734513 24.2650638,26.2224432 20.9047,26.2224432 C18.1559588,26.2224432 15.1314902,26.1227173 11.8502302,25.8777604 C11.1570197,27.0687289 9.63488607,27.4998835 8.41489091,26.8379463 C7.17161818,26.1640206 6.71189091,24.6108048 7.38789091,23.3703566 C8.06270909,22.1299084 9.6168,21.6696089 10.8588909,22.3435346 C11.9370213,22.9289671 12.4268252,24.1738385 12.0971032,25.3038855 Z M12.5304545,49.0287502 C11.2871818,48.3548245 10.8286364,46.8016087 11.5034545,45.5611605 C12.1770909,44.319532 13.7335455,43.8604127 14.9744545,44.5343385 C16.2177273,45.2094444 16.6786364,46.76148 16.0026364,48.0031084 C15.3278182,49.2435566 13.7725455,49.7026759 12.5304545,49.0287502 Z M1.52701818,45.7312352 C0.284927273,45.0573095 -0.1748,43.5040937 0.500018182,42.2636455 C1.17483636,41.0231973 2.73010909,40.5628978 3.9722,41.2368235 C5.21547273,41.9119295 5.6752,43.463965 4.9992,44.7055935 C4.32438182,45.9472219 2.77029091,46.4051609 1.52701818,45.7312352 Z M10.5707636,39.8231138 C9.32749091,39.1491881 8.86894545,37.5959723 9.54376364,36.3543439 C10.2185818,35.1150759 11.7738545,34.6547764 13.0147636,35.3287021 C14.2580364,36.0038081 14.7189455,37.5558436 14.0429455,38.7974721 C13.3681273,40.0391005 11.8128545,40.4970396 10.5707636,39.8231138 Z"/>
</svg>
