<svg xmlns="http://www.w3.org/2000/svg" width="351" height="305" viewBox="0 0 351 305">
  <g fill="#A79173" fill-rule="evenodd">
    <g transform="translate(21 241)">
      <path d="M1.27455455,63.1989766 L0.715554545,63.0077752 C0.780554545,62.8177541 7.49800909,43.6480495 29.1465545,18.0553961 L29.5991909,18.4354382 C8.02864545,43.9348515 1.34073636,63.0089555 1.27455455,63.1989766"/>
      <path d="M12.7522545 34.0707507L12.4130727 33.5868461C12.5076182 33.5207518 22.0673455 26.9361082 40.6620727 22.41219L40.8027091 22.9857941C22.3143455 27.4837466 12.8456182 34.0046565 12.7522545 34.0707507M29.8955909 1.40270359C31.2913182 1.63285335 32.2344091 2.95001813 32.0039545 4.34271925 31.7735 5.73660062 30.4545909 6.67962451 29.0588636 6.4482945 27.6643182 6.21696448 26.7212273 4.90097995 26.9516818 3.50709858 27.1821364 2.11439746 28.4998636 1.17255383 29.8955909 1.40270359M41.4563727.414948025C43.1310091.691127738 44.2631909 2.27148943 43.9866455 3.94391102 43.7089182 5.61633262 42.1264636 6.74701708 40.4518273 6.47083737 38.7783727 6.19465766 37.6450091 4.61429597 37.9227364 2.94187437 38.1992818 1.26945278 39.7829182.138768312 41.4563727.414948025M34.7659818 9.4606598C36.1617091 9.69080956 37.1048 11.0067941 36.8743455 12.4006755 36.6438909 13.7945568 35.3249818 14.7375807 33.9292545 14.5050705 32.5335273 14.2749207 31.5916182 12.9589362 31.8220727 11.5650548 32.0525273 10.1711734 33.3702545 9.22932978 34.7659818 9.4606598"/>
      <path d="M41.1540636,20.4632347 C42.8594273,20.7453157 44.0128818,22.3551837 43.7316091,24.0571117 C43.4479727,25.7602199 41.8371545,26.9133292 40.1317909,26.6312483 C38.4252455,26.347987 37.2729727,24.7392992 37.5554273,23.036191 C37.8367,21.3330827 39.4498818,20.1823339 41.1540636,20.4632347"/>
    </g>
    <g transform="translate(119)">
      <path d="M18.6991909,33.5391992 L18.3966455,33.0316895 C47.1491,15.9876244 59.7130091,0.158041857 59.8371,-0.000112337541 L60.3027364,0.364586514 C60.1786455,0.521560453 47.5450091,16.4396621 18.6991909,33.5391992"/>
      <path d="M20.9047 26.2224432C17.4431545 26.2224432 13.5443364 26.064289 9.24606364 25.657101L9.30160909 25.0681537C28.2473364 26.8704033 39.3304273 23.7993794 39.4403364 23.7686927L39.6010636 24.3352152C39.5159727 24.3600006 32.7855182 26.2224432 20.9047 26.2224432M12.5304545 49.0287502C11.2871818 48.3548245 10.8286364 46.8016087 11.5034545 45.5611605 12.1770909 44.319532 13.7335455 43.8604127 14.9744545 44.5343385 16.2177273 45.2094444 16.6786364 46.76148 16.0026364 48.0031084 15.3278182 49.2435566 13.7725455 49.7026759 12.5304545 49.0287502M1.52701818 45.7312352C.284927273 45.0573095-.1748 43.5040937.500018182 42.2636455 1.17483636 41.0231973 2.73010909 40.5628978 3.9722 41.2368235 5.21547273 41.9119295 5.6752 43.463965 4.9992 44.7055935 4.32438182 45.9472219 2.77029091 46.4051609 1.52701818 45.7312352M10.5707636 39.8231138C9.32749091 39.1491881 8.86894545 37.5959723 9.54376364 36.3543439 10.2185818 35.1150759 11.7738545 34.6547764 13.0147636 35.3287021 14.2580364 36.0038081 14.7189455 37.5558436 14.0429455 38.7974721 13.3681273 40.0391005 11.8128545 40.4970396 10.5707636 39.8231138"/>
      <path d="M8.41489091,26.8379463 C7.17161818,26.1640206 6.71189091,24.6108048 7.38789091,23.3703566 C8.06270909,22.1299084 9.6168,21.6696089 10.8588909,22.3435346 C12.1021636,23.0186405 12.5630727,24.5706761 11.8870727,25.8123046 C11.2122545,27.0527528 9.65698182,27.511872 8.41489091,26.8379463"/>
    </g>
    <g transform="translate(0 150)">
      <path d="M22.2469,26.9160087 L21.7434455,26.6091424 C31.0171727,11.4523053 32.9884455,0.881939879 33.0073545,0.778077423 L33.5888091,0.880759624 C33.5699,0.98698259 31.5844455,11.6564894 22.2469,26.9160087"/>
      <path d="M10.2382091 24.2291578L10.0124818 23.6826996C27.5873 16.4312118 35.9616636 8.53884538 36.0443909 8.46094854L36.4533 8.88702066C36.3693909 8.96609775 27.9264818 16.9292795 10.2382091 24.2291578M18.0320636 37.0115575C16.1328818 36.9903129 14.6083364 35.4359168 14.6296091 33.5380665 14.6520636 31.6402161 16.2085182 30.1188672 18.1077 30.141292 20.0092455 30.1613564 21.5314273 31.718113 21.5101545 33.614783 21.4900636 35.5114531 19.9312455 37.0328021 18.0320636 37.0115575"/>
      <path d="M10.0559727 25.6619876C8.64251818 25.645464 7.50915455 24.4888139 7.52451818 23.0760485 7.53988182 21.6644633 8.69924545 20.5314183 10.1127 20.5479419 11.5273364 20.5632852 12.6607 21.7211155 12.6441545 23.1327007 12.6299727 24.5466464 11.4694273 25.6785111 10.0559727 25.6619876M3.17389091 33.9996643C4.58734545 33.9996643 5.73489091 35.1445118 5.73489091 36.556097 5.73489091 37.9688624 4.58734545 39.11371 3.17389091 39.11371 1.76043636 39.11371.612890909 37.9688624.612890909 36.556097.612890909 35.1445118 1.76043636 33.9996643 3.17389091 33.9996643"/>
    </g>
    <g transform="translate(90 179)">
      <path d="M31.6696 7.55621502C30.2561455 7.55621502 29.1097818 6.41136749 29.1097818 4.99978229 29.1097818 3.58701684 30.2561455 2.44216931 31.6696 2.44216931 33.0842364 2.44216931 34.2306 3.58701684 34.2306 4.99978229 34.2306 6.41136749 33.0842364 7.55621502 31.6696 7.55621502M42.2367091 18.2706896C40.8220727 18.2706896 39.6745273 17.1258421 39.6745273 15.7142569 39.6745273 14.3014914 40.8220727 13.1566439 42.2367091 13.1566439 43.6489818 13.1566439 44.7965273 14.3014914 44.7965273 15.7142569 44.7965273 17.1258421 43.6489818 18.2706896 42.2367091 18.2706896M29.1097818 15.7142569C27.6951455 15.7142569 26.5487818 14.5682291 26.5487818 13.1566439 26.5487818 11.7450587 27.6951455 10.5990309 29.1097818 10.5990309 30.5232364 10.5990309 31.6696 11.7450587 31.6696 13.1566439 31.6696 14.5682291 30.5232364 15.7142569 29.1097818 15.7142569M40.2655545 5.55639063C38.8521 5.55639063 37.7057364 4.41154311 37.7057364 2.99877765 37.7057364 1.58719245 38.8521.442344925 40.2655545.442344925 41.6801909.442344925 42.8277364 1.58719245 42.8277364 2.99877765 42.8277364 4.41154311 41.6801909 5.55639063 40.2655545 5.55639063M16.8750091 34.0969674L16.5523727 33.6036207C30.7672818 24.2961284 36.8749182 17.5899184 36.9351909 17.5226439L37.3736455 17.9168491C37.3133727 17.9841236 31.1643727 24.7422648 16.8750091 34.0969674"/>
      <path d="M0.816581818,58.5354492 L0.380490909,58.1388835 C21.1013091,35.3658597 28.7724909,20.8286567 28.8481273,20.6846655 L29.3716727,20.9561242 C29.2972182,21.1012956 21.5976727,35.6986917 0.816581818,58.5354492"/>
    </g>
    <g transform="translate(284 96)">
      <path d="M.421209091 60.805229L.183663636 60.5420321C.482663636 60.2717536 30.4074818 33.3029227 56.9523 20.5998362L57.1047545 20.9196853C30.6083909 33.5991667.720209091 60.5349505.421209091 60.805229M60.2773455.414049794C61.6908.414049794 62.8383455 1.55889732 62.8383455 2.97166278 62.8383455 4.38324797 61.6908 5.5280955 60.2773455 5.5280955 58.8638909 5.5280955 57.7163455 4.38324797 57.7163455 2.97166278 57.7163455 1.55889732 58.8638909.414049794 60.2773455.414049794M43.3844364 9.36392485C44.7978909 9.36392485 45.9442545 10.5099526 45.9442545 11.9215378 45.9442545 13.333123 44.7978909 14.4791508 43.3844364 14.4791508 41.9698 14.4791508 40.8234364 13.333123 40.8234364 11.9215378 40.8234364 10.5099526 41.9698 9.36392485 43.3844364 9.36392485M64.4137091 11.9215378C65.8271636 11.9215378 66.9747091 13.0663854 66.9747091 14.4791508 66.9747091 15.890736 65.8271636 17.0355835 64.4137091 17.0355835 63.0002545 17.0355835 61.8527091 15.890736 61.8527091 14.4791508 61.8527091 13.0663854 63.0002545 11.9215378 64.4137091 11.9215378M60.5728 23.4150989C62.3207091 23.4150989 63.7388909 24.8302248 63.7388909 26.5770025 63.7388909 28.3214196 62.3207091 29.7365456 60.5728 29.7365456 58.8248909 29.7365456 57.4067091 28.3214196 57.4067091 26.5770025 57.4067091 24.8302248 58.8248909 23.4150989 60.5728 23.4150989M30.2148455 9.69463235C31.9627545 9.69463235 33.3809364 11.1097583 33.3809364 12.856536 33.3809364 14.6009531 31.9627545 16.0160791 30.2148455 16.0160791 28.4669364 16.0160791 27.0487545 14.6009531 27.0487545 12.856536 27.0487545 11.1097583 28.4669364 9.69463235 30.2148455 9.69463235"/>
      <path d="M40.0549 29.8950539L39.6164455 29.5008487C39.6767182 29.4335741 45.8269 22.6766132 60.1162636 13.3219106L60.4389 13.8152573C46.2145364 23.1286509 40.1151727 29.8277793 40.0549 29.8950539M32.0544636 34.6310639L31.4883727 34.4599269C31.5143727 34.3737682 34.1959182 25.6434206 43.1328273 11.1003163L43.6362818 11.4083629C34.7454636 25.8782914 32.0804636 34.5449052 32.0544636 34.6310639"/>
      <path d="M36.7240636,21.5467549 C36.7181545,21.4830211 36.0882455,15.0565316 37.9567,3.14067532 L38.5405182,3.23273522 C36.6850636,15.0612527 37.3055182,21.4240084 37.3126091,21.4865619 L36.7240636,21.5467549 Z"/>
    </g>
  </g>
</svg>
