<svg xmlns="http://www.w3.org/2000/svg" width="320" height="342" viewBox="0 0 320 342">
  <g fill="#A79173" fill-rule="evenodd" transform="translate(-8 -1)">
    <g transform="scale(1 -1) rotate(-78 -70.307 -57.007)">
      <path d="M18.7434455,40.6091424 C28.0171727,25.4523053 34.2321699,0.953881772 34.251079,0.850019316 L34.8325336,0.952701517 C34.8136245,1.05892448 28.5844455,25.6564894 19.2469,40.9160087 L18.7434455,40.6091424 Z"/>
      <path d="M7.23820909 38.2291578L7.01248182 37.6826996C24.5873 30.4312118 32.9616636 22.5388454 33.0443909 22.4609485L33.4533 22.8870207C33.3693909 22.9660978 24.9264818 30.9292795 7.23820909 38.2291578M15.0669684 49.0118621C13.1677866 48.9906175 11.6432412 47.4362214 11.6645139 45.5383711 11.6869684 43.6405207 13.243423 42.1191718 15.1426048 42.1415967 17.0441503 42.161661 18.5663321 43.7184176 18.5450594 45.6150877 18.5249684 47.5117577 16.9661503 49.0331067 15.0669684 49.0118621"/>
      <path d="M3.50721808 38.0584438C3.52258172 36.6468586 4.68194535 35.5138136 6.0953999 35.5303372 7.51003626 35.5456805 8.6433999 36.7035108 8.62685444 38.115096 8.61267263 39.5290417 7.45212717 40.6609064 6.03867263 40.6443829 4.62521808 40.6278593 3.49185444 39.4712092 3.50721808 38.0584438zM3.1908864 47.0521738C4.60434095 47.0521738 5.7518864 48.1970213 5.7518864 49.6086065 5.7518864 51.021372 4.60434095 52.1662195 3.1908864 52.1662195 1.77743186 52.1662195.629886401 51.021372.629886401 49.6086065.629886401 48.1970213 1.77743186 47.0521738 3.1908864 47.0521738"/>
    </g>
    <g transform="rotate(1 -5463.598 16296.594)">
      <path d="M11.8923727 34.1532072L11.6843727 33.8652249C30.4599182 20.3619254 38.1618273 8.67503856 38.2362818 8.5581933L38.5341 8.75175515C38.4584636 8.86742016 30.7270091 20.6062382 11.8923727 34.1532072M26.0799818 26.4296173L25.8719818 26.141635C44.6534364 12.6347947 52.3494364.951448643 52.4238909.83460338L52.7217091 1.02934549C52.6460727 1.14501049 44.9122545 12.8826483 26.0799818 26.4296173M3.23992727 45.7633774C1.84774545 46.0124113.515836364 45.0882715.266472727 43.6979309.0171090909 42.3075903.944836364 40.9774427 2.33583636 40.7284088 3.72801818 40.479375 5.05874545 41.4058753 5.30810909 42.7950356 5.55747273 44.1853763 4.63210909 45.5143436 3.23992727 45.7633774M18.3958 40.4544716C17.0036182 40.7035054 15.6717091 39.7781854 15.4223455 38.3878448 15.1729818 36.9975042 16.1007091 35.6685368 17.4917091 35.419503 18.8838909 35.1704691 20.2146182 36.0957892 20.4639818 37.4849496 20.7133455 38.8752902 19.7879818 40.2054378 18.3958 40.4544716M4.92271818 30.0522925C3.53053636 30.3013264 2.20099091 29.3760063 1.95162727 27.9856657 1.70108182 26.5953251 2.62762727 25.2663578 4.01980909 25.0173239 5.41199091 24.7682901 6.74271818 25.6947904 6.99208182 27.0839508 7.24144545 28.4742914 6.31608182 29.8032587 4.92271818 30.0522925"/>
    </g>
    <g transform="rotate(6 -2496.197 885.07)">
      <path d="M.329309091 76.5587026C.464036364 76.3427159 14.0915818 54.563467 47.9329455 29.0109423L48.2874909 29.4818641C14.5465818 54.9600327.965127273 76.6519427.832763636 76.8679294L.329309091 76.5587026zM22.7864545 49.008478L22.283 48.6992511C22.3822727 48.5387364 32.5388182 32.3090474 57.7505455 13.2727115L58.1062727 13.7424531C32.9926364 32.7056131 22.8857273 48.8479632 22.7864545 49.008478M55.3303.673369415C56.7437545.673369415 57.8901182 1.81821694 57.8901182 3.22980214 57.8901182 4.6425676 56.7437545 5.78741512 55.3303 5.78741512 53.9156636 5.78741512 52.7693 4.6425676 52.7693 3.22980214 52.7693 1.81821694 53.9156636.673369415 55.3303.673369415"/>
      <path d="M56.6886818 11.0006023C58.1021364 11.0006023 59.2485 12.1454498 59.2485 13.557035 59.2485 14.9698004 58.1021364 16.114648 56.6886818 16.114648 55.2740455 16.114648 54.1276818 14.9698004 54.1276818 13.557035 54.1276818 12.1454498 55.2740455 11.0006023 56.6886818 11.0006023M40.3890455 11.0006023C41.8036818 11.0006023 42.9500455 12.1454498 42.9500455 13.557035 42.9500455 14.9698004 41.8036818 16.114648 40.3890455 16.114648 38.9767727 16.114648 37.8292273 14.9698004 37.8292273 13.557035 37.8292273 12.1454498 38.9767727 11.0006023 40.3890455 11.0006023M59.2486182 18.5882268C60.6620727 18.5882268 61.8096182 19.7342546 61.8096182 21.1458398 61.8096182 22.557425 60.6620727 23.7034528 59.2486182 23.7034528 57.8351636 23.7034528 56.6888 22.557425 56.6888 21.1458398 56.6888 19.7342546 57.8351636 18.5882268 59.2486182 18.5882268M56.0817 30.0322171C57.4951545 30.0322171 58.6427 31.1770646 58.6427 32.5886498 58.6427 34.0014153 57.4951545 35.1462628 56.0817 35.1462628 54.6682455 35.1462628 53.5207 34.0014153 53.5207 32.5886498 53.5207 31.1770646 54.6682455 30.0322171 56.0817 30.0322171M48.1725 39.1067271C49.5859545 39.1067271 50.7323182 40.2515746 50.7323182 41.6631598 50.7323182 43.0759253 49.5859545 44.2207728 48.1725 44.2207728 46.7578636 44.2207728 45.6115 43.0759253 45.6115 41.6631598 45.6115 40.2515746 46.7578636 39.1067271 48.1725 39.1067271M66.9304364 5.10274909C68.3438909 5.10274909 69.4914364 6.24877687 69.4914364 7.66036207 69.4914364 9.07194727 68.3438909 10.2179751 66.9304364 10.2179751 65.5169818 10.2179751 64.3706182 9.07194727 64.3706182 7.66036207 64.3706182 6.24877687 65.5169818 5.10274909 66.9304364 5.10274909"/>
    </g>
    <g transform="rotate(1 76.6 12579.063)">
      <path d="M0.361718182,69.4276486 L0.0544454545,69.2506103 C0.1939,69.0098382 14.4052636,44.9503363 50.5039,16.2123029 L50.7249,16.4884826 C14.6841727,45.1816663 0.499990909,69.189237 0.361718182,69.4276486"/>
      <path d="M17.4599091 39.3104869L17.2519091 39.0248652C17.3937273 38.9210027 31.8024545 28.6091132 60.0892727 21.1829476L60.1790909 21.5264018C31.962 28.9325031 17.6017273 39.2078047 17.4599091 39.3104869M50.6142818 13.7932518C52.0277364 13.7932518 53.1752818 14.9380994 53.1752818 16.3508648 53.1752818 17.76245 52.0277364 18.9072975 50.6142818 18.9072975 49.2008273 18.9072975 48.0532818 17.76245 48.0532818 16.3508648 48.0532818 14.9380994 49.2008273 13.7932518 50.6142818 13.7932518M67.7634091 11.2356389C69.1780455 11.2356389 70.3232273 12.3816666 70.3232273 13.7932518 70.3232273 15.204837 69.1780455 16.3508648 67.7634091 16.3508648 66.3499545 16.3508648 65.2024091 15.204837 65.2024091 13.7932518 65.2024091 12.3816666 66.3499545 11.2356389 67.7634091 11.2356389M65.2024091 25.4332825C66.9420455 25.4332825 68.3519545 26.841327 68.3519545 28.5786626 68.3519545 30.3159982 66.9420455 31.7240427 65.2024091 31.7240427 63.4627727 31.7240427 62.0528636 30.3159982 62.0528636 28.5786626 62.0528636 26.841327 63.4627727 25.4332825 65.2024091 25.4332825M57.5424545.122238026C58.9559091.122238026 60.1034545 1.26708555 60.1034545 2.67867075 60.1034545 4.09143621 58.9559091 5.23628373 57.5424545 5.23628373 56.129 5.23628373 54.9826364 4.09143621 54.9826364 2.67867075 54.9826364 1.26708555 56.129.122238026 57.5424545.122238026"/>
    </g>
    <g transform="rotate(1 -9247.583 7042.532)">
      <path d="M0.797609091,60.7026831 C1.10133636,60.3486066 30.9930636,33.3939387 57.5863364,20.6684273 L57.8167909,21.0166026 C31.2566091,33.7905044 1.41688182,60.6991424 1.11788182,60.9706011 L1.07415455,61.0095495 L0.797609091,60.7026831 Z"/>
      <path d="M57.6671727 20.5639747L57.5608091 20.6147257C30.9521727 33.3484989 1.06044545 60.3055273.761445455 60.5758057L.675172727 60.6548828.753172727 60.7422217.9919 61.0054186 1.07108182 61.0927575 1.15853636 61.0136804C1.45635455 60.7434019 31.2901727 33.8406653 57.8149 21.1482011L57.9212636 21.0974501 57.8704455 20.9912271 57.7179909 20.671378 57.6671727 20.5639747zM57.6116273 20.7221289L57.7640818 21.0419781C31.2677182 33.7202793 1.37835455 60.6548828 1.07935455 60.9263415L.841809091 60.6631446C1.14080909 60.3928661 31.0668091 33.4240352 57.6116273 20.7221289L57.6116273 20.7221289zM73.1920091 5.64920802C74.6054636 5.64920802 75.7518273 6.7952358 75.7518273 8.206821 75.7518273 9.6184062 74.6054636 10.764434 73.1920091 10.764434 71.7773727 10.764434 70.6310091 9.6184062 70.6310091 8.206821 70.6310091 6.7952358 71.7773727 5.64920802 73.1920091 5.64920802M68.0700091 17.905686C69.4846455 17.905686 70.6310091 19.0517138 70.6310091 20.463299 70.6310091 21.8748842 69.4846455 23.020912 68.0700091 23.020912 66.6565545 23.020912 65.5101909 21.8748842 65.5101909 20.463299 65.5101909 19.0517138 66.6565545 17.905686 68.0700091 17.905686M60.9364364.535162309C62.3498909.535162309 63.4974364 1.68000984 63.4974364 3.09277529 63.4974364 4.50436049 62.3498909 5.64920802 60.9364364 5.64920802 59.5229818 5.64920802 58.3754364 4.50436049 58.3754364 3.09277529 58.3754364 1.68000984 59.5229818.535162309 60.9364364.535162309"/>
      <path d="M40.7139909 30.0160484L40.2755364 29.6218431C40.3358091 29.5545686 46.4848091 22.7964274 60.7753545 13.4417248L61.0979909 13.9350715C46.8819 23.2425639 40.7742636 29.9487738 40.7139909 30.0160484M32.7135545 34.7521764L32.1474636 34.5810394C32.1734636 34.4948807 34.8550091 25.7645332 43.7919182 11.2214288L44.2953727 11.5294754C35.4045545 25.9994039 32.7395545 34.6660177 32.7135545 34.7521764"/>
      <path d="M37.3819727,21.6677494 C37.3760636,21.6040156 36.7473364,15.1763459 38.6157909,3.26166981 L39.1996091,3.35372971 C37.3429727,15.1928695 37.9634273,21.5450028 37.9705182,21.6075564 L37.3819727,21.6677494 Z"/>
    </g>
  </g>
</svg>
