<svg xmlns="http://www.w3.org/2000/svg" xmlns:xlink="http://www.w3.org/1999/xlink" width="358" height="112" viewBox="0 0 358 112">
  <defs>
    <path id="download-btn-a" d="M168.867748,52 L6.13354721,52 C2.75042602,51.999289 0.00643715431,49.252866 0,45.8610118 L0,6.14549001 C0.00500478235,2.75198734 2.74878539,0.00286424419 6.13354721,0 L168.866451,0 C172.250622,0.00429324094 174.993568,2.75258078 174.999998,6.14549001 L174.999998,45.8610118 C175.002592,49.247143 172.246452,52 168.867748,52 L168.867748,52 Z"/>
    <path id="download-btn-b" d="M168.518519,1.04 C171.5,1.04 173.962963,3.51 173.962963,6.5 L173.962963,45.5 C173.962963,48.49 171.5,50.96 168.518519,50.96 L6.48148148,50.96 C3.5,50.96 1.03703704,48.49 1.03703704,45.5 L1.03703704,6.5 C1.03703704,3.51 3.5,1.04 6.48148148,1.04 L168.518519,1.04 L168.518519,1.04 Z M168.518519,0 L6.48148148,0 C2.85185185,0 0,2.99 0,6.5 L0,45.5 C0,49.14 2.85185185,52 6.48148148,52 L168.518519,52 C172.148148,52 175,49.14 175,45.5 L175,6.5 C175,2.99 172.148148,0 168.518519,0 Z"/>
  </defs>
  <g fill="none" fill-rule="evenodd">
    <rect width="175" height="52" fill="#4A4344"/>
    <rect width="175" height="52" y="52" fill="#9C9183"/>
    <rect width="175" height="52" x="180" fill="#4A4344"/>
    <rect width="175" height="52" x="180" y="52" fill="#9C9183"/>
    <g fill-rule="nonzero">
      <path fill="#FFF" d="M173.25286,45.5761573 C173.252861,46.8897253 172.730556,48.1494175 171.800992,49.0777654 C170.871429,50.0061133 169.610858,50.5269645 168.296943,50.5255926 L6.11281467,50.5255926 C3.37552698,50.5284492 1.1540019,48.3127192 1.15043456,45.5761573 L1.15043456,6.10602652 C1.15400001,3.36841997 3.37448062,1.15084046 6.11281467,1.15012986 L168.29565,1.15012986 C169.610265,1.15012982 170.871018,1.67230867 171.80047,2.60175675 C172.729922,3.53120483 173.25191,4.79175985 173.251567,6.10602652 L173.25286,45.5761573 Z"/>
      <use fill="#A6A6A6" fill-rule="evenodd" xlink:href="#download-btn-a"/>
      <use fill="#4A4344" fill-rule="evenodd" xlink:href="#download-btn-a"/>
      <path fill="#4A4344" d="M173.25286,45.5761573 C173.252861,46.8897253 172.730556,48.1494175 171.800992,49.0777654 C170.871429,50.0061133 169.610858,50.5269645 168.296943,50.5255926 L6.11281467,50.5255926 C3.37552698,50.5284492 1.1540019,48.3127192 1.15043456,45.5761573 L1.15043456,6.10602652 C1.15400001,3.36841997 3.37448062,1.15084046 6.11281467,1.15012986 L168.29565,1.15012986 C169.610265,1.15012982 170.871018,1.67230867 171.80047,2.60175675 C172.729922,3.53120483 173.25191,4.79175985 173.251567,6.10602652 L173.25286,45.5761573 Z"/>
      <path fill="#FFF" d="M38.9441489,25.5664823 C38.9066629,21.4014614 42.3553813,19.3751652 42.5130813,19.2808287 C40.5599278,16.4339342 37.5326045,16.0449577 36.4687757,16.013943 C33.926186,15.7464409 31.4598611,17.5349574 30.1646528,17.5349574 C28.843592,17.5349574 26.8490745,16.0397886 24.6994423,16.0837262 C21.9332289,16.1263714 19.3453974,17.7275073 17.9260972,20.2138554 C14.9970133,25.2834728 17.1815463,32.7334713 19.9878311,36.8312935 C21.3916198,38.8394978 23.0319585,41.0790203 25.1790055,41.0001912 C27.279518,40.9149007 28.0641402,39.6626806 30.5989742,39.6626806 C33.1105408,39.6626806 33.847336,41.0001912 36.0370396,40.9497923 C38.2913743,40.9149007 39.7106744,38.9338343 41.0653434,36.9088304 C42.6875854,34.6098629 43.3390675,32.3432025 43.3649199,32.2268972 C43.313215,32.2088053 38.9880981,30.5572705 38.9441489,25.5664823 L38.9441489,25.5664823 Z M34.807755,13.3182454 C35.9375076,11.9057825 36.7104962,9.98416104 36.4959208,8.03410939 C34.8607525,8.10647712 32.8158228,9.16485505 31.6382431,10.5463032 C30.5963889,11.7636316 29.6657003,13.7589131 29.9061282,15.6353047 C31.7429456,15.7722865 33.6288827,14.7087394 34.807755,13.3182454 L34.807755,13.3182454 Z"/>
      <path fill="#FFF" d="M15.0784485,18.7432399 L12.1429015,18.7432399 L10.5348783,13.6917145 L4.945576,13.6917145 L3.41381762,18.7432399 L0.555827935,18.7432399 L6.09471794,1.54556777 L9.51499868,1.54556777 L15.0784485,18.7432399 L15.0784485,18.7432399 Z M10.0501446,11.5723741 L8.59594365,7.08169848 C8.4421215,6.62293882 8.15257393,5.54259212 7.72859355,3.84195066 L7.67688862,3.84195066 C7.50626237,4.57338156 7.2335189,5.65372826 6.85995082,7.08169848 L5.43030967,11.5723741 L10.0501446,11.5723741 Z M29.2947174,12.3903878 C29.2947174,14.49939 28.7220854,16.1664321 27.5755287,17.390222 C26.549186,18.4796147 25.273367,19.0236649 23.7519496,19.0236649 C22.1090256,19.0236649 20.9275681,18.4382617 20.2101623,17.2648708 L20.2101623,23.7715043 L17.4542898,23.7715043 L17.4542898,10.4183674 C17.4542898,9.0937796 17.419389,7.73559254 17.3521726,6.3425139 L19.7758409,6.3425139 L19.929663,8.30807291 L19.981368,8.30807291 C20.900423,6.82711918 22.2951633,6.08664231 24.1668816,6.08664231 C25.6301309,6.08664231 26.8516598,6.6642918 27.8288828,7.82088307 C28.8048133,8.9800589 29.2947174,10.5023656 29.2947174,12.3903878 Z M26.4871401,12.4911857 C26.4871401,11.2841955 26.2156892,10.2891393 25.6702023,9.50472488 C25.074303,8.68929573 24.2741693,8.28093502 23.2710938,8.28093502 C22.591174,8.28093502 21.9733002,8.50837643 21.4213501,8.95679785 C20.8681074,9.40909611 20.5061729,9.99966841 20.3368393,10.7310993 C20.2612454,11.0046385 20.2182902,11.2861588 20.2088696,11.5697895 L20.2088696,13.638731 C20.2088696,14.5394507 20.485491,15.300604 21.0387337,15.9234833 C21.5919764,16.5437781 22.3106748,16.8552178 23.194829,16.8552178 C24.2328054,16.8552178 25.0406948,16.4533184 25.6184973,15.6559812 C26.1975925,14.8560594 26.4871401,13.8015584 26.4871401,12.4911857 L26.4871401,12.4911857 Z M43.5613987,12.3903878 C43.5613987,14.49939 42.9887666,16.1664321 41.8422099,17.390222 C40.8145746,18.4796147 39.5400482,19.0236649 38.0173382,19.0236649 C36.3744142,19.0236649 35.1929567,18.4382617 34.4755508,17.2648708 L34.4755508,23.7715043 L31.7196784,23.7715043 L31.7196784,10.4183674 C31.7196784,9.0937796 31.6847776,7.73559254 31.6175612,6.3425139 L34.0412295,6.3425139 L34.1950516,8.30807291 L34.2467566,8.30807291 C35.164519,6.82711918 36.5592593,6.08664231 38.4322702,6.08664231 C39.8942269,6.08664231 41.1157557,6.6642918 42.0955641,7.82088307 C43.0702019,8.9800589 43.5613987,10.5023656 43.5613987,12.3903878 L43.5613987,12.3903878 Z M40.7525286,12.4911857 C40.7525286,11.2841955 40.4797852,10.2891393 39.9342982,9.50472488 C39.338399,8.68929573 38.5408505,8.28093502 37.537775,8.28093502 C36.8578552,8.28093502 36.2399814,8.50837643 35.6854461,8.95679785 C35.1322034,9.40909611 34.7715615,9.99966841 34.6022279,10.7310993 C34.5182074,11.0722614 34.4729656,11.3501018 34.4729656,11.5697895 L34.4729656,13.638731 C34.4729656,14.5394507 34.7508796,15.300604 35.301537,15.9234833 C35.8547797,16.5424858 36.5734781,16.8552178 37.4602176,16.8552178 C38.4994866,16.8552178 39.307376,16.4533184 39.8838859,15.6559812 C40.4629811,14.8560594 40.7525286,13.8015584 40.7525286,12.4911857 L40.7525286,12.4911857 Z M59.5123678,13.9191559 C59.5123678,15.38331 59.000489,16.5735006 57.9831946,17.4923122 C56.863783,18.495122 55.3010017,18.9978192 53.2974359,18.9978192 C51.4463996,18.9978192 49.9624683,18.6411498 48.8430567,17.9265185 L49.4803199,15.6301356 C50.6889225,16.3460591 52.0164464,16.7027286 53.461599,16.7027286 C54.500868,16.7027286 55.3087574,16.4675335 55.8852673,16.0010202 C56.4630699,15.5332146 56.7552027,14.9077507 56.7552027,14.1272131 C56.7552027,13.4280892 56.5134822,12.842686 56.0390895,12.3658345 C55.5621116,11.8902751 54.7736115,11.4470228 53.6658335,11.0399544 C50.6540216,9.91696244 49.1468231,8.27447361 49.1468231,6.11378021 C49.1468231,4.70260963 49.6793838,3.54731065 50.74192,2.6440064 C51.8044562,1.74199444 53.2134154,1.29098846 54.9662123,1.29098846 C56.5315789,1.29098846 57.8358356,1.5636597 58.8712267,2.1077099 L58.1796734,4.35369383 C57.2050355,3.82644329 56.1050133,3.56281801 54.8744361,3.56281801 C53.9023835,3.56281801 53.1397359,3.80188995 52.5942489,4.27744927 C52.1353677,4.70260963 51.9026956,5.22081421 51.9026956,5.83593985 C51.9026956,6.51438724 52.1676833,7.07782164 52.6950735,7.51978166 C53.1526621,7.92685009 53.9876966,8.37010239 55.1950066,8.8456617 C56.6763527,9.44269541 57.7647413,10.1379424 58.4614652,10.9365719 C59.1633595,11.7352014 59.5123678,12.7315499 59.5123678,13.9191559 Z M68.6473353,8.41016309 L65.609671,8.41016309 L65.609671,14.4308991 C65.609671,15.9622518 66.1448169,16.7259897 67.2176941,16.7259897 C67.7101835,16.7259897 68.1186524,16.6846367 68.4418082,16.5980539 L68.518073,18.6902564 C67.9751713,18.8931445 67.2603507,18.9952347 66.3749038,18.9952347 C65.2865152,18.9952347 64.4359692,18.6631185 63.8219732,17.9988862 C63.2105625,17.3346539 62.9029182,16.2220002 62.9029182,14.6557559 L62.9029182,8.40499397 L61.0932458,8.40499397 L61.0932458,6.33734478 L62.9029182,6.33734478 L62.9029182,4.06680751 L65.609671,3.25008607 L65.609671,6.33734478 L68.6473353,6.33734478 L68.6473353,8.41016309 L68.6473353,8.41016309 Z M82.325873,12.4407867 C82.325873,14.3469008 81.780386,15.9118528 80.6919974,17.1356427 C79.5531964,18.3956164 78.0382421,19.0236649 76.1497198,19.0236649 C74.3271212,19.0236649 72.8780907,18.4201697 71.7974578,17.2144718 C70.7168249,16.0061893 70.1765084,14.4838826 70.1765084,12.6475517 C70.1765084,10.7259302 70.7349216,9.15193224 71.8478701,7.92814237 C72.9634038,6.70306023 74.4654319,6.09051915 76.3539542,6.09051915 C78.1739676,6.09051915 79.6359243,6.69530654 80.7424097,7.90229676 C81.7997754,9.07310311 82.325873,10.5850716 82.325873,12.4407867 Z M79.4691759,12.5041085 C79.4691759,11.3681937 79.2235775,10.393814 78.7310881,9.57838488 C78.1532856,8.59366696 77.3260068,8.10130799 76.2544222,8.10130799 C75.1505221,8.10130799 74.303854,8.59366696 73.7273441,9.57838488 C73.233562,10.393814 72.9879637,11.3849934 72.9879637,12.5557997 C72.9879637,13.6930068 73.233562,14.669971 73.7273441,15.4828156 C74.3232433,16.4675335 75.1544,16.9598925 76.231155,16.9598925 C77.2846429,16.9598925 78.110629,16.4571953 78.7078209,15.4582623 C79.2145292,14.6234489 79.4691759,13.6426078 79.4691759,12.5041085 Z M91.287629,8.7655403 C91.0009982,8.71380649 90.710249,8.68828617 90.4189862,8.68929573 C89.4495189,8.68929573 88.6997975,9.0537189 88.1724073,9.78773437 C87.7148187,10.4338747 87.4847318,11.2505962 87.4847318,12.2366064 L87.4847318,18.7432399 L84.7288593,18.7432399 L84.7288593,10.2477863 C84.731317,8.9460245 84.7045961,7.64437106 84.6487167,6.34380618 L87.0491178,6.34380618 L87.1499424,8.71643363 L87.2262072,8.71643363 C87.51834,7.90100448 87.9759286,7.24323358 88.6041434,6.75087461 C89.1791712,6.32064556 89.8778479,6.0876639 90.5960756,6.08664231 C90.8507224,6.08664231 91.0808093,6.10473424 91.2850437,6.13704126 L91.287629,8.7655403 L91.287629,8.7655403 Z M103.61279,11.9561815 C103.619779,12.3750092 103.586011,12.7935238 103.511966,13.2058169 L95.2443483,13.2058169 C95.2753712,14.4308991 95.6760844,15.3690949 96.4439025,16.0152353 C97.1406264,16.5915925 98.0415847,16.8810634 99.1480701,16.8810634 C100.372184,16.8810634 101.489011,16.6872213 102.493379,16.2956602 L102.925115,18.2069434 C101.751413,18.7186866 100.365721,18.9732659 98.7667463,18.9732659 C96.8433231,18.9732659 95.3335393,18.4072469 94.2348096,17.2777936 C93.1386653,16.1470479 92.5893004,14.6273258 92.5893004,12.7237962 C92.5893004,10.8551583 93.0998866,9.29795996 94.1223514,8.05607817 C95.1926434,6.73019812 96.6390886,6.0672581 98.459102,6.0672581 C100.2468,6.0672581 101.600176,6.73019812 102.519231,8.05607817 C103.246978,9.10670241 103.61279,10.4093214 103.61279,11.9561815 L103.61279,11.9561815 Z M100.984888,11.2415502 C101.004277,10.4235365 100.82331,9.71924349 100.449742,9.12350206 C99.9727636,8.3558873 99.2385537,7.9733722 98.2548675,7.9733722 C97.3539092,7.9733722 96.6196993,8.34684133 96.0612861,9.09636417 C95.6024049,9.69210559 95.3296614,10.4080291 95.2456409,11.2389656 L100.984888,11.2415502 Z" transform="translate(54.29 21.969)"/>
      <g fill="#FFF" transform="translate(55.583 7.754)">
        <path d="M2.85798969,9.68047506 C2.09146418,9.68047506 1.42834853,9.64299892 0.876398466,9.57967717 L0.876398466,1.26514285 C1.64836409,1.14592365 2.4284643,1.08716159 3.20958317,1.08939267 C6.37004666,1.08939267 7.82554028,2.6440064 7.82554028,5.17816895 C7.82554028,8.10130799 6.10635155,9.68047506 2.85798969,9.68047506 Z M3.32074876,2.15552428 C2.89418313,2.15552428 2.53095604,2.1813699 2.22977486,2.24339937 L2.22977486,8.5639445 C2.39264537,8.58979011 2.70546016,8.60142064 3.14495202,8.60142064 C5.21573423,8.60142064 6.3946065,7.4228606 6.3946065,5.21564509 C6.3946065,3.24750151 5.32819244,2.15552428 3.32074876,2.15552428 L3.32074876,2.15552428 Z M12.3613548,9.74379682 C10.5801201,9.74379682 9.42580769,8.41403993 9.42580769,6.60872373 C9.42580769,4.72716297 10.60468,3.38577555 12.4621794,3.38577555 C14.2175615,3.38577555 15.3977264,4.65221068 15.3977264,6.50921811 C15.3977264,8.41403993 14.1813681,9.74379682 12.3613548,9.74379682 Z M12.4130597,4.3756626 C11.434544,4.3756626 10.8076218,5.29059737 10.8076218,6.56995531 C10.8076218,7.82475991 11.4474702,8.73969468 12.4001335,8.73969468 C13.3527967,8.73969468 13.9926451,7.76143816 13.9926451,6.54410969 C13.9926451,5.30352018 13.3657229,4.3756626 12.4130597,4.3756626 Z M25.5551588,3.51112679 L23.6485397,9.60552278 L22.4063289,9.60552278 L21.6165362,6.95893181 C21.4201594,6.31155789 21.2566493,5.65467144 21.126632,4.99078824 L21.1007796,4.99078824 C21.0012476,5.65502054 20.8125246,6.32054513 20.612168,6.95893181 L19.771963,9.60552278 L18.516826,9.60552278 L16.7226651,3.51112679 L18.1148202,3.51112679 L18.8050809,6.40842022 C18.9679515,7.09849813 19.1049695,7.74980763 19.2187203,8.36493326 L19.2445728,8.36493326 C19.3441048,7.85189781 19.5069753,7.21092656 19.7461106,6.42134302 L20.612168,3.51241907 L21.7160682,3.51241907 L22.5446396,6.35931355 C22.7449962,7.04939147 22.9078667,7.72654658 23.0345437,8.36622555 L23.0707372,8.36622555 C23.1586356,7.73946938 23.2969462,7.0739448 23.4843766,6.35931355 L24.2250496,3.51241907 L25.5551588,3.51112679 L25.5551588,3.51112679 Z M32.5741023,9.60552278 L31.2194332,9.60552278 L31.2194332,6.10602652 C31.2194332,5.02826438 30.8057939,4.48809103 29.9901487,4.48809103 C29.1874297,4.48809103 28.6354797,5.17816895 28.6354797,5.98067529 L28.6354797,9.60552278 L27.2808106,9.60552278 L27.2808106,5.25312123 C27.2808106,4.71424016 27.2678844,4.13659067 27.2303983,3.5098345 L28.4221968,3.5098345 L28.4855354,4.45061489 L28.5230214,4.45061489 C28.8875412,3.79930539 29.6269216,3.38577555 30.455493,3.38577555 C31.7351899,3.38577555 32.5753949,4.36403208 32.5753949,5.95612196 L32.5741023,9.60552278 L32.5741023,9.60552278 Z M36.309783,9.60552278 L34.9538214,9.60552278 L34.9538214,0.714631252 L36.309783,0.714631252 L36.309783,9.60552278 Z M41.2488959,9.74379682 C39.4689539,9.74379682 38.3133488,8.41403993 38.3133488,6.60872373 C38.3133488,4.72716297 39.4922211,3.38577555 41.3484279,3.38577555 C43.1051027,3.38577555 44.283975,4.65221068 44.283975,6.50921811 C44.2852676,8.41403993 43.0676166,9.74379682 41.2488959,9.74379682 Z M41.2993082,4.3756626 C40.3207925,4.3756626 39.6938703,5.29059737 39.6938703,6.56995531 C39.6938703,7.82475991 40.3350114,8.73969468 41.2850894,8.73969468 C42.2390452,8.73969468 42.877601,7.76143816 42.877601,6.54410969 C42.8788937,5.30352018 42.2532641,4.3756626 41.2993082,4.3756626 L41.2993082,4.3756626 Z M49.6250936,9.60552278 L49.5268543,8.90381434 L49.4906608,8.90381434 C49.0770214,9.46854102 48.4733665,9.74379682 47.7081336,9.74379682 C46.6158671,9.74379682 45.8402932,8.97876662 45.8402932,7.95011115 C45.8402932,6.44589636 47.1445499,5.66794335 49.4027625,5.66794335 L49.4027625,5.55551492 C49.4027625,4.75300858 48.9774895,4.35110927 48.1372845,4.35110927 C47.5362147,4.35110927 47.0088245,4.50230612 46.5447728,4.80340753 L46.2694441,3.9130261 C46.8330277,3.56152573 47.5362147,3.38577555 48.3622009,3.38577555 C49.9547125,3.38577555 50.7587241,4.22575804 50.7587241,5.90701529 L50.7587241,8.15170694 C50.7587241,8.76683258 50.7858692,9.24368417 50.8466225,9.60681506 L49.6250936,9.60552278 L49.6250936,9.60552278 Z M49.4389559,6.56995531 C47.9343426,6.56995531 47.1794507,6.93437848 47.1794507,7.7989143 C47.1794507,8.43859327 47.5685303,8.75132521 48.1088467,8.75132521 C48.7978149,8.75132521 49.4389559,8.22536694 49.4389559,7.51073569 L49.4389559,6.56995531 L49.4389559,6.56995531 Z M57.3368831,9.60552278 L57.2735446,8.62726626 L57.2360585,8.62726626 C56.8469789,9.36645084 56.1929116,9.74379682 55.2790271,9.74379682 C53.8093146,9.74379682 52.720926,8.45151607 52.720926,6.63327707 C52.720926,4.72716297 53.849386,3.38448327 55.3901927,3.38448327 C56.2058379,3.38448327 56.7836404,3.65973907 57.1093814,4.21283523 L57.1365265,4.21283523 L57.1365265,0.714631252 L58.4924882,0.714631252 L58.4924882,7.96303395 C58.4924882,8.55231397 58.506707,9.10411785 58.5429005,9.60552278 L57.3368831,9.60552278 Z M57.1365265,6.01944371 C57.1365265,5.16653842 56.5716502,4.43898436 55.7094706,4.43898436 C54.7051025,4.43898436 54.0911065,5.32936579 54.0911065,6.58287812 C54.0911065,7.81183711 54.7283697,8.65311187 55.6823255,8.65311187 C56.5341641,8.65311187 57.1365265,7.912635 57.1365265,7.03517638 L57.1365265,6.01944371 Z M67.0897244,9.74379682 C65.3097824,9.74379682 64.15547,8.41403993 64.15547,6.60872373 C64.15547,4.72716297 65.3343422,3.38577555 67.190549,3.38577555 C68.9472238,3.38577555 70.1260961,4.65221068 70.1260961,6.50921811 C70.1273887,8.41403993 68.9110304,9.74379682 67.0897244,9.74379682 Z M67.1401367,4.3756626 C66.1629137,4.3756626 65.5359915,5.29059737 65.5359915,6.56995531 C65.5359915,7.82475991 66.1758399,8.73969468 67.1272105,8.73969468 C68.0811663,8.73969468 68.7197222,7.76143816 68.7197222,6.54410969 C68.7223074,5.30352018 68.0953852,4.3756626 67.1401367,4.3756626 Z M77.4113199,9.60552278 L76.0553583,9.60552278 L76.0553583,6.10602652 C76.0553583,5.02826438 75.6417189,4.48809103 74.8260737,4.48809103 C74.0233548,4.48809103 73.4726973,5.17816895 73.4726973,5.98067529 L73.4726973,9.60552278 L72.1167357,9.60552278 L72.1167357,5.25312123 C72.1167357,4.71424016 72.1038095,4.13659067 72.0663234,3.5098345 L73.2581219,3.5098345 L73.3214604,4.45061489 L73.3589465,4.45061489 C73.7221736,3.79930539 74.4628466,3.38448327 75.2901254,3.38448327 C76.5698223,3.38448327 77.4113199,4.3627398 77.4113199,5.95482967 L77.4113199,9.60552278 Z M86.5256054,4.52685945 L85.035211,4.52685945 L85.035211,7.48618236 C85.035211,8.23958203 85.2963209,8.61563573 85.8237111,8.61563573 C86.0628464,8.61563573 86.263203,8.58979011 86.4247808,8.55231397 L86.4622669,9.58096945 C86.1998644,9.68176734 85.8482709,9.73216629 85.4113643,9.73216629 C84.3436576,9.73216629 83.7051018,9.14288627 83.7051018,7.59990306 L83.7051018,4.52685945 L82.8157771,4.52685945 L82.8157771,3.51112679 L83.7051018,3.51112679 L83.7051018,2.39459622 L85.035211,1.99269691 L85.035211,3.5098345 L86.5256054,3.5098345 L86.5256054,4.52685945 L86.5256054,4.52685945 Z M93.6970784,9.60552278 L92.343702,9.60552278 L92.343702,6.13187214 C92.343702,5.04118719 91.9313553,4.48938331 91.1144175,4.48938331 C90.4125231,4.48938331 89.7584558,4.9662349 89.7584558,5.93156862 L89.7584558,9.60552278 L88.4050794,9.60552278 L88.4050794,0.714631252 L89.7584558,0.714631252 L89.7584558,4.3756626 L89.7856009,4.3756626 C90.2121665,3.7114303 90.8300404,3.38448327 91.6185405,3.38448327 C92.9085783,3.38448327 93.6970784,4.38729313 93.6970784,5.98067529 L93.6970784,9.60552278 L93.6970784,9.60552278 Z M101.044348,6.88397953 L96.9790485,6.88397953 C97.004901,8.03798624 97.7688412,8.68929573 98.8998864,8.68929573 C99.5009562,8.68929573 100.054199,8.58849783 100.54281,8.40111713 L100.753508,9.34189751 C100.176998,9.59259997 99.4983709,9.7179512 98.7085782,9.7179512 C96.8019591,9.7179512 95.6734992,8.51354555 95.6734992,6.64619987 C95.6734992,4.77756192 96.8291042,3.37285275 98.5560487,3.37285275 C100.11366,3.37285275 101.090883,4.52685945 101.090883,6.27014618 C101.099642,6.47587602 101.084022,6.68191948 101.044348,6.88397953 L101.044348,6.88397953 Z M99.8021374,5.91864581 C99.8021374,4.97786543 99.3277447,4.31363313 98.4616872,4.31363313 C97.6835281,4.31363313 97.0682395,4.99078824 96.9803411,5.91864581 L99.8021374,5.91864581 L99.8021374,5.91864581 Z"/>
      </g>
      <g transform="translate(180)">
        <path fill="#4A4344" d="M168.518519,52 L6.48148148,52 C2.85185185,52 0,49.14 0,45.5 L0,6.5 C0,2.86 2.85185185,0 6.48148148,0 L168.518519,0 C172.148148,0 175,2.86 175,6.5 L175,45.5 C175,49.14 172.148148,52 168.518519,52 Z"/>
        <g fill="#4A4344">
          <use fill-rule="evenodd" xlink:href="#download-btn-b"/>
          <use fill-rule="evenodd" xlink:href="#download-btn-b"/>
        </g>
        <path fill="#FFF" stroke="#FFF" stroke-width=".2" d="M61.62,13.26 C61.62,14.3 61.36,15.21 60.71,15.86 C59.93,16.64 59.02,17.03 57.85,17.03 C56.68,17.03 55.77,16.64 54.99,15.86 C54.21,15.08 53.82,14.17 53.82,13 C53.82,11.83 54.21,10.92 54.99,10.14 C55.77,9.36 56.68,8.97 57.85,8.97 C58.37,8.97 58.89,9.1 59.41,9.36 C59.93,9.62 60.32,9.88 60.58,10.27 L59.93,10.92 C59.41,10.27 58.76,10.01 57.85,10.01 C57.07,10.01 56.29,10.27 55.77,10.92 C55.12,11.44 54.86,12.22 54.86,13.13 C54.86,14.04 55.12,14.82 55.77,15.34 C56.42,15.86 57.07,16.25 57.85,16.25 C58.76,16.25 59.41,15.99 60.06,15.34 C60.45,14.95 60.71,14.43 60.71,13.78 L57.85,13.78 L57.85,12.74 L61.62,12.74 L61.62,13.26 L61.62,13.26 Z M67.6,10.01 L64.09,10.01 L64.09,12.48 L67.34,12.48 L67.34,13.39 L64.09,13.39 L64.09,15.86 L67.6,15.86 L67.6,16.9 L63.05,16.9 L63.05,9.1 L67.6,9.1 L67.6,10.01 Z M71.89,16.9 L70.85,16.9 L70.85,10.01 L68.64,10.01 L68.64,9.1 L74.1,9.1 L74.1,10.01 L71.89,10.01 L71.89,16.9 Z M77.87,16.9 L77.87,9.1 L78.91,9.1 L78.91,16.9 L77.87,16.9 Z M83.33,16.9 L82.29,16.9 L82.29,10.01 L80.08,10.01 L80.08,9.1 L85.41,9.1 L85.41,10.01 L83.2,10.01 L83.2,16.9 L83.33,16.9 Z M95.68,15.86 C94.9,16.64 93.99,17.03 92.82,17.03 C91.65,17.03 90.74,16.64 89.96,15.86 C89.18,15.08 88.79,14.17 88.79,13 C88.79,11.83 89.18,10.92 89.96,10.14 C90.74,9.36 91.65,8.97 92.82,8.97 C93.99,8.97 94.9,9.36 95.68,10.14 C96.46,10.92 96.85,11.83 96.85,13 C96.85,14.17 96.46,15.08 95.68,15.86 Z M90.74,15.21 C91.26,15.73 92.04,16.12 92.82,16.12 C93.6,16.12 94.38,15.86 94.9,15.21 C95.42,14.69 95.81,13.91 95.81,13 C95.81,12.09 95.55,11.31 94.9,10.79 C94.38,10.27 93.6,9.88 92.82,9.88 C92.04,9.88 91.26,10.14 90.74,10.79 C90.22,11.31 89.83,12.09 89.83,13 C89.83,13.91 90.09,14.69 90.74,15.21 Z M98.28,16.9 L98.28,9.1 L99.45,9.1 L103.22,15.21 L103.22,9.1 L104.26,9.1 L104.26,16.9 L103.22,16.9 L99.19,10.53 L99.19,16.9 L98.28,16.9 L98.28,16.9 Z"/>
        <path fill="#FFF" d="M88.53,28.34 C85.41,28.34 82.94,30.68 82.94,33.93 C82.94,37.05 85.41,39.52 88.53,39.52 C91.65,39.52 94.12,37.18 94.12,33.93 C94.12,30.55 91.65,28.34 88.53,28.34 Z M88.53,37.18 C86.84,37.18 85.41,35.75 85.41,33.8 C85.41,31.85 86.84,30.42 88.53,30.42 C90.22,30.42 91.65,31.72 91.65,33.8 C91.65,35.75 90.22,37.18 88.53,37.18 Z M76.44,28.34 C73.32,28.34 70.85,30.68 70.85,33.93 C70.85,37.05 73.32,39.52 76.44,39.52 C79.56,39.52 82.03,37.18 82.03,33.93 C82.03,30.55 79.56,28.34 76.44,28.34 Z M76.44,37.18 C74.75,37.18 73.32,35.75 73.32,33.8 C73.32,31.85 74.75,30.42 76.44,30.42 C78.13,30.42 79.56,31.72 79.56,33.8 C79.56,35.75 78.13,37.18 76.44,37.18 Z M62.01,30.03 L62.01,32.37 L67.6,32.37 C67.47,33.67 66.95,34.71 66.3,35.36 C65.52,36.14 64.22,37.05 62.01,37.05 C58.5,37.05 55.9,34.32 55.9,30.81 C55.9,27.3 58.63,24.57 62.01,24.57 C63.83,24.57 65.26,25.35 66.3,26.26 L67.99,24.57 C66.56,23.27 64.74,22.23 62.14,22.23 C57.46,22.23 53.43,26.13 53.43,30.81 C53.43,35.49 57.46,39.39 62.14,39.39 C64.74,39.39 66.56,38.61 68.12,36.92 C69.68,35.36 70.2,33.15 70.2,31.46 C70.2,30.94 70.2,30.42 70.07,30.03 L62.01,30.03 L62.01,30.03 Z M121.03,31.85 C120.51,30.55 119.21,28.34 116.35,28.34 C113.49,28.34 111.15,30.55 111.15,33.93 C111.15,37.05 113.49,39.52 116.61,39.52 C119.08,39.52 120.64,37.96 121.16,37.05 L119.34,35.75 C118.69,36.66 117.91,37.31 116.61,37.31 C115.31,37.31 114.53,36.79 113.88,35.62 L121.29,32.5 L121.03,31.85 L121.03,31.85 Z M113.49,33.67 C113.49,31.59 115.18,30.42 116.35,30.42 C117.26,30.42 118.17,30.94 118.43,31.59 L113.49,33.67 Z M107.38,39 L109.85,39 L109.85,22.75 L107.38,22.75 L107.38,39 Z M103.48,29.51 C102.83,28.86 101.79,28.21 100.49,28.21 C97.76,28.21 95.16,30.68 95.16,33.8 C95.16,36.92 97.63,39.26 100.49,39.26 C101.79,39.26 102.83,38.61 103.35,37.96 L103.48,37.96 L103.48,38.74 C103.48,40.82 102.31,41.99 100.49,41.99 C99.06,41.99 98.02,40.95 97.76,40.04 L95.68,40.95 C96.33,42.38 97.89,44.2 100.62,44.2 C103.48,44.2 105.82,42.51 105.82,38.48 L105.82,28.6 L103.48,28.6 L103.48,29.51 L103.48,29.51 Z M100.62,37.18 C98.93,37.18 97.5,35.75 97.5,33.8 C97.5,31.85 98.93,30.42 100.62,30.42 C102.31,30.42 103.61,31.85 103.61,33.8 C103.61,35.75 102.31,37.18 100.62,37.18 Z M132.34,22.75 L126.49,22.75 L126.49,39 L128.96,39 L128.96,32.89 L132.34,32.89 C135.07,32.89 137.67,30.94 137.67,27.82 C137.67,24.7 135.07,22.75 132.34,22.75 L132.34,22.75 Z M132.47,30.55 L128.96,30.55 L128.96,24.96 L132.47,24.96 C134.29,24.96 135.33,26.52 135.33,27.69 C135.2,29.12 134.16,30.55 132.47,30.55 Z M147.42,28.21 C145.6,28.21 143.78,28.99 143.13,30.68 L145.34,31.59 C145.86,30.68 146.64,30.42 147.55,30.42 C148.85,30.42 150.02,31.2 150.15,32.5 L150.15,32.63 C149.76,32.37 148.72,31.98 147.68,31.98 C145.34,31.98 143,33.28 143,35.62 C143,37.83 144.95,39.26 147.03,39.26 C148.72,39.26 149.5,38.48 150.15,37.7 L150.28,37.7 L150.28,39 L152.62,39 L152.62,32.76 C152.36,29.9 150.15,28.21 147.42,28.21 L147.42,28.21 Z M147.16,37.18 C146.38,37.18 145.21,36.79 145.21,35.75 C145.21,34.45 146.64,34.06 147.81,34.06 C148.85,34.06 149.37,34.32 150.02,34.58 C149.76,36.14 148.46,37.18 147.16,37.18 L147.16,37.18 Z M160.81,28.6 L158.08,35.62 L157.95,35.62 L155.09,28.6 L152.49,28.6 L156.78,38.48 L154.31,43.94 L156.78,43.94 L163.41,28.6 L160.81,28.6 L160.81,28.6 Z M138.97,39 L141.44,39 L141.44,22.75 L138.97,22.75 L138.97,39 Z"/>
        <g fill="#FFF" transform="translate(13 9.1)">
          <path stroke="#4A4344" d="M0.52,0.65 C0.13,1.04 0,1.69 0,2.47 L0,31.2 C0,31.98 0.26,32.63 0.65,33.02 L0.78,33.15 L16.9,17.03 L16.9,16.77 L0.52,0.65 Z"/>
          <path stroke="#4A4344" d="M22.1,22.49 L16.77,17.16 L16.77,16.77 L22.1,11.44 L22.23,11.57 L28.6,15.21 C30.42,16.25 30.42,17.94 28.6,18.98 L22.1,22.49 L22.1,22.49 Z"/>
          <path stroke="#4A4344" d="M22.23 22.36L16.77 16.9.52 33.15C1.17 33.8 2.08 33.8 3.25 33.28L22.23 22.36M3.25.65C2.08-2.22044605e-16 1.17.13.52.78L16.77 16.9 22.23 11.44 3.25.65z"/>
          <path d="M3.25,0.78 L28.6,15.21 C29.38,15.73 29.9,16.25 29.9,16.9 C29.9,16.25 29.51,15.6 28.6,15.08 L3.25,0.65 C1.43,-0.39 0,0.39 0,2.47 L0,2.6 C0,0.65 1.43,-0.26 3.25,0.78 Z" opacity=".25"/>
        </g>
      </g>
    </g>
    <g fill-rule="nonzero" transform="translate(0 52)">
      <path fill="#9C9183" d="M173.25286,45.5761573 C173.252861,46.8897253 172.730556,48.1494175 171.800992,49.0777654 C170.871429,50.0061133 169.610858,50.5269645 168.296943,50.5255926 L6.11281467,50.5255926 C3.37552698,50.5284492 1.1540019,48.3127192 1.15043456,45.5761573 L1.15043456,6.10602652 C1.15400001,3.36841997 3.37448062,1.15084046 6.11281467,1.15012986 L168.29565,1.15012986 C169.610265,1.15012982 170.871018,1.67230867 171.80047,2.60175675 C172.729922,3.53120483 173.25191,4.79175985 173.251567,6.10602652 L173.25286,45.5761573 Z"/>
      <path fill="#9C9183" d="M168.867748,52 L6.13354721,52 C2.75042602,51.999289 0.00643715431,49.252866 0,45.8610118 L0,6.14549001 C0.00500478235,2.75198734 2.74878539,0.00286424419 6.13354721,0 L168.866451,0 C172.250622,0.00429324094 174.993568,2.75258078 174.999998,6.14549001 L174.999998,45.8610118 C175.002592,49.247143 172.246452,52 168.867748,52 L168.867748,52 Z"/>
      <path fill="#9C9183" d="M173.25286,45.5761573 C173.252861,46.8897253 172.730556,48.1494175 171.800992,49.0777654 C170.871429,50.0061133 169.610858,50.5269645 168.296943,50.5255926 L6.11281467,50.5255926 C3.37552698,50.5284492 1.1540019,48.3127192 1.15043456,45.5761573 L1.15043456,6.10602652 C1.15400001,3.36841997 3.37448062,1.15084046 6.11281467,1.15012986 L168.29565,1.15012986 C169.610265,1.15012982 170.871018,1.67230867 171.80047,2.60175675 C172.729922,3.53120483 173.25191,4.79175985 173.251567,6.10602652 L173.25286,45.5761573 Z"/>
      <path fill="#FFF" d="M38.9441489,25.5664823 C38.9066629,21.4014614 42.3553813,19.3751652 42.5130813,19.2808287 C40.5599278,16.4339342 37.5326045,16.0449577 36.4687757,16.013943 C33.926186,15.7464409 31.4598611,17.5349574 30.1646528,17.5349574 C28.843592,17.5349574 26.8490745,16.0397886 24.6994423,16.0837262 C21.9332289,16.1263714 19.3453974,17.7275073 17.9260972,20.2138554 C14.9970133,25.2834728 17.1815463,32.7334713 19.9878311,36.8312935 C21.3916198,38.8394978 23.0319585,41.0790203 25.1790055,41.0001912 C27.279518,40.9149007 28.0641402,39.6626806 30.5989742,39.6626806 C33.1105408,39.6626806 33.847336,41.0001912 36.0370396,40.9497923 C38.2913743,40.9149007 39.7106744,38.9338343 41.0653434,36.9088304 C42.6875854,34.6098629 43.3390675,32.3432025 43.3649199,32.2268972 C43.313215,32.2088053 38.9880981,30.5572705 38.9441489,25.5664823 L38.9441489,25.5664823 Z M34.807755,13.3182454 C35.9375076,11.9057825 36.7104962,9.98416104 36.4959208,8.03410939 C34.8607525,8.10647712 32.8158228,9.16485505 31.6382431,10.5463032 C30.5963889,11.7636316 29.6657003,13.7589131 29.9061282,15.6353047 C31.7429456,15.7722865 33.6288827,14.7087394 34.807755,13.3182454 L34.807755,13.3182454 Z"/>
      <path fill="#FFF" d="M15.0784485,18.7432399 L12.1429015,18.7432399 L10.5348783,13.6917145 L4.945576,13.6917145 L3.41381762,18.7432399 L0.555827935,18.7432399 L6.09471794,1.54556777 L9.51499868,1.54556777 L15.0784485,18.7432399 L15.0784485,18.7432399 Z M10.0501446,11.5723741 L8.59594365,7.08169848 C8.4421215,6.62293882 8.15257393,5.54259212 7.72859355,3.84195066 L7.67688862,3.84195066 C7.50626237,4.57338156 7.2335189,5.65372826 6.85995082,7.08169848 L5.43030967,11.5723741 L10.0501446,11.5723741 Z M29.2947174,12.3903878 C29.2947174,14.49939 28.7220854,16.1664321 27.5755287,17.390222 C26.549186,18.4796147 25.273367,19.0236649 23.7519496,19.0236649 C22.1090256,19.0236649 20.9275681,18.4382617 20.2101623,17.2648708 L20.2101623,23.7715043 L17.4542898,23.7715043 L17.4542898,10.4183674 C17.4542898,9.0937796 17.419389,7.73559254 17.3521726,6.3425139 L19.7758409,6.3425139 L19.929663,8.30807291 L19.981368,8.30807291 C20.900423,6.82711918 22.2951633,6.08664231 24.1668816,6.08664231 C25.6301309,6.08664231 26.8516598,6.6642918 27.8288828,7.82088307 C28.8048133,8.9800589 29.2947174,10.5023656 29.2947174,12.3903878 Z M26.4871401,12.4911857 C26.4871401,11.2841955 26.2156892,10.2891393 25.6702023,9.50472488 C25.074303,8.68929573 24.2741693,8.28093502 23.2710938,8.28093502 C22.591174,8.28093502 21.9733002,8.50837643 21.4213501,8.95679785 C20.8681074,9.40909611 20.5061729,9.99966841 20.3368393,10.7310993 C20.2612454,11.0046385 20.2182902,11.2861588 20.2088696,11.5697895 L20.2088696,13.638731 C20.2088696,14.5394507 20.485491,15.300604 21.0387337,15.9234833 C21.5919764,16.5437781 22.3106748,16.8552178 23.194829,16.8552178 C24.2328054,16.8552178 25.0406948,16.4533184 25.6184973,15.6559812 C26.1975925,14.8560594 26.4871401,13.8015584 26.4871401,12.4911857 L26.4871401,12.4911857 Z M43.5613987,12.3903878 C43.5613987,14.49939 42.9887666,16.1664321 41.8422099,17.390222 C40.8145746,18.4796147 39.5400482,19.0236649 38.0173382,19.0236649 C36.3744142,19.0236649 35.1929567,18.4382617 34.4755508,17.2648708 L34.4755508,23.7715043 L31.7196784,23.7715043 L31.7196784,10.4183674 C31.7196784,9.0937796 31.6847776,7.73559254 31.6175612,6.3425139 L34.0412295,6.3425139 L34.1950516,8.30807291 L34.2467566,8.30807291 C35.164519,6.82711918 36.5592593,6.08664231 38.4322702,6.08664231 C39.8942269,6.08664231 41.1157557,6.6642918 42.0955641,7.82088307 C43.0702019,8.9800589 43.5613987,10.5023656 43.5613987,12.3903878 L43.5613987,12.3903878 Z M40.7525286,12.4911857 C40.7525286,11.2841955 40.4797852,10.2891393 39.9342982,9.50472488 C39.338399,8.68929573 38.5408505,8.28093502 37.537775,8.28093502 C36.8578552,8.28093502 36.2399814,8.50837643 35.6854461,8.95679785 C35.1322034,9.40909611 34.7715615,9.99966841 34.6022279,10.7310993 C34.5182074,11.0722614 34.4729656,11.3501018 34.4729656,11.5697895 L34.4729656,13.638731 C34.4729656,14.5394507 34.7508796,15.300604 35.301537,15.9234833 C35.8547797,16.5424858 36.5734781,16.8552178 37.4602176,16.8552178 C38.4994866,16.8552178 39.307376,16.4533184 39.8838859,15.6559812 C40.4629811,14.8560594 40.7525286,13.8015584 40.7525286,12.4911857 L40.7525286,12.4911857 Z M59.5123678,13.9191559 C59.5123678,15.38331 59.000489,16.5735006 57.9831946,17.4923122 C56.863783,18.495122 55.3010017,18.9978192 53.2974359,18.9978192 C51.4463996,18.9978192 49.9624683,18.6411498 48.8430567,17.9265185 L49.4803199,15.6301356 C50.6889225,16.3460591 52.0164464,16.7027286 53.461599,16.7027286 C54.500868,16.7027286 55.3087574,16.4675335 55.8852673,16.0010202 C56.4630699,15.5332146 56.7552027,14.9077507 56.7552027,14.1272131 C56.7552027,13.4280892 56.5134822,12.842686 56.0390895,12.3658345 C55.5621116,11.8902751 54.7736115,11.4470228 53.6658335,11.0399544 C50.6540216,9.91696244 49.1468231,8.27447361 49.1468231,6.11378021 C49.1468231,4.70260963 49.6793838,3.54731065 50.74192,2.6440064 C51.8044562,1.74199444 53.2134154,1.29098846 54.9662123,1.29098846 C56.5315789,1.29098846 57.8358356,1.5636597 58.8712267,2.1077099 L58.1796734,4.35369383 C57.2050355,3.82644329 56.1050133,3.56281801 54.8744361,3.56281801 C53.9023835,3.56281801 53.1397359,3.80188995 52.5942489,4.27744927 C52.1353677,4.70260963 51.9026956,5.22081421 51.9026956,5.83593985 C51.9026956,6.51438724 52.1676833,7.07782164 52.6950735,7.51978166 C53.1526621,7.92685009 53.9876966,8.37010239 55.1950066,8.8456617 C56.6763527,9.44269541 57.7647413,10.1379424 58.4614652,10.9365719 C59.1633595,11.7352014 59.5123678,12.7315499 59.5123678,13.9191559 Z M68.6473353,8.41016309 L65.609671,8.41016309 L65.609671,14.4308991 C65.609671,15.9622518 66.1448169,16.7259897 67.2176941,16.7259897 C67.7101835,16.7259897 68.1186524,16.6846367 68.4418082,16.5980539 L68.518073,18.6902564 C67.9751713,18.8931445 67.2603507,18.9952347 66.3749038,18.9952347 C65.2865152,18.9952347 64.4359692,18.6631185 63.8219732,17.9988862 C63.2105625,17.3346539 62.9029182,16.2220002 62.9029182,14.6557559 L62.9029182,8.40499397 L61.0932458,8.40499397 L61.0932458,6.33734478 L62.9029182,6.33734478 L62.9029182,4.06680751 L65.609671,3.25008607 L65.609671,6.33734478 L68.6473353,6.33734478 L68.6473353,8.41016309 L68.6473353,8.41016309 Z M82.325873,12.4407867 C82.325873,14.3469008 81.780386,15.9118528 80.6919974,17.1356427 C79.5531964,18.3956164 78.0382421,19.0236649 76.1497198,19.0236649 C74.3271212,19.0236649 72.8780907,18.4201697 71.7974578,17.2144718 C70.7168249,16.0061893 70.1765084,14.4838826 70.1765084,12.6475517 C70.1765084,10.7259302 70.7349216,9.15193224 71.8478701,7.92814237 C72.9634038,6.70306023 74.4654319,6.09051915 76.3539542,6.09051915 C78.1739676,6.09051915 79.6359243,6.69530654 80.7424097,7.90229676 C81.7997754,9.07310311 82.325873,10.5850716 82.325873,12.4407867 Z M79.4691759,12.5041085 C79.4691759,11.3681937 79.2235775,10.393814 78.7310881,9.57838488 C78.1532856,8.59366696 77.3260068,8.10130799 76.2544222,8.10130799 C75.1505221,8.10130799 74.303854,8.59366696 73.7273441,9.57838488 C73.233562,10.393814 72.9879637,11.3849934 72.9879637,12.5557997 C72.9879637,13.6930068 73.233562,14.669971 73.7273441,15.4828156 C74.3232433,16.4675335 75.1544,16.9598925 76.231155,16.9598925 C77.2846429,16.9598925 78.110629,16.4571953 78.7078209,15.4582623 C79.2145292,14.6234489 79.4691759,13.6426078 79.4691759,12.5041085 Z M91.287629,8.7655403 C91.0009982,8.71380649 90.710249,8.68828617 90.4189862,8.68929573 C89.4495189,8.68929573 88.6997975,9.0537189 88.1724073,9.78773437 C87.7148187,10.4338747 87.4847318,11.2505962 87.4847318,12.2366064 L87.4847318,18.7432399 L84.7288593,18.7432399 L84.7288593,10.2477863 C84.731317,8.9460245 84.7045961,7.64437106 84.6487167,6.34380618 L87.0491178,6.34380618 L87.1499424,8.71643363 L87.2262072,8.71643363 C87.51834,7.90100448 87.9759286,7.24323358 88.6041434,6.75087461 C89.1791712,6.32064556 89.8778479,6.0876639 90.5960756,6.08664231 C90.8507224,6.08664231 91.0808093,6.10473424 91.2850437,6.13704126 L91.287629,8.7655403 L91.287629,8.7655403 Z M103.61279,11.9561815 C103.619779,12.3750092 103.586011,12.7935238 103.511966,13.2058169 L95.2443483,13.2058169 C95.2753712,14.4308991 95.6760844,15.3690949 96.4439025,16.0152353 C97.1406264,16.5915925 98.0415847,16.8810634 99.1480701,16.8810634 C100.372184,16.8810634 101.489011,16.6872213 102.493379,16.2956602 L102.925115,18.2069434 C101.751413,18.7186866 100.365721,18.9732659 98.7667463,18.9732659 C96.8433231,18.9732659 95.3335393,18.4072469 94.2348096,17.2777936 C93.1386653,16.1470479 92.5893004,14.6273258 92.5893004,12.7237962 C92.5893004,10.8551583 93.0998866,9.29795996 94.1223514,8.05607817 C95.1926434,6.73019812 96.6390886,6.0672581 98.459102,6.0672581 C100.2468,6.0672581 101.600176,6.73019812 102.519231,8.05607817 C103.246978,9.10670241 103.61279,10.4093214 103.61279,11.9561815 L103.61279,11.9561815 Z M100.984888,11.2415502 C101.004277,10.4235365 100.82331,9.71924349 100.449742,9.12350206 C99.9727636,8.3558873 99.2385537,7.9733722 98.2548675,7.9733722 C97.3539092,7.9733722 96.6196993,8.34684133 96.0612861,9.09636417 C95.6024049,9.69210559 95.3296614,10.4080291 95.2456409,11.2389656 L100.984888,11.2415502 Z" transform="translate(54.29 21.969)"/>
      <path fill="#FFF" d="M2.85798969,9.68047506 C2.09146418,9.68047506 1.42834853,9.64299892 0.876398466,9.57967717 L0.876398466,1.26514285 C1.64836409,1.14592365 2.4284643,1.08716159 3.20958317,1.08939267 C6.37004666,1.08939267 7.82554028,2.6440064 7.82554028,5.17816895 C7.82554028,8.10130799 6.10635155,9.68047506 2.85798969,9.68047506 Z M3.32074876,2.15552428 C2.89418313,2.15552428 2.53095604,2.1813699 2.22977486,2.24339937 L2.22977486,8.5639445 C2.39264537,8.58979011 2.70546016,8.60142064 3.14495202,8.60142064 C5.21573423,8.60142064 6.3946065,7.4228606 6.3946065,5.21564509 C6.3946065,3.24750151 5.32819244,2.15552428 3.32074876,2.15552428 L3.32074876,2.15552428 Z M12.3613548,9.74379682 C10.5801201,9.74379682 9.42580769,8.41403993 9.42580769,6.60872373 C9.42580769,4.72716297 10.60468,3.38577555 12.4621794,3.38577555 C14.2175615,3.38577555 15.3977264,4.65221068 15.3977264,6.50921811 C15.3977264,8.41403993 14.1813681,9.74379682 12.3613548,9.74379682 Z M12.4130597,4.3756626 C11.434544,4.3756626 10.8076218,5.29059737 10.8076218,6.56995531 C10.8076218,7.82475991 11.4474702,8.73969468 12.4001335,8.73969468 C13.3527967,8.73969468 13.9926451,7.76143816 13.9926451,6.54410969 C13.9926451,5.30352018 13.3657229,4.3756626 12.4130597,4.3756626 Z M25.5551588,3.51112679 L23.6485397,9.60552278 L22.4063289,9.60552278 L21.6165362,6.95893181 C21.4201594,6.31155789 21.2566493,5.65467144 21.126632,4.99078824 L21.1007796,4.99078824 C21.0012476,5.65502054 20.8125246,6.32054513 20.612168,6.95893181 L19.771963,9.60552278 L18.516826,9.60552278 L16.7226651,3.51112679 L18.1148202,3.51112679 L18.8050809,6.40842022 C18.9679515,7.09849813 19.1049695,7.74980763 19.2187203,8.36493326 L19.2445728,8.36493326 C19.3441048,7.85189781 19.5069753,7.21092656 19.7461106,6.42134302 L20.612168,3.51241907 L21.7160682,3.51241907 L22.5446396,6.35931355 C22.7449962,7.04939147 22.9078667,7.72654658 23.0345437,8.36622555 L23.0707372,8.36622555 C23.1586356,7.73946938 23.2969462,7.0739448 23.4843766,6.35931355 L24.2250496,3.51241907 L25.5551588,3.51112679 L25.5551588,3.51112679 Z M32.5741023,9.60552278 L31.2194332,9.60552278 L31.2194332,6.10602652 C31.2194332,5.02826438 30.8057939,4.48809103 29.9901487,4.48809103 C29.1874297,4.48809103 28.6354797,5.17816895 28.6354797,5.98067529 L28.6354797,9.60552278 L27.2808106,9.60552278 L27.2808106,5.25312123 C27.2808106,4.71424016 27.2678844,4.13659067 27.2303983,3.5098345 L28.4221968,3.5098345 L28.4855354,4.45061489 L28.5230214,4.45061489 C28.8875412,3.79930539 29.6269216,3.38577555 30.455493,3.38577555 C31.7351899,3.38577555 32.5753949,4.36403208 32.5753949,5.95612196 L32.5741023,9.60552278 L32.5741023,9.60552278 Z M36.309783,9.60552278 L34.9538214,9.60552278 L34.9538214,0.714631252 L36.309783,0.714631252 L36.309783,9.60552278 Z M41.2488959,9.74379682 C39.4689539,9.74379682 38.3133488,8.41403993 38.3133488,6.60872373 C38.3133488,4.72716297 39.4922211,3.38577555 41.3484279,3.38577555 C43.1051027,3.38577555 44.283975,4.65221068 44.283975,6.50921811 C44.2852676,8.41403993 43.0676166,9.74379682 41.2488959,9.74379682 Z M41.2993082,4.3756626 C40.3207925,4.3756626 39.6938703,5.29059737 39.6938703,6.56995531 C39.6938703,7.82475991 40.3350114,8.73969468 41.2850894,8.73969468 C42.2390452,8.73969468 42.877601,7.76143816 42.877601,6.54410969 C42.8788937,5.30352018 42.2532641,4.3756626 41.2993082,4.3756626 L41.2993082,4.3756626 Z M49.6250936,9.60552278 L49.5268543,8.90381434 L49.4906608,8.90381434 C49.0770214,9.46854102 48.4733665,9.74379682 47.7081336,9.74379682 C46.6158671,9.74379682 45.8402932,8.97876662 45.8402932,7.95011115 C45.8402932,6.44589636 47.1445499,5.66794335 49.4027625,5.66794335 L49.4027625,5.55551492 C49.4027625,4.75300858 48.9774895,4.35110927 48.1372845,4.35110927 C47.5362147,4.35110927 47.0088245,4.50230612 46.5447728,4.80340753 L46.2694441,3.9130261 C46.8330277,3.56152573 47.5362147,3.38577555 48.3622009,3.38577555 C49.9547125,3.38577555 50.7587241,4.22575804 50.7587241,5.90701529 L50.7587241,8.15170694 C50.7587241,8.76683258 50.7858692,9.24368417 50.8466225,9.60681506 L49.6250936,9.60552278 L49.6250936,9.60552278 Z M49.4389559,6.56995531 C47.9343426,6.56995531 47.1794507,6.93437848 47.1794507,7.7989143 C47.1794507,8.43859327 47.5685303,8.75132521 48.1088467,8.75132521 C48.7978149,8.75132521 49.4389559,8.22536694 49.4389559,7.51073569 L49.4389559,6.56995531 L49.4389559,6.56995531 Z M57.3368831,9.60552278 L57.2735446,8.62726626 L57.2360585,8.62726626 C56.8469789,9.36645084 56.1929116,9.74379682 55.2790271,9.74379682 C53.8093146,9.74379682 52.720926,8.45151607 52.720926,6.63327707 C52.720926,4.72716297 53.849386,3.38448327 55.3901927,3.38448327 C56.2058379,3.38448327 56.7836404,3.65973907 57.1093814,4.21283523 L57.1365265,4.21283523 L57.1365265,0.714631252 L58.4924882,0.714631252 L58.4924882,7.96303395 C58.4924882,8.55231397 58.506707,9.10411785 58.5429005,9.60552278 L57.3368831,9.60552278 Z M57.1365265,6.01944371 C57.1365265,5.16653842 56.5716502,4.43898436 55.7094706,4.43898436 C54.7051025,4.43898436 54.0911065,5.32936579 54.0911065,6.58287812 C54.0911065,7.81183711 54.7283697,8.65311187 55.6823255,8.65311187 C56.5341641,8.65311187 57.1365265,7.912635 57.1365265,7.03517638 L57.1365265,6.01944371 Z M67.0897244,9.74379682 C65.3097824,9.74379682 64.15547,8.41403993 64.15547,6.60872373 C64.15547,4.72716297 65.3343422,3.38577555 67.190549,3.38577555 C68.9472238,3.38577555 70.1260961,4.65221068 70.1260961,6.50921811 C70.1273887,8.41403993 68.9110304,9.74379682 67.0897244,9.74379682 Z M67.1401367,4.3756626 C66.1629137,4.3756626 65.5359915,5.29059737 65.5359915,6.56995531 C65.5359915,7.82475991 66.1758399,8.73969468 67.1272105,8.73969468 C68.0811663,8.73969468 68.7197222,7.76143816 68.7197222,6.54410969 C68.7223074,5.30352018 68.0953852,4.3756626 67.1401367,4.3756626 Z M77.4113199,9.60552278 L76.0553583,9.60552278 L76.0553583,6.10602652 C76.0553583,5.02826438 75.6417189,4.48809103 74.8260737,4.48809103 C74.0233548,4.48809103 73.4726973,5.17816895 73.4726973,5.98067529 L73.4726973,9.60552278 L72.1167357,9.60552278 L72.1167357,5.25312123 C72.1167357,4.71424016 72.1038095,4.13659067 72.0663234,3.5098345 L73.2581219,3.5098345 L73.3214604,4.45061489 L73.3589465,4.45061489 C73.7221736,3.79930539 74.4628466,3.38448327 75.2901254,3.38448327 C76.5698223,3.38448327 77.4113199,4.3627398 77.4113199,5.95482967 L77.4113199,9.60552278 Z M86.5256054,4.52685945 L85.035211,4.52685945 L85.035211,7.48618236 C85.035211,8.23958203 85.2963209,8.61563573 85.8237111,8.61563573 C86.0628464,8.61563573 86.263203,8.58979011 86.4247808,8.55231397 L86.4622669,9.58096945 C86.1998644,9.68176734 85.8482709,9.73216629 85.4113643,9.73216629 C84.3436576,9.73216629 83.7051018,9.14288627 83.7051018,7.59990306 L83.7051018,4.52685945 L82.8157771,4.52685945 L82.8157771,3.51112679 L83.7051018,3.51112679 L83.7051018,2.39459622 L85.035211,1.99269691 L85.035211,3.5098345 L86.5256054,3.5098345 L86.5256054,4.52685945 L86.5256054,4.52685945 Z M93.6970784,9.60552278 L92.343702,9.60552278 L92.343702,6.13187214 C92.343702,5.04118719 91.9313553,4.48938331 91.1144175,4.48938331 C90.4125231,4.48938331 89.7584558,4.9662349 89.7584558,5.93156862 L89.7584558,9.60552278 L88.4050794,9.60552278 L88.4050794,0.714631252 L89.7584558,0.714631252 L89.7584558,4.3756626 L89.7856009,4.3756626 C90.2121665,3.7114303 90.8300404,3.38448327 91.6185405,3.38448327 C92.9085783,3.38448327 93.6970784,4.38729313 93.6970784,5.98067529 L93.6970784,9.60552278 L93.6970784,9.60552278 Z M101.044348,6.88397953 L96.9790485,6.88397953 C97.004901,8.03798624 97.7688412,8.68929573 98.8998864,8.68929573 C99.5009562,8.68929573 100.054199,8.58849783 100.54281,8.40111713 L100.753508,9.34189751 C100.176998,9.59259997 99.4983709,9.7179512 98.7085782,9.7179512 C96.8019591,9.7179512 95.6734992,8.51354555 95.6734992,6.64619987 C95.6734992,4.77756192 96.8291042,3.37285275 98.5560487,3.37285275 C100.11366,3.37285275 101.090883,4.52685945 101.090883,6.27014618 C101.099642,6.47587602 101.084022,6.68191948 101.044348,6.88397953 L101.044348,6.88397953 Z M99.8021374,5.91864581 C99.8021374,4.97786543 99.3277447,4.31363313 98.4616872,4.31363313 C97.6835281,4.31363313 97.0682395,4.99078824 96.9803411,5.91864581 L99.8021374,5.91864581 L99.8021374,5.91864581 Z" transform="translate(55.583 7.754)"/>
    </g>
    <g fill-rule="nonzero" transform="translate(180 52)">
      <path fill="#9C9183" d="M168.518519,52 L6.48148148,52 C2.85185185,52 0,49.14 0,45.5 L0,6.5 C0,2.86 2.85185185,0 6.48148148,0 L168.518519,0 C172.148148,0 175,2.86 175,6.5 L175,45.5 C175,49.14 172.148148,52 168.518519,52 Z"/>
      <path fill="#9C9183" d="M168.518519,1.04 C171.5,1.04 173.962963,3.51 173.962963,6.5 L173.962963,45.5 C173.962963,48.49 171.5,50.96 168.518519,50.96 L6.48148148,50.96 C3.5,50.96 1.03703704,48.49 1.03703704,45.5 L1.03703704,6.5 C1.03703704,3.51 3.5,1.04 6.48148148,1.04 L168.518519,1.04 L168.518519,1.04 Z M168.518519,0 L6.48148148,0 C2.85185185,0 0,2.99 0,6.5 L0,45.5 C0,49.14 2.85185185,52 6.48148148,52 L168.518519,52 C172.148148,52 175,49.14 175,45.5 L175,6.5 C175,2.99 172.148148,0 168.518519,0 Z"/>
      <path fill="#FFF" stroke="#FFF" stroke-width=".2" d="M61.62,13.26 C61.62,14.3 61.36,15.21 60.71,15.86 C59.93,16.64 59.02,17.03 57.85,17.03 C56.68,17.03 55.77,16.64 54.99,15.86 C54.21,15.08 53.82,14.17 53.82,13 C53.82,11.83 54.21,10.92 54.99,10.14 C55.77,9.36 56.68,8.97 57.85,8.97 C58.37,8.97 58.89,9.1 59.41,9.36 C59.93,9.62 60.32,9.88 60.58,10.27 L59.93,10.92 C59.41,10.27 58.76,10.01 57.85,10.01 C57.07,10.01 56.29,10.27 55.77,10.92 C55.12,11.44 54.86,12.22 54.86,13.13 C54.86,14.04 55.12,14.82 55.77,15.34 C56.42,15.86 57.07,16.25 57.85,16.25 C58.76,16.25 59.41,15.99 60.06,15.34 C60.45,14.95 60.71,14.43 60.71,13.78 L57.85,13.78 L57.85,12.74 L61.62,12.74 L61.62,13.26 L61.62,13.26 Z M67.6,10.01 L64.09,10.01 L64.09,12.48 L67.34,12.48 L67.34,13.39 L64.09,13.39 L64.09,15.86 L67.6,15.86 L67.6,16.9 L63.05,16.9 L63.05,9.1 L67.6,9.1 L67.6,10.01 Z M71.89,16.9 L70.85,16.9 L70.85,10.01 L68.64,10.01 L68.64,9.1 L74.1,9.1 L74.1,10.01 L71.89,10.01 L71.89,16.9 Z M77.87,16.9 L77.87,9.1 L78.91,9.1 L78.91,16.9 L77.87,16.9 Z M83.33,16.9 L82.29,16.9 L82.29,10.01 L80.08,10.01 L80.08,9.1 L85.41,9.1 L85.41,10.01 L83.2,10.01 L83.2,16.9 L83.33,16.9 Z M95.68,15.86 C94.9,16.64 93.99,17.03 92.82,17.03 C91.65,17.03 90.74,16.64 89.96,15.86 C89.18,15.08 88.79,14.17 88.79,13 C88.79,11.83 89.18,10.92 89.96,10.14 C90.74,9.36 91.65,8.97 92.82,8.97 C93.99,8.97 94.9,9.36 95.68,10.14 C96.46,10.92 96.85,11.83 96.85,13 C96.85,14.17 96.46,15.08 95.68,15.86 Z M90.74,15.21 C91.26,15.73 92.04,16.12 92.82,16.12 C93.6,16.12 94.38,15.86 94.9,15.21 C95.42,14.69 95.81,13.91 95.81,13 C95.81,12.09 95.55,11.31 94.9,10.79 C94.38,10.27 93.6,9.88 92.82,9.88 C92.04,9.88 91.26,10.14 90.74,10.79 C90.22,11.31 89.83,12.09 89.83,13 C89.83,13.91 90.09,14.69 90.74,15.21 Z M98.28,16.9 L98.28,9.1 L99.45,9.1 L103.22,15.21 L103.22,9.1 L104.26,9.1 L104.26,16.9 L103.22,16.9 L99.19,10.53 L99.19,16.9 L98.28,16.9 L98.28,16.9 Z"/>
      <path fill="#FFF" d="M88.53,28.34 C85.41,28.34 82.94,30.68 82.94,33.93 C82.94,37.05 85.41,39.52 88.53,39.52 C91.65,39.52 94.12,37.18 94.12,33.93 C94.12,30.55 91.65,28.34 88.53,28.34 Z M88.53,37.18 C86.84,37.18 85.41,35.75 85.41,33.8 C85.41,31.85 86.84,30.42 88.53,30.42 C90.22,30.42 91.65,31.72 91.65,33.8 C91.65,35.75 90.22,37.18 88.53,37.18 Z M76.44,28.34 C73.32,28.34 70.85,30.68 70.85,33.93 C70.85,37.05 73.32,39.52 76.44,39.52 C79.56,39.52 82.03,37.18 82.03,33.93 C82.03,30.55 79.56,28.34 76.44,28.34 Z M76.44,37.18 C74.75,37.18 73.32,35.75 73.32,33.8 C73.32,31.85 74.75,30.42 76.44,30.42 C78.13,30.42 79.56,31.72 79.56,33.8 C79.56,35.75 78.13,37.18 76.44,37.18 Z M62.01,30.03 L62.01,32.37 L67.6,32.37 C67.47,33.67 66.95,34.71 66.3,35.36 C65.52,36.14 64.22,37.05 62.01,37.05 C58.5,37.05 55.9,34.32 55.9,30.81 C55.9,27.3 58.63,24.57 62.01,24.57 C63.83,24.57 65.26,25.35 66.3,26.26 L67.99,24.57 C66.56,23.27 64.74,22.23 62.14,22.23 C57.46,22.23 53.43,26.13 53.43,30.81 C53.43,35.49 57.46,39.39 62.14,39.39 C64.74,39.39 66.56,38.61 68.12,36.92 C69.68,35.36 70.2,33.15 70.2,31.46 C70.2,30.94 70.2,30.42 70.07,30.03 L62.01,30.03 L62.01,30.03 Z M121.03,31.85 C120.51,30.55 119.21,28.34 116.35,28.34 C113.49,28.34 111.15,30.55 111.15,33.93 C111.15,37.05 113.49,39.52 116.61,39.52 C119.08,39.52 120.64,37.96 121.16,37.05 L119.34,35.75 C118.69,36.66 117.91,37.31 116.61,37.31 C115.31,37.31 114.53,36.79 113.88,35.62 L121.29,32.5 L121.03,31.85 L121.03,31.85 Z M113.49,33.67 C113.49,31.59 115.18,30.42 116.35,30.42 C117.26,30.42 118.17,30.94 118.43,31.59 L113.49,33.67 Z M107.38,39 L109.85,39 L109.85,22.75 L107.38,22.75 L107.38,39 Z M103.48,29.51 C102.83,28.86 101.79,28.21 100.49,28.21 C97.76,28.21 95.16,30.68 95.16,33.8 C95.16,36.92 97.63,39.26 100.49,39.26 C101.79,39.26 102.83,38.61 103.35,37.96 L103.48,37.96 L103.48,38.74 C103.48,40.82 102.31,41.99 100.49,41.99 C99.06,41.99 98.02,40.95 97.76,40.04 L95.68,40.95 C96.33,42.38 97.89,44.2 100.62,44.2 C103.48,44.2 105.82,42.51 105.82,38.48 L105.82,28.6 L103.48,28.6 L103.48,29.51 L103.48,29.51 Z M100.62,37.18 C98.93,37.18 97.5,35.75 97.5,33.8 C97.5,31.85 98.93,30.42 100.62,30.42 C102.31,30.42 103.61,31.85 103.61,33.8 C103.61,35.75 102.31,37.18 100.62,37.18 Z M132.34,22.75 L126.49,22.75 L126.49,39 L128.96,39 L128.96,32.89 L132.34,32.89 C135.07,32.89 137.67,30.94 137.67,27.82 C137.67,24.7 135.07,22.75 132.34,22.75 L132.34,22.75 Z M132.47,30.55 L128.96,30.55 L128.96,24.96 L132.47,24.96 C134.29,24.96 135.33,26.52 135.33,27.69 C135.2,29.12 134.16,30.55 132.47,30.55 Z M147.42,28.21 C145.6,28.21 143.78,28.99 143.13,30.68 L145.34,31.59 C145.86,30.68 146.64,30.42 147.55,30.42 C148.85,30.42 150.02,31.2 150.15,32.5 L150.15,32.63 C149.76,32.37 148.72,31.98 147.68,31.98 C145.34,31.98 143,33.28 143,35.62 C143,37.83 144.95,39.26 147.03,39.26 C148.72,39.26 149.5,38.48 150.15,37.7 L150.28,37.7 L150.28,39 L152.62,39 L152.62,32.76 C152.36,29.9 150.15,28.21 147.42,28.21 L147.42,28.21 Z M147.16,37.18 C146.38,37.18 145.21,36.79 145.21,35.75 C145.21,34.45 146.64,34.06 147.81,34.06 C148.85,34.06 149.37,34.32 150.02,34.58 C149.76,36.14 148.46,37.18 147.16,37.18 L147.16,37.18 Z M160.81,28.6 L158.08,35.62 L157.95,35.62 L155.09,28.6 L152.49,28.6 L156.78,38.48 L154.31,43.94 L156.78,43.94 L163.41,28.6 L160.81,28.6 L160.81,28.6 Z M138.97,39 L141.44,39 L141.44,22.75 L138.97,22.75 L138.97,39 Z"/>
      <g fill="#FFF" transform="translate(13 9.1)">
        <path stroke="#9C9183" d="M0.52,0.65 C0.13,1.04 0,1.69 0,2.47 L0,31.2 C0,31.98 0.26,32.63 0.65,33.02 L0.78,33.15 L16.9,17.03 L16.9,16.77 L0.52,0.65 Z"/>
        <path stroke="#9C9183" d="M22.1,22.49 L16.77,17.16 L16.77,16.77 L22.1,11.44 L22.23,11.57 L28.6,15.21 C30.42,16.25 30.42,17.94 28.6,18.98 L22.1,22.49 L22.1,22.49 Z"/>
        <path stroke="#9C9183" d="M22.23 22.36L16.77 16.9.52 33.15C1.17 33.8 2.08 33.8 3.25 33.28L22.23 22.36M3.25.65C2.08-2.22044605e-16 1.17.13.52.78L16.77 16.9 22.23 11.44 3.25.65z"/>
        <path d="M3.25,0.78 L28.6,15.21 C29.38,15.73 29.9,16.25 29.9,16.9 C29.9,16.25 29.51,15.6 28.6,15.08 L3.25,0.65 C1.43,-0.39 0,0.39 0,2.47 L0,2.6 C0,0.65 1.43,-0.26 3.25,0.78 Z" opacity=".25"/>
      </g>
    </g>
  </g>
</svg>
