<svg xmlns="http://www.w3.org/2000/svg" width="176" height="52" viewBox="0 0 176 52">
  <g fill="none">
    <path fill="#70696B" d="M169,52 L6.5,52 C2.86,52 0,49.14 0,45.5 L0,6.5 C0,2.86 2.86,0 6.5,0 L169,0 C172.64,0 175.5,2.86 175.5,6.5 L175.5,45.5 C175.5,49.14 172.64,52 169,52 Z"/>
    <path fill="#70696B" d="M169,1.04 C171.99,1.04 174.46,3.51 174.46,6.5 L174.46,45.5 C174.46,48.49 171.99,50.96 169,50.96 L6.5,50.96 C3.51,50.96 1.04,48.49 1.04,45.5 L1.04,6.5 C1.04,3.51 3.51,1.04 6.5,1.04 L169,1.04 L169,1.04 Z M169,0 L6.5,0 C2.86,0 0,2.99 0,6.5 L0,45.5 C0,49.14 2.86,52 6.5,52 L169,52 C172.64,52 175.5,49.14 175.5,45.5 L175.5,6.5 C175.5,2.99 172.64,0 169,0 Z"/>
    <path fill="#FFF" stroke="#FFF" stroke-width=".2" d="M61.62,13.26 C61.62,14.3 61.36,15.21 60.71,15.86 C59.93,16.64 59.02,17.03 57.85,17.03 C56.68,17.03 55.77,16.64 54.99,15.86 C54.21,15.08 53.82,14.17 53.82,13 C53.82,11.83 54.21,10.92 54.99,10.14 C55.77,9.36 56.68,8.97 57.85,8.97 C58.37,8.97 58.89,9.1 59.41,9.36 C59.93,9.62 60.32,9.88 60.58,10.27 L59.93,10.92 C59.41,10.27 58.76,10.01 57.85,10.01 C57.07,10.01 56.29,10.27 55.77,10.92 C55.12,11.44 54.86,12.22 54.86,13.13 C54.86,14.04 55.12,14.82 55.77,15.34 C56.42,15.86 57.07,16.25 57.85,16.25 C58.76,16.25 59.41,15.99 60.06,15.34 C60.45,14.95 60.71,14.43 60.71,13.78 L57.85,13.78 L57.85,12.74 L61.62,12.74 L61.62,13.26 L61.62,13.26 Z M67.6,10.01 L64.09,10.01 L64.09,12.48 L67.34,12.48 L67.34,13.39 L64.09,13.39 L64.09,15.86 L67.6,15.86 L67.6,16.9 L63.05,16.9 L63.05,9.1 L67.6,9.1 L67.6,10.01 Z M71.89,16.9 L70.85,16.9 L70.85,10.01 L68.64,10.01 L68.64,9.1 L74.1,9.1 L74.1,10.01 L71.89,10.01 L71.89,16.9 Z M77.87,16.9 L77.87,9.1 L78.91,9.1 L78.91,16.9 L77.87,16.9 Z M83.33,16.9 L82.29,16.9 L82.29,10.01 L80.08,10.01 L80.08,9.1 L85.41,9.1 L85.41,10.01 L83.2,10.01 L83.2,16.9 L83.33,16.9 Z M95.68,15.86 C94.9,16.64 93.99,17.03 92.82,17.03 C91.65,17.03 90.74,16.64 89.96,15.86 C89.18,15.08 88.79,14.17 88.79,13 C88.79,11.83 89.18,10.92 89.96,10.14 C90.74,9.36 91.65,8.97 92.82,8.97 C93.99,8.97 94.9,9.36 95.68,10.14 C96.46,10.92 96.85,11.83 96.85,13 C96.85,14.17 96.46,15.08 95.68,15.86 Z M90.74,15.21 C91.26,15.73 92.04,16.12 92.82,16.12 C93.6,16.12 94.38,15.86 94.9,15.21 C95.42,14.69 95.81,13.91 95.81,13 C95.81,12.09 95.55,11.31 94.9,10.79 C94.38,10.27 93.6,9.88 92.82,9.88 C92.04,9.88 91.26,10.14 90.74,10.79 C90.22,11.31 89.83,12.09 89.83,13 C89.83,13.91 90.09,14.69 90.74,15.21 Z M98.28,16.9 L98.28,9.1 L99.45,9.1 L103.22,15.21 L103.22,9.1 L104.26,9.1 L104.26,16.9 L103.22,16.9 L99.19,10.53 L99.19,16.9 L98.28,16.9 L98.28,16.9 Z"/>
    <path fill="#FFF" d="M88.53,28.34 C85.41,28.34 82.94,30.68 82.94,33.93 C82.94,37.05 85.41,39.52 88.53,39.52 C91.65,39.52 94.12,37.18 94.12,33.93 C94.12,30.55 91.65,28.34 88.53,28.34 Z M88.53,37.18 C86.84,37.18 85.41,35.75 85.41,33.8 C85.41,31.85 86.84,30.42 88.53,30.42 C90.22,30.42 91.65,31.72 91.65,33.8 C91.65,35.75 90.22,37.18 88.53,37.18 Z M76.44,28.34 C73.32,28.34 70.85,30.68 70.85,33.93 C70.85,37.05 73.32,39.52 76.44,39.52 C79.56,39.52 82.03,37.18 82.03,33.93 C82.03,30.55 79.56,28.34 76.44,28.34 Z M76.44,37.18 C74.75,37.18 73.32,35.75 73.32,33.8 C73.32,31.85 74.75,30.42 76.44,30.42 C78.13,30.42 79.56,31.72 79.56,33.8 C79.56,35.75 78.13,37.18 76.44,37.18 Z M62.01,30.03 L62.01,32.37 L67.6,32.37 C67.47,33.67 66.95,34.71 66.3,35.36 C65.52,36.14 64.22,37.05 62.01,37.05 C58.5,37.05 55.9,34.32 55.9,30.81 C55.9,27.3 58.63,24.57 62.01,24.57 C63.83,24.57 65.26,25.35 66.3,26.26 L67.99,24.57 C66.56,23.27 64.74,22.23 62.14,22.23 C57.46,22.23 53.43,26.13 53.43,30.81 C53.43,35.49 57.46,39.39 62.14,39.39 C64.74,39.39 66.56,38.61 68.12,36.92 C69.68,35.36 70.2,33.15 70.2,31.46 C70.2,30.94 70.2,30.42 70.07,30.03 L62.01,30.03 L62.01,30.03 Z M121.03,31.85 C120.51,30.55 119.21,28.34 116.35,28.34 C113.49,28.34 111.15,30.55 111.15,33.93 C111.15,37.05 113.49,39.52 116.61,39.52 C119.08,39.52 120.64,37.96 121.16,37.05 L119.34,35.75 C118.69,36.66 117.91,37.31 116.61,37.31 C115.31,37.31 114.53,36.79 113.88,35.62 L121.29,32.5 L121.03,31.85 L121.03,31.85 Z M113.49,33.67 C113.49,31.59 115.18,30.42 116.35,30.42 C117.26,30.42 118.17,30.94 118.43,31.59 L113.49,33.67 Z M107.38,39 L109.85,39 L109.85,22.75 L107.38,22.75 L107.38,39 Z M103.48,29.51 C102.83,28.86 101.79,28.21 100.49,28.21 C97.76,28.21 95.16,30.68 95.16,33.8 C95.16,36.92 97.63,39.26 100.49,39.26 C101.79,39.26 102.83,38.61 103.35,37.96 L103.48,37.96 L103.48,38.74 C103.48,40.82 102.31,41.99 100.49,41.99 C99.06,41.99 98.02,40.95 97.76,40.04 L95.68,40.95 C96.33,42.38 97.89,44.2 100.62,44.2 C103.48,44.2 105.82,42.51 105.82,38.48 L105.82,28.6 L103.48,28.6 L103.48,29.51 L103.48,29.51 Z M100.62,37.18 C98.93,37.18 97.5,35.75 97.5,33.8 C97.5,31.85 98.93,30.42 100.62,30.42 C102.31,30.42 103.61,31.85 103.61,33.8 C103.61,35.75 102.31,37.18 100.62,37.18 Z M132.34,22.75 L126.49,22.75 L126.49,39 L128.96,39 L128.96,32.89 L132.34,32.89 C135.07,32.89 137.67,30.94 137.67,27.82 C137.67,24.7 135.07,22.75 132.34,22.75 L132.34,22.75 Z M132.47,30.55 L128.96,30.55 L128.96,24.96 L132.47,24.96 C134.29,24.96 135.33,26.52 135.33,27.69 C135.2,29.12 134.16,30.55 132.47,30.55 Z M147.42,28.21 C145.6,28.21 143.78,28.99 143.13,30.68 L145.34,31.59 C145.86,30.68 146.64,30.42 147.55,30.42 C148.85,30.42 150.02,31.2 150.15,32.5 L150.15,32.63 C149.76,32.37 148.72,31.98 147.68,31.98 C145.34,31.98 143,33.28 143,35.62 C143,37.83 144.95,39.26 147.03,39.26 C148.72,39.26 149.5,38.48 150.15,37.7 L150.28,37.7 L150.28,39 L152.62,39 L152.62,32.76 C152.36,29.9 150.15,28.21 147.42,28.21 L147.42,28.21 Z M147.16,37.18 C146.38,37.18 145.21,36.79 145.21,35.75 C145.21,34.45 146.64,34.06 147.81,34.06 C148.85,34.06 149.37,34.32 150.02,34.58 C149.76,36.14 148.46,37.18 147.16,37.18 L147.16,37.18 Z M160.81,28.6 L158.08,35.62 L157.95,35.62 L155.09,28.6 L152.49,28.6 L156.78,38.48 L154.31,43.94 L156.78,43.94 L163.41,28.6 L160.81,28.6 L160.81,28.6 Z M138.97,39 L141.44,39 L141.44,22.75 L138.97,22.75 L138.97,39 Z"/>
    <g fill="#FFF" transform="translate(13 9.1)">
      <path stroke="#70696B" d="M0.52,0.65 C0.13,1.04 0,1.69 0,2.47 L0,31.2 C0,31.98 0.26,32.63 0.65,33.02 L0.78,33.15 L16.9,17.03 L16.9,16.77 L0.52,0.65 Z"/>
      <path stroke="#70696B" d="M22.1,22.49 L16.77,17.16 L16.77,16.77 L22.1,11.44 L22.23,11.57 L28.6,15.21 C30.42,16.25 30.42,17.94 28.6,18.98 L22.1,22.49 L22.1,22.49 Z"/>
      <path stroke="#70696B" d="M22.23 22.36L16.77 16.9.52 33.15C1.17 33.8 2.08 33.8 3.25 33.28L22.23 22.36M3.25.65C2.08-2.22044605e-16 1.17.13.52.78L16.77 16.9 22.23 11.44 3.25.65z"/>
      <path d="M3.25,0.78 L28.6,15.21 C29.38,15.73 29.9,16.25 29.9,16.9 C29.9,16.25 29.51,15.6 28.6,15.08 L3.25,0.65 C1.43,-0.39 0,0.39 0,2.47 L0,2.6 C0,0.65 1.43,-0.26 3.25,0.78 Z" opacity=".25"/>
    </g>
  </g>
</svg>
