<svg xmlns="http://www.w3.org/2000/svg" width="373" height="32" viewBox="0 0 373 32">
  <path fill="#231F20" fill-rule="evenodd" stroke="#231F20" stroke-width=".1" d="M15.18,0.689 C16.5660069,0.84300077 17.6109965,1.13449785 18.315,1.5635 C19.0190035,1.99250214 19.371,2.48749719 19.371,3.0485 C19.371,3.6095028 19.2060017,4.09899791 18.876,4.517 C18.5459983,4.93500209 18.1720021,5.144 17.754,5.144 C17.159997,5.144 16.8190004,4.77550368 16.731,4.0385 C16.6429996,3.30149631 16.4725013,2.72950203 16.2195,2.3225 C15.9664987,1.91549796 15.5650027,1.55800154 15.015,1.25 L15.18,0.689 Z M8.085,6.365 L8.085,13.823 C8.085,18.2010219 7.5350055,21.7484864 6.435,24.4655 C5.3349945,27.1825136 3.61901166,29.3769916 1.287,31.049 L0.924,30.686 C2.64000858,28.8599909 3.8884961,26.7260122 4.6695,24.284 C5.4505039,21.8419878 5.841,18.3330229 5.841,13.757 L5.841,6.794 C5.841,5.64999428 5.80800033,4.50600572 5.742,3.362 L8.943,5.474 L26.169,5.474 L28.116,3.164 L30.162,5.606 C30.4040012,5.87000132 30.525,6.06249939 30.525,6.1835 C30.525,6.3045006 30.327002,6.365 29.931,6.365 L8.085,6.365 Z M16.863,13.691 L16.863,10.622 L12.573,10.622 C11.6709955,10.622 10.9450028,10.7319989 10.395,10.952 L9.207,9.566 C10.0430042,9.69800066 10.9449952,9.764 11.913,9.764 L16.863,9.764 C16.863,8.53199384 16.8190004,7.46500451 16.731,6.563 L19.404,7.619 C19.602001,7.70700044 19.701,7.79499956 19.701,7.883 C19.701,7.97100044 19.602001,8.08099934 19.404,8.213 L18.942,8.543 L18.942,9.764 L24.024,9.764 L25.014,8.279 L27.423,9.83 C27.5990009,9.91800044 27.687,10.0114995 27.687,10.1105 C27.687,10.2095005 27.5990009,10.3139994 27.423,10.424 L26.565,11.051 L26.565,13.691 L27.951,13.691 L29.733,11.546 L31.845,14.021 C31.9990008,14.1970009 32.076,14.3344995 32.076,14.4335 C32.076,14.5325005 31.9220015,14.582 31.614,14.582 L26.565,14.582 C26.565,15.6820055 26.5869998,16.528997 26.631,17.123 L26.73,18.674 C26.73,19.0260018 26.427503,19.3834982 25.8225,19.7465 C25.217497,20.1095018 24.816001,20.291 24.618,20.291 C24.419999,20.291 24.321,20.1480014 24.321,19.862 L24.321,18.311 L18.942,18.311 C18.9860002,18.7290021 19.0189999,19.1689977 19.041,19.631 C19.041,20.1590026 18.7330031,20.5439988 18.117,20.786 C17.5009969,21.0280012 17.088501,21.149 16.8795,21.149 C16.670499,21.149 16.566,20.9290022 16.566,20.489 L16.731,18.311 L12.078,18.311 C11.1759955,18.311 10.4390029,18.4209989 9.867,18.641 L8.679,17.255 C9.49300407,17.3650005 10.3949951,17.42 11.385,17.42 L16.731,17.42 C16.7970003,16.3639947 16.83,15.4180042 16.83,14.582 L11.616,14.582 C10.7799958,14.582 10.0430032,14.6919989 9.405,14.912 L8.25,13.493 C9.04200396,13.6250007 9.93299505,13.691 10.923,13.691 L16.863,13.691 Z M18.942,10.622 L18.942,13.691 L24.321,13.691 L24.321,10.622 L18.942,10.622 Z M18.942,14.582 L18.942,17.42 L24.321,17.42 L24.321,14.582 L18.942,14.582 Z M24.453,28.706 L12.771,28.706 L12.771,30.092 C12.771,30.4440018 12.6885008,30.6969992 12.5235,30.851 C12.3584992,31.0050008 12.0340024,31.180999 11.55,31.379 C11.0659976,31.577001 10.7305009,31.676 10.5435,31.676 C10.3564991,31.676 10.263,31.571501 10.263,31.3625 C10.263,31.153499 10.2739999,30.9280012 10.296,30.686 C10.4060006,30.0039966 10.461,29.0140065 10.461,27.716 L10.461,24.383 C10.461,23.6349963 10.4280003,22.458008 10.362,20.852 L12.54,22.007 L24.123,22.007 L25.212,20.621 L27.555,22.205 C27.7310009,22.3150005 27.819,22.4194995 27.819,22.5185 C27.819,22.6175005 27.7090011,22.7329993 27.489,22.865 L26.763,23.327 L26.763,26.858 C26.763,27.3420024 26.7959997,27.9579963 26.862,28.706 C26.9280003,29.4540037 26.961,29.8499998 26.961,29.894 C26.961,30.1800014 26.862001,30.3834994 26.664,30.5045 C26.465999,30.6255006 26.163502,30.7574993 25.7565,30.9005 C25.349498,31.0435007 25.0305012,31.115 24.7995,31.115 C24.5684988,31.115 24.453,30.917002 24.453,30.521 L24.453,28.706 Z M12.771,27.815 L24.453,27.815 L24.453,22.898 L12.771,22.898 L12.771,27.815 Z M51.3370002,1.085 C54.3950154,2.66900792 55.9240002,4.16499296 55.9240002,5.573 C55.9240002,6.18900308 55.7315021,6.74449752 55.3465002,7.2395 C54.9614982,7.73450247 54.5050028,7.982 53.9770002,7.982 C53.7349989,7.982 53.5095012,7.83900143 53.3005002,7.553 C53.0914991,7.26699857 52.9595004,6.73900385 52.9045002,5.969 C52.8494999,5.19899615 52.6625017,4.43450379 52.3435002,3.6755 C52.0244986,2.9164962 51.5680031,2.16300374 50.9740002,1.415 L51.3370002,1.085 Z M44.0110002,8.84 L62.5900002,8.84 L64.7350002,6.299 L67.1110002,9.203 C67.2650009,9.35700077 67.3420002,9.48899945 67.3420002,9.599 C67.3420002,9.70900055 67.1770018,9.764 66.8470002,9.764 L44.7370002,9.764 C43.8129955,9.764 43.065003,9.88499879 42.4930002,10.127 L41.2720002,8.675 C42.1080043,8.78500055 43.0209952,8.84 44.0110002,8.84 Z M55.2640002,28.475 C56.0560041,26.0549879 56.8919958,23.0355181 57.7720002,19.4165 C58.6520046,15.7974819 59.2019991,13.0640092 59.4220002,11.216 L62.6230002,12.866 C62.997002,13.064001 63.1840002,13.2509991 63.1840002,13.427 C63.1840002,13.6030009 63.0190018,13.7569993 62.6890002,13.889 C62.1829976,14.1530013 61.5835036,15.0989919 60.8905002,16.727 C60.1974967,18.3550081 58.7290114,22.270969 56.4850002,28.475 L64.5040002,28.475 L66.8140002,25.736 L69.4210002,28.838 C69.5750009,28.9920008 69.6520002,29.1239994 69.6520002,29.234 C69.6520002,29.3440005 69.4980017,29.399 69.1900002,29.399 L42.4600002,29.399 C41.5579956,29.399 40.8100031,29.5199988 40.2160002,29.762 L38.9950002,28.31 C39.8310043,28.4200005 40.7439952,28.475 41.7340002,28.475 L55.2640002,28.475 Z M46.4860002,12.503 C48.2240088,14.7470112 49.5439956,16.8314904 50.4460002,18.7565 C51.3480047,20.6815096 51.7990002,22.2159943 51.7990002,23.36 C51.7990002,24.0640035 51.6230019,24.7459967 51.2710002,25.406 C50.9189984,26.0660033 50.457003,26.396 49.8850002,26.396 C49.5769986,26.396 49.3515009,26.3080009 49.2085002,26.132 C49.0654994,25.9559991 48.9940002,25.7140015 48.9940002,25.406 L48.9940002,24.482 C48.9940002,23.2059936 48.6805033,21.3030126 48.0535002,18.773 C47.426497,16.2429873 46.7500038,14.2410074 46.0240002,12.767 L46.4860002,12.503 Z M89.8370003,7.685 C88.4949936,7.685 87.5490031,7.80599879 86.9990003,8.048 L85.7450003,6.53 C86.4710039,6.64000055 87.8349903,6.695 89.8370003,6.695 C89.8370003,4.36298834 89.7930007,2.47100726 89.7050003,1.019 L92.7740003,2.306 C93.0820018,2.41600055 93.2360003,2.52599945 93.2360003,2.636 C93.2360003,2.74600055 93.1150015,2.88899912 92.8730003,3.065 L92.0150003,3.626 L92.0150003,6.695 L99.1100003,6.695 C99.1100003,4.64898977 99.0660007,2.80100825 98.9780003,1.151 L102.146,2.438 C102.454002,2.52600044 102.608,2.63049939 102.608,2.7515 C102.608,2.8725006 102.487002,3.00999923 102.245,3.164 L101.387,3.758 L101.387,6.695 L103.004,6.695 L104.753,4.781 L106.799,7.058 C106.975001,7.25600099 107.063,7.40999945 107.063,7.52 C107.063,7.63000055 106.920002,7.685 106.634,7.685 L101.387,7.685 L101.387,21.314 L103.169,21.314 L105.116,19.235 L107.327,21.71 C107.503001,21.8640008 107.591,22.0124993 107.591,22.1555 C107.591,22.2985007 107.426002,22.37 107.096,22.37 L87.3950003,22.37 C86.5149959,22.37 85.7670034,22.4909988 85.1510003,22.733 L83.8970003,21.149 C84.7330045,21.2590005 85.6459954,21.314 86.6360003,21.314 L89.8370003,21.314 L89.8370003,7.685 Z M99.1100003,7.685 L92.0150003,7.685 L92.0150003,11.645 L99.1100003,11.645 L99.1100003,7.685 Z M92.0150003,16.496 L99.1100003,16.496 L99.1100003,12.536 L92.0150003,12.536 L92.0150003,16.496 Z M99.1100003,17.42 L92.0150003,17.42 L92.0150003,21.314 L99.1100003,21.314 L99.1100003,17.42 Z M80.0030003,2.438 C81.5210079,3.07600319 82.6814963,3.71399681 83.4845003,4.352 C84.2875043,4.99000319 84.6890003,5.61699692 84.6890003,6.233 C84.6890003,6.84900308 84.5515017,7.38249774 84.2765003,7.8335 C84.0014989,8.28450225 83.7155018,8.51 83.4185003,8.51 C83.1214988,8.51 82.901501,8.46050049 82.7585003,8.3615 C82.6154996,8.2624995 82.4890009,8.05900154 82.3790003,7.751 C81.7629972,5.59498922 80.9160057,3.93400583 79.8380003,2.768 L80.0030003,2.438 Z M86.6360003,9.104 L83.2370003,17.75 C82.7969981,18.8940057 82.4890012,19.8949957 82.3130003,20.753 C82.1369994,21.6110043 82.0490003,22.5459949 82.0490003,23.558 C82.0490003,24.5700051 82.1039998,25.6809939 82.2140003,26.891 C82.3240009,28.101006 82.3790003,28.8819982 82.3790003,29.234 C82.3790003,29.5860018 82.3240009,29.8554991 82.2140003,30.0425 C82.1039998,30.2295009 81.8290025,30.323 81.3890003,30.323 C80.0469936,30.323 79.3760003,29.6080071 79.3760003,28.178 C79.3760003,27.9579989 79.4529995,27.3420051 79.6070003,26.33 C79.7610011,25.3179949 79.8380003,24.4600035 79.8380003,23.756 C79.8380003,23.0519965 79.6785019,22.5350016 79.3595003,22.205 C79.0404987,21.8749983 78.3970051,21.5670014 77.4290003,21.281 L77.5610003,20.753 C77.9790024,20.7750001 78.4299979,20.786 78.9140003,20.786 C79.3980027,20.786 79.7994987,20.6705012 80.1185003,20.4395 C80.4375019,20.2084988 80.7509988,19.7850031 81.0590003,19.169 L86.1080003,8.807 L86.6360003,9.104 Z M77.4290003,8.972 C78.9030077,9.4120022 80.0414963,9.92899703 80.8445003,10.523 C81.6475043,11.117003 82.0490003,11.7219969 82.0490003,12.338 C82.0490003,12.9540031 81.9390014,13.459998 81.7190003,13.856 C81.4989992,14.252002 81.1745025,14.45 80.7455003,14.45 C80.3164982,14.45 80.0030013,14.1200033 79.8050003,13.46 C79.1889972,11.7879916 78.3640055,10.4240053 77.3300003,9.368 L77.4290003,8.972 Z M93.7970003,24.713 C94.0610016,24.911001 94.1930003,25.114499 94.1930003,25.3235 C94.1930003,25.532501 93.9620026,25.637 93.5000003,25.637 C93.2139989,25.637 92.7520035,25.8789976 92.1140003,26.363 C89.9579895,27.9910081 88.308006,29.1184969 87.1640003,29.7455 C86.0199946,30.3725031 84.7550072,30.9719971 83.3690003,31.544 L83.0390003,31.082 C86.6690185,28.8159887 89.5399897,26.1540153 91.6520003,23.096 L93.7970003,24.713 Z M97.4930003,23.591 C99.7590116,24.4270042 101.568494,25.2849956 102.9215,26.165 C104.274507,27.0450044 105.060999,27.6444984 105.281,27.9635 C105.501001,28.2825016 105.611,28.6509979 105.611,29.069 C105.611,29.4870021 105.473502,29.899498 105.1985,30.3065 C104.923499,30.713502 104.599002,30.917 104.225,30.917 C103.850998,30.917 103.455002,30.5870033 103.037,29.927 C101.936995,28.3429921 100.969004,27.1660038 100.133,26.396 C99.2969961,25.6259961 98.3290058,24.9110033 97.2290003,24.251 L97.4930003,23.591 Z M123.651,2.867 L137.412,2.867 L138.864,1.052 L140.976,3.098 C141.130001,3.25200077 141.207,3.38399945 141.207,3.494 C141.207,3.60400055 141.108001,3.74699912 140.91,3.923 L140.118,4.484 L140.118,8.84 C140.118,9.56600363 140.14,10.2589967 140.184,10.919 L140.283,12.635 C140.283,12.9430015 140.200501,13.1629993 140.0355,13.295 C139.8705,13.4270007 139.535003,13.5754992 139.029,13.7405 C138.522998,13.9055008 138.171001,13.988 137.973,13.988 C137.774999,13.988 137.676,13.8560013 137.676,13.592 L137.676,12.503 L122.991,12.503 C123.035001,12.9210021 122.738004,13.2564987 122.1,13.5095 C121.461997,13.7625013 121.033002,13.889 120.813,13.889 C120.592999,13.889 120.483,13.7020019 120.483,13.328 L120.582,11.579 C120.604001,10.9189967 120.615,9.86300726 120.615,8.411 L120.615,4.187 C120.615,3.43899626 120.582001,2.41600649 120.516,1.118 L123.651,2.867 Z M137.676,7.124 L137.676,3.791 L122.991,3.791 L122.991,7.124 L137.676,7.124 Z M137.676,11.579 L137.676,8.048 L122.991,8.048 L122.991,11.579 L137.676,11.579 Z M122.298,18.641 C120.735993,21.1710126 118.723013,23.5689887 116.259,25.835 L115.665,25.472 C118.657015,21.7099812 120.614996,17.9810185 121.539,14.285 L124.344,15.44 C124.564002,15.5280004 124.674,15.6269994 124.674,15.737 C124.674,15.8470005 124.520002,15.9569994 124.212,16.067 C123.903999,16.1770005 123.453003,16.726995 122.859,17.717 L129.195,17.717 C129.195,16.1989924 129.151001,14.6590078 129.063,13.097 L132.561,14.153 C132.803002,14.2190003 132.924,14.3234993 132.924,14.4665 C132.924,14.6095007 132.803002,14.7469993 132.561,14.879 L131.703,15.374 L131.703,17.717 L138.666,17.717 L140.613,15.341 L142.89,18.047 C143.000001,18.2230009 143.055,18.3659994 143.055,18.476 C143.055,18.5860005 142.923002,18.641 142.659,18.641 L131.703,18.641 L131.703,23.03 L136.884,23.03 L138.699,20.852 L140.811,23.36 C140.965001,23.5360009 141.042,23.6789994 141.042,23.789 C141.042,23.8990005 140.888002,23.954 140.58,23.954 L131.703,23.954 L131.703,28.739 L140.712,28.739 L142.857,26.198 L145.332,29.102 C145.464001,29.2780009 145.53,29.4209994 145.53,29.531 C145.53,29.6410005 145.376002,29.696 145.068,29.696 L118.602,29.696 C117.655996,29.696 116.897003,29.8059989 116.325,30.026 L115.137,28.574 C115.973005,28.6840005 116.885996,28.739 117.876,28.739 L129.195,28.739 L129.195,23.954 L123.552,23.954 C122.627996,23.954 121.880003,24.0639989 121.308,24.284 L120.087,22.832 C120.923005,22.9640007 121.835996,23.03 122.826,23.03 L129.195,23.03 L129.195,18.641 L122.298,18.641 Z M167.134001,0.821 C168.630008,1.19500187 169.636498,1.59099791 170.153501,2.009 C170.670503,2.42700209 170.929001,2.92749708 170.929001,3.5105 C170.929001,4.09350291 170.813502,4.5444984 170.582501,4.8635 C170.351499,5.18250159 170.021503,5.342 169.592501,5.342 C169.163498,5.342 168.872001,5.0120033 168.718001,4.352 C168.409999,2.94399296 167.827005,1.9100033 166.969001,1.25 L167.134001,0.821 Z M159.379001,5.441 L178.255001,5.441 L180.235001,3.098 L182.314001,5.606 C182.556002,5.87000132 182.677001,6.06249939 182.677001,6.1835 C182.677001,6.3045006 182.479003,6.365 182.083001,6.365 L159.082001,6.365 L159.082001,13.922 C159.082001,18.0140205 158.603505,21.4349862 157.646501,24.185 C156.689496,26.9350137 155.199011,29.3549895 153.175001,31.445 L152.746001,31.082 C154.176008,28.9699894 155.204497,26.814011 155.831501,24.614 C156.458504,22.413989 156.772001,19.1030221 156.772001,14.681 L156.772001,7.025 C156.772001,5.88099428 156.739001,4.71500594 156.673001,3.527 L159.379001,5.441 Z M171.193001,23.063 L171.193001,28.838 L178.519001,28.838 L180.532001,26.462 L182.710001,29.036 C182.886001,29.2560011 182.974001,29.4264994 182.974001,29.5475 C182.974001,29.6685006 182.809002,29.729 182.479001,29.729 L160.336001,29.729 C159.411996,29.729 158.664003,29.8499988 158.092001,30.092 L156.937001,28.64 C157.773005,28.7720007 158.685996,28.838 159.676001,28.838 L168.883001,28.838 L168.883001,23.063 L164.494001,23.063 C163.591996,23.063 162.844004,23.1839988 162.250001,23.426 L161.062001,22.007 C161.898005,22.1170005 162.810996,22.172 163.801001,22.172 L168.883001,22.172 L168.883001,10.424 C168.883001,9.16999373 168.839001,7.96000583 168.751001,6.794 L171.622001,7.883 C171.952002,7.99300055 172.117001,8.13599912 172.117001,8.312 C172.117001,8.48800088 171.963002,8.65299923 171.655001,8.807 L171.193001,9.005 L171.193001,22.172 L175.615001,22.172 L177.562001,19.862 L179.608001,22.271 C179.806002,22.5350013 179.905001,22.7329993 179.905001,22.865 C179.905001,22.9970007 179.718002,23.063 179.344001,23.063 L171.193001,23.063 Z M163.834001,15.044 C162.799995,17.3540115 161.282011,19.50999 159.280001,21.512 L158.884001,21.248 C161.106012,18.1239844 162.656996,13.9550261 163.537001,8.741 L165.913001,10.127 C166.199002,10.2810008 166.342001,10.4129994 166.342001,10.523 C166.342001,10.6330005 166.226502,10.7264996 165.995501,10.8035 C165.764499,10.8805004 165.594001,11.0124991 165.484001,11.1995 C165.374,11.3865009 165.187002,11.8099967 164.923001,12.47 L164.131001,14.384 C166.793014,15.9680079 168.124001,17.1889957 168.124001,18.047 C168.124001,18.5310024 167.997502,18.9819979 167.744501,19.4 C167.491499,19.8180021 167.205502,20.027 166.886501,20.027 C166.567499,20.027 166.309002,19.6860034 166.111001,19.004 C165.824999,17.8159941 165.066007,16.4960073 163.834001,15.044 Z M176.209001,14.351 C179.927019,15.6050063 181.786001,16.9249931 181.786001,18.311 C181.786001,18.8610027 181.687002,19.3284981 181.489001,19.7135 C181.291,20.0985019 181.054502,20.291 180.779501,20.291 C180.504499,20.291 180.213002,20.0160027 179.905001,19.466 C178.980996,17.7719915 177.650009,16.2980063 175.912001,15.044 C174.855995,17.442012 173.547008,19.4879915 171.985001,21.182 L171.622001,20.885 C173.338009,18.2449868 174.657996,14.2960263 175.582001,9.038 L177.859001,10.325 C178.167002,10.5010009 178.321001,10.6549993 178.321001,10.787 C178.321001,10.9190007 178.172502,11.0234996 177.875501,11.1005 C177.578499,11.1775004 177.276002,11.6449957 176.968001,12.503 L176.209001,14.351 Z M190.289001,27.617 C192.577012,26.1869928 194.325995,25.3180015 195.536001,25.01 L195.536001,13.955 L193.424001,13.955 C192.807998,13.955 192.340502,13.9769998 192.021501,14.021 C191.702499,14.0650002 191.422002,14.1639992 191.180001,14.318 L189.992001,12.833 C190.520003,12.9210004 190.992999,12.9759999 191.411001,12.998 C191.829003,13.0200001 192.268998,13.031 192.731001,13.031 L195.536001,13.031 L196.625001,11.447 L198.473001,13.262 C198.715002,13.5040012 198.836001,13.6744995 198.836001,13.7735 C198.836001,13.8725005 198.726002,14.0099991 198.506001,14.186 L197.813001,14.813 L197.813001,25.109 C197.901001,25.1750003 198.0055,25.2519996 198.126501,25.34 C198.247501,25.4280004 198.374,25.5269994 198.506001,25.637 C199.320005,26.3190034 200.364994,26.7919987 201.641001,27.056 C202.917007,27.3200013 204.63299,27.4629999 206.789001,27.485 C208.197008,27.5070001 209.478495,27.5125001 210.633501,27.5015 C211.788507,27.4904999 212.910495,27.4630002 213.999501,27.419 C215.088506,27.3749998 216.193995,27.2980005 217.316001,27.188 C218.438006,27.0779994 219.658994,26.924001 220.979001,26.726 L220.979001,27.221 C220.164997,27.5070014 219.587502,27.8864976 219.246501,28.3595 C218.905499,28.8325024 218.713001,29.2559981 218.669001,29.63 C218.625001,29.7840008 218.548001,29.8829998 218.438001,29.927 C218.328,29.9710002 218.119002,29.993 217.811001,29.993 C216.490994,29.9489998 215.292006,29.9105002 214.214001,29.8775 C213.135995,29.8444998 212.135005,29.8115002 211.211001,29.7785 C210.286996,29.7454998 209.423505,29.7180001 208.620501,29.696 C207.817497,29.6739999 207.042005,29.6410002 206.294001,29.597 C205.237995,29.5309997 204.325005,29.4540004 203.555001,29.366 C202.784997,29.2779996 202.081004,29.1240011 201.443001,28.904 C200.804998,28.6839989 200.167004,28.376002 199.529001,27.98 C198.890998,27.583998 198.176005,27.0450034 197.384001,26.363 C196.943999,25.9889981 196.526003,25.8129999 196.130001,25.835 C195.733999,25.8570001 195.316003,26.0989977 194.876001,26.561 C194.369998,27.0890026 193.957502,27.5784977 193.638501,28.0295 C193.319499,28.4805023 192.973003,28.9919971 192.599001,29.564 C192.445,29.8060012 192.324001,29.9324999 192.236001,29.9435 C192.148,29.9545001 192.027002,29.8720009 191.873001,29.696 L190.289001,27.617 Z M218.438001,22.634 C218.438001,24.3720087 217.932006,25.241 216.920001,25.241 C216.832,25.241 216.683502,25.142001 216.474501,24.944 C216.2655,24.745999 216.106001,24.4270022 215.996001,23.987 C215.908,23.7229987 215.831001,23.4645013 215.765001,23.2115 C215.699,22.9584987 215.622001,22.7110012 215.534001,22.469 L208.472001,23.327 C207.349995,23.4590007 206.442504,23.5744995 205.749501,23.6735 C205.056497,23.7725005 204.495503,23.8604996 204.066501,23.9375 C203.637499,24.0145004 203.291002,24.1024995 203.027001,24.2015 C202.762999,24.3005005 202.521002,24.4159993 202.301001,24.548 C201.882999,24.746001 201.597002,24.6690018 201.443001,24.317 L200.387001,22.073 L202.499001,22.073 C203.247005,21.0609949 203.934498,20.0710048 204.561501,19.103 C205.188504,18.1349952 205.738498,17.2220043 206.211501,16.364 C206.684503,15.5059957 207.080499,14.7305035 207.399501,14.0375 C207.718502,13.3444965 207.955,12.7670023 208.109001,12.305 L202.961001,12.305 C202.630999,12.305 202.257003,12.3324997 201.839001,12.3875 C201.420999,12.4425003 201.047002,12.5359993 200.717001,12.668 L199.496001,11.216 C200.002003,11.2820003 200.463999,11.3259999 200.882001,11.348 C201.300003,11.3700001 201.750998,11.381 202.235001,11.381 L215.666001,11.381 L217.679001,9.038 L220.154001,11.744 C220.374002,11.9860012 220.462001,12.1399997 220.418001,12.206 C220.374001,12.2720003 220.198002,12.305 219.890001,12.305 L208.670001,12.305 L210.782001,13.559 C211.068002,13.7350009 211.189001,13.9109991 211.145001,14.087 C211.101001,14.2630009 210.936002,14.3839997 210.650001,14.45 C210.474,14.4940002 210.314501,14.5544996 210.171501,14.6315 C210.0285,14.7085004 209.874502,14.8239992 209.709501,14.978 C209.5445,15.1320008 209.352002,15.3409987 209.132001,15.605 C208.912,15.8690013 208.637002,16.2099979 208.307001,16.628 C208.065,16.9580016 207.762503,17.3594976 207.399501,17.8325 C207.036499,18.3055024 206.657003,18.7894975 206.261001,19.2845 C205.864999,19.7795025 205.480003,20.2689976 205.106001,20.753 C204.731999,21.2370024 204.402002,21.6439983 204.116001,21.974 L215.237001,21.71 C214.862999,20.8079955 214.406503,19.9775038 213.867501,19.2185 C213.328498,18.4594962 212.674005,17.7390034 211.904001,17.057 L212.333001,16.694 C213.433006,17.288003 214.367997,17.881997 215.138001,18.476 C215.908005,19.070003 216.540498,19.6309974 217.035501,20.159 C217.530503,20.6870026 217.888,21.1654979 218.108001,21.5945 C218.328002,22.0235021 218.438001,22.3699987 218.438001,22.634 Z M213.389001,4.055 L215.369001,1.712 L217.778001,4.352 C218.174003,4.77000209 218.086004,4.979 217.514001,4.979 L205.535001,4.979 C205.204999,4.979 204.831003,5.00649972 204.413001,5.0615 C203.994999,5.11650027 203.621002,5.19899945 203.291001,5.309 L202.037001,3.857 C202.565003,3.92300033 203.032499,3.97249983 203.439501,4.0055 C203.846503,4.03850016 204.291998,4.055 204.776001,4.055 L213.389001,4.055 Z M198.968001,5.573 C198.968001,6.34300385 198.825002,6.95349774 198.539001,7.4045 C198.252999,7.85550225 197.890003,8.081 197.450001,8.081 C197.252,8.081 197.048502,7.96550115 196.839501,7.7345 C196.6305,7.50349884 196.515001,7.24500143 196.493001,6.959 C196.471001,6.58499813 196.383002,6.1780022 196.229001,5.738 C196.075,5.2979978 195.877002,4.85250225 195.635001,4.4015 C195.393,3.95049774 195.118002,3.52700198 194.810001,3.131 C194.501999,2.73499802 194.183002,2.38300154 193.853001,2.075 L194.183001,1.613 C195.151006,2.03100209 195.942998,2.42699813 196.559001,2.801 C197.175004,3.17500187 197.664499,3.5214984 198.027501,3.8405 C198.390503,4.15950159 198.638,4.46199857 198.770001,4.748 C198.902001,5.03400143 198.968001,5.30899868 198.968001,5.573 Z M235.818001,7.19 L232.617001,7.19 C231.648996,7.19 230.912003,7.2999989 230.406001,7.52 L229.284001,6.101 C230.098005,6.23300066 230.988996,6.299 231.957001,6.299 L235.818001,6.299 C235.818001,2.9989835 235.763001,1.09600253 235.653001,0.59 L238.755001,1.976 C239.041002,2.10800066 239.184001,2.2234995 239.184001,2.3225 C239.184001,2.42150049 239.041002,2.55899912 238.755001,2.735 L237.864001,3.23 L237.864001,6.299 L239.184001,6.299 L240.603001,4.583 L242.253001,6.497 C242.451002,6.73900121 242.550001,6.91499945 242.550001,7.025 C242.550001,7.13500055 242.385003,7.19 242.055001,7.19 L237.864001,7.19 L237.864001,9.995 L242.385001,8.807 L242.550001,9.434 L237.864001,11.15 L237.864001,14.945 C237.864001,15.9790052 237.732002,16.7434975 237.468001,17.2385 C237.204,17.7335025 236.742004,18.2009978 236.082001,18.641 C235.421998,19.0810022 235.009502,19.301 234.844501,19.301 C234.6795,19.301 234.575001,19.1690013 234.531001,18.905 C234.311,18.0029955 233.134012,17.255003 231.000001,16.661 L231.066001,16.199 C232.562008,16.397001 233.628998,16.496 234.267001,16.496 C234.905004,16.496 235.323,16.4025009 235.521001,16.2155 C235.719002,16.0284991 235.818001,15.7040023 235.818001,15.242 L235.818001,11.876 C234.277993,12.4480029 232.61701,13.1739956 230.835001,14.054 C230.681,14.1640005 230.560001,14.219 230.472001,14.219 C230.384,14.219 230.307001,14.1530007 230.241001,14.021 L229.218001,12.206 L235.818001,10.523 L235.818001,7.19 Z M245.883001,7.322 C244.694995,7.45400066 243.837004,7.59699923 243.309001,7.751 L242.319001,6.431 C242.891004,6.51900044 243.435498,6.563 243.952501,6.563 C244.469504,6.563 245.123997,6.53000033 245.916001,6.464 C245.960001,5.12199329 245.982001,4.01650434 245.982001,3.1475 C245.982001,2.27849565 245.971001,1.45900385 245.949001,0.689 L248.820001,2.042 C249.084002,2.17400066 249.216001,2.2894995 249.216001,2.3885 C249.216001,2.48750049 249.084002,2.62499912 248.820001,2.801 C248.556,2.97700088 248.380001,3.1749989 248.292001,3.395 C248.204,3.6150011 248.138001,4.06599659 248.094001,4.748 C248.050001,5.43000341 248.006001,5.94699824 247.962001,6.299 L251.460001,5.969 L252.648001,4.484 L254.562001,6.266 C254.738002,6.42000077 254.826001,6.55199945 254.826001,6.662 C254.826001,6.77200055 254.727002,6.88199945 254.529001,6.992 L253.407001,7.652 C253.076999,8.77400561 252.912001,9.86299472 252.912001,10.919 C252.912001,11.9750053 253.033,12.9154959 253.275001,13.7405 C253.517002,14.5655041 253.846999,15.2199976 254.265001,15.704 C254.683003,16.1880024 255.013,16.43 255.255001,16.43 C255.497002,16.43 255.75,16.1110032 256.014001,15.473 C256.278002,14.8349968 256.684998,13.5920092 257.235001,11.744 L257.829001,11.876 C257.410999,13.6580089 257.202001,15.0604949 257.202001,16.0835 C257.202001,17.1065051 257.2845,17.8049981 257.449501,18.179 C257.614502,18.5530019 257.697001,18.8554988 257.697001,19.0865 C257.697001,19.3175012 257.477003,19.433 257.037001,19.433 C256.596999,19.433 255.810507,19.1250031 254.677501,18.509 C253.544495,17.8929969 252.648004,16.9140067 251.988001,15.572 C251.327998,14.2299933 250.998001,12.6130095 250.998001,10.721 C250.998001,9.51099395 251.140999,8.21300693 251.427001,6.827 L247.863001,7.157 C247.599,9.24701045 247.247003,10.8969939 246.807001,12.107 C247.863006,12.6570027 248.4735,13.0914984 248.638501,13.4105 C248.803502,13.7295016 248.886001,14.0759981 248.886001,14.45 C248.886001,14.8240019 248.792502,15.1594985 248.605501,15.4565 C248.4185,15.7535015 248.154503,15.902 247.813501,15.902 C247.472499,15.902 247.197502,15.6765023 246.988501,15.2255 C246.7795,14.7744977 246.455003,14.2960025 246.015001,13.79 C245.354998,14.8680054 244.398007,15.7809963 243.144001,16.529 C241.889995,17.2770037 239.932014,18.1349952 237.270001,19.103 L237.006001,18.575 C241.164022,16.5949901 243.715996,14.60401 244.662001,12.602 C243.891997,12.0299971 242.935007,11.4580029 241.791001,10.886 L242.121001,10.523 C243.067006,10.6990009 244.100995,10.9959979 245.223001,11.414 C245.597003,10.2699943 245.817001,8.90600792 245.883001,7.322 Z M240.174001,21.545 L233.805001,21.545 C232.902996,21.545 232.166004,21.6659988 231.594001,21.908 L230.472001,20.489 C231.264005,20.5990005 232.154996,20.654 233.145001,20.654 L240.471001,20.654 C240.713002,19.8179958 240.889,18.8390056 240.999001,17.717 L243.672001,18.707 C244.024003,18.8390007 244.200001,18.9599994 244.200001,19.07 C244.200001,19.1800005 244.018503,19.3449989 243.655501,19.565 C243.292499,19.7850011 243.001002,20.1479975 242.781001,20.654 L249.942001,20.654 L251.328001,19.103 L253.737001,21.083 C253.891002,21.2590009 253.968001,21.4349991 253.968001,21.611 C253.968001,21.7870009 253.836002,21.9079997 253.572001,21.974 L252.450001,22.304 C252.208,23.6460067 251.905503,25.020993 251.542501,26.429 C251.179499,27.837007 250.772503,28.7884975 250.321501,29.2835 C249.870499,29.7785025 249.271005,30.1854984 248.523001,30.5045 C247.774997,30.8235016 247.296502,30.983 247.087501,30.983 C246.8785,30.983 246.763001,30.8290015 246.741001,30.521 C246.697001,29.9929974 246.394504,29.5200021 245.833501,29.102 C245.272498,28.6839979 244.178009,28.2110026 242.550001,27.683 L242.682001,27.122 C244.750011,27.5620022 246.163497,27.782 246.922501,27.782 C247.681505,27.782 248.225999,27.6500013 248.556001,27.386 C248.886003,27.1219987 249.221499,26.3025069 249.562501,24.9275 C249.903503,23.5524931 250.129,22.4250044 250.239001,21.545 L242.451001,21.545 C240.778993,27.353029 236.02704,30.4769978 228.195001,30.917 L228.195001,30.488 C234.795034,29.0139926 238.787994,26.0330224 240.174001,21.545 Z M281.545001,12.107 C281.104999,15.6050175 280.373506,18.4924886 279.350501,20.7695 C278.327496,23.0465114 276.699512,25.081491 274.466501,26.8745 C272.23349,28.667509 269.665016,30.0039956 266.761001,30.884 L266.563001,30.29 C270.479021,28.3759904 273.50399,25.8735155 275.638001,22.7825 C277.772012,19.6914845 278.971,16.1330201 279.235001,12.107 L270.721001,12.107 C269.796996,12.107 269.049004,12.2279988 268.477001,12.47 L267.256001,11.018 C268.092005,11.1280005 269.015996,11.183 270.028001,11.183 L279.301001,11.183 C279.433002,9.29099054 279.499001,7.4045094 279.499001,5.5235 C279.499001,3.64249059 279.477001,1.86600836 279.433001,0.194 L282.997001,1.679 C283.371003,1.83300077 283.558001,1.97049939 283.558001,2.0915 C283.558001,2.2125006 283.409503,2.35549917 283.112501,2.5205 C282.8155,2.68550082 282.612002,2.91099857 282.502001,3.197 C282.392001,3.48300143 282.271002,4.5059912 282.139001,6.266 C282.007,8.0260088 281.853002,9.66499241 281.677001,11.183 L291.082001,11.183 L293.260001,8.543 L295.768001,11.546 C295.922002,11.7000008 295.999001,11.8319994 295.999001,11.942 C295.999001,12.0520005 295.845003,12.107 295.537001,12.107 L283.195001,12.107 C284.757009,20.5770423 289.090966,25.614992 296.197001,27.221 L296.164001,27.782 C295.547998,27.8260002 294.954004,28.0239982 294.382001,28.376 C293.809998,28.7280018 293.414002,29.0964981 293.194001,29.4815 C292.974,29.8665019 292.776002,30.059 292.600001,30.059 C292.292,30.059 291.148011,29.2285083 289.168001,27.5675 C287.187991,25.9064917 285.670006,23.9375114 284.614001,21.6605 C283.557996,19.3834886 282.832003,16.1990205 282.436001,12.107 L281.545001,12.107 Z M332.453001,5.045 C332.343001,5.81500385 332.260501,6.4694973 332.205501,7.0085 C332.150501,7.54750269 332.079002,8.10299714 331.991001,8.675 C331.837,9.51100418 331.551003,10.1654976 331.133001,10.6385 C330.714999,11.1115024 330.000006,11.5239982 328.988001,11.876 C328.768,11.9420003 328.619502,11.9585002 328.542501,11.9255 C328.465501,11.8924998 328.416001,11.7660011 328.394001,11.546 C328.350001,11.2379985 328.080504,10.8750021 327.585501,10.457 C327.090499,10.0389979 326.403006,9.67600154 325.523001,9.368 L325.655001,8.84 C326.557006,9.01600088 327.271999,9.14249961 327.800001,9.2195 C328.328004,9.29650038 328.7405,9.29100044 329.037501,9.203 C329.334503,9.11499956 329.543501,8.95000121 329.664501,8.708 C329.785502,8.46599879 329.901001,8.1250022 330.011001,7.685 C330.055001,7.50899912 330.099001,7.18450236 330.143001,6.7115 C330.187001,6.23849763 330.264001,5.49600506 330.374001,4.484 L325.556001,4.484 C325.38,5.65000583 325.171002,6.65649576 324.929001,7.5035 C324.687,8.35050423 324.357003,9.1039967 323.939001,9.764 C323.520999,10.4240033 322.998504,11.0234973 322.371501,11.5625 C321.744498,12.1015027 320.958006,12.667997 320.012001,13.262 L319.715001,12.8 C320.331004,12.0959965 320.858999,11.4305031 321.299001,10.8035 C321.739003,10.1764969 322.1075,9.53850324 322.404501,8.8895 C322.701503,8.24049675 322.9325,7.55850357 323.097501,6.8435 C323.262502,6.12849642 323.389001,5.34200429 323.477001,4.484 L321.827001,4.484 C321.320999,4.484 320.908503,4.51149972 320.589501,4.5665 C320.2705,4.62150027 319.957003,4.71499934 319.649001,4.847 L318.494001,3.395 C319.000004,3.48300044 319.456499,3.53799989 319.863501,3.56 C320.270503,3.58200011 320.704999,3.593 321.167001,3.593 L329.945001,3.593 L331.133001,2.207 L333.278001,3.923 C333.674003,4.25300165 333.674003,4.49499923 333.278001,4.649 L332.453001,5.045 Z M319.814001,9.401 C319.990002,9.55500077 320.067001,9.67599956 320.045001,9.764 C320.023001,9.85200044 319.913002,9.96199934 319.715001,10.094 L319.253001,10.325 L319.253001,26.693 C319.253001,27.0670019 319.225501,27.3859987 319.170501,27.65 C319.115501,27.9140013 319.022002,28.1669988 318.890001,28.409 C318.758001,28.6510012 318.576502,28.8874988 318.345501,29.1185 C318.1145,29.3495012 317.823003,29.6189985 317.471001,29.927 C317.229,30.1030009 317.031002,30.1635003 316.877001,30.1085 C316.723,30.0534997 316.624001,29.9050012 316.580001,29.663 C316.514001,29.2229978 316.294003,28.8105019 315.920001,28.4255 C315.545999,28.0404981 315.029005,27.749001 314.369001,27.551 L314.435001,26.99 C315.051004,27.0560003 315.534999,27.0944999 315.887001,27.1055 C316.239003,27.1165001 316.503,27.0890003 316.679001,27.023 C316.855002,26.9569997 316.970501,26.8415008 317.025501,26.6765 C317.080501,26.5114992 317.108001,26.2970013 317.108001,26.033 L317.108001,20.72 L309.122001,20.72 C309.056001,21.9520062 308.913002,23.0519952 308.693001,24.02 C308.473,24.9880048 308.165003,25.8789959 307.769001,26.693 C307.372999,27.5070041 306.883504,28.2494966 306.300501,28.9205 C305.717498,29.5915034 305.030005,30.2349969 304.238001,30.851 L303.809001,30.62 C304.447004,29.7179955 304.969499,28.9095036 305.376501,28.1945 C305.783503,27.4794964 306.1025,26.7700035 306.333501,26.066 C306.564502,25.3619965 306.735001,24.6030041 306.845001,23.789 C306.955002,22.9749959 307.032001,22.0180055 307.076001,20.918 C307.142002,19.3779923 307.186001,17.810508 307.208001,16.2155 C307.230001,14.620492 307.219001,12.8550097 307.175001,10.919 C306.800999,11.4250025 306.421503,11.8704981 306.036501,12.2555 C305.651499,12.6405019 305.228004,13.0529978 304.766001,13.493 L304.337001,13.13 C305.063005,12.0959948 305.744998,11.0180056 306.383001,9.896 C307.021004,8.77399439 307.603999,7.65750555 308.132001,6.5465 C308.660004,5.43549444 309.121999,4.35750522 309.518001,3.3125 C309.914003,2.26749477 310.222,1.31600429 310.442001,0.458 L313.280001,1.547 C313.522002,1.63500044 313.621001,1.74499934 313.577001,1.877 C313.533001,2.00900066 313.390002,2.10799967 313.148001,2.174 C312.972,2.21800022 312.763002,2.36649873 312.521001,2.6195 C312.279,2.87250126 312.070002,3.14199857 311.894001,3.428 C311.762001,3.67000121 311.624502,3.90649884 311.481501,4.1375 C311.338501,4.36850115 311.212002,4.60499879 311.102001,4.847 L314.864001,4.847 L316.382001,3.593 L318.197001,5.375 C318.703004,5.8150022 318.648004,6.05699978 318.032001,6.101 C317.768,6.12300011 317.537002,6.16149972 317.339001,6.2165 C317.141,6.27150027 316.904503,6.4089989 316.629501,6.629 C316.3545,6.8490011 316.013503,7.1789978 315.606501,7.619 C315.199499,8.0590022 314.666005,8.65299626 314.006001,9.401 L316.811001,9.401 L318.065001,7.883 L319.814001,9.401 Z M334.433001,21.974 C334.697003,22.3480019 334.642003,22.535 334.268001,22.535 L328.064001,22.535 L328.064001,23.591 C328.064001,24.9110066 328.069501,26.0384953 328.080501,26.9735 C328.091501,27.9085047 328.119001,28.771996 328.163001,29.564 C328.185001,29.8940016 328.146502,30.1469991 328.047501,30.323 C327.948501,30.4990009 327.624004,30.7079988 327.074001,30.95 C326.391998,31.2580015 325.963002,31.3680004 325.787001,31.28 C325.611,31.1919996 325.556001,30.8070034 325.622001,30.125 C325.644001,29.7729982 325.671501,29.3770022 325.704501,28.937 C325.737501,28.4969978 325.765001,27.974503 325.787001,27.3695 C325.809001,26.764497 325.825501,26.066004 325.836501,25.274 C325.847501,24.481996 325.853001,23.5690052 325.853001,22.535 L322.685001,22.535 C322.156999,22.535 321.733503,22.5624997 321.414501,22.6175 C321.0955,22.6725003 320.782003,22.7659993 320.474001,22.898 L319.319001,21.479 C319.825004,21.5670004 320.281499,21.6219999 320.688501,21.644 C321.095503,21.6660001 321.540999,21.677 322.025001,21.677 L325.853001,21.677 L325.853001,17.189 L322.751001,17.189 C322.487,17.8270032 322.162503,18.4979965 321.777501,19.202 C321.392499,19.9060035 320.947004,20.6319963 320.441001,21.38 L319.880001,21.182 C320.144003,20.4999966 320.3805,19.8510031 320.589501,19.235 C320.798502,18.6189969 320.974501,17.9975031 321.117501,17.3705 C321.260502,16.7434969 321.381501,16.0890034 321.480501,15.407 C321.579502,14.7249966 321.662001,13.988004 321.728001,13.196 L324.005001,14.021 C324.313003,14.1310005 324.450501,14.2464994 324.417501,14.3675 C324.384501,14.4885006 324.247002,14.6259992 324.005001,14.78 C323.829,14.8900005 323.664002,15.0714987 323.510001,15.3245 C323.356,15.5775013 323.202002,15.8909981 323.048001,16.265 L325.853001,16.265 C325.853001,15.5829966 325.842001,14.8845036 325.820001,14.1695 C325.798001,13.4544964 325.765001,12.7890031 325.721001,12.173 L328.460001,13.031 C328.746003,13.1190004 328.889001,13.2069996 328.889001,13.295 C328.889001,13.3830004 328.746003,13.5369989 328.460001,13.757 L328.064001,14.054 L328.064001,16.265 L330.242001,16.265 L331.892001,14.252 L333.806001,16.628 C333.938002,16.8700012 333.987501,17.0239997 333.954501,17.09 C333.921501,17.1560003 333.784002,17.189 333.542001,17.189 L328.064001,17.189 L328.064001,21.677 L330.770001,21.677 L332.486001,19.631 L334.433001,21.974 Z M310.574001,5.738 C310.199999,6.37600319 309.859003,6.94799747 309.551001,7.454 C309.243,7.96000253 308.946003,8.42199791 308.660001,8.84 L309.617001,9.401 L312.884001,9.401 L314.864001,5.738 L310.574001,5.738 Z M317.108001,10.292 L314.006001,10.292 L314.006001,14.45 L317.108001,14.45 L317.108001,10.292 Z M311.927001,10.292 L309.254001,10.292 L309.254001,14.45 L311.927001,14.45 L311.927001,10.292 Z M317.108001,15.374 L314.006001,15.374 L314.006001,19.796 L317.108001,19.796 L317.108001,15.374 Z M311.927001,15.374 L309.221001,15.374 C309.221001,16.2980046 309.215501,17.1449961 309.204501,17.915 C309.193501,18.6850038 309.177001,19.3119976 309.155001,19.796 L311.927001,19.796 L311.927001,15.374 Z M346.929001,9.5 L345.048001,9.5 C344.211997,9.5 343.475005,9.6099989 342.837001,9.83 L341.748001,8.411 C342.540005,8.52100055 343.430996,8.576 344.421001,8.576 L347.226001,8.576 L347.226001,5.903 C347.226001,4.07699087 347.182002,2.29500869 347.094001,0.557 L350.361001,1.91 C350.603003,2.02000055 350.724001,2.12999945 350.724001,2.24 C350.724001,2.35000055 350.603003,2.48199923 350.361001,2.636 L349.404001,3.23 L349.404001,8.576 L351.681001,8.576 L353.298001,6.662 L355.080001,8.807 C355.212002,8.96100077 355.278001,9.11499923 355.278001,9.269 C355.278001,9.42300077 355.135003,9.5 354.849001,9.5 L349.404001,9.5 L349.404001,12.866 C352.528017,14.1420064 354.090001,15.5169926 354.090001,16.991 C354.090001,17.4090021 353.969003,17.7994982 353.727001,18.1625 C353.485,18.5255018 353.232003,18.707 352.968001,18.707 C352.704,18.707 352.522502,18.6410007 352.423501,18.509 C352.324501,18.3769993 352.253002,18.1680014 352.209001,17.882 C351.857,16.3639924 350.922009,14.9230068 349.404001,13.559 L349.404001,23.261 C349.404001,25.26301 349.415001,26.6709959 349.437001,27.485 L349.503001,29.465 C349.503001,29.861002 349.189505,30.2514981 348.562501,30.6365 C347.935498,31.0215019 347.512002,31.214 347.292001,31.214 C347.072,31.214 346.962001,30.9720024 346.962001,30.488 L347.127001,27.188 C347.193002,25.6259922 347.226001,24.1080074 347.226001,22.634 L347.226001,14.615 C346.081996,17.9370166 344.168015,21.0059859 341.484001,23.822 L341.121001,23.558 C343.695014,19.4659795 345.630995,14.7800264 346.929001,9.5 Z M358.248001,12.272 L368.148001,12.272 L369.864001,10.226 L371.811001,12.602 C371.965002,12.7560008 372.042001,12.8879994 372.042001,12.998 C372.042001,13.1080005 371.899003,13.163 371.613001,13.163 L366.135001,13.163 L366.135001,23.195 L366.234001,29.333 C366.234001,29.7950023 365.909505,30.1634986 365.260501,30.4385 C364.611498,30.7135014 364.210002,30.851 364.056001,30.851 C363.77,30.851 363.627001,30.5760027 363.627001,30.026 L363.759001,26.858 C363.825002,25.4059927 363.858001,23.9320075 363.858001,22.436 L363.858001,13.163 L358.248001,13.163 C358.226001,18.3110257 357.648507,22.1389875 356.515501,24.647 C355.382496,27.1550125 353.210017,29.2449916 349.998001,30.917 L349.668001,30.455 C351.538011,28.9589925 352.918497,27.512507 353.809501,26.1155 C354.700506,24.718493 355.3055,22.9475107 355.624501,20.8025 C355.943503,18.6574893 356.103001,15.2420234 356.103001,10.556 C356.103001,8.20198823 356.037002,5.74901276 355.905001,3.197 L358.908001,4.748 C362.406019,3.8679956 365.485988,2.84500583 368.148001,1.679 L369.831001,3.791 C370.007002,4.0110011 370.095001,4.18699934 370.095001,4.319 C370.095001,4.45100066 369.908003,4.49500022 369.534001,4.451 C369.16,4.40699978 368.824503,4.385 368.527501,4.385 C368.2305,4.385 367.950003,4.40699978 367.686001,4.451 L358.347001,5.771 C358.347001,7.70700968 358.314002,9.87398801 358.248001,12.272 Z"/>
</svg>
