<svg xmlns="http://www.w3.org/2000/svg" width="711" height="23" viewBox="0 0 711 23">
  <g fill="none" fill-rule="evenodd" transform="translate(0 1)">
    <path fill="#231F20" stroke="#231F20" stroke-width=".2" d="M579.111,5.649 C580.245672,3.71699034 581.042998,1.89234192 581.503,0.175 L583.504,1.302 C583.703334,1.42466728 583.803,1.52816624 583.803,1.6125 C583.803,1.69683375 583.691834,1.78499954 583.4695,1.877 C583.247166,1.96900046 582.975002,2.19133157 582.653,2.544 C581.886329,3.41800437 580.912673,4.45299402 579.732,5.649 L582.538,5.649 L584.033,3.901 L585.643,5.833 C585.750334,5.94033387 585.804,6.03999954 585.804,6.132 C585.804,6.22400046 585.704334,6.27 585.505,6.27 L579.295,6.27 L579.295,9.858 L581.687,9.858 L583.136,8.156 L584.677,9.996 C584.784334,10.1186673 584.838,10.2298328 584.838,10.3295 C584.838,10.4291672 584.738334,10.479 584.539,10.479 L579.295,10.479 L579.295,14.251 L583.044,14.251 L584.424,12.618 L585.919,14.412 C586.041667,14.5346673 586.103,14.6419995 586.103,14.734 C586.103,14.8260005 585.995668,14.872 585.781,14.872 L579.295,14.872 C579.295,17.080011 579.3065,18.5404964 579.3295,19.2535 C579.3525,19.9665036 579.364,20.3996659 579.364,20.553 C579.364,20.7063341 579.302667,20.8519993 579.18,20.99 C579.057333,21.1280007 578.812002,21.2813325 578.444,21.45 C578.075998,21.6186675 577.823001,21.703 577.685,21.703 C577.546999,21.703 577.478,21.5036687 577.478,21.105 C577.478,21.0743332 577.504833,20.3920067 577.5585,19.058 C577.612167,17.7239933 577.639,16.3286739 577.639,14.872 L573.154,14.872 C572.509997,14.872 571.988669,14.9563325 571.59,15.125 L570.762,14.136 C571.34467,14.212667 571.980997,14.251 572.671,14.251 L577.639,14.251 L577.639,10.479 L574.626,10.479 C573.99733,10.479 573.476002,10.5633325 573.062,10.732 L572.234,9.72 C572.81667,9.81200046 573.452997,9.858 574.143,9.858 L577.639,9.858 L577.639,6.27 L573.66,6.27 C573.000663,6.27 572.479335,6.35433249 572.096,6.523 L571.268,5.534 C571.85067,5.61066705 572.486997,5.649 573.177,5.649 L579.111,5.649 Z M567.22,0.543 C569.412678,1.67767234 570.509,2.61299632 570.509,3.349 C570.509,3.77833548 570.378668,4.16933157 570.118,4.522 C569.857332,4.87466843 569.619668,5.051 569.405,5.051 C569.190332,5.051 569.010167,4.97816739 568.8645,4.8325 C568.718833,4.6868326 568.623,4.48366797 568.577,4.223 C568.362332,2.91966015 567.841004,1.78500483 567.013,0.819 L567.22,0.543 Z M574.373,0.635 C576.458344,1.69300529 577.501,2.71266176 577.501,3.694 C577.501,4.06200184 577.366835,4.3954985 577.0985,4.6945 C576.830165,4.99350149 576.581001,5.143 576.351,5.143 C575.967665,5.143 575.722334,4.85933617 575.615,4.292 C575.415666,3.34132858 575.201001,2.632169 574.971,2.1645 C574.740999,1.69683099 574.472668,1.27133525 574.166,0.888 L574.373,0.635 Z M569.819,17.77 L573.522,15.677 L573.775,15.999 C570.999653,18.207011 569.336003,19.6943295 568.784,20.461 C568.676666,20.5990007 568.580834,20.668 568.4965,20.668 C568.412166,20.668 568.316334,20.6066673 568.209,20.484 L567.197,19.288 C567.887003,18.8279977 568.232,18.2530034 568.232,17.563 L568.232,8.639 L566.829,8.639 C566.138997,8.639 565.617668,8.73866567 565.265,8.938 L564.437,7.926 C565.142337,7.97200023 565.778664,7.995 566.346,7.995 L568.002,7.995 L569.014,6.5 L570.578,7.719 C570.731334,7.85700069 570.808,7.97583283 570.808,8.0755 C570.808,8.17516716 570.723668,8.28633272 570.555,8.409 L569.819,8.915 L569.819,17.77 Z M595.856,2.084 L605.378,2.084 L606.298,0.842 L607.816,2.084 C607.984667,2.20666728 608.069,2.31016624 608.069,2.3945 C608.069,2.47883375 607.992334,2.57466613 607.839,2.682 L607.264,3.05 L607.264,6.178 C607.264,6.51533502 607.290833,6.9139977 607.3445,7.374 C607.398167,7.8340023 607.425,8.07166659 607.425,8.087 C607.425,8.40900161 607.187336,8.66199908 606.712,8.846 C606.236664,9.03000092 605.937667,9.122 605.815,9.122 C605.692333,9.122 605.631,9.03000092 605.631,8.846 L605.631,7.627 L602.434,7.627 C603.936674,11.7210205 606.842312,14.2279954 611.151,15.148 L611.151,15.47 C610.47633,15.5773339 610.008668,15.7114992 609.748,15.8725 C609.487332,16.0335008 609.249668,16.3056647 609.035,16.689 C608.927666,16.8423341 608.820334,16.919 608.713,16.919 C608.482999,16.919 607.720173,16.3900053 606.4245,15.332 C605.128827,14.2739947 604.13217,13.1546726 603.4345,11.974 C602.73683,10.7933274 602.211668,9.34434192 601.859,7.627 L595.741,7.627 C595.741,10.1876795 595.307838,12.2959917 594.4415,13.952 C593.575162,15.6080083 592.061011,17.2486585 589.899,18.874 L589.646,18.575 C591.194674,16.9803254 592.321663,15.4431741 593.027,13.9635 C593.732337,12.4838259 594.085,10.3640138 594.085,7.604 L594.085,4.2 C594.085,2.77399287 594.046667,1.68533709 593.97,0.934 L595.856,2.084 Z M605.631,6.983 L605.631,2.728 L595.741,2.728 L595.741,6.983 L605.631,6.983 Z M597.903,10.916 C600.571013,11.9893387 601.905,13.1163274 601.905,14.297 C601.905,14.6036682 601.805334,14.8911653 601.606,15.1595 C601.406666,15.4278347 601.199668,15.562 600.985,15.562 C600.616998,15.562 600.356334,15.263003 600.203,14.665 C600.111,14.2816647 599.796669,13.6990039 599.26,12.917 C598.723331,12.1349961 598.225002,11.575335 597.765,11.238 L597.903,10.916 Z M596.086,16.528 C598.447345,17.2486703 600.137828,17.8274978 601.1575,18.2645 C602.177172,18.7015022 602.786666,19.1078315 602.986,19.4835 C603.185334,19.8591685 603.285,20.2233316 603.285,20.576 C603.285,20.9286684 603.223667,21.2276654 603.101,21.473 C602.978333,21.7183346 602.836501,21.841 602.6755,21.841 C602.514499,21.841 602.342001,21.7413343 602.158,21.542 C601.421996,20.683329 600.490506,19.8400041 599.3635,19.012 C598.236494,18.1839959 597.105672,17.5170025 595.971,17.011 L596.086,16.528 Z M634.428,3.349 C634.550667,3.5023341 634.6005,3.60199977 634.5775,3.648 C634.5545,3.69400023 634.443334,3.717 634.244,3.717 L621.111,3.717 C620.666331,4.28433617 620.256168,4.78649781 619.8805,5.2235 C619.504831,5.66050218 619.117669,6.08599793 618.719,6.5 C618.320331,6.91400207 617.891002,7.33566452 617.431,7.765 C616.970998,8.19433548 616.434336,8.69266383 615.821,9.26 L615.568,8.961 C616.24267,8.14832927 616.852164,7.38550356 617.3965,6.6725 C617.940836,5.95949643 618.431498,5.26567004 618.8685,4.591 C619.305502,3.91632996 619.707998,3.24167004 620.076,2.567 C620.444002,1.89232996 620.796665,1.18700368 621.134,0.451 L622.928,1.44 C623.127334,1.56266728 623.223167,1.65083306 623.2155,1.7045 C623.207833,1.75816693 623.112001,1.80033318 622.928,1.831 C622.621332,1.90766705 622.337668,2.12999816 622.077,2.498 C622.000333,2.59000046 621.931334,2.68199954 621.87,2.774 C621.808666,2.86600046 621.739667,2.95033295 621.663,3.027 L631.369,3.027 L632.749,1.371 L634.428,3.349 Z M621.847,7.144 L621.111,11.33 L630.127,11.33 C630.157667,10.6859968 630.192166,10.0190034 630.2305,9.329 C630.268833,8.63899655 630.303333,7.9106705 630.334,7.144 L621.847,7.144 Z M620.996,11.974 L620.168,16.666 L629.575,16.666 C629.774334,15.5926613 629.935333,14.0286769 630.058,11.974 L620.996,11.974 Z M627.068,10.042 C626.991333,10.2720011 626.845668,10.4866657 626.631,10.686 C626.416332,10.8853343 626.232334,10.985 626.079,10.985 C625.956333,10.985 625.826001,10.9275006 625.688,10.8125 C625.549999,10.6974994 625.465667,10.5020014 625.435,10.226 C625.342999,9.48999632 624.883004,8.61600506 624.055,7.604 L624.239,7.397 C624.929003,7.65766797 625.477165,7.89916555 625.8835,8.1215 C626.289835,8.34383444 626.596499,8.56616555 626.8035,8.7885 C627.010501,9.01083444 627.1255,9.22549896 627.1485,9.4325 C627.1715,9.63950103 627.144667,9.84266567 627.068,10.042 Z M626.792,15.194 C626.531332,15.8533366 626.217002,16.183 625.849,16.183 C625.588332,16.183 625.419667,16.0296682 625.343,15.723 C625.235666,15.3703316 625.136,15.0598347 625.044,14.7915 C624.951999,14.5231653 624.840834,14.2740011 624.7105,14.044 C624.580166,13.8139988 624.434501,13.5840011 624.2735,13.354 C624.112499,13.1239988 623.909334,12.8710014 623.664,12.595 L623.917,12.296 C624.63767,12.6026682 625.204998,12.8939986 625.619,13.17 C626.033002,13.4460014 626.339666,13.7066654 626.539,13.952 C626.738334,14.1973346 626.845667,14.4273323 626.861,14.642 C626.876333,14.8566677 626.853334,15.0406659 626.792,15.194 Z M619.432,11.974 L617.178,11.974 C616.963332,11.974 616.714168,11.9931665 616.4305,12.0315 C616.146832,12.0698335 615.897668,12.1349995 615.683,12.227 L614.855,11.192 C615.207668,11.2533336 615.521999,11.2916666 615.798,11.307 C616.074001,11.3223334 616.380665,11.33 616.718,11.33 L619.57,11.33 L620.168,7.949 C620.244667,7.55033134 620.306,7.13250218 620.352,6.6955 C620.398,6.25849781 620.436333,5.84066866 620.467,5.442 L621.893,6.5 L630.265,6.5 L631.001,5.488 L632.381,6.661 C632.534334,6.78366728 632.611,6.87566636 632.611,6.937 C632.611,6.99833364 632.534334,7.08266613 632.381,7.19 L631.99,7.512 C631.959333,8.01800253 631.917167,8.60066337 631.8635,9.26 C631.809833,9.91933663 631.744667,10.6093297 631.668,11.33 L632.68,11.33 L633.991,9.743 L635.578,11.56 C635.854001,11.8360014 635.792669,11.974 635.394,11.974 L631.599,11.974 C631.522333,12.9400048 631.434167,13.8446624 631.3345,14.688 C631.234833,15.5313375 631.169667,16.1906643 631.139,16.666 L632.174,16.666 L633.439,15.148 L634.888,16.896 C635.010667,17.0340007 635.064333,17.1336664 635.049,17.195 C635.033667,17.2563336 634.934001,17.287 634.75,17.287 L631.047,17.287 C630.939666,17.9156698 630.820834,18.4446645 630.6905,18.874 C630.560166,19.3033355 630.387668,19.6713318 630.173,19.978 C629.958332,20.2846682 629.686168,20.5529988 629.3565,20.783 C629.026832,21.0130011 628.609002,21.2429988 628.103,21.473 C627.765665,21.5956673 627.597,21.5113348 627.597,21.22 C627.566333,20.9439986 627.512667,20.7216675 627.436,20.553 C627.359333,20.3843325 627.217501,20.234834 627.0105,20.1045 C626.803499,19.974166 626.512168,19.8476673 626.1365,19.725 C625.760831,19.6023327 625.25867,19.4566675 624.63,19.288 L624.745,18.92 C625.680338,19.0886675 626.42783,19.2036664 626.9875,19.265 C627.547169,19.3263336 627.987998,19.3071672 628.31,19.2075 C628.632002,19.1078328 628.869666,18.9046682 629.023,18.598 C629.176334,18.2913318 629.314333,17.8543362 629.437,17.287 L620.053,17.287 C620.022333,17.4710009 619.980167,17.6319993 619.9265,17.77 C619.872833,17.9080007 619.792334,18.0229995 619.685,18.115 C619.577666,18.2070005 619.443501,18.2874997 619.2825,18.3565 C619.121499,18.4255003 618.910668,18.4829998 618.65,18.529 C618.389332,18.5903336 618.220667,18.5750005 618.144,18.483 C618.067333,18.3909995 618.090333,18.1610018 618.213,17.793 C618.335667,17.3636645 618.450666,16.9573352 618.558,16.574 C618.665334,16.1906647 618.757333,15.7996687 618.834,15.401 L619.432,11.974 Z M654.508,12.181 L646.642,12.181 C646.596,14.2356769 646.082338,15.9836595 645.101,17.425 C644.119662,18.8663405 642.555677,20.1773274 640.409,21.358 L640.11,21.036 C641.812008,19.7173267 643.042496,18.3986733 643.8015,17.08 C644.560504,15.7613267 644.94,13.6836808 644.94,10.847 L644.94,3.487 C644.94,2.68966268 644.917,1.87700414 644.871,1.049 L646.711,2.084 L653.91,2.084 L654.991,0.704 L656.946,2.245 C657.053334,2.35233387 657.107,2.44049965 657.107,2.5095 C657.107,2.57850034 657.022667,2.65899954 656.854,2.751 L656.164,3.073 L656.164,18.552 C656.164,19.2113366 656.060501,19.6981651 655.8535,20.0125 C655.646499,20.3268349 655.286169,20.6334985 654.7725,20.9325 C654.258831,21.2315015 653.925334,21.381 653.772,21.381 C653.618666,21.381 653.519,21.2583346 653.473,21.013 C653.411666,20.3996636 653.116503,19.9665013 652.5875,19.7135 C652.058497,19.4604987 651.257339,19.2266677 650.184,19.012 L650.184,18.575 C651.272672,18.651667 652.158163,18.69 652.8405,18.69 C653.522837,18.69 653.971332,18.6210007 654.186,18.483 C654.400668,18.3449993 654.508,18.0996684 654.508,17.747 L654.508,12.181 Z M646.642,6.776 L654.508,6.776 L654.508,2.728 L646.642,2.728 L646.642,6.776 Z M654.508,7.42 L646.642,7.42 L646.642,11.537 L654.508,11.537 L654.508,7.42 Z M664.399,19.127 C665.993675,18.1303283 667.212662,17.5246677 668.056,17.31 L668.056,9.605 L666.584,9.605 C666.154664,9.605 665.828834,9.62033318 665.6065,9.651 C665.384165,9.68166682 665.188667,9.75066613 665.02,9.858 L664.192,8.823 C664.560002,8.88433364 664.889665,8.92266659 665.181,8.938 C665.472335,8.95333341 665.778998,8.961 666.101,8.961 L668.056,8.961 L668.815,7.857 L670.103,9.122 C670.271667,9.29066751 670.356,9.40949965 670.356,9.4785 C670.356,9.54750034 670.279334,9.64333272 670.126,9.766 L669.643,10.203 L669.643,17.379 C669.704334,17.4250002 669.777166,17.4786664 669.8615,17.54 C669.945834,17.6013336 670.033999,17.6703329 670.126,17.747 C670.693336,18.2223357 671.421662,18.5519991 672.311,18.736 C673.200338,18.9200009 674.396326,19.0196666 675.899,19.035 C676.880338,19.0503334 677.773496,19.0541667 678.5785,19.0465 C679.383504,19.0388333 680.165496,19.0196668 680.9245,18.989 C681.683504,18.9583332 682.453996,18.904667 683.236,18.828 C684.018004,18.7513329 684.868995,18.6440007 685.789,18.506 L685.789,18.851 C685.221664,19.0503343 684.819168,19.3148317 684.5815,19.6445 C684.343832,19.9741683 684.209667,20.269332 684.179,20.53 C684.148333,20.6373339 684.094667,20.7063332 684.018,20.737 C683.941333,20.7676668 683.795668,20.783 683.581,20.783 C682.660995,20.7523332 681.825337,20.7255001 681.074,20.7025 C680.322663,20.6794999 679.625003,20.6565001 678.981,20.6335 C678.336997,20.6104999 677.735169,20.5913334 677.1755,20.576 C676.61583,20.5606666 676.075336,20.5376668 675.554,20.507 C674.817996,20.4609998 674.181669,20.4073336 673.645,20.346 C673.108331,20.2846664 672.617669,20.1773341 672.173,20.024 C671.728331,19.8706659 671.283669,19.6560014 670.839,19.38 C670.394331,19.1039986 669.896003,18.7283357 669.344,18.253 C669.037332,17.992332 668.746001,17.8696666 668.47,17.885 C668.193998,17.9003334 667.902668,18.0689984 667.596,18.391 C667.243331,18.7590018 666.955834,19.1001651 666.7335,19.4145 C666.511165,19.7288349 666.269668,20.0853313 666.009,20.484 C665.901666,20.6526675 665.817334,20.7408333 665.756,20.7485 C665.694666,20.7561667 665.610334,20.6986673 665.503,20.576 L664.399,19.127 Z M684.018,15.654 C684.018,16.8653394 683.665337,17.471 682.96,17.471 C682.898666,17.471 682.795167,17.4020007 682.6495,17.264 C682.503832,17.1259993 682.392667,16.9036682 682.316,16.597 C682.254666,16.4129991 682.201,16.2328342 682.155,16.0565 C682.109,15.8801658 682.055334,15.7076675 681.994,15.539 L677.072,16.137 C676.289996,16.2290005 675.657502,16.3094997 675.1745,16.3785 C674.691497,16.4475003 674.300501,16.5088331 674.0015,16.5625 C673.702498,16.6161669 673.461001,16.6774997 673.277,16.7465 C673.092999,16.8155003 672.924334,16.8959995 672.771,16.988 C672.479665,17.1260007 672.280334,17.0723346 672.173,16.827 L671.437,15.263 L672.909,15.263 C673.430336,14.5576631 673.909498,13.86767 674.3465,13.193 C674.783502,12.51833 675.166832,11.882003 675.4965,11.284 C675.826168,10.685997 676.102165,10.1455024 676.3245,9.6625 C676.546834,9.17949758 676.711666,8.77700161 676.819,8.455 L673.231,8.455 C673.000999,8.455 672.740335,8.47416647 672.449,8.5125 C672.157665,8.55083352 671.897001,8.61599954 671.667,8.708 L670.816,7.696 C671.168668,7.74200023 671.490665,7.77266659 671.782,7.788 C672.073335,7.80333341 672.387665,7.811 672.725,7.811 L682.086,7.811 L683.489,6.178 L685.214,8.064 C685.367334,8.23266751 685.428667,8.33999977 685.398,8.386 C685.367333,8.43200023 685.244668,8.455 685.03,8.455 L677.21,8.455 L678.682,9.329 C678.881334,9.45166728 678.965667,9.57433272 678.935,9.697 C678.904333,9.81966728 678.789334,9.90399977 678.59,9.95 C678.467333,9.98066682 678.356167,10.0228331 678.2565,10.0765 C678.156833,10.1301669 678.0495,10.2106661 677.9345,10.318 C677.819499,10.4253339 677.685334,10.5709991 677.532,10.755 C677.378666,10.9390009 677.187001,11.1766652 676.957,11.468 C676.788332,11.6980011 676.577501,11.9778317 676.3245,12.3075 C676.071499,12.6371683 675.807001,12.9744983 675.531,13.3195 C675.254998,13.6645017 674.986668,14.005665 674.726,14.343 C674.465332,14.680335 674.235334,14.9639988 674.036,15.194 L681.787,15.01 C681.526332,14.3813302 681.208168,13.8025026 680.8325,13.2735 C680.456831,12.7444974 680.000669,12.2423357 679.464,11.767 L679.763,11.514 C680.52967,11.9280021 681.181331,12.3419979 681.718,12.756 C682.254669,13.1700021 682.695498,13.5609982 683.0405,13.929 C683.385502,14.2970018 683.634666,14.6304985 683.788,14.9295 C683.941334,15.2285015 684.018,15.4699991 684.018,15.654 Z M680.499,2.705 L681.879,1.072 L683.558,2.912 C683.834001,3.20333479 683.772669,3.349 683.374,3.349 L675.025,3.349 C674.794999,3.349 674.534335,3.36816647 674.243,3.4065 C673.951665,3.44483352 673.691001,3.50233295 673.461,3.579 L672.587,2.567 C672.955002,2.61300023 673.280832,2.64749988 673.5645,2.6705 C673.848168,2.69350011 674.158665,2.705 674.496,2.705 L680.499,2.705 Z M670.448,3.763 C670.448,4.29966935 670.348334,4.72516509 670.149,5.0395 C669.949666,5.3538349 669.696668,5.511 669.39,5.511 C669.251999,5.511 669.110167,5.4305008 668.9645,5.2695 C668.818832,5.10849919 668.738333,4.92833433 668.723,4.729 C668.707666,4.46833203 668.646334,4.1846682 668.539,3.878 C668.431666,3.5713318 668.293667,3.2608349 668.125,2.9465 C667.956332,2.63216509 667.764668,2.33700138 667.55,2.061 C667.335332,1.78499862 667.113001,1.53966774 666.883,1.325 L667.113,1.003 C667.78767,1.29433479 668.339664,1.57033203 668.769,1.831 C669.198335,2.09166797 669.539499,2.33316555 669.7925,2.5555 C670.045501,2.77783444 670.217999,2.98866567 670.31,3.188 C670.402,3.38733433 670.448,3.57899908 670.448,3.763 Z M694.668,4.89 L692.437,4.89 C691.76233,4.89 691.248668,4.9666659 690.896,5.12 L690.114,4.131 C690.681336,4.22300046 691.30233,4.269 691.977,4.269 L694.668,4.269 C694.668,1.9689885 694.629667,0.64266843 694.553,0.29 L696.715,1.256 C696.914334,1.34800046 697.014,1.42849965 697.014,1.4975 C697.014,1.56650034 696.914334,1.66233272 696.715,1.785 L696.094,2.13 L696.094,4.269 L697.014,4.269 L698.003,3.073 L699.153,4.407 C699.291001,4.57566751 699.36,4.69833295 699.36,4.775 C699.36,4.85166705 699.245001,4.89 699.015,4.89 L696.094,4.89 L696.094,6.845 L699.245,6.017 L699.36,6.454 L696.094,7.65 L696.094,10.295 C696.094,11.0156703 696.002001,11.5484983 695.818,11.8935 C695.633999,12.2385017 695.312002,12.5643318 694.852,12.871 C694.391998,13.1776682 694.1045,13.331 693.9895,13.331 C693.874499,13.331 693.801667,13.2390009 693.771,13.055 C693.617666,12.4263302 692.797341,11.9050021 691.31,11.491 L691.356,11.169 C692.398672,11.3070007 693.142331,11.376 693.587,11.376 C694.031669,11.376 694.322999,11.310834 694.461,11.1805 C694.599001,11.050166 694.668,10.8240016 694.668,10.502 L694.668,8.156 C693.594661,8.55466866 692.437006,9.0606636 691.195,9.674 C691.087666,9.75066705 691.003333,9.789 690.942,9.789 C690.880666,9.789 690.827,9.74300046 690.781,9.651 L690.068,8.386 L694.668,7.213 L694.668,4.89 Z M701.683,4.982 C700.854996,5.07400046 700.257002,5.17366613 699.889,5.281 L699.199,4.361 C699.597668,4.42233364 699.977165,4.453 700.3375,4.453 C700.697835,4.453 701.153997,4.43000023 701.706,4.384 C701.736667,3.44866199 701.752,2.67816969 701.752,2.0725 C701.752,1.4668303 701.744333,0.89566935 701.729,0.359 L703.73,1.302 C703.914001,1.39400046 704.006,1.47449965 704.006,1.5435 C704.006,1.61250034 703.914001,1.70833272 703.73,1.831 C703.545999,1.95366728 703.423333,2.0916659 703.362,2.245 C703.300666,2.3983341 703.254667,2.71266429 703.224,3.188 C703.193333,3.66333571 703.162667,4.02366544 703.132,4.269 L705.57,4.039 L706.398,3.004 L707.732,4.246 C707.854667,4.35333387 707.916,4.44533295 707.916,4.522 C707.916,4.59866705 707.847001,4.67533295 707.709,4.752 L706.927,5.212 C706.696999,5.99400391 706.582,6.75299632 706.582,7.489 C706.582,8.22500368 706.666332,8.88049712 706.835,9.4555 C707.003667,10.0305029 707.233665,10.486665 707.525,10.824 C707.816335,11.161335 708.046332,11.33 708.215,11.33 C708.383667,11.33 708.559999,11.1076689 708.744,10.663 C708.928001,10.2183311 709.211665,9.35200644 709.595,8.064 L710.009,8.156 C709.717665,9.39800621 709.572,10.3754964 709.572,11.0885 C709.572,11.8015036 709.629499,12.288332 709.7445,12.549 C709.8595,12.809668 709.917,13.0204992 709.917,13.1815 C709.917,13.3425008 709.763668,13.423 709.457,13.423 C709.150332,13.423 708.60217,13.2083355 707.8125,12.779 C707.022829,12.3496645 706.398002,11.667338 705.938,10.732 C705.477998,9.79666199 705.248,8.66967326 705.248,7.351 C705.248,6.50766245 705.347666,5.60300483 705.547,4.637 L703.063,4.867 C702.878999,6.32367395 702.633668,7.47366245 702.327,8.317 C703.063004,8.70033525 703.488499,9.00316555 703.6035,9.2255 C703.7185,9.44783444 703.776,9.68933203 703.776,9.95 C703.776,10.210668 703.710834,10.444499 703.5805,10.6515 C703.450166,10.858501 703.266168,10.962 703.0285,10.962 C702.790832,10.962 702.599167,10.8048349 702.4535,10.4905 C702.307832,10.1761651 702.081668,9.84266843 701.775,9.49 C701.314998,10.2413371 700.648004,10.8776641 699.774,11.399 C698.899995,11.9203359 697.535342,12.51833 695.68,13.193 L695.496,12.825 C698.394014,11.4449931 700.172663,10.0573403 700.832,8.662 C700.29533,8.26333134 699.628337,7.86466866 698.831,7.466 L699.061,7.213 C699.720336,7.33566728 700.440996,7.54266521 701.223,7.834 C701.483668,7.03666268 701.637,6.08600552 701.683,4.982 Z M697.704,14.895 L693.265,14.895 C692.63633,14.895 692.122668,14.9793325 691.724,15.148 L690.942,14.159 C691.494003,14.235667 692.114996,14.274 692.805,14.274 L697.911,14.274 C698.079667,13.6913304 698.202333,13.0090039 698.279,12.227 L700.142,12.917 C700.387334,13.0090005 700.51,13.0933329 700.51,13.17 C700.51,13.246667 700.383501,13.3616659 700.1305,13.515 C699.877499,13.6683341 699.674334,13.9213316 699.521,14.274 L704.512,14.274 L705.478,13.193 L707.157,14.573 C707.264334,14.6956673 707.318,14.8183327 707.318,14.941 C707.318,15.0636673 707.226001,15.1479998 707.042,15.194 L706.26,15.424 C706.091332,16.359338 705.880501,17.3176618 705.6275,18.299 C705.374499,19.2803382 705.090835,19.9434983 704.7765,20.2885 C704.462165,20.6335017 704.044336,20.9171656 703.523,21.1395 C703.001664,21.3618344 702.668167,21.473 702.5225,21.473 C702.376832,21.473 702.296333,21.3656677 702.281,21.151 C702.250333,20.7829982 702.039502,20.4533348 701.6485,20.162 C701.257498,19.8706652 700.494672,19.5410018 699.36,19.173 L699.452,18.782 C700.89334,19.0886682 701.878497,19.242 702.4075,19.242 C702.936502,19.242 703.315999,19.1500009 703.546,18.966 C703.776001,18.7819991 704.009832,18.2108381 704.2475,17.2525 C704.485168,16.2941619 704.642333,15.5083364 704.719,14.895 L699.291,14.895 C698.125661,18.9430202 694.813694,21.1203318 689.355,21.427 L689.355,21.128 C693.955023,20.1006615 696.737995,18.0230156 697.704,14.895 Z"/>
    <polygon fill="#221F20" points="533.81 4 533.81 10.802 540.589 10.802 540.589 11.81 533.81 11.81 533.81 18.635 532.779 18.635 532.779 11.81 526 11.81 526 10.802 532.779 10.802 532.779 4"/>
    <path fill="#231F20" stroke="#231F20" stroke-width=".2" d="M410.934,10.571 L414.43,9.099 L414.568,9.375 L410.934,11.514 L410.934,19.104 C410.934,19.5486689 410.857334,19.9204985 410.704,20.2195 C410.550666,20.5185015 410.228669,20.8519982 409.738,21.22 C409.247331,21.5880018 408.936834,21.772 408.8065,21.772 C408.676166,21.772 408.572667,21.6340014 408.496,21.358 C408.296666,20.5453293 407.560673,19.9626684 406.288,19.61 L406.334,19.265 C407.223338,19.3570005 407.863498,19.403 408.2545,19.403 C408.645502,19.403 408.932999,19.3723336 409.117,19.311 C409.301001,19.2496664 409.393,19.1116677 409.393,18.897 L409.393,12.434 C408.886997,12.7406682 408.419335,13.0588317 407.99,13.3885 C407.560665,13.7181683 407.280834,13.9634992 407.1505,14.1245 C407.020166,14.2855008 406.9205,14.366 406.8515,14.366 C406.7825,14.366 406.702,14.2970007 406.61,14.159 L405.69,12.756 L409.393,11.215 L409.393,6.592 L408.174,6.592 C407.529997,6.592 407.008669,6.67633249 406.61,6.845 L405.805,5.902 C406.372336,5.97866705 407.008663,6.017 407.714,6.017 L409.393,6.017 L409.393,4.085 C409.393,2.81232697 409.362334,1.53967303 409.301,0.267 L411.578,1.279 C411.777334,1.35566705 411.877,1.45149942 411.877,1.5665 C411.877,1.68150057 411.777334,1.80033272 411.578,1.923 L410.934,2.268 L410.934,6.017 L412.061,6.017 L413.234,4.591 L414.545,6.155 C414.637,6.27766728 414.683,6.38116624 414.683,6.4655 C414.683,6.54983375 414.583334,6.592 414.384,6.592 L410.934,6.592 L410.934,10.571 Z M417.121,2.015 L422.158,2.015 L423.032,0.957 L424.55,2.199 C424.703334,2.30633387 424.78,2.40216624 424.78,2.4865 C424.78,2.57083375 424.703334,2.65133295 424.55,2.728 L423.975,3.05 L423.975,6.155 C423.975,6.67633594 423.990333,7.15166452 424.021,7.581 L424.113,8.708 C424.113,8.96866797 423.906002,9.21783214 423.492,9.4555 C423.077998,9.69316785 422.798167,9.812 422.6525,9.812 C422.506833,9.812 422.434,9.70466774 422.434,9.49 L422.434,8.915 L417.006,8.915 L417.006,9.329 C417.006,9.49766751 416.96,9.63566613 416.868,9.743 C416.776,9.85033387 416.565168,9.98833249 416.2355,10.157 C415.905832,10.3256675 415.687334,10.41 415.58,10.41 C415.472666,10.41 415.419,10.2720014 415.419,9.996 L415.465,8.846 C415.480333,8.40133111 415.488,7.6423387 415.488,6.569 L415.488,3.234 C415.488,2.6206636 415.465,1.90767073 415.419,1.095 L417.121,2.015 Z M422.434,5.074 L422.434,2.613 L417.006,2.613 L417.006,5.074 L422.434,5.074 Z M422.434,8.294 L422.434,5.695 L417.006,5.695 L417.006,8.294 L422.434,8.294 Z M418.961,11.905 L414.476,11.905 C413.831997,11.905 413.303002,11.9893325 412.889,12.158 L412.038,11.192 C412.605336,11.268667 413.241663,11.307 413.947,11.307 L424.067,11.307 L425.309,9.835 L426.781,11.537 C426.903667,11.6443339 426.965,11.7324997 426.965,11.8015 C426.965,11.8705003 426.857668,11.905 426.643,11.905 L420.456,11.905 L420.456,15.033 L423.239,15.033 L424.412,13.538 L425.769,15.263 C425.861,15.3856673 425.907,15.4814997 425.907,15.5505 C425.907,15.6195003 425.838001,15.654 425.7,15.654 L420.456,15.654 L420.456,19.15 C421.606006,19.3800011 422.732994,19.495 423.837,19.495 C424.941006,19.495 426.083327,19.3953343 427.264,19.196 L427.287,19.564 C426.65833,19.7020007 426.248168,19.8629991 426.0565,20.047 C425.864832,20.2310009 425.761333,20.5223313 425.746,20.921 C425.746,21.1970014 425.600335,21.335 425.309,21.335 C424.802997,21.335 424.021005,21.2621674 422.963,21.1165 C421.904995,20.9708326 420.977337,20.794501 420.18,20.5875 C419.382663,20.380499 418.723336,20.108335 418.202,19.771 C417.680664,19.433665 417.170836,18.9698363 416.6725,18.3795 C416.174164,17.7891637 415.764002,17.1490034 415.442,16.459 C414.76733,17.7010062 414.09267,18.6899963 413.418,19.426 C412.74333,20.1620037 411.854006,20.8903297 410.75,21.611 L410.543,21.381 C412.827678,19.0043214 414.391662,16.1600166 415.235,12.848 L416.845,13.699 C417.059668,13.8063339 417.167,13.9059995 417.167,13.998 C417.167,14.0900005 417.075001,14.1666664 416.891,14.228 C416.706999,14.2893336 416.542167,14.4273323 416.3965,14.642 C416.250833,14.8566677 416.024668,15.2859968 415.718,15.93 C416.469337,17.2946735 417.550326,18.2453306 418.961,18.782 L418.961,11.905 Z M444.907,9.605 L444.907,3.924 C444.907,2.71266061 444.868667,1.48600621 444.792,0.244 L447.161,1.21 C447.375668,1.27133364 447.483,1.35566613 447.483,1.463 C447.483,1.57033387 447.375668,1.7006659 447.161,1.854 L446.54,2.268 L446.54,9.605 L449.323,9.605 L450.749,7.926 L452.313,9.812 C452.435667,9.95000069 452.497,10.0573329 452.497,10.134 C452.497,10.210667 452.389668,10.249 452.175,10.249 L446.54,10.249 L446.54,15.884 C446.54,17.4326744 446.5515,18.5021637 446.5745,19.0925 C446.5975,19.6828363 446.609,20.0469993 446.609,20.185 C446.609,20.3230007 446.566834,20.4494994 446.4825,20.5645 C446.398166,20.6795006 446.152835,20.8098326 445.7465,20.9555 C445.340165,21.1011674 445.064167,21.174 444.9185,21.174 C444.772833,21.174 444.7,21.043668 444.7,20.783 L444.815,18.529 C444.876334,17.5476618 444.907,16.4973389 444.907,15.378 L444.907,10.249 L438.904,10.249 C438.904,13.4996829 438.309839,15.9184921 437.1215,17.5055 C435.933161,19.0925079 433.913014,20.315329 431.061,21.174 L430.923,20.852 C433.361012,19.7633279 435.036162,18.4561743 435.9485,16.9305 C436.860838,15.4048257 437.317,13.1776813 437.317,10.249 L433.338,10.249 C432.70933,10.249 432.203335,10.3333325 431.82,10.502 L431.038,9.49 C431.605336,9.56666705 432.218663,9.605 432.878,9.605 L437.317,9.605 L437.317,4.131 C435.078322,4.60633571 433.230674,4.89766613 431.774,5.005 L431.705,4.637 C435.783687,3.59432812 439.080321,2.36000713 441.595,0.934 L442.653,2.521 C442.745,2.65900069 442.791,2.77399954 442.791,2.866 C442.791,2.95800046 442.714334,3.004 442.561,3.004 L442.193,2.958 C441.548997,2.958 440.774671,3.11899839 439.87,3.441 C439.609332,3.54833387 439.287335,3.64799954 438.904,3.74 L438.904,9.605 L444.907,9.605 Z M468.622,2.544 C468.698667,2.83533479 468.706334,3.12283191 468.645,3.4065 C468.583666,3.69016808 468.476334,3.94699885 468.323,4.177 C468.169666,4.40700115 467.989501,4.5948326 467.7825,4.7405 C467.575499,4.88616739 467.364668,4.959 467.15,4.959 C466.965999,4.959 466.835667,4.88616739 466.759,4.7405 C466.682333,4.5948326 466.651667,4.40700115 466.667,4.177 C466.682333,3.73233111 466.598001,3.23016946 466.414,2.6705 C466.229999,2.11083053 465.877336,1.50900322 465.356,0.865 L465.77,0.474 C466.276003,0.67333433 466.701498,0.85733249 467.0465,1.026 C467.391502,1.19466751 467.671332,1.35949919 467.886,1.5205 C468.100668,1.6815008 468.261666,1.84249919 468.369,2.0035 C468.476334,2.1645008 468.560666,2.34466567 468.622,2.544 Z M477.523,18.345 C476.878997,18.5596677 476.411335,18.8433316 476.12,19.196 C475.828665,19.5486684 475.698333,19.855332 475.729,20.116 C475.759667,20.2540007 475.7405,20.3383332 475.6715,20.369 C475.6025,20.3996668 475.460668,20.415 475.246,20.415 C474.019327,20.415 472.815673,20.4035001 471.635,20.3805 C470.454328,20.3574999 469.335005,20.3230002 468.277,20.277 C466.942993,20.2156664 465.64734,19.8400034 464.39,19.15 C463.13266,18.4599965 461.998005,17.4020071 460.986,15.976 C460.771332,15.6693318 460.549001,15.516 460.319,15.516 C460.088999,15.516 459.828335,15.6693318 459.537,15.976 C459.138331,16.4206689 458.827835,16.8729977 458.6055,17.333 C458.383166,17.7930023 458.218334,18.2683309 458.111,18.759 C457.911666,19.0043346 457.750667,19.0426675 457.628,18.874 L456.432,17.149 C457.030003,16.6583309 457.543665,16.2060021 457.973,15.792 C458.402336,15.3779979 458.808665,15.0483346 459.192,14.803 C459.406668,14.6649993 459.609832,14.5653336 459.8015,14.504 C459.993168,14.4426664 460.188666,14.4349998 460.388,14.481 C460.587334,14.5270002 460.801999,14.6304992 461.032,14.7915 C461.262001,14.9525008 461.522665,15.1863318 461.814,15.493 L461.814,15.516 C462.657338,14.8106631 463.466163,14.1130034 464.2405,13.423 C465.014837,12.7329965 465.789163,12.0123371 466.5635,11.261 C467.337837,10.5096629 468.123663,9.71233755 468.921,8.869 C469.718337,8.02566245 470.561662,7.09033847 471.451,6.063 L460.733,6.063 C460.349665,6.063 460.046835,6.08216647 459.8245,6.1205 C459.602166,6.15883352 459.383668,6.21633295 459.169,6.293 L458.41,5.212 C458.762669,5.25800023 459.088499,5.28866659 459.3875,5.304 C459.686502,5.31933341 459.989332,5.327 460.296,5.327 L471.842,5.327 L473.199,4.039 L475.108,5.741 C475.522002,6.10900184 475.445336,6.31599977 474.878,6.362 C474.617332,6.39266682 474.406501,6.41949988 474.2455,6.4425 C474.084499,6.46550011 473.946501,6.49999977 473.8315,6.546 C473.7165,6.59200023 473.609167,6.65716624 473.5095,6.7415 C473.409833,6.82583375 473.283334,6.9446659 473.13,7.098 C472.025995,8.18667211 471.029338,9.14116256 470.14,9.9615 C469.250662,10.7818374 468.395838,11.5331633 467.5755,12.2155 C466.755163,12.8978367 465.931004,13.5418303 465.103,14.1475 C464.274996,14.7531697 463.370338,15.39333 462.389,16.068 C463.125004,16.74267 463.979829,17.2869979 464.9535,17.701 C465.927172,18.1150021 467.057994,18.3526664 468.346,18.414 C469.281338,18.4600002 470.093997,18.4868333 470.784,18.4945 C471.474004,18.5021667 472.14483,18.4945001 472.7965,18.4715 C473.44817,18.4484999 474.138163,18.398667 474.8665,18.322 C475.594837,18.2453329 476.457328,18.1456673 477.454,18.023 L477.523,18.345 Z M502.664,5.028 C502.802001,5.19666751 502.874833,5.30399977 502.8825,5.35 C502.890167,5.39600023 502.786668,5.419 502.572,5.419 L495.281,5.419 C495.050999,5.66433456 494.809501,5.99016463 494.5565,6.3965 C494.303499,6.80283536 494.085001,7.1593318 493.901,7.466 L497.489,7.466 L498.317,6.408 L499.95,7.558 C500.072667,7.66533387 500.130167,7.74583306 500.1225,7.7995 C500.114833,7.85316693 500.057334,7.91833295 499.95,7.995 L499.352,8.432 L499.352,13.561 C499.352,13.7603343 499.355833,14.0324983 499.3635,14.3775 C499.371167,14.7225017 499.3865,15.0828315 499.4095,15.4585 C499.4325,15.8341685 499.451667,16.190665 499.467,16.528 C499.482334,16.865335 499.505333,17.1336657 499.536,17.333 C499.536,17.4250005 499.532167,17.5093329 499.5245,17.586 C499.516833,17.662667 499.486167,17.7354997 499.4325,17.8045 C499.378833,17.8735003 499.286834,17.9463329 499.1565,18.023 C499.026166,18.099667 498.846001,18.1993327 498.616,18.322 C498.355332,18.4600007 498.152168,18.5060002 498.0065,18.46 C497.860833,18.4139998 497.788,18.3296673 497.788,18.207 L497.788,16.873 L491.509,16.873 L491.509,17.54 C491.509,17.7546677 491.451501,17.9309993 491.3365,18.069 C491.2215,18.2070007 490.980002,18.3603325 490.612,18.529 C490.259332,18.6670007 490.044667,18.7015003 489.968,18.6325 C489.891333,18.5634997 489.868333,18.3143355 489.899,17.885 C489.914334,17.6549988 489.9335,17.3828349 489.9565,17.0685 C489.9795,16.7541651 489.994833,16.4360016 490.0025,16.114 C490.010167,15.7919984 490.017833,15.4738349 490.0255,15.1595 C490.033167,14.8451651 490.037,14.5730011 490.037,14.343 L490.037,9.421 C490.037,8.85366383 490.033167,8.36300207 490.0255,7.949 C490.017833,7.53499793 489.998667,7.10566889 489.968,6.661 L491.486,7.466 L493.119,7.466 C493.211001,7.11333157 493.295333,6.76066843 493.372,6.408 C493.448667,6.05533157 493.517666,5.7256682 493.579,5.419 L490.083,5.419 C489.852999,5.419 489.596168,5.43816647 489.3125,5.4765 C489.028832,5.51483352 488.779668,5.57999954 488.565,5.672 L487.691,4.66 C488.043669,4.70600023 488.361832,4.73666659 488.6455,4.752 C488.929168,4.76733341 489.239665,4.775 489.577,4.775 L495.258,4.775 C495.748669,4.02366291 496.154999,3.32983651 496.477,2.6935 C496.799002,2.05716348 497.082666,1.38633686 497.328,0.681 L499.076,1.831 C499.275334,1.96900069 499.367334,2.07249965 499.352,2.1415 C499.336667,2.21050034 499.237001,2.26799977 499.053,2.314 C498.884333,2.36000023 498.715668,2.42516624 498.547,2.5095 C498.378333,2.59383375 498.175168,2.72033249 497.9375,2.889 C497.699832,3.05766751 497.423835,3.2953318 497.1095,3.602 C496.795165,3.9086682 496.423336,4.29966429 495.994,4.775 L499.651,4.775 L501.054,3.073 L502.664,5.028 Z M484.448,12.94 C484.417333,13.016667 484.379,13.0933329 484.333,13.17 C484.287,13.246667 484.256334,13.3079998 484.241,13.354 C484.164333,13.5073341 484.057001,13.584 483.919,13.584 C483.780999,13.584 483.558668,13.545667 483.252,13.469 C483.021999,13.4076664 482.899334,13.338667 482.884,13.262 C482.868667,13.1853329 482.945333,13.016668 483.114,12.756 C483.282668,12.495332 483.458999,12.2116682 483.643,11.905 C483.827001,11.5983318 483.980333,11.3376677 484.103,11.123 L485.529,8.455 L484.241,8.455 C483.918999,8.455 483.658334,8.47416647 483.459,8.5125 C483.259666,8.55083352 483.060334,8.61599954 482.861,8.708 L482.102,7.719 C482.424002,7.78033364 482.711499,7.81866659 482.9645,7.834 C483.217501,7.84933341 483.497332,7.857 483.804,7.857 L485.552,7.857 L486.357,6.868 L487.461,8.041 C487.583667,8.20966751 487.641167,8.33616624 487.6335,8.4205 C487.625833,8.50483375 487.522334,8.58533295 487.323,8.662 C487.154333,8.72333364 486.981834,8.84599908 486.8055,9.03 C486.629166,9.21400092 486.433668,9.50533134 486.219,9.904 L484.816,12.319 L485.966,12.319 L486.771,11.33 L487.944,12.434 C488.051334,12.5566673 488.101167,12.6486664 488.0935,12.71 C488.085833,12.7713336 488.005334,12.8479995 487.852,12.94 L487.53,13.124 C487.345999,14.8413419 487.008669,16.2443279 486.518,17.333 C487.82134,18.4523389 489.860653,19.1461653 492.636,19.4145 C495.411347,19.6828347 498.999311,19.5103364 503.4,18.897 L503.4,19.15 C502.863331,19.2880007 502.483835,19.4681656 502.2615,19.6905 C502.039166,19.9128344 501.897334,20.2156647 501.836,20.599 C501.820667,20.7216673 501.782334,20.8021665 501.721,20.8405 C501.659666,20.8788335 501.537001,20.898 501.353,20.898 C498.914988,20.9593336 496.864175,20.9478338 495.2005,20.8635 C493.536825,20.7791662 492.133839,20.6220011 490.9915,20.392 C489.849161,20.1619988 488.902337,19.8553352 488.151,19.472 C487.399663,19.0886647 486.717337,18.6210028 486.104,18.069 C485.674665,18.7896703 485.14567,19.4106641 484.517,19.932 C483.88833,20.4533359 483.114005,20.9363311 482.194,21.381 L482.056,21.059 C483.420674,20.0469949 484.421164,18.8586735 485.0575,17.494 C485.693837,16.1293265 486.073333,14.6113417 486.196,12.94 L484.448,12.94 Z M497.788,13.906 L491.509,13.906 L491.509,16.252 L497.788,16.252 L497.788,13.906 Z M497.788,8.087 L491.509,8.087 L491.509,10.387 L497.788,10.387 L497.788,8.087 Z M497.788,11.031 L491.509,11.031 L491.509,13.262 L497.788,13.262 L497.788,11.031 Z M487.116,4.729 C487.116,5.21966912 486.997168,5.57233226 486.7595,5.787 C486.521832,6.00166774 486.249668,6.109 485.943,6.109 C485.682332,6.109 485.513667,5.81766958 485.437,5.235 C485.329666,4.66766383 485.134168,4.11566935 484.8505,3.579 C484.566832,3.04233065 484.225669,2.48266958 483.827,1.9 L483.988,1.601 C484.478669,1.83100115 484.919498,2.09166521 485.3105,2.383 C485.701502,2.67433479 486.031165,2.96183191 486.2995,3.2455 C486.567835,3.52916808 486.770999,3.80133203 486.909,4.062 C487.047001,4.32266797 487.116,4.54499908 487.116,4.729 Z M493.579,3.142 C493.579,3.51000184 493.490834,3.82433203 493.3145,4.085 C493.138166,4.34566797 492.927335,4.476 492.682,4.476 C492.451999,4.476 492.268001,4.26133548 492.13,3.832 C491.961333,3.20333019 491.704502,2.69350195 491.3595,2.3025 C491.014498,1.91149804 490.681002,1.57800138 490.359,1.302 L490.497,1.026 C491.156337,1.1793341 491.689165,1.34799908 492.0955,1.532 C492.501835,1.71600092 492.812332,1.90383237 493.027,2.0955 C493.241668,2.28716762 493.387333,2.47116578 493.464,2.6475 C493.540667,2.82383421 493.579,2.9886659 493.579,3.142 Z"/>
    <path fill="#221F20" d="M393.1846,5.825 C393.1846,4.771 392.7266,3.741 391.3986,3.741 C390.3446,3.741 389.4066,4.703 389.4066,6.215 C389.4066,7.222 389.7046,8.047 390.5746,9.238 C392.5436,8.322 393.1846,7.314 393.1846,5.825 M387.0926,14.552 C387.0926,16.979 388.9706,18.559 390.8716,18.559 C392.3376,18.559 393.4366,18.125 394.6506,16.911 C392.8416,14.872 391.3066,13.062 389.3826,10.589 C388.0546,11.39 387.0926,12.558 387.0926,14.552 M387.5966,6.604 C387.5966,4.749 389.0846,3.077 391.4216,3.077 C393.7576,3.077 394.9256,4.291 394.9256,5.871 C394.9256,7.887 393.2306,8.802 390.9406,9.788 C392.4746,11.712 394.1236,13.635 395.8196,15.468 C396.1856,14.918 396.5746,14.116 396.8266,13.36 C397.0556,12.696 397.1476,12.192 397.1476,11.848 C397.1476,11.574 397.1016,11.39 397.0096,11.254 C396.7116,10.75 395.9106,10.635 395.3836,10.589 C395.2236,10.566 395.1776,10.52 395.1776,10.268 C395.1776,9.994 395.2236,9.948 395.3836,9.948 C396.1856,9.994 397.0556,10.04 397.8796,10.04 C398.7276,10.04 399.3696,9.994 400.1936,9.948 C400.3536,9.948 400.3996,9.971 400.3996,10.222 C400.3996,10.52 400.3536,10.566 400.1936,10.589 C399.6666,10.68 399.1396,10.75 398.7276,11.254 C398.3376,11.758 398.0856,12.422 397.6056,13.566 C397.1696,14.506 396.7816,15.307 396.2996,15.926 C397.8116,17.506 398.6356,18.239 399.1856,18.559 C399.6216,18.765 400.1936,18.881 400.6746,18.926 C400.8576,18.926 400.9036,18.949 400.9036,19.201 C400.9036,19.429 400.8576,19.475 400.6746,19.475 C400.0336,19.429 399.3236,19.384 398.7276,19.384 C398.0636,19.384 397.6516,19.384 396.9416,19.429 C396.5296,18.857 396.0716,18.377 395.1546,17.369 C393.6666,18.971 392.1316,19.888 390.1166,19.888 C387.2076,19.888 384.9856,18.01 384.9856,15.17 C384.9856,12.604 386.6576,11.322 388.9486,10.04 C387.9166,8.665 387.5966,7.589 387.5966,6.604"/>
    <path fill="#231F20" stroke="#231F20" stroke-width=".2" d="M239.061,1.877 L248.652,1.877 L249.664,0.612 L251.136,2.038 C251.243334,2.14533387 251.297,2.23733295 251.297,2.314 C251.297,2.39066705 251.228001,2.49033272 251.09,2.613 L250.538,3.004 L250.538,6.04 C250.538,6.54600253 250.553333,7.0289977 250.584,7.489 L250.653,8.685 C250.653,8.89966774 250.595501,9.05299954 250.4805,9.145 C250.365499,9.23700046 250.131668,9.34049942 249.779,9.4555 C249.426332,9.57050057 249.181001,9.628 249.043,9.628 C248.904999,9.628 248.836,9.53600092 248.836,9.352 L248.836,8.593 L238.601,8.593 C238.631667,8.88433479 238.424669,9.11816578 237.98,9.2945 C237.535331,9.47083421 237.236334,9.559 237.083,9.559 C236.929666,9.559 236.853,9.42866797 236.853,9.168 L236.922,7.949 C236.937333,7.4889977 236.945,6.75300506 236.945,5.741 L236.945,2.797 C236.945,2.27566406 236.922,1.56267119 236.876,0.658 L239.061,1.877 Z M248.836,4.844 L248.836,2.521 L238.601,2.521 L238.601,4.844 L248.836,4.844 Z M248.836,7.949 L248.836,5.488 L238.601,5.488 L238.601,7.949 L248.836,7.949 Z M238.118,12.871 C237.029328,14.6343421 235.626342,16.3056588 233.909,17.885 L233.495,17.632 C235.580344,15.0099869 236.944997,12.4110129 237.589,9.835 L239.544,10.64 C239.697334,10.7013336 239.774,10.7703329 239.774,10.847 C239.774,10.923667 239.666668,11.0003329 239.452,11.077 C239.237332,11.153667 238.923002,11.5369965 238.509,12.227 L242.925,12.227 C242.925,11.1689947 242.894334,10.0956721 242.833,9.007 L245.271,9.743 C245.439668,9.78900023 245.524,9.86183283 245.524,9.9615 C245.524,10.0611672 245.439668,10.1569995 245.271,10.249 L244.673,10.594 L244.673,12.227 L249.526,12.227 L250.883,10.571 L252.47,12.457 C252.546667,12.5796673 252.585,12.6793329 252.585,12.756 C252.585,12.832667 252.493001,12.871 252.309,12.871 L244.673,12.871 L244.673,15.93 L248.284,15.93 L249.549,14.412 L251.021,16.16 C251.128334,16.2826673 251.182,16.3823329 251.182,16.459 C251.182,16.535667 251.074668,16.574 250.86,16.574 L244.673,16.574 L244.673,19.909 L250.952,19.909 L252.447,18.138 L254.172,20.162 C254.264,20.2846673 254.31,20.3843329 254.31,20.461 C254.31,20.537667 254.202668,20.576 253.988,20.576 L235.542,20.576 C234.882663,20.576 234.353669,20.6526659 233.955,20.806 L233.127,19.794 C233.70967,19.870667 234.345997,19.909 235.036,19.909 L242.925,19.909 L242.925,16.574 L238.992,16.574 C238.347997,16.574 237.826669,16.6506659 237.428,16.804 L236.577,15.792 C237.15967,15.8840005 237.795997,15.93 238.486,15.93 L242.925,15.93 L242.925,12.871 L238.118,12.871 Z M268.004,0.451 C269.046672,0.71166797 269.748165,0.98766521 270.1085,1.279 C270.468835,1.57033479 270.649,1.91916463 270.649,2.3255 C270.649,2.73183536 270.568501,3.04616555 270.4075,3.2685 C270.246499,3.49083444 270.016501,3.602 269.7175,3.602 C269.418498,3.602 269.215334,3.3720023 269.108,2.912 C268.893332,1.93066176 268.487003,1.2100023 267.889,0.75 L268.004,0.451 Z M262.599,3.671 L275.755,3.671 L277.135,2.038 L278.584,3.786 C278.752668,3.97000092 278.837,4.10416624 278.837,4.1885 C278.837,4.27283375 278.699001,4.315 278.423,4.315 L262.392,4.315 L262.392,9.582 C262.392,12.4340143 262.058503,14.8183237 261.3915,16.735 C260.724497,18.6516762 259.685674,20.338326 258.275,21.795 L257.976,21.542 C258.972672,20.0699926 259.689498,18.567341 260.1265,17.034 C260.563502,15.500659 260.782,13.1930154 260.782,10.111 L260.782,4.775 C260.782,3.97766268 260.759,3.16500414 260.713,2.337 L262.599,3.671 Z M270.833,15.953 L270.833,19.978 L275.939,19.978 L277.342,18.322 L278.86,20.116 C278.982667,20.2693341 279.044,20.3881662 279.044,20.4725 C279.044,20.5568338 278.929001,20.599 278.699,20.599 L263.266,20.599 C262.621997,20.599 262.100669,20.6833325 261.702,20.852 L260.897,19.84 C261.47967,19.9320005 262.115997,19.978 262.806,19.978 L269.223,19.978 L269.223,15.953 L266.164,15.953 C265.53533,15.953 265.014002,16.0373325 264.6,16.206 L263.772,15.217 C264.35467,15.293667 264.990997,15.332 265.681,15.332 L269.223,15.332 L269.223,7.144 C269.223,6.26999563 269.192334,5.42667073 269.131,4.614 L271.132,5.373 C271.362001,5.44966705 271.477,5.54933272 271.477,5.672 C271.477,5.79466728 271.369668,5.90966613 271.155,6.017 L270.833,6.155 L270.833,15.332 L273.915,15.332 L275.272,13.722 L276.698,15.401 C276.836001,15.5850009 276.905,15.7229995 276.905,15.815 C276.905,15.9070005 276.774668,15.953 276.514,15.953 L270.833,15.953 Z M265.704,10.364 C264.98333,11.974008 263.92534,13.4766597 262.53,14.872 L262.254,14.688 C263.802674,12.5106558 264.883664,9.60501817 265.497,5.971 L267.153,6.937 C267.352334,7.04433387 267.452,7.13633295 267.452,7.213 C267.452,7.28966705 267.371501,7.35483306 267.2105,7.4085 C267.049499,7.46216693 266.930667,7.55416601 266.854,7.6845 C266.777333,7.81483398 266.647001,8.1099977 266.463,8.57 L265.911,9.904 C267.766343,11.0080055 268.694,11.858997 268.694,12.457 C268.694,12.794335 268.605834,13.1086652 268.4295,13.4 C268.253166,13.6913348 268.053834,13.837 267.8315,13.837 C267.609166,13.837 267.429001,13.5993357 267.291,13.124 C267.091666,12.2959959 266.562671,11.3760051 265.704,10.364 Z M274.329,9.881 C276.920346,10.7550044 278.216,11.6749952 278.216,12.641 C278.216,13.0243352 278.147001,13.3501653 278.009,13.6185 C277.870999,13.8868347 277.706168,14.021 277.5145,14.021 C277.322832,14.021 277.119668,13.8293352 276.905,13.446 C276.260997,12.2653274 275.333339,11.2380044 274.122,10.364 C273.385996,12.0353417 272.473672,13.4613274 271.385,14.642 L271.132,14.435 C272.328006,12.5949908 273.247997,9.84268499 273.892,6.178 L275.479,7.075 C275.693668,7.19766728 275.801,7.30499954 275.801,7.397 C275.801,7.48900046 275.697501,7.56183306 275.4905,7.6155 C275.283499,7.66916693 275.072668,7.99499701 274.858,8.593 L274.329,9.881 Z M295.636,6.086 C294.96133,7.05200483 294.302003,7.85699678 293.658,8.501 L293.359,8.363 C294.217671,7.02899333 294.892331,5.79083904 295.383,4.6485 C295.873669,3.50616095 296.302998,2.10700828 296.671,0.451 L298.373,1.44 C298.557001,1.56266728 298.649,1.66616624 298.649,1.7505 C298.649,1.83483375 298.564667,1.91916624 298.396,2.0035 C298.227332,2.08783375 298.051001,2.23733226 297.867,2.452 C297.682999,2.66666774 297.533501,2.90433203 297.4185,3.165 C297.303499,3.42566797 297.123335,3.76299793 296.878,4.177 L300.558,4.177 L301.754,2.682 L303.226,4.453 C303.287334,4.54500046 303.318,4.62166636 303.318,4.683 C303.318,4.74433364 303.233667,4.775 303.065,4.775 L300.903,4.775 C300.366331,6.95234422 299.630338,8.62366084 298.695,9.789 C299.569004,10.4176698 301.247988,10.9159982 303.732,11.284 L303.732,11.583 C303.026663,11.6750005 302.566668,12.0889963 302.352,12.825 C302.321333,12.9630007 302.252334,13.032 302.145,13.032 C301.960999,13.032 301.370672,12.7751692 300.374,12.2615 C299.377328,11.7478308 298.580003,11.1996696 297.982,10.617 C296.770661,11.8436728 294.946012,12.7866634 292.508,13.446 L292.37,13.101 C294.762012,12.0583281 296.410329,10.9850055 297.315,9.881 C296.609663,8.97632881 296.050002,7.71134146 295.636,6.086 Z M296.51,4.775 L296.004,5.58 C296.58667,7.23600828 297.199997,8.40899655 297.844,9.099 C298.42667,8.19432881 298.940331,6.75300989 299.385,4.775 L296.51,4.775 Z M288.46,9.789 C287.233327,11.5063419 285.439345,12.8556618 283.078,13.837 L282.848,13.607 C284.979344,12.1963263 286.67366,10.5863424 287.931,8.777 L286.321,8.777 C286.321,9.09900161 286.271167,9.31366613 286.1715,9.421 C286.071833,9.52833387 285.903168,9.63949942 285.6655,9.7545 C285.427832,9.86950057 285.236167,9.927 285.0905,9.927 C284.944833,9.927 284.895,9.6970023 284.941,9.237 C284.987,8.7769977 285.01,8.2403364 285.01,7.627 L285.01,6.753 C285.01,6.20099724 284.987,5.52633732 284.941,4.729 L286.183,5.396 L288.483,5.396 L288.483,3.855 L285.309,3.855 C284.664997,3.855 284.143669,3.93933249 283.745,4.108 L282.963,3.119 C283.530336,3.19566705 284.166663,3.234 284.872,3.234 L288.483,3.234 C288.483,2.45199609 288.452334,1.57033824 288.391,0.589 L290.231,1.118 C290.384334,1.17933364 290.461,1.24833295 290.461,1.325 C290.461,1.40166705 290.384334,1.50899931 290.231,1.647 L289.771,2.038 L289.771,3.234 L292.163,3.234 L293.152,2.015 L294.256,3.395 C294.363334,3.51766728 294.417,3.62499954 294.417,3.717 C294.417,3.80900046 294.309668,3.855 294.095,3.855 L289.771,3.855 L289.771,5.396 L291.588,5.396 L292.324,4.591 L293.474,5.465 C293.612001,5.55700046 293.681,5.63366636 293.681,5.695 C293.681,5.75633364 293.619667,5.84066613 293.497,5.948 L293.129,6.247 L293.129,7.029 C293.129,7.36633502 293.136667,7.66533203 293.152,7.926 L293.198,8.639 C293.198,8.89966797 293.033168,9.09899931 292.7035,9.237 C292.373832,9.37500069 292.151501,9.444 292.0365,9.444 C291.921499,9.444 291.864,9.35200092 291.864,9.168 L291.864,8.777 L289.771,8.777 L289.771,9.743 C290.614338,9.81966705 291.277498,9.9308326 291.7605,10.0765 C292.243502,10.2221674 292.569332,10.3908324 292.738,10.5825 C292.906667,10.7741676 292.991,10.9964987 292.991,11.2495 C292.991,11.5025013 292.933501,11.7056659 292.8185,11.859 C292.703499,12.0123341 292.561667,12.089 292.393,12.089 C292.224332,12.089 292.009668,11.9356682 291.749,11.629 C291.181664,10.9389965 290.522337,10.4330016 289.771,10.111 L289.863,12.503 C289.863,12.7176677 289.824667,12.8748328 289.748,12.9745 C289.671333,13.0741672 289.487335,13.2006659 289.196,13.354 C288.904665,13.5073341 288.682334,13.584 288.529,13.584 C288.375666,13.584 288.299,13.415335 288.299,13.078 C288.299,13.0626666 288.325833,12.6295043 288.3795,11.7785 C288.433167,10.9274957 288.46,10.2643357 288.46,9.789 Z M289.771,8.156 L291.864,8.156 L291.864,5.925 L289.771,5.925 L289.771,8.156 Z M286.321,8.156 L288.483,8.156 L288.483,5.925 L286.321,5.925 L286.321,8.156 Z M294.325,20.185 L300.167,20.185 L301.547,18.414 L303.226,20.415 C303.302667,20.5223339 303.341,20.6143329 303.341,20.691 C303.341,20.767667 303.241334,20.806 303.042,20.806 L285.378,20.806 C284.74933,20.806 284.243335,20.8903325 283.86,21.059 L283.078,20.047 C283.614669,20.1390005 284.22033,20.185 284.895,20.185 L287.77,20.185 L287.77,17.402 C287.77,16.7733302 287.747,16.0756705 287.701,15.309 L289.541,15.999 C289.740334,16.0910005 289.84,16.1676664 289.84,16.229 C289.84,16.2903336 289.771001,16.3823327 289.633,16.505 L289.219,16.873 L289.219,20.185 L292.784,20.185 L292.784,14.688 L287.149,14.688 C286.581664,14.688 286.083335,14.7723325 285.654,14.941 L284.826,13.952 C285.393336,14.028667 286.006663,14.067 286.666,14.067 L298.764,14.067 L299.983,12.549 L301.409,14.297 C301.501,14.4043339 301.547,14.4963329 301.547,14.573 C301.547,14.649667 301.447334,14.688 301.248,14.688 L294.325,14.688 L294.325,16.942 L297.706,16.942 L298.856,15.539 L300.282,17.149 C300.389334,17.2716673 300.443,17.3751662 300.443,17.4595 C300.443,17.5438338 300.335668,17.586 300.121,17.586 L294.325,17.586 L294.325,20.185 Z M320.255,7.075 C318.936327,11.2456875 316.598017,14.5576544 313.24,17.011 L313.01,16.712 C315.816014,13.9213194 317.747995,10.5096868 318.806,6.477 L315.931,6.477 C315.30233,6.477 314.796335,6.56133249 314.413,6.73 L313.608,5.764 C314.175336,5.84066705 314.803997,5.879 315.494,5.879 L320.255,5.879 L320.255,3.74 C320.255,2.34465969 320.224334,1.10267211 320.163,0.014 L322.302,0.842 C322.547335,0.93400046 322.67,1.02983283 322.67,1.1295 C322.67,1.22916716 322.578001,1.34799931 322.394,1.486 L321.842,1.9 L321.842,5.879 L325.959,5.879 L327.362,4.246 L328.857,6.04 C328.979667,6.16266728 329.041,6.26616624 329.041,6.3505 C329.041,6.43483375 328.926001,6.477 328.696,6.477 L322.44,6.477 C323.084003,8.59301058 324.02316,10.3946592 325.2575,11.882 C326.491839,13.3693408 327.921659,14.4273302 329.547,15.056 L329.547,15.447 C329.148331,15.4163332 328.788002,15.4699993 328.466,15.608 C328.143998,15.7460007 327.914001,15.9299988 327.776,16.16 C327.637999,16.3900011 327.523,16.505 327.431,16.505 C327.246999,16.505 326.698838,16.0258381 325.7865,15.0675 C324.874162,14.1091619 324.099836,12.96684 323.4635,11.6405 C322.827163,10.31416 322.286669,8.59301058 321.842,6.477 L321.842,15.562 L323.291,15.562 L324.372,14.228 L325.637,15.723 C325.759667,15.8610007 325.821,15.9683329 325.821,16.045 C325.821,16.121667 325.721334,16.16 325.522,16.16 L321.842,16.16 C321.842,17.4173396 321.849667,18.3756634 321.865,19.035 L321.888,20.576 C321.888,20.8826682 321.650336,21.1471656 321.175,21.3695 C320.699664,21.5918344 320.408334,21.703 320.301,21.703 C320.193666,21.703 320.120833,21.6493339 320.0825,21.542 C320.044166,21.4346661 320.040333,21.2046684 320.071,20.852 C320.178334,19.7479945 320.239667,18.1840101 320.255,16.16 L317.84,16.16 C317.21133,16.16 316.697669,16.2443325 316.299,16.413 L315.517,15.447 C316.069003,15.523667 316.689997,15.562 317.38,15.562 L320.255,15.562 L320.255,7.075 Z M311.101,8.202 C310.088995,9.82734146 308.985006,11.2073277 307.789,12.342 L307.513,12.089 C310.135013,8.34764796 311.867662,4.39935411 312.711,0.244 L314.551,1.256 C314.796335,1.39400069 314.919,1.51283283 314.919,1.6125 C314.919,1.71216716 314.784835,1.81183283 314.5165,1.9115 C314.248165,2.01116716 313.968335,2.39832996 313.677,3.073 C313.247664,4.10033847 312.818335,5.03566245 312.389,5.879 L312.895,6.132 C313.079001,6.23933387 313.171,6.32749965 313.171,6.3965 C313.171,6.46550034 313.102001,6.55366613 312.964,6.661 L312.619,6.868 L312.619,16.068 C312.619,17.5706742 312.634333,18.6401635 312.665,19.2765 C312.695667,19.9128365 312.711,20.2616664 312.711,20.323 C312.711,20.6296682 312.484836,20.9056654 312.0325,21.151 C311.580164,21.3963346 311.277334,21.519 311.124,21.519 C310.970666,21.519 310.894,21.3426684 310.894,20.99 L311.009,18.759 C311.070334,17.7623283 311.101,16.6966723 311.101,15.562 L311.101,8.202 Z M332.799,19.127 C334.393675,18.1303283 335.612662,17.5246677 336.456,17.31 L336.456,9.605 L334.984,9.605 C334.554664,9.605 334.228834,9.62033318 334.0065,9.651 C333.784166,9.68166682 333.588667,9.75066613 333.42,9.858 L332.592,8.823 C332.960002,8.88433364 333.289665,8.92266659 333.581,8.938 C333.872335,8.95333341 334.178998,8.961 334.501,8.961 L336.456,8.961 L337.215,7.857 L338.503,9.122 C338.671667,9.29066751 338.756,9.40949965 338.756,9.4785 C338.756,9.54750034 338.679334,9.64333272 338.526,9.766 L338.043,10.203 L338.043,17.379 C338.104334,17.4250002 338.177166,17.4786664 338.2615,17.54 C338.345834,17.6013336 338.434,17.6703329 338.526,17.747 C339.093336,18.2223357 339.821662,18.5519991 340.711,18.736 C341.600338,18.9200009 342.796326,19.0196666 344.299,19.035 C345.280338,19.0503334 346.173496,19.0541667 346.9785,19.0465 C347.783504,19.0388333 348.565496,19.0196668 349.3245,18.989 C350.083504,18.9583332 350.853996,18.904667 351.636,18.828 C352.418004,18.7513329 353.268995,18.6440007 354.189,18.506 L354.189,18.851 C353.621664,19.0503343 353.219168,19.3148317 352.9815,19.6445 C352.743832,19.9741683 352.609667,20.269332 352.579,20.53 C352.548333,20.6373339 352.494667,20.7063332 352.418,20.737 C352.341333,20.7676668 352.195668,20.783 351.981,20.783 C351.060995,20.7523332 350.225337,20.7255001 349.474,20.7025 C348.722663,20.6794999 348.025003,20.6565001 347.381,20.6335 C346.736997,20.6104999 346.135169,20.5913334 345.5755,20.576 C345.01583,20.5606666 344.475336,20.5376668 343.954,20.507 C343.217996,20.4609998 342.581669,20.4073336 342.045,20.346 C341.508331,20.2846664 341.017669,20.1773341 340.573,20.024 C340.128331,19.8706659 339.683669,19.6560014 339.239,19.38 C338.794331,19.1039986 338.296003,18.7283357 337.744,18.253 C337.437332,17.992332 337.146001,17.8696666 336.87,17.885 C336.593999,17.9003334 336.302668,18.0689984 335.996,18.391 C335.643332,18.7590018 335.355834,19.1001651 335.1335,19.4145 C334.911166,19.7288349 334.669668,20.0853313 334.409,20.484 C334.301666,20.6526675 334.217334,20.7408333 334.156,20.7485 C334.094666,20.7561667 334.010334,20.6986673 333.903,20.576 L332.799,19.127 Z M352.418,15.654 C352.418,16.8653394 352.065337,17.471 351.36,17.471 C351.298666,17.471 351.195167,17.4020007 351.0495,17.264 C350.903833,17.1259993 350.792667,16.9036682 350.716,16.597 C350.654666,16.4129991 350.601,16.2328342 350.555,16.0565 C350.509,15.8801658 350.455334,15.7076675 350.394,15.539 L345.472,16.137 C344.689996,16.2290005 344.057502,16.3094997 343.5745,16.3785 C343.091498,16.4475003 342.700501,16.5088331 342.4015,16.5625 C342.102498,16.6161669 341.861001,16.6774997 341.677,16.7465 C341.492999,16.8155003 341.324334,16.8959995 341.171,16.988 C340.879665,17.1260007 340.680334,17.0723346 340.573,16.827 L339.837,15.263 L341.309,15.263 C341.830336,14.5576631 342.309498,13.86767 342.7465,13.193 C343.183502,12.51833 343.566832,11.882003 343.8965,11.284 C344.226168,10.685997 344.502166,10.1455024 344.7245,9.6625 C344.946834,9.17949758 345.111666,8.77700161 345.219,8.455 L341.631,8.455 C341.400999,8.455 341.140335,8.47416647 340.849,8.5125 C340.557665,8.55083352 340.297001,8.61599954 340.067,8.708 L339.216,7.696 C339.568668,7.74200023 339.890665,7.77266659 340.182,7.788 C340.473335,7.80333341 340.787665,7.811 341.125,7.811 L350.486,7.811 L351.889,6.178 L353.614,8.064 C353.767334,8.23266751 353.828667,8.33999977 353.798,8.386 C353.767333,8.43200023 353.644668,8.455 353.43,8.455 L345.61,8.455 L347.082,9.329 C347.281334,9.45166728 347.365667,9.57433272 347.335,9.697 C347.304333,9.81966728 347.189334,9.90399977 346.99,9.95 C346.867333,9.98066682 346.756167,10.0228331 346.6565,10.0765 C346.556833,10.1301669 346.449501,10.2106661 346.3345,10.318 C346.219499,10.4253339 346.085334,10.5709991 345.932,10.755 C345.778666,10.9390009 345.587001,11.1766652 345.357,11.468 C345.188332,11.6980011 344.977501,11.9778317 344.7245,12.3075 C344.471499,12.6371683 344.207001,12.9744983 343.931,13.3195 C343.654999,13.6645017 343.386668,14.005665 343.126,14.343 C342.865332,14.680335 342.635334,14.9639988 342.436,15.194 L350.187,15.01 C349.926332,14.3813302 349.608169,13.8025026 349.2325,13.2735 C348.856831,12.7444974 348.400669,12.2423357 347.864,11.767 L348.163,11.514 C348.92967,11.9280021 349.581331,12.3419979 350.118,12.756 C350.654669,13.1700021 351.095498,13.5609982 351.4405,13.929 C351.785502,14.2970018 352.034666,14.6304985 352.188,14.9295 C352.341334,15.2285015 352.418,15.4699991 352.418,15.654 Z M348.899,2.705 L350.279,1.072 L351.958,2.912 C352.234001,3.20333479 352.172669,3.349 351.774,3.349 L343.425,3.349 C343.194999,3.349 342.934335,3.36816647 342.643,3.4065 C342.351665,3.44483352 342.091001,3.50233295 341.861,3.579 L340.987,2.567 C341.355002,2.61300023 341.680832,2.64749988 341.9645,2.6705 C342.248168,2.69350011 342.558665,2.705 342.896,2.705 L348.899,2.705 Z M338.848,3.763 C338.848,4.29966935 338.748334,4.72516509 338.549,5.0395 C338.349666,5.3538349 338.096668,5.511 337.79,5.511 C337.651999,5.511 337.510167,5.4305008 337.3645,5.2695 C337.218833,5.10849919 337.138333,4.92833433 337.123,4.729 C337.107667,4.46833203 337.046334,4.1846682 336.939,3.878 C336.831666,3.5713318 336.693667,3.2608349 336.525,2.9465 C336.356332,2.63216509 336.164668,2.33700138 335.95,2.061 C335.735332,1.78499862 335.513001,1.53966774 335.283,1.325 L335.513,1.003 C336.18767,1.29433479 336.739664,1.57033203 337.169,1.831 C337.598335,2.09166797 337.939499,2.33316555 338.1925,2.5555 C338.445501,2.77783444 338.618,2.98866567 338.71,3.188 C338.802,3.38733433 338.848,3.57899908 338.848,3.763 Z M363.168,4.89 L360.937,4.89 C360.26233,4.89 359.748668,4.9666659 359.396,5.12 L358.614,4.131 C359.181336,4.22300046 359.80233,4.269 360.477,4.269 L363.168,4.269 C363.168,1.9689885 363.129667,0.64266843 363.053,0.29 L365.215,1.256 C365.414334,1.34800046 365.514,1.42849965 365.514,1.4975 C365.514,1.56650034 365.414334,1.66233272 365.215,1.785 L364.594,2.13 L364.594,4.269 L365.514,4.269 L366.503,3.073 L367.653,4.407 C367.791001,4.57566751 367.86,4.69833295 367.86,4.775 C367.86,4.85166705 367.745001,4.89 367.515,4.89 L364.594,4.89 L364.594,6.845 L367.745,6.017 L367.86,6.454 L364.594,7.65 L364.594,10.295 C364.594,11.0156703 364.502001,11.5484983 364.318,11.8935 C364.133999,12.2385017 363.812002,12.5643318 363.352,12.871 C362.891998,13.1776682 362.604501,13.331 362.4895,13.331 C362.374499,13.331 362.301667,13.2390009 362.271,13.055 C362.117666,12.4263302 361.297341,11.9050021 359.81,11.491 L359.856,11.169 C360.898672,11.3070007 361.642331,11.376 362.087,11.376 C362.531669,11.376 362.822999,11.310834 362.961,11.1805 C363.099001,11.050166 363.168,10.8240016 363.168,10.502 L363.168,8.156 C362.094661,8.55466866 360.937006,9.0606636 359.695,9.674 C359.587666,9.75066705 359.503334,9.789 359.442,9.789 C359.380666,9.789 359.327,9.74300046 359.281,9.651 L358.568,8.386 L363.168,7.213 L363.168,4.89 Z M370.183,4.982 C369.354996,5.07400046 368.757002,5.17366613 368.389,5.281 L367.699,4.361 C368.097669,4.42233364 368.477165,4.453 368.8375,4.453 C369.197835,4.453 369.653997,4.43000023 370.206,4.384 C370.236667,3.44866199 370.252,2.67816969 370.252,2.0725 C370.252,1.4668303 370.244333,0.89566935 370.229,0.359 L372.23,1.302 C372.414001,1.39400046 372.506,1.47449965 372.506,1.5435 C372.506,1.61250034 372.414001,1.70833272 372.23,1.831 C372.045999,1.95366728 371.923334,2.0916659 371.862,2.245 C371.800666,2.3983341 371.754667,2.71266429 371.724,3.188 C371.693333,3.66333571 371.662667,4.02366544 371.632,4.269 L374.07,4.039 L374.898,3.004 L376.232,4.246 C376.354667,4.35333387 376.416,4.44533295 376.416,4.522 C376.416,4.59866705 376.347001,4.67533295 376.209,4.752 L375.427,5.212 C375.196999,5.99400391 375.082,6.75299632 375.082,7.489 C375.082,8.22500368 375.166332,8.88049712 375.335,9.4555 C375.503667,10.0305029 375.733665,10.486665 376.025,10.824 C376.316335,11.161335 376.546332,11.33 376.715,11.33 C376.883667,11.33 377.059999,11.1076689 377.244,10.663 C377.428001,10.2183311 377.711665,9.35200644 378.095,8.064 L378.509,8.156 C378.217665,9.39800621 378.072,10.3754964 378.072,11.0885 C378.072,11.8015036 378.129499,12.288332 378.2445,12.549 C378.359501,12.809668 378.417,13.0204992 378.417,13.1815 C378.417,13.3425008 378.263668,13.423 377.957,13.423 C377.650332,13.423 377.102171,13.2083355 376.3125,12.779 C375.522829,12.3496645 374.898002,11.667338 374.438,10.732 C373.977998,9.79666199 373.748,8.66967326 373.748,7.351 C373.748,6.50766245 373.847666,5.60300483 374.047,4.637 L371.563,4.867 C371.378999,6.32367395 371.133668,7.47366245 370.827,8.317 C371.563004,8.70033525 371.988499,9.00316555 372.1035,9.2255 C372.218501,9.44783444 372.276,9.68933203 372.276,9.95 C372.276,10.210668 372.210834,10.444499 372.0805,10.6515 C371.950166,10.858501 371.766168,10.962 371.5285,10.962 C371.290832,10.962 371.099167,10.8048349 370.9535,10.4905 C370.807833,10.1761651 370.581668,9.84266843 370.275,9.49 C369.814998,10.2413371 369.148004,10.8776641 368.274,11.399 C367.399996,11.9203359 366.035343,12.51833 364.18,13.193 L363.996,12.825 C366.894014,11.4449931 368.672663,10.0573403 369.332,8.662 C368.795331,8.26333134 368.128337,7.86466866 367.331,7.466 L367.561,7.213 C368.220337,7.33566728 368.940996,7.54266521 369.723,7.834 C369.983668,7.03666268 370.137,6.08600552 370.183,4.982 Z M366.204,14.895 L361.765,14.895 C361.13633,14.895 360.622669,14.9793325 360.224,15.148 L359.442,14.159 C359.994003,14.235667 360.614997,14.274 361.305,14.274 L366.411,14.274 C366.579667,13.6913304 366.702333,13.0090039 366.779,12.227 L368.642,12.917 C368.887335,13.0090005 369.01,13.0933329 369.01,13.17 C369.01,13.246667 368.883501,13.3616659 368.6305,13.515 C368.377499,13.6683341 368.174334,13.9213316 368.021,14.274 L373.012,14.274 L373.978,13.193 L375.657,14.573 C375.764334,14.6956673 375.818,14.8183327 375.818,14.941 C375.818,15.0636673 375.726001,15.1479998 375.542,15.194 L374.76,15.424 C374.591332,16.359338 374.380501,17.3176618 374.1275,18.299 C373.874499,19.2803382 373.590835,19.9434983 373.2765,20.2885 C372.962165,20.6335017 372.544336,20.9171656 372.023,21.1395 C371.501664,21.3618344 371.168167,21.473 371.0225,21.473 C370.876833,21.473 370.796333,21.3656677 370.781,21.151 C370.750333,20.7829982 370.539502,20.4533348 370.1485,20.162 C369.757498,19.8706652 368.994672,19.5410018 367.86,19.173 L367.952,18.782 C369.39334,19.0886682 370.378497,19.242 370.9075,19.242 C371.436503,19.242 371.815999,19.1500009 372.046,18.966 C372.276001,18.7819991 372.509832,18.2108381 372.7475,17.2525 C372.985168,16.2941619 373.142333,15.5083364 373.219,14.895 L367.791,14.895 C366.625661,18.9430202 363.313694,21.1203318 357.855,21.427 L357.855,21.128 C362.455023,20.1006615 365.237995,18.0230156 366.204,14.895 Z"/>
    <g fill="#221F20" transform="translate(202 3)">
      <path d="M3.5528 5.0837C3.5528 3.3127 3.4748 2.7387 2.3028 2.6347L1.0518 2.5307C.8438 2.4267.8178 2.0627 1.0268 1.9577 3.2138 1.5667 4.6468.8897 5.3228.4467 5.4278.4467 5.5328.4987 5.5838.5767 5.5328 1.0457 5.4808 2.3487 5.4808 3.8327L5.4808 13.9387C5.4808 15.9447 5.5328 16.3877 6.5998 16.4657L7.6948 16.5437C7.8508 16.6997 7.8238 17.1167 7.6418 17.1947 6.6258 17.1437 5.4538 17.1167 4.5418 17.1167 3.6048 17.1167 2.4328 17.1437 1.4168 17.1947 1.2348 17.1167 1.2078 16.6997 1.3638 16.5437L2.4328 16.4657C3.5268 16.3877 3.5528 15.9447 3.5528 13.9387L3.5528 5.0837zM21.1212 15.5017C22.3192 15.5017 23.1002 15.3457 23.5692 14.9297 24.0642 14.4857 24.2472 14.1477 24.4032 13.8607 24.5862 13.7827 24.8722 13.8607 24.9762 14.0177 24.6382 15.3197 24.1692 16.6747 23.7782 17.1947 22.7102 17.1437 21.6162 17.1167 20.4182 17.1167L16.6412 17.1167C15.1822 17.1167 14.3232 17.1437 13.7502 17.1947 13.6982 17.1687 13.5672 17.0647 13.5672 16.8557 13.5672 16.7777 13.6982 16.6747 13.8542 16.5697 15.0532 15.7887 15.9122 14.9027 17.8402 12.8187 19.5592 10.9697 21.5642 8.4427 21.5642 5.6557 21.5642 3.2857 20.4182 1.8537 18.3082 1.8537 16.7452 1.8537 15.6262 2.9217 14.9222 4.4577 14.6872 4.5887 14.2972 4.4577 14.2972 4.1197 15.1312 1.8277 17.1882.4467 19.5322.4467 22.1382.4467 23.8302 2.1917 23.8302 4.6927 23.8302 6.3077 23.0752 8.0787 21.0432 10.4227L19.4542 12.2457C17.3182 14.6947 17.0842 15.1107 17.0842 15.2677 17.0842 15.4497 17.2152 15.5017 17.8912 15.5017L21.1212 15.5017z"/>
    </g>
    <polygon fill="#221F20" points="171.81 4 171.81 10.802 178.589 10.802 178.589 11.81 171.81 11.81 171.81 18.635 170.779 18.635 170.779 11.81 164 11.81 164 10.802 170.779 10.802 170.779 4"/>
    <path fill="#231F20" stroke="#231F20" stroke-width=".2" d="M78.615,8.317 C78.3083318,10.7550122 77.7985036,12.7674921 77.0855,14.3545 C76.3724964,15.9415079 75.2378411,17.3598271 73.6815,18.6095 C72.1251589,19.8591729 70.3350101,20.7906636 68.311,21.404 L68.173,20.99 C70.902347,19.6559933 73.0106592,17.9118441 74.498,15.7575 C75.9853408,13.6031559 76.8209991,11.123014 77.005,8.317 L71.071,8.317 C70.4269968,8.317 69.9056687,8.40133249 69.507,8.57 L68.656,7.558 C69.2386696,7.63466705 69.8826631,7.673 70.588,7.673 L77.051,7.673 C77.1430005,6.35432674 77.189,5.03950655 77.189,3.7285 C77.189,2.41749344 77.1736668,1.17933916 77.143,0.014 L79.627,1.049 C79.887668,1.15633387 80.018,1.25216624 80.018,1.3365 C80.018,1.42083375 79.914501,1.52049942 79.7075,1.6355 C79.500499,1.75050057 79.3586671,1.90766567 79.282,2.107 C79.2053329,2.30633433 79.1210005,3.0193272 79.029,4.246 C78.9369995,5.4726728 78.8296673,6.61499471 78.707,7.673 L85.262,7.673 L86.78,5.833 L88.528,7.926 C88.6353339,8.03333387 88.689,8.12533295 88.689,8.202 C88.689,8.27866705 88.5816677,8.317 88.367,8.317 L79.765,8.317 C80.8536721,14.2203628 83.8743086,17.7316611 88.827,18.851 L88.804,19.242 C88.3746645,19.2726668 87.9606687,19.4106654 87.562,19.656 C87.1633313,19.9013346 86.8873341,20.1581653 86.734,20.4265 C86.5806659,20.6948347 86.4426673,20.829 86.32,20.829 C86.1053323,20.829 85.3080069,20.2501725 83.928,19.0925 C82.5479931,17.9348275 81.4900037,16.5625079 80.754,14.9755 C80.0179963,13.3884921 79.5120014,11.1690143 79.236,8.317 L78.615,8.317 Z M107.239,5.143 C106.640997,6.01700437 105.751673,7.08266038 104.571,8.34 L104.203,8.11 C105.138338,6.59199241 105.839831,5.3691713 106.3075,4.4415 C106.775169,3.51382869 107.338663,2.13767579 107.998,0.313 L109.792,1.118 C110.006668,1.22533387 110.114,1.31733295 110.114,1.394 C110.114,1.47066705 109.972168,1.5818326 109.6885,1.7275 C109.404832,1.87316739 109.197834,2.07249873 109.0675,2.3255 C108.937166,2.57850126 108.473337,3.30299402 107.676,4.499 L110.528,4.499 L111.632,3.418 L113.012,4.821 C113.211334,5.02033433 113.311,5.17366613 113.311,5.281 C113.311,5.38833387 113.161502,5.45733318 112.8625,5.488 C112.563499,5.51866682 112.306668,5.59533272 112.092,5.718 C111.877332,5.84066728 111.578335,6.08983145 111.195,6.4655 C110.811665,6.84116854 110.160005,7.54266153 109.24,8.57 L111.632,8.57 L112.575,7.65 L114.001,8.869 C114.108334,8.96100046 114.162,9.03766636 114.162,9.099 C114.162,9.16033364 114.108334,9.23699954 114.001,9.329 L113.357,9.881 L113.357,14.78 C113.357,15.2093355 113.372333,15.6539977 113.403,16.114 L113.518,17.31 C113.518,17.5860014 113.284169,17.8428321 112.8165,18.0805 C112.348831,18.3181679 112.049834,18.437 111.9195,18.437 C111.789166,18.437 111.724,18.3296677 111.724,18.115 L111.724,16.712 L106.089,16.712 C105.444997,16.712 104.923669,16.7963325 104.525,16.965 L103.674,15.953 C104.25667,16.029667 104.892997,16.068 105.583,16.068 L111.724,16.068 L111.724,12.802 L107.469,12.802 C106.824997,12.802 106.303669,12.8863325 105.905,13.055 L105.077,12.02 C105.644336,12.1120005 106.280663,12.158 106.986,12.158 L111.724,12.158 L111.724,9.214 L107.101,9.214 C106.456997,9.214 105.935669,9.29833249 105.537,9.467 L104.686,8.455 C105.26867,8.53166705 105.912663,8.57 106.618,8.57 L108.32,8.57 L110.689,5.143 L107.239,5.143 Z M100.293,5.212 L100.293,9.007 L102.363,9.007 L103.352,7.788 L104.525,9.145 C104.617001,9.26766728 104.663,9.37883283 104.663,9.4785 C104.663,9.57816716 104.563334,9.628 104.364,9.628 L96.4520001,9.628 C95.8079969,9.628 95.2866687,9.7046659 94.8880001,9.858 L94.0600001,8.869 C94.6426697,8.96100046 95.2789966,9.007 95.9690001,9.007 L98.7980001,9.007 L98.7980001,5.212 L97.1190001,5.212 C96.4749969,5.212 95.9536687,5.29633249 95.5550001,5.465 L94.7270001,4.476 C95.3096697,4.55266705 95.9459966,4.591 96.6360001,4.591 L98.7980001,4.591 L98.7980001,2.498 C98.7980001,1.91533042 98.7750003,1.20233755 98.7290001,0.359 L100.799,1.348 C101.029001,1.45533387 101.144,1.55116624 101.144,1.6355 C101.144,1.71983375 101.036668,1.83099931 100.822,1.969 L100.293,2.268 L100.293,4.591 L101.696,4.591 L102.777,3.257 L104.042,4.752 C104.164667,4.87466728 104.226,4.98199954 104.226,5.074 C104.226,5.16600046 104.118668,5.212 103.904,5.212 L100.293,5.212 Z M100.822,13.998 L100.822,18.46 C102.140673,19.1193366 104.80098,19.449 108.803,19.449 C110.765677,19.449 112.873989,19.3493343 115.128,19.15 L115.128,19.564 C114.192662,19.8093346 113.671334,20.2463302 113.564,20.875 C113.518,21.1050011 113.341668,21.22 113.035,21.22 C110.060319,21.22 107.748842,21.154834 106.1005,21.0245 C104.452159,20.894166 103.125838,20.6910014 102.1215,20.415 C101.117162,20.1389986 100.220171,19.6905031 99.4305001,19.0695 C98.6408295,18.4484969 97.8473374,17.5170062 97.0500001,16.275 C96.6513314,17.7163405 95.6546747,19.3416576 94.0600001,21.151 L93.6920001,20.898 C94.7500054,19.2726585 95.4399985,17.7355072 95.7620001,16.2865 C96.0840017,14.8374928 96.2526667,12.8326795 96.2680001,10.272 L98.0850001,11.261 C98.2230008,11.3223336 98.2920001,11.4028328 98.2920001,11.5025 C98.2920001,11.6021672 98.2306674,11.6903329 98.1080001,11.767 C97.8013319,11.9663343 97.6096671,12.4876624 97.5330001,13.331 C97.456333,14.1743375 97.3490008,14.9179968 97.2110001,15.562 C97.9316704,16.420671 98.6523298,17.1183306 99.3730001,17.655 L99.3730001,12.48 C99.3730001,11.4986618 99.3500003,10.5863375 99.3040001,9.743 L101.121,10.456 C101.351001,10.5633339 101.466,10.6591662 101.466,10.7435 C101.466,10.8278338 101.374001,10.9389993 101.19,11.077 L100.822,11.376 L100.822,13.354 L101.88,13.354 L102.846,12.135 L104.019,13.584 C104.126334,13.7220007 104.18,13.8254997 104.18,13.8945 C104.18,13.9635003 104.072668,13.998 103.858,13.998 L100.822,13.998 Z M124.938,4.89 L122.707,4.89 C122.03233,4.89 121.518669,4.9666659 121.166,5.12 L120.384,4.131 C120.951336,4.22300046 121.57233,4.269 122.247,4.269 L124.938,4.269 C124.938,1.9689885 124.899667,0.64266843 124.823,0.29 L126.985,1.256 C127.184335,1.34800046 127.284,1.42849965 127.284,1.4975 C127.284,1.56650034 127.184335,1.66233272 126.985,1.785 L126.364,2.13 L126.364,4.269 L127.284,4.269 L128.273,3.073 L129.423,4.407 C129.561001,4.57566751 129.63,4.69833295 129.63,4.775 C129.63,4.85166705 129.515001,4.89 129.285,4.89 L126.364,4.89 L126.364,6.845 L129.515,6.017 L129.63,6.454 L126.364,7.65 L126.364,10.295 C126.364,11.0156703 126.272001,11.5484983 126.088,11.8935 C125.903999,12.2385017 125.582002,12.5643318 125.122,12.871 C124.661998,13.1776682 124.374501,13.331 124.2595,13.331 C124.1445,13.331 124.071667,13.2390009 124.041,13.055 C123.887666,12.4263302 123.067341,11.9050021 121.58,11.491 L121.626,11.169 C122.668672,11.3070007 123.412331,11.376 123.857,11.376 C124.301669,11.376 124.592999,11.310834 124.731,11.1805 C124.869001,11.050166 124.938,10.8240016 124.938,10.502 L124.938,8.156 C123.864661,8.55466866 122.707006,9.0606636 121.465,9.674 C121.357666,9.75066705 121.273334,9.789 121.212,9.789 C121.150667,9.789 121.097,9.74300046 121.051,9.651 L120.338,8.386 L124.938,7.213 L124.938,4.89 Z M131.953,4.982 C131.124996,5.07400046 130.527002,5.17366613 130.159,5.281 L129.469,4.361 C129.867669,4.42233364 130.247165,4.453 130.6075,4.453 C130.967835,4.453 131.423997,4.43000023 131.976,4.384 C132.006667,3.44866199 132.022,2.67816969 132.022,2.0725 C132.022,1.4668303 132.014334,0.89566935 131.999,0.359 L134,1.302 C134.184001,1.39400046 134.276,1.47449965 134.276,1.5435 C134.276,1.61250034 134.184001,1.70833272 134,1.831 C133.815999,1.95366728 133.693334,2.0916659 133.632,2.245 C133.570667,2.3983341 133.524667,2.71266429 133.494,3.188 C133.463333,3.66333571 133.432667,4.02366544 133.402,4.269 L135.84,4.039 L136.668,3.004 L138.002,4.246 C138.124667,4.35333387 138.186,4.44533295 138.186,4.522 C138.186,4.59866705 138.117001,4.67533295 137.979,4.752 L137.197,5.212 C136.966999,5.99400391 136.852,6.75299632 136.852,7.489 C136.852,8.22500368 136.936333,8.88049712 137.105,9.4555 C137.273668,10.0305029 137.503665,10.486665 137.795,10.824 C138.086335,11.161335 138.316333,11.33 138.485,11.33 C138.653668,11.33 138.829999,11.1076689 139.014,10.663 C139.198001,10.2183311 139.481665,9.35200644 139.865,8.064 L140.279,8.156 C139.987665,9.39800621 139.842,10.3754964 139.842,11.0885 C139.842,11.8015036 139.8995,12.288332 140.0145,12.549 C140.129501,12.809668 140.187,13.0204992 140.187,13.1815 C140.187,13.3425008 140.033668,13.423 139.727,13.423 C139.420332,13.423 138.872171,13.2083355 138.0825,12.779 C137.29283,12.3496645 136.668002,11.667338 136.208,10.732 C135.747998,9.79666199 135.518,8.66967326 135.518,7.351 C135.518,6.50766245 135.617666,5.60300483 135.817,4.637 L133.333,4.867 C133.148999,6.32367395 132.903668,7.47366245 132.597,8.317 C133.333004,8.70033525 133.7585,9.00316555 133.8735,9.2255 C133.988501,9.44783444 134.046,9.68933203 134.046,9.95 C134.046,10.210668 133.980834,10.444499 133.8505,10.6515 C133.720166,10.858501 133.536168,10.962 133.2985,10.962 C133.060832,10.962 132.869168,10.8048349 132.7235,10.4905 C132.577833,10.1761651 132.351668,9.84266843 132.045,9.49 C131.584998,10.2413371 130.918005,10.8776641 130.044,11.399 C129.169996,11.9203359 127.805343,12.51833 125.95,13.193 L125.766,12.825 C128.664015,11.4449931 130.442664,10.0573403 131.102,8.662 C130.565331,8.26333134 129.898337,7.86466866 129.101,7.466 L129.331,7.213 C129.990337,7.33566728 130.710996,7.54266521 131.493,7.834 C131.753668,7.03666268 131.907,6.08600552 131.953,4.982 Z M127.974,14.895 L123.535,14.895 C122.90633,14.895 122.392669,14.9793325 121.994,15.148 L121.212,14.159 C121.764003,14.235667 122.384997,14.274 123.075,14.274 L128.181,14.274 C128.349668,13.6913304 128.472333,13.0090039 128.549,12.227 L130.412,12.917 C130.657335,13.0090005 130.78,13.0933329 130.78,13.17 C130.78,13.246667 130.653501,13.3616659 130.4005,13.515 C130.147499,13.6683341 129.944334,13.9213316 129.791,14.274 L134.782,14.274 L135.748,13.193 L137.427,14.573 C137.534334,14.6956673 137.588,14.8183327 137.588,14.941 C137.588,15.0636673 137.496001,15.1479998 137.312,15.194 L136.53,15.424 C136.361333,16.359338 136.150501,17.3176618 135.8975,18.299 C135.644499,19.2803382 135.360835,19.9434983 135.0465,20.2885 C134.732165,20.6335017 134.314336,20.9171656 133.793,21.1395 C133.271664,21.3618344 132.938168,21.473 132.7925,21.473 C132.646833,21.473 132.566334,21.3656677 132.551,21.151 C132.520333,20.7829982 132.309502,20.4533348 131.9185,20.162 C131.527498,19.8706652 130.764673,19.5410018 129.63,19.173 L129.722,18.782 C131.163341,19.0886682 132.148498,19.242 132.6775,19.242 C133.206503,19.242 133.585999,19.1500009 133.816,18.966 C134.046001,18.7819991 134.279832,18.2108381 134.5175,17.2525 C134.755168,16.2941619 134.912333,15.5083364 134.989,14.895 L129.561,14.895 C128.395661,18.9430202 125.083694,21.1203318 119.625,21.427 L119.625,21.128 C124.225023,20.1006615 127.007995,18.0230156 127.974,14.895 Z"/>
    <g fill="#221F20" transform="translate(0 2)">
      <path d="M8.0528 16.0711C9.2508 16.0711 10.0328 15.9151 10.5008 15.4991 10.9958 15.0551 11.1788 14.7171 11.3348 14.4301 11.5178 14.3521 11.8038 14.4301 11.9078 14.5871 11.5698 15.8891 11.1008 17.2441 10.7098 17.7641 9.6418 17.7131 8.5478 17.6861 7.3498 17.6861L3.5728 17.6861C2.1138 17.6861 1.2548 17.7131.6818 17.7641.6298 17.7381.4988 17.6341.4988 17.4251.4988 17.3471.6298 17.2441.7858 17.1391 1.9848 16.3581 2.8438 15.4721 4.7718 13.3881 6.4908 11.5391 8.4958 9.0121 8.4958 6.2251 8.4958 3.8551 7.3498 2.4231 5.2398 2.4231 3.6768 2.4231 2.5578 3.4911 1.8538 5.0271 1.6188 5.1581 1.2288 5.0271 1.2288 4.6891 2.0628 2.3971 4.1198 1.0161 6.4638 1.0161 9.0698 1.0161 10.7618 2.7611 10.7618 5.2621 10.7618 6.8771 10.0068 8.6481 7.9748 10.9921L6.3858 12.8151C4.2498 15.2641 4.0158 15.6801 4.0158 15.8371 4.0158 16.0191 4.1468 16.0711 4.8228 16.0711L8.0528 16.0711zM31.795 9.8201C31.795 5.5221 29.894.8861 24.919.8861 22.21.8861 18.693 2.7351 18.693 8.4391 18.693 12.2951 20.568 17.2961 25.7 17.2961 28.825 17.2961 31.795 14.9511 31.795 9.8201M16.089 9.2731C16.089 4.0641 19.996.0791 25.361.0791 31.378.0791 34.399 4.4281 34.399 9.0121 34.399 14.2741 30.389 18.1031 25.361 18.1031 19.579 18.1031 16.089 13.9621 16.089 9.2731M43.3751 5.653C43.3751 3.882 43.2971 3.308 42.1251 3.204L40.8741 3.1C40.6661 2.996 40.6401 2.632 40.8491 2.527 43.0361 2.136 44.4691 1.459 45.1461 1.016 45.2501 1.016 45.3551 1.068 45.4061 1.146 45.3551 1.615 45.3031 2.918 45.3031 4.402L45.3031 14.509C45.3031 16.514 45.3551 16.957 46.4221 17.035L47.5171 17.113C47.6731 17.269 47.6461 17.686 47.4641 17.764 46.4481 17.713 45.2761 17.686 44.3641 17.686 43.4271 17.686 42.2551 17.713 41.2391 17.764 41.0571 17.686 41.0301 17.269 41.1871 17.113L42.2551 17.035C43.3491 16.957 43.3751 16.514 43.3751 14.509L43.3751 5.653zM56.8018 2.9959C55.3438 2.9959 54.7708 3.0739 54.0158 4.3239 53.8328 4.4019 53.5728 4.3499 53.4678 4.1159 53.7288 3.4129 54.1188 2.2929 54.3538 1.3029 54.7708 1.3549 55.6828 1.3809 57.1158 1.3809L61.5168 1.3809C62.9498 1.3809 64.6948 1.3809 65.0068 1.3029 65.1118 1.3289 65.1898 1.4339 65.1898 1.5369 64.4598 2.6569 63.7048 4.0379 62.7418 5.9909L56.0988 19.3529C55.6828 19.4049 55.2918 19.1969 55.2138 18.8579L62.5848 3.9599C62.9758 3.1789 62.8448 2.9959 62.0118 2.9959L56.8018 2.9959z"/>
    </g>
  </g>
</svg>
