<svg xmlns="http://www.w3.org/2000/svg" width="221" height="60" viewBox="0 0 221 60">
  <g fill="none" fill-rule="evenodd" transform="translate(-.334)">
    <path fill="#221F20" d="M193.088153 53.5878453C193.557436 53.5706449 193.979504 53.7498164 194.352927 54.1239265 194.611891 54.399134 194.742088 54.7818444 194.742088 55.2691909 194.72492 55.7078028 194.57183 56.0804796 194.279959 56.390088 193.955181 56.7469976 193.557436 56.9261692 193.088153 56.9261692 192.584532 56.9261692 192.179633 56.7727983 191.872024 56.4631899 191.580153 56.1550149 191.434217 55.7565375 191.434217 55.2691909 191.434217 54.7818444 191.595891 54.3762 191.920669 54.0508246 192.228278 53.7412162 192.617439 53.5878453 193.088153 53.5878453M193.088153 37.7247154C194.676274 37.7247154 196.055508 38.1231929 197.222992 38.9187144 198.406214 39.7314364 198.99854 40.8437333 198.99854 42.2570382 198.99854 43.2962331 198.803959 44.1490895 198.414798 44.8156076 197.944085 45.595362 197.167193 46.3335487 196.07983 47.0330343 195.058282 47.6823519 194.392988 48.3159024 194.085379 48.9336859 193.66331 49.7793754 193.452992 50.8988391 193.452992 52.296377L192.723314 52.296377C192.706145 50.2495215 192.935064 48.7717148 193.404346 47.8615235 193.760601 47.081769 194.410157 46.3994838 195.350153 45.814668 196.225766 45.2298521 196.800923 44.6851707 197.077056 44.1820571 197.401834 43.6130083 197.563508 42.9722909 197.563508 42.2570382 197.563508 41.0874065 197.125701 40.1843821 196.250088 39.5522649 195.277185 38.8542127 194.22273 38.5044699 193.088153 38.5044699 191.790472 38.4887028 190.777508 38.7811107 190.04783 39.3816936 189.285246 39.9665095 188.904669 40.3965211 188.904669 40.673162 188.8875 40.9168352 189.179371 41.1519083 189.780282 41.3783811 190.348286 41.5747531 190.631572 41.9316627 190.631572 42.4505435 190.631572 42.826087 190.485637 43.1657962 190.193766 43.4754046 189.886157 43.7835796 189.495565 43.9383838 189.026282 43.9383838 188.621383 43.9383838 188.263698 43.7921798 187.956088 43.4997719 187.615572 43.1743964 187.445314 42.6956501 187.445314 42.0620996 187.445314 40.908235 188.011887 39.8848073 189.147895 38.9918164 190.218088 38.1475602 191.531508 37.7247154 193.088153 37.7247154M220.548776 12.1711294C220.678973 13.4052629 220.435747 14.3555887 219.819098 15.0221067 219.138066 15.770327 218.278191 16.2490733 217.240905 16.459779L216.827421 15.7531265C217.800324 15.5094533 218.465618 15.2414127 218.821872 14.9475714 219.113743 14.7053315 219.26111 14.5347602 219.26111 14.4372909 219.26111 13.998679 219.153804 13.779373 218.943485 13.779373 218.489941 13.779373 218.116518 13.6331691 217.824647 13.3407611 217.517038 13.0483532 217.362518 12.658476 217.362518 12.1711294 217.362518 11.69955 217.499869 11.318273 217.777432 11.0258651 218.083611 10.7162567 218.472772 10.5628859 218.943485 10.5628859 219.316909 10.5628859 219.664578 10.7076564 219.989356 11.0014977 220.281227 11.2609381 220.467224 11.6522487 220.548776 12.1711294"/>
    <path fill="#231F20" stroke="#231F20" stroke-width=".1" d="M7.23396584,21.85 C7.23396584,22.0833345 7.22563259,22.2749993 7.20896584,22.425 C7.19229909,22.5750008 7.15479947,22.6958329 7.09646584,22.7875 C7.03813222,22.8791671 6.95896634,22.9541664 6.85896584,23.0125 C6.75896534,23.0708336 6.63396659,23.133333 6.48396584,23.2 C5.93396309,23.4333345 5.58396659,23.516667 5.43396584,23.45 C5.28396509,23.383333 5.22563234,23.0750028 5.25896584,22.525 C5.30896609,21.9583305 5.35063234,21.275004 5.38396584,20.475 C5.41729934,19.674996 5.43396584,18.7500053 5.43396584,17.7 L5.43396584,9.15 L3.53396584,9.15 C3.28396459,9.15 3.00063409,9.17499975 2.68396584,9.225 C2.36729759,9.27500025 2.08396709,9.34166625 1.83396584,9.425 L0.933965844,8.275 C1.31730109,8.32500025 1.66313097,8.35833325 1.97146584,8.375 C2.27980072,8.39166675 2.61729734,8.4 2.98396584,8.4 L5.43396584,8.4 L5.43396584,6.825 C5.43396584,5.97499575 5.42563259,5.19167025 5.40896584,4.475 C5.39229909,3.75832975 5.36729934,3.19166875 5.33396584,2.775 L7.78396584,3.9 C8.20063459,4.0666675 8.20063459,4.25833225 7.78396584,4.475 L7.23396584,4.85 L7.23396584,8.4 L10.9339658,8.4 L10.9339658,4.2 C10.9339658,3.8333315 10.9297992,3.46250188 10.9214658,3.0875 C10.9131325,2.71249813 10.9047992,2.35416838 10.8964658,2.0125 C10.8881325,1.67083163 10.8756326,1.37500125 10.8589658,1.125 L13.1839658,2.175 C13.3673001,2.25833375 13.446466,2.34166625 13.4214658,2.425 C13.3964657,2.50833375 13.3172998,2.5999995 13.1839658,2.7 L12.6339658,3.1 L12.6339658,8.4 L16.9339658,8.4 L16.9339658,4.85 C16.9339658,4.583332 16.9297992,4.27083513 16.9214658,3.9125 C16.9131325,3.55416488 16.9047992,3.18750188 16.8964658,2.8125 C16.8881325,2.43749813 16.8797992,2.07916838 16.8714658,1.7375 C16.8631325,1.39583163 16.8506326,1.10000125 16.8339658,0.85 L19.3339658,1.975 C19.5173001,2.05833375 19.6089658,2.133333 19.6089658,2.2 C19.6089658,2.266667 19.5173001,2.37499925 19.3339658,2.525 L18.7839658,3 L18.7839658,8.4 L21.1089658,8.4 L22.5839658,6.65 L24.3089658,8.65 C24.6089673,8.983335 24.5589678,9.15 24.1589658,9.15 L18.7839658,9.15 L18.7839658,11.95 C18.7839658,12.950005 18.7881325,13.8041631 18.7964658,14.5125 C18.8047992,15.2208369 18.8256323,15.874997 18.8589658,16.475 C18.8756326,16.741668 18.8214665,16.9458326 18.6964658,17.0875 C18.5714652,17.2291674 18.3006346,17.3916658 17.8839658,17.575 C17.4839638,17.7416675 17.2256331,17.7875004 17.1089658,17.7125 C16.9922986,17.6374996 16.9339658,17.3833355 16.9339658,16.95 L16.9339658,16.225 L12.6339658,16.225 L12.6339658,17.825 C12.6339658,18.0750013 12.5964662,18.2708326 12.5214658,18.4125 C12.4464655,18.5541674 12.2673006,18.7083325 11.9839658,18.875 C11.4339631,19.208335 11.0839666,19.3291671 10.9339658,19.2375 C10.7839651,19.1458329 10.7256323,18.8250028 10.7589658,18.275 C10.8089661,17.7083305 10.8506323,17.0083375 10.8839658,16.175 C10.9172993,15.3416625 10.9339658,14.4000053 10.9339658,13.35 L10.9339658,9.15 L7.23396584,9.15 L7.23396584,21.05 L20.4589658,21.05 L21.9339658,19.35 L23.6839658,21.425 C23.9673006,21.7083348 23.9006346,21.85 23.4839658,21.85 L7.23396584,21.85 Z M12.6339658,9.15 L12.6339658,15.475 L16.9339658,15.475 L16.9339658,9.15 L12.6339658,9.15 Z M32.8789658,2.7 L44.4539658,2.7 L45.2039658,1.625 L46.9539658,2.95 C47.1373001,3.083334 47.2289658,3.20416613 47.2289658,3.3125 C47.2289658,3.42083388 47.1622998,3.508333 47.0289658,3.575 L46.3289658,4 L46.3289658,7.625 C46.3289658,8.17500275 46.3456323,8.683331 46.3789658,9.15 L46.4789658,10.375 C46.4789658,10.6750015 46.233135,10.9499988 45.7414658,11.2 C45.2497967,11.4500013 44.9289666,11.575 44.7789658,11.575 C44.6289651,11.575 44.5539658,11.4666678 44.5539658,11.25 L44.5539658,10.675 L39.5539658,10.675 C42.4706471,13.5583478 46.1206106,15.0416663 50.5039658,15.125 L50.5539658,15.525 C49.5372941,15.7750013 48.9622998,16.2833295 48.8289658,17.05 C48.7622988,17.2666678 48.6539666,17.375 48.5039658,17.375 C48.2539646,17.375 47.2914742,17.008337 45.6164658,16.275 C43.9414575,15.541663 42.6289706,14.7958371 41.6789658,14.0375 C40.7289611,13.2791629 39.8706363,12.3166725 39.1039658,11.15 C37.7372923,12.8000083 36.3456396,14.0333293 34.9289658,14.85 L36.6789658,15.525 C36.9456338,15.6250005 37.0789658,15.7208329 37.0789658,15.8125 C37.0789658,15.9041671 36.966467,16.0083328 36.7414658,16.125 C36.5164647,16.2416673 36.3456331,16.9166605 36.2289658,18.15 C36.1122986,19.3833395 35.8248015,20.3416633 35.3664658,21.025 C34.9081302,21.7083368 34.1498045,22.2999975 33.0914658,22.8 C32.0331272,23.3000025 30.4873093,23.7916643 28.4539658,24.275 L28.2289658,23.875 C29.5456391,23.4249978 30.6081285,22.9958354 31.4164658,22.5875 C32.2248032,22.1791646 32.8372971,21.7583355 33.2539658,21.325 C33.6706346,20.8916645 33.9539651,20.4291691 34.1039658,19.9375 C34.2539666,19.4458309 34.3664655,18.7250048 34.4414658,17.775 C34.5164662,16.8249953 34.5539658,15.9333375 34.5539658,15.1 C33.1539588,15.9166708 30.7789826,16.8749945 27.4289658,17.975 L27.1289658,17.5 C31.8456561,15.6166573 35.2622886,13.34168 37.3789658,10.675 L32.8789658,10.675 L32.8789658,11 C32.8789658,11.2166678 32.8164665,11.3958326 32.6914658,11.5375 C32.5664652,11.6791674 32.3123011,11.8291659 31.9289658,11.9875 C31.5456306,12.1458341 31.2706333,12.225 31.1039658,12.225 C30.9372983,12.225 30.8539658,12.1291676 30.8539658,11.9375 C30.8539658,11.7458324 30.8622991,11.5583343 30.8789658,11.375 C31.0289666,10.0083265 31.1039658,8.78333875 31.1039658,7.7 L31.1039658,4.575 C31.1039658,3.4749945 31.0789661,2.458338 31.0289658,1.525 L32.8789658,2.7 Z M37.7539658,3.4 L32.8789658,3.4 L32.8789658,6.325 L37.7539658,6.325 L37.7539658,3.4 Z M44.5539658,6.325 L44.5539658,3.4 L39.5039658,3.4 L39.5039658,6.325 L44.5539658,6.325 Z M32.8789658,9.975 L37.7539658,9.975 L37.7539658,7.025 L32.8789658,7.025 L32.8789658,9.975 Z M44.5539658,9.975 L44.5539658,7.025 L39.5039658,7.025 L39.5039658,9.975 L44.5539658,9.975 Z M43.7539658,16.325 L43.3289658,16.575 L43.3289658,20.35 C43.3289658,20.8666693 43.3372991,21.358331 43.3539658,21.825 L43.4289658,22.975 C43.4289658,23.375002 43.1539686,23.6874989 42.6039658,23.9125 C42.0539631,24.1375011 41.6998,24.25 41.5414658,24.25 C41.3831317,24.25 41.3039658,24.150001 41.3039658,23.95 C41.3039658,23.749999 41.3122991,23.5416678 41.3289658,23.325 C41.4289663,22.4083288 41.4789658,21.3083398 41.4789658,20.025 L41.4789658,17.05 C41.4789658,16.1666623 41.4456328,15.491669 41.3789658,15.025 L43.5789658,15.875 C43.7956336,15.9750005 43.9039658,16.0541664 43.9039658,16.1125 C43.9039658,16.1708336 43.8539663,16.2416663 43.7539658,16.325 Z M64.0989658,4.375 L57.6989658,4.375 C56.9989623,4.375 56.4323013,4.46666575 55.9989658,4.65 L55.0989658,3.525 C55.7156356,3.6250005 56.4072953,3.675 57.1739658,3.675 L71.0239658,3.675 L72.6739658,1.725 L74.5239658,3.95 C74.6406331,4.083334 74.6989658,4.18749963 74.6989658,4.2625 C74.6989658,4.33750038 74.5823003,4.375 74.3489658,4.375 L65.8989658,4.375 L65.8989658,11.775 L70.1239658,11.775 L71.5489658,10.1 L73.0739658,11.925 C73.2072998,12.1083343 73.2739658,12.2458329 73.2739658,12.3375 C73.2739658,12.4291671 73.1406338,12.475 72.8739658,12.475 L65.8989658,12.475 L65.8989658,21.35 L72.1239658,21.35 L73.7989658,19.35 L75.7239658,21.625 C75.8239663,21.758334 75.8739658,21.8624996 75.8739658,21.9375 C75.8739658,22.0125004 75.7573003,22.05 75.5239658,22.05 L55.4739658,22.05 C54.8072958,22.05 54.2406348,22.1416658 53.7739658,22.325 L52.8489658,21.225 C53.4823023,21.3083338 54.1739621,21.35 54.9239658,21.35 L57.6739658,21.35 L57.6739658,11.075 C57.6739658,10.5749975 57.6489661,9.80000525 57.5989658,8.75 L60.0239658,9.825 C60.1906333,9.891667 60.2739658,9.96249963 60.2739658,10.0375 C60.2739658,10.1125004 60.1989666,10.2083328 60.0489658,10.325 L59.3989658,10.825 L59.3989658,21.35 L64.0989658,21.35 L64.0989658,4.375 Z M90.4939658,0.775 C92.0439735,1.44167 93.06063,1.97916463 93.5439658,2.3875 C94.0273015,2.79583538 94.2689658,3.22499775 94.2689658,3.675 C94.2689658,4.22500275 94.1314672,4.6833315 93.8564658,5.05 C93.5814644,5.4166685 93.2481344,5.6 92.8564658,5.6 C92.4647972,5.6 92.243966,5.333336 92.1939658,4.8 C92.0606318,3.51666025 91.4439713,2.28333925 90.3439658,1.1 L90.4939658,0.775 Z M84.9189658,1 L86.3689658,2.2 C86.618967,2.41666775 86.7439658,2.5749995 86.7439658,2.675 C86.7439658,2.7750005 86.6231337,2.83749988 86.3814658,2.8625 C86.1397979,2.88750013 85.6523028,3.25832975 84.9189658,3.975 C82.568954,6.175011 80.5606408,7.7916615 78.8939658,8.825 L78.6439658,8.475 C80.9773108,6.32498925 83.0689565,3.8333475 84.9189658,1 Z M94.0189658,21.5 L98.4439658,21.5 L100.093966,19.6 L101.818966,21.625 C101.968967,21.7916675 102.043966,21.9166663 102.043966,22 C102.043966,22.0833338 101.918967,22.125 101.668966,22.125 L87.3189658,22.125 C86.568962,22.125 86.002301,22.2083325 85.6189658,22.375 L84.7439658,21.35 C85.3773023,21.4500005 86.068962,21.5 86.8189658,21.5 L92.0939658,21.5 L92.0939658,14 L88.7939658,14 C88.110629,14 87.543968,14.0916658 87.0939658,14.275 L86.1939658,13.15 C86.8273023,13.2333338 87.518962,13.275 88.2689658,13.275 L92.0939658,13.275 L92.0939658,7.15 L89.3189658,7.15 C88.6522958,7.15 88.0856348,7.2333325 87.6189658,7.4 L86.7439658,6.375 C87.3606355,6.45833375 88.0522953,6.5 88.8189658,6.5 L97.5439658,6.5 L99.0189658,4.75 L100.718966,6.675 C100.8523,6.808334 100.918966,6.92083288 100.918966,7.0125 C100.918966,7.10416713 100.8023,7.15 100.568966,7.15 L94.0189658,7.15 L94.0189658,13.275 L97.2439658,13.275 L98.6689658,11.625 L100.218966,13.45 C100.368967,13.6166675 100.443966,13.7499995 100.443966,13.85 C100.443966,13.9500005 100.293967,14 99.9939658,14 L94.0189658,14 L94.0189658,21.5 Z M82.3189658,12.875 C81.0189593,14.141673 79.7856383,15.2249955 78.6189658,16.125 L78.3189658,15.8 C81.16898,12.999986 83.5606228,9.80835125 85.4939658,6.225 L86.8939658,7.45 C87.143967,7.66666775 87.2689658,7.82083288 87.2689658,7.9125 C87.2689658,8.00416713 87.1564669,8.0666665 86.9314658,8.1 C86.7064647,8.1333335 86.3189685,8.47499675 85.7689658,9.125 C84.9022948,10.125005 84.2689678,10.8333313 83.8689658,11.25 L84.5439658,11.625 C84.7106333,11.7250005 84.7939658,11.8124996 84.7939658,11.8875 C84.7939658,11.9625004 84.7272998,12.0583328 84.5939658,12.175 L84.1689658,12.525 L84.1689658,18.15 C84.1689658,19.6666743 84.1814657,20.7833298 84.2064658,21.5 C84.2314659,22.2166703 84.2439658,22.5999998 84.2439658,22.65 C84.2439658,22.9500015 83.9773018,23.2374986 83.4439658,23.5125 C82.9106298,23.7875014 82.5523,23.925 82.3689658,23.925 C82.1856315,23.925 82.0939658,23.7333353 82.0939658,23.35 L82.2189658,20.825 C82.2856328,19.6749943 82.3189658,18.600005 82.3189658,17.6 L82.3189658,12.875 Z M114.338966,4.325 C114.4723,4.4250005 114.526466,4.5249995 114.501466,4.625 C114.476466,4.7250005 114.363967,4.7916665 114.163966,4.825 C113.930631,4.87500025 113.730633,4.95416613 113.563966,5.0625 C113.397298,5.17083388 113.2723,5.291666 113.188966,5.425 C112.438962,6.5250055 111.738969,7.48749588 111.088966,8.3125 C110.438963,9.13750413 109.784802,9.88333 109.126466,10.55 C108.468129,11.21667 107.776469,11.8333305 107.051466,12.4 C106.326462,12.9666695 105.51397,13.5416638 104.613966,14.125 L104.313966,13.775 C105.21397,13.0249963 106.059795,12.2041711 106.851466,11.3125 C107.643136,10.4208289 108.372296,9.4916715 109.038966,8.525 C109.705636,7.5583285 110.297297,6.575005 110.813966,5.575 C111.330635,4.574995 111.763964,3.58333825 112.113966,2.6 L114.338966,4.325 Z M122.088966,12.6 C121.905632,14.200008 121.726467,15.6749933 121.551466,17.025 C121.376465,18.3750068 121.188967,19.5249953 120.988966,20.475 C120.905632,20.8916688 120.8098,21.2416653 120.701466,21.525 C120.593132,21.8083348 120.430634,22.0666655 120.213966,22.3 C119.997298,22.5333345 119.701468,22.7583323 119.326466,22.975 C118.951464,23.1916678 118.455636,23.433332 117.838966,23.7 C117.555631,23.8000005 117.405633,23.7333345 117.388966,23.5 C117.322299,23.1166648 117.255633,22.8083345 117.188966,22.575 C117.122299,22.3416655 117.005633,22.1416675 116.838966,21.975 C116.672298,21.8083325 116.426467,21.6666673 116.101466,21.55 C115.776464,21.4333328 115.322302,21.3000008 114.738966,21.15 L114.838966,20.675 C115.755637,20.8250008 116.476463,20.9291664 117.001466,20.9875 C117.526468,21.0458336 117.926464,21.041667 118.201466,20.975 C118.476467,20.908333 118.672299,20.7833343 118.788966,20.6 C118.905633,20.4166658 119.005632,20.158335 119.088966,19.825 C119.338967,18.8749953 119.559798,17.7875061 119.751466,16.5625 C119.943133,15.3374939 120.122298,13.8500088 120.288966,12.1 L115.038966,12.1 C114.738964,13.366673 114.443134,14.4791619 114.151466,15.4375 C113.859798,16.3958381 113.538968,17.2458296 113.188966,17.9875 C112.838964,18.7291704 112.443135,19.3791639 112.001466,19.9375 C111.559797,20.4958361 111.043135,21.0041644 110.451466,21.4625 C109.859796,21.9208356 109.168136,22.349998 108.376466,22.75 C107.584795,23.150002 106.672304,23.5583313 105.638966,23.975 L105.463966,23.65 C106.680639,22.8999963 107.697295,22.2000033 108.513966,21.55 C109.330637,20.8999968 109.972297,20.2500033 110.438966,19.6 C110.772301,19.1166643 111.059798,18.6375024 111.301466,18.1625 C111.543134,17.6874976 111.759798,17.1666695 111.951466,16.6 C112.143133,16.0333305 112.322298,15.3875036 112.488966,14.6625 C112.655633,13.9374964 112.822298,13.0833383 112.988966,12.1 L111.088966,12.1 C110.805631,12.1 110.493134,12.1249998 110.151466,12.175 C109.809797,12.2250003 109.5223,12.2999995 109.288966,12.4 L108.563966,11.225 C108.897301,11.2583335 109.226464,11.2833333 109.551466,11.3 C109.876467,11.3166668 110.197298,11.325 110.513966,11.325 L120.188966,11.325 L120.913966,10.225 L122.588966,11.7 C122.7223,11.833334 122.788966,11.9249998 122.788966,11.975 C122.788966,12.0250003 122.7223,12.0999995 122.588966,12.2 L122.088966,12.6 Z M119.388966,3.45 C119.688967,4.4833385 120.109796,5.42916238 120.651466,6.2875 C121.193135,7.14583763 121.822296,7.89999675 122.538966,8.55 C123.255636,9.20000325 124.038962,9.73333125 124.888966,10.15 C125.73897,10.5666688 126.630628,10.8499993 127.563966,11 L127.538966,11.325 C127.088964,11.4083338 126.738967,11.5791654 126.488966,11.8375 C126.238965,12.0958346 126.063966,12.4416645 125.963966,12.875 C125.913966,13.0583343 125.780634,13.0916673 125.563966,12.975 C124.36396,12.2749965 123.368136,11.6041699 122.576466,10.9625 C121.784795,10.3208301 121.109802,9.6166705 120.551466,8.85 C119.99313,8.0833295 119.513968,7.20833825 119.113966,6.225 C118.713964,5.24166175 118.305635,4.0666735 117.888966,2.7 L115.988966,2.7 C115.588964,2.7 115.263967,2.72083313 115.013966,2.7625 C114.763965,2.80416688 114.5223,2.8749995 114.288966,2.975 L113.438966,1.85 C113.822301,1.90000025 114.172298,1.93333325 114.488966,1.95 C114.805634,1.96666675 115.147297,1.975 115.513966,1.975 L117.513966,1.975 L118.513966,0.75 L119.988966,1.925 C120.188967,2.10833425 120.284799,2.23749963 120.276466,2.3125 C120.268132,2.38750038 120.1473,2.44999975 119.913966,2.5 C119.630631,2.566667 119.451466,2.67083263 119.376466,2.8125 C119.301465,2.95416738 119.305632,3.16666525 119.388966,3.45 Z M145.583966,12.2 C145.533965,13.400006 145.4548,14.4708286 145.346466,15.4125 C145.238132,16.3541714 145.050634,17.1999963 144.783966,17.95 C144.517298,18.7000038 144.163135,19.3624971 143.721466,19.9375 C143.279797,20.5125029 142.704803,21.0416643 141.996466,21.525 C141.288129,22.0083358 140.425637,22.4624979 139.408966,22.8875 C138.392294,23.3125021 137.192306,23.7416645 135.808966,24.175 L135.583966,23.75 C136.817305,23.2666643 137.879795,22.7833358 138.771466,22.3 C139.663137,21.8166643 140.425629,21.2958361 141.058966,20.7375 C141.692302,20.1791639 142.20063,19.5500035 142.583966,18.85 C142.967301,18.1499965 143.267298,17.3291714 143.483966,16.3875 C143.700633,15.4458286 143.838132,14.3625061 143.896466,13.1375 C143.954799,11.9124939 143.975632,10.4916748 143.958966,8.875 L146.408966,9.7 C146.6923,9.78333375 146.825632,9.87916613 146.808966,9.9875 C146.792299,10.0958339 146.683967,10.216666 146.483966,10.35 C146.433965,10.3833335 146.388133,10.4083333 146.346466,10.425 C146.304799,10.4416668 146.258966,10.4666665 146.208966,10.5 C146.325633,12.0166743 146.563131,13.3624941 146.921466,14.5375 C147.279801,15.7125059 147.754796,16.7458289 148.346466,17.6375 C148.938135,18.5291711 149.646462,19.2916635 150.471466,19.925 C151.29647,20.5583365 152.23396,21.074998 153.283966,21.475 L153.233966,21.725 C152.667296,21.7750003 152.208967,21.9124989 151.858966,22.1375 C151.508964,22.3625011 151.283966,22.5999988 151.183966,22.85 C151.067298,23.1500015 150.8923,23.1833345 150.658966,22.95 C149.825628,22.2333298 149.117302,21.5333368 148.533966,20.85 C147.950629,20.1666633 147.463134,19.391671 147.071466,18.525 C146.679797,17.658329 146.375633,16.6500058 146.158966,15.5 C145.942298,14.3499943 145.783966,12.9333418 145.683966,11.25 C145.617299,11.5000013 145.583966,11.8166648 145.583966,12.2 Z M150.733966,8.125 C150.850633,8.40833475 150.925632,8.683332 150.958966,8.95 C150.992299,9.216668 150.983966,9.46249888 150.933966,9.6875 C150.883965,9.91250113 150.808966,10.0958326 150.708966,10.2375 C150.608965,10.3791674 150.4923,10.4666665 150.358966,10.5 C150.225632,10.5333335 150.075633,10.5083338 149.908966,10.425 C149.742298,10.3416663 149.5673,10.1500015 149.383966,9.85 C149.150631,9.49999825 148.729802,9.06250263 148.121466,8.5375 C147.513129,8.01249738 146.813136,7.47083613 146.021466,6.9125 C145.229795,6.35416388 144.40897,5.81250263 143.558966,5.2875 C142.708961,4.76249738 141.933969,4.32500175 141.233966,3.975 C140.383961,5.0750055 139.583969,6.0083295 138.833966,6.775 C138.083962,7.5416705 137.317303,8.19583063 136.533966,8.7375 C135.750628,9.27916938 134.900637,9.74166475 133.983966,10.125 C133.067294,10.5083353 132.025638,10.8749983 130.858966,11.225 L130.633966,10.85 C131.800638,10.3999978 132.871461,9.86666975 133.846466,9.25 C134.821471,8.63333025 135.717295,7.91667075 136.533966,7.1 C137.350636,6.28332925 138.096462,5.3583385 138.771466,4.325 C139.446469,3.2916615 140.067296,2.13333975 140.633966,0.85 L142.783966,1.775 C143.267301,1.99166775 143.275635,2.15833275 142.808966,2.275 C142.725632,2.29166675 142.5798,2.39166575 142.371466,2.575 C142.163131,2.75833425 141.9923,2.94166575 141.858966,3.125 C141.792299,3.20833375 141.738133,3.27916638 141.696466,3.3375 C141.654799,3.39583363 141.608966,3.44999975 141.558966,3.5 C143.275641,4.08333625 144.700627,4.608331 145.833966,5.075 C146.967305,5.541669 147.879796,5.96249813 148.571466,6.3375 C149.263136,6.71250188 149.771464,7.0499985 150.096466,7.35 C150.421467,7.6500015 150.633965,7.90833225 150.733966,8.125 Z M138.083966,10.3 C138.3673,10.4000005 138.508966,10.5041661 138.508966,10.6125 C138.508966,10.7208339 138.3923,10.8166663 138.158966,10.9 C138.042298,10.9500003 137.946466,10.9999998 137.871466,11.05 C137.796465,11.1000003 137.733966,11.191666 137.683966,11.325 C137.633965,11.458334 137.592299,11.6499988 137.558966,11.9 C137.525632,12.1500013 137.500632,12.4916645 137.483966,12.925 C137.450632,13.0750008 137.429799,13.2249993 137.421466,13.375 C137.413132,13.5250008 137.400632,13.666666 137.383966,13.8 C138.767306,14.5833373 139.771463,15.2708304 140.396466,15.8625 C141.021469,16.4541696 141.342299,16.9249983 141.358966,17.275 C141.358966,17.4583343 141.329799,17.6541656 141.271466,17.8625 C141.213132,18.0708344 141.1298,18.2583325 141.021466,18.425 C140.913132,18.5916675 140.7923,18.7291661 140.658966,18.8375 C140.525632,18.9458339 140.3923,19 140.258966,19 C140.108965,19 139.9673,18.9208341 139.833966,18.7625 C139.700632,18.6041659 139.600633,18.4083345 139.533966,18.175 C139.467299,17.9583323 139.3673,17.7000015 139.233966,17.4 C139.100632,17.0999985 138.933967,16.7791684 138.733966,16.4375 C138.533965,16.0958316 138.313134,15.7541684 138.071466,15.4125 C137.829798,15.0708316 137.575634,14.7416683 137.308966,14.425 C137.125631,15.6083393 136.842301,16.6583288 136.458966,17.575 C136.07563,18.4916713 135.588135,19.316663 134.996466,20.05 C134.404796,20.783337 133.713136,21.4416638 132.921466,22.025 C132.129795,22.6083363 131.250637,23.1499975 130.283966,23.65 L130.058966,23.275 C130.842303,22.6916638 131.525629,22.1291694 132.108966,21.5875 C132.692302,21.0458306 133.192297,20.4916695 133.608966,19.925 C134.025634,19.3583305 134.371464,18.7458366 134.646466,18.0875 C134.921467,17.4291634 135.138132,16.6875041 135.296466,15.8625 C135.4548,15.0374959 135.563132,14.1083385 135.621466,13.075 C135.679799,12.0416615 135.717299,10.8500068 135.733966,9.5 L138.083966,10.3 Z M178.778966,21.55 C178.195629,21.6000003 177.766467,21.7458321 177.491466,21.9875 C177.216464,22.2291679 177.003966,22.5666645 176.853966,23 C176.803965,23.133334 176.6623,23.1416673 176.428966,23.025 C175.312293,22.4416638 174.320637,21.8125034 173.453966,21.1375 C172.587295,20.4624966 171.820636,19.7000043 171.153966,18.85 C170.10396,19.9500055 168.733141,20.8499965 167.041466,21.55 C165.349791,22.2500035 163.403977,22.833331 161.203966,23.3 L161.053966,22.975 C162.153971,22.6083315 163.174794,22.2375019 164.116466,21.8625 C165.058137,21.4874981 165.920628,21.0916688 166.703966,20.675 C167.487303,20.2583313 168.183129,19.8083358 168.791466,19.325 C169.399802,18.8416643 169.928963,18.3083363 170.378966,17.725 C169.678962,16.6749948 169.087301,15.4250073 168.603966,13.975 C168.12063,12.5249928 167.745634,10.933342 167.478966,9.2 C167.062297,10.000004 166.603968,10.7791629 166.103966,11.5375 C165.603963,12.2958371 165.028969,13.0916625 164.378966,13.925 L164.028966,13.725 C164.612302,12.858329 165.124797,11.9791711 165.566466,11.0875 C166.008135,10.1958289 166.399797,9.22500525 166.741466,8.175 C167.083134,7.12499475 167.387298,5.966673 167.653966,4.7 C167.920634,3.433327 168.162298,1.9833415 168.378966,0.35 L170.628966,1.625 C170.8623,1.74166725 170.970632,1.85416613 170.953966,1.9625 C170.937299,2.07083388 170.803967,2.158333 170.553966,2.225 C170.420632,2.2583335 170.295633,2.33749938 170.178966,2.4625 C170.062298,2.58750063 169.962299,2.816665 169.878966,3.15 C169.695631,3.73333625 169.516467,4.29999725 169.341466,4.85 C169.166465,5.40000275 168.978967,5.9249975 168.778966,6.425 L174.853966,6.425 L176.453966,4.475 L178.378966,6.725 C178.478966,6.84166725 178.520632,6.94166625 178.503966,7.025 C178.487299,7.10833375 178.3873,7.15 178.203966,7.15 L175.078966,7.15 C174.928965,9.483345 174.603968,11.5249913 174.103966,13.275 C173.603963,15.0250088 172.945636,16.5083273 172.128966,17.725 C172.945636,18.591671 173.899794,19.3124971 174.991466,19.8875 C176.083138,20.4625029 177.345625,20.8916653 178.778966,21.175 L178.778966,21.55 Z M160.403966,19.65 C159.987297,19.9000013 159.633134,20.1166658 159.341466,20.3 C159.049798,20.4833343 158.7998,20.6499993 158.591466,20.8 C158.383131,20.9500008 158.203966,21.0791661 158.053966,21.1875 C157.903965,21.2958339 157.770633,21.3999995 157.653966,21.5 C157.437298,21.6833343 157.291466,21.775 157.216466,21.775 C157.141465,21.775 157.062299,21.6916675 156.978966,21.525 L156.028966,20.025 C156.2623,19.9416663 156.520631,19.8500005 156.803966,19.75 C157.0873,19.6499995 157.403964,19.533334 157.753966,19.4 L157.753966,12.675 C157.753966,12.408332 157.749799,12.0916685 157.741466,11.725 C157.733132,11.3583315 157.724799,10.9875019 157.716466,10.6125 C157.708132,10.2374981 157.699799,9.87500175 157.691466,9.525 C157.683132,9.17499825 157.670632,8.87500125 157.653966,8.625 L159.403966,9.725 L163.153966,9.725 L163.153966,4.6 L158.653966,4.6 C158.253964,4.6 157.933134,4.62083313 157.691466,4.6625 C157.449798,4.70416688 157.2123,4.7749995 156.978966,4.875 L156.078966,3.775 C156.462301,3.82500025 156.808131,3.85833325 157.116466,3.875 C157.424801,3.89166675 157.762297,3.9 158.128966,3.9 L163.128966,3.9 L163.903966,2.75 L165.403966,4.175 C165.5373,4.308334 165.603966,4.408333 165.603966,4.475 C165.603966,4.541667 165.5373,4.59999975 165.403966,4.65 L164.678966,4.95 L164.678966,8 C164.678966,8.4333355 164.691466,8.8666645 164.716466,9.3 C164.741466,9.7333355 164.770632,10.1666645 164.803966,10.6 C164.820632,10.7666675 164.824799,10.9083328 164.816466,11.025 C164.808132,11.1416673 164.774799,11.2458329 164.716466,11.3375 C164.658132,11.4291671 164.570633,11.508333 164.453966,11.575 C164.337298,11.641667 164.170633,11.708333 163.953966,11.775 C163.670631,11.8750005 163.466466,11.8958336 163.341466,11.8375 C163.216465,11.7791664 163.153966,11.683334 163.153966,11.55 L163.153966,10.4 L159.328966,10.4 L159.328966,18.75 C160.12897,18.416665 161.041461,18.0291689 162.066466,17.5875 C163.091471,17.1458311 164.245626,16.6333363 165.528966,16.05 L165.753966,16.375 L160.403966,19.65 Z M168.478966,7.15 C168.428965,7.283334 168.374799,7.40416613 168.316466,7.5125 C168.258132,7.62083388 168.203966,7.741666 168.153966,7.875 C168.320633,9.55834175 168.666463,11.1541591 169.191466,12.6625 C169.716468,14.1708409 170.370628,15.458328 171.153966,16.525 C171.787302,15.4249945 172.278964,14.1000078 172.628966,12.55 C172.978967,10.9999923 173.228965,9.20001025 173.378966,7.15 L168.478966,7.15 Z M182.273966,23.475 C183.373971,23.208332 184.394794,22.9375014 185.336466,22.6625 C186.278137,22.3874986 187.153128,22.0958349 187.961466,21.7875 C188.769803,21.4791651 189.528129,21.1416685 190.236466,20.775 C190.944803,20.4083315 191.615629,20.0000023 192.248966,19.55 C191.515629,18.8999968 190.878135,18.1708374 190.336466,17.3625 C189.794796,16.5541626 189.332301,15.6333385 188.948966,14.6 L187.973966,14.6 C187.723964,14.6 187.461467,14.6208331 187.186466,14.6625 C186.911464,14.7041669 186.6573,14.7666663 186.423966,14.85 L185.523966,13.775 C185.907301,13.841667 186.248964,13.8833333 186.548966,13.9 C186.848967,13.9166668 187.173964,13.925 187.523966,13.925 L197.073966,13.925 L197.923966,12.95 L199.823966,14.5 C200.140634,14.8000015 200.090634,14.983333 199.673966,15.05 C199.507298,15.0666668 199.365633,15.0958331 199.248966,15.1375 C199.132298,15.1791669 199.015633,15.2499995 198.898966,15.35 C198.782298,15.4500005 198.648966,15.5791659 198.498966,15.7375 C198.348965,15.8958341 198.165633,16.108332 197.948966,16.375 C197.41563,17.0083365 196.873968,17.591664 196.323966,18.125 C195.773963,18.658336 195.198969,19.1499978 194.598966,19.6 C195.782305,20.1833363 197.169791,20.6333318 198.761466,20.95 C200.35314,21.2666683 202.232288,21.4499998 204.398966,21.5 L204.398966,21.875 C203.765629,21.9916673 203.290634,22.2291649 202.973966,22.5875 C202.657297,22.9458351 202.482299,23.3333313 202.448966,23.75 C202.432299,23.8333338 202.394799,23.8833333 202.336466,23.9 C202.278132,23.9166668 202.140633,23.9000003 201.923966,23.85 C200.090623,23.3999978 198.478139,22.9041694 197.086466,22.3625 C195.694792,21.8208306 194.465638,21.183337 193.398966,20.45 C191.965625,21.3666713 190.357308,22.1041639 188.573966,22.6625 C186.790623,23.2208361 184.715644,23.633332 182.348966,23.9 L182.273966,23.475 Z M185.073966,5.375 C184.823964,5.375 184.544801,5.39999975 184.236466,5.45 C183.928131,5.50000025 183.6573,5.56666625 183.423966,5.65 L182.523966,4.575 C182.907301,4.62500025 183.253131,4.65833325 183.561466,4.675 C183.869801,4.69166675 184.198964,4.7 184.548966,4.7 L201.048966,4.7 L202.548966,2.925 L204.298966,4.95 C204.415633,5.10000075 204.465632,5.208333 204.448966,5.275 C204.432299,5.341667 204.315633,5.375 204.098966,5.375 L196.648966,5.375 L196.648966,10.025 C196.648966,10.3750018 196.653132,10.7249983 196.661466,11.075 C196.669799,11.4250018 196.690632,11.7583318 196.723966,12.075 C196.740632,12.208334 196.690633,12.3458326 196.573966,12.4875 C196.457298,12.6291674 196.115635,12.8249988 195.548966,13.075 C195.248964,13.1916673 195.057299,13.2000005 194.973966,13.1 C194.890632,12.9999995 194.865632,12.7416688 194.898966,12.325 C194.948966,11.4749958 194.973966,10.71667 194.973966,10.05 L194.973966,5.375 L191.548966,5.375 L191.548966,9.2 C191.548966,9.933337 191.553132,10.5374976 191.561466,11.0125 C191.569799,11.4875024 191.590632,11.8749985 191.623966,12.175 C191.623966,12.241667 191.619799,12.3041664 191.611466,12.3625 C191.603132,12.4208336 191.557299,12.4791664 191.473966,12.5375 C191.390632,12.5958336 191.265633,12.6708329 191.098966,12.7625 C190.932298,12.8541671 190.698967,12.9583328 190.398966,13.075 C190.115631,13.1916673 189.936466,13.2208336 189.861466,13.1625 C189.786465,13.1041664 189.765632,12.8583355 189.798966,12.425 C189.832299,12.0416648 189.853132,11.6708351 189.861466,11.3125 C189.869799,10.9541649 189.873966,10.6333348 189.873966,10.35 L189.873966,5.375 L185.073966,5.375 Z M189.798966,14.6 C190.232301,15.4833378 190.723963,16.2666633 191.273966,16.95 C191.823968,17.6333368 192.482295,18.241664 193.248966,18.775 C193.932302,18.2249973 194.573963,17.6041701 195.173966,16.9125 C195.773969,16.2208299 196.382296,15.4500043 196.998966,14.6 L189.798966,14.6 Z M188.698966,8.025 C188.865633,8.158334 188.932299,8.27916613 188.898966,8.3875 C188.865632,8.49583388 188.7573,8.5666665 188.573966,8.6 C188.457298,8.6333335 188.323966,8.716666 188.173966,8.85 C188.023965,8.983334 187.8323,9.216665 187.598966,9.55 C186.732295,10.750006 185.869803,11.8291619 185.011466,12.7875 C184.153128,13.7458381 183.282303,14.5416635 182.398966,15.175 L182.048966,14.85 C182.532301,14.3333308 183.023963,13.7291701 183.523966,13.0375 C184.023968,12.3458299 184.494797,11.6291704 184.936466,10.8875 C185.378135,10.1458296 185.773964,9.408337 186.123966,8.675 C186.473967,7.941663 186.732298,7.275003 186.898966,6.675 L188.698966,8.025 Z M203.098966,10.45 C203.215633,10.6833345 203.282299,10.9208321 203.298966,11.1625 C203.315632,11.4041679 203.294799,11.6333323 203.236466,11.85 C203.178132,12.0666678 203.086466,12.2541659 202.961466,12.4125 C202.836465,12.5708341 202.690633,12.683333 202.523966,12.75 C202.223964,12.9166675 201.873968,12.6500035 201.473966,11.95 C201.140631,11.349997 200.840634,10.8375021 200.573966,10.4125 C200.307298,9.98749788 200.0323,9.60000175 199.748966,9.25 C199.465631,8.89999825 199.148967,8.57083488 198.798966,8.2625 C198.448964,7.95416513 198.032301,7.6166685 197.548966,7.25 L197.748966,6.9 C199.36564,7.56667 200.590628,8.19166375 201.423966,8.775 C202.257303,9.35833625 202.815631,9.916664 203.098966,10.45 Z M194.573966,2.825 C194.540632,3.3250025 194.398967,3.72083188 194.148966,4.0125 C193.898964,4.30416813 193.607301,4.4333335 193.273966,4.4 C192.84063,4.38333325 192.590633,4.11666925 192.523966,3.6 C192.423965,3.0333305 192.3073,2.5666685 192.173966,2.2 C192.040632,1.8333315 191.807301,1.483335 191.473966,1.15 L191.673966,0.775 C192.240635,0.95833425 192.71563,1.12916588 193.098966,1.2875 C193.482301,1.44583413 193.786465,1.60416588 194.011466,1.7625 C194.236467,1.92083413 194.390632,2.08749913 194.473966,2.2625 C194.557299,2.43750088 194.590632,2.624999 194.573966,2.825 Z M15.3839658,35.5 C17.3506423,36.5166718 18.3339658,37.4666623 18.3339658,38.35 C18.3339658,38.7833355 18.2048005,39.166665 17.9464658,39.5 C17.6881312,39.833335 17.4256338,40 17.1589658,40 C16.8922978,40 16.7214662,39.9250008 16.6464658,39.775 C16.5714655,39.6249993 16.5006328,39.383335 16.4339658,39.05 C16.2672983,37.8999943 15.8173028,36.8166718 15.0839658,35.8 L15.3839658,35.5 Z M9.95896584,43.825 C8.99229434,45.1916735 7.85897234,46.5499933 6.55896584,47.9 L6.28396584,47.6 C7.56730559,45.799991 8.73812722,43.7625114 9.79646584,41.4875 C10.8548045,39.2124886 11.5672973,37.2166753 11.9339658,35.5 L13.9089658,36.625 C14.1423003,36.7416673 14.2589658,36.8541661 14.2589658,36.9625 C14.2589658,37.0708339 14.1423003,37.191666 13.9089658,37.325 C13.5256306,37.5416678 13.2006338,37.9583303 12.9339658,38.575 C12.6672978,39.1916698 12.3006348,39.9249958 11.8339658,40.775 L20.7089658,40.775 L22.2339658,38.925 L23.8839658,40.925 C24.0172998,41.0750008 24.0839658,41.1999995 24.0839658,41.3 C24.0839658,41.4000005 23.9673003,41.45 23.7339658,41.45 L17.6839658,41.45 L17.6839658,45.3 L20.1339658,45.3 L21.4839658,43.65 L23.0089658,45.475 C23.1256331,45.608334 23.1839658,45.7249995 23.1839658,45.825 C23.1839658,45.9250005 23.0673003,45.975 22.8339658,45.975 L17.6839658,45.975 L17.6839658,50.025 L20.0339658,50.025 L21.4089658,48.35 L22.9589658,50.2 C23.0756331,50.333334 23.1339658,50.4499995 23.1339658,50.55 C23.1339658,50.6500005 23.0173003,50.7 22.7839658,50.7 L17.6839658,50.7 L17.6839658,55.125 L20.9839658,55.125 L22.5839658,53.2 L24.3339658,55.3 C24.4672998,55.4666675 24.5339658,55.5916663 24.5339658,55.675 C24.5339658,55.7583338 24.4089671,55.8 24.1589658,55.8 L11.6339658,55.8 L11.6339658,56.725 C11.6339658,57.2250025 11.5672998,57.5666658 11.4339658,57.75 C11.3006318,57.9333343 11.0631342,58.1166658 10.7214658,58.3 C10.3797975,58.4833343 10.1339666,58.575 9.98396584,58.575 C9.83396509,58.575 9.75896584,58.3833353 9.75896584,58 L9.88396584,55.3 C9.93396609,54.1166608 9.95896584,53.0000053 9.95896584,51.95 L9.95896584,43.825 Z M11.6339658,41.45 L11.6339658,45.3 L15.9089658,45.3 L15.9089658,41.45 L11.6339658,41.45 Z M11.6339658,45.975 L11.6339658,50.025 L15.9089658,50.025 L15.9089658,45.975 L11.6339658,45.975 Z M11.6339658,50.7 L11.6339658,55.125 L15.9089658,55.125 L15.9089658,50.7 L11.6339658,50.7 Z M2.43396584,37.075 C3.85063959,37.9250043 4.81729659,38.6124974 5.33396584,39.1375 C5.85063509,39.6625026 6.10896584,40.1416645 6.10896584,40.575 C6.10896584,41.0083355 5.95896734,41.4291646 5.65896584,41.8375 C5.35896434,42.2458354 5.01730109,42.45 4.63396584,42.45 C4.48396509,42.45 4.36729959,42.3541676 4.28396584,42.1625 C4.20063209,41.9708324 4.10063309,41.6125026 3.98396584,41.0875 C3.86729859,40.5624974 3.63813422,39.9291704 3.29646584,39.1875 C2.95479747,38.4458296 2.59230109,37.841669 2.20896584,37.375 L2.43396584,37.075 Z M8.88396584,38.725 L5.78396584,48.525 C5.43396409,49.658339 5.25896584,50.6499958 5.25896584,51.5 C5.25896584,52.3500043 5.30896534,53.0916635 5.40896584,53.725 C5.50896634,54.3583365 5.55896584,54.8583315 5.55896584,55.225 C5.55896584,56.2583385 5.18396959,56.775 4.43396584,56.775 C4.06729734,56.775 3.76730034,56.6125016 3.53396584,56.2875 C3.30063134,55.9624984 3.18396584,55.5250028 3.18396584,54.975 C3.18396584,54.6749985 3.27146497,54.1458371 3.44646584,53.3875 C3.62146672,52.6291629 3.70896584,51.9875026 3.70896584,51.4625 C3.70896584,50.9374974 3.55480072,50.5333348 3.24646584,50.25 C2.93813097,49.9666653 2.39230309,49.6750015 1.60896584,49.375 L1.73396584,48.95 C2.26730184,49.0666673 2.69646422,49.125 3.02146584,49.125 C3.34646747,49.125 3.61729809,49.0041679 3.83396584,48.7625 C4.05063359,48.5208321 4.33396409,48.0166705 4.68396584,47.25 L8.50896584,38.575 L8.88396584,38.725 Z M50.8289658,47.35 C50.3456301,47.4333338 49.9664672,47.5833323 49.6914658,47.8 C49.4164645,48.0166678 49.2206331,48.324998 49.1039658,48.725 C49.0706323,48.8750008 48.9956331,48.9583333 48.8789658,48.975 C48.7622986,48.9916668 48.6123001,48.9833335 48.4289658,48.95 C46.8789581,48.6499985 45.4706388,48.300002 44.2039658,47.9 L46.2789658,49.2 C46.6123008,49.400001 46.6123008,49.5916658 46.2789658,49.775 L45.7039658,50.15 L45.7039658,55.625 C45.7039658,56.5250045 45.7539653,57.3999958 45.8539658,58.25 C45.8706326,58.4333343 45.8039666,58.5999993 45.6539658,58.75 C45.5039651,58.9000008 45.1706351,59.1166653 44.6539658,59.4 C44.3372976,59.5666675 44.1247997,59.6250003 44.0164658,59.575 C43.908132,59.5249998 43.8539658,59.4083343 43.8539658,59.225 L43.8539658,57.225 L33.5789658,57.225 L33.5789658,58.35 C33.5789658,58.5833345 33.5081332,58.7708326 33.3664658,58.9125 C33.2247985,59.0541674 32.9039683,59.224999 32.4039658,59.425 C32.0039638,59.5916675 31.7539663,59.6250005 31.6539658,59.525 C31.5539653,59.4249995 31.5206323,59.1583355 31.5539658,58.725 C31.5706326,58.4749988 31.5956323,58.1750018 31.6289658,57.825 C31.6622993,57.4749983 31.6872991,57.1166685 31.7039658,56.75 C31.7206326,56.3833315 31.7372991,56.0291684 31.7539658,55.6875 C31.7706326,55.3458316 31.7789658,55.0500013 31.7789658,54.8 L31.7789658,49.85 C31.7789658,49.4999983 31.7622993,49.158335 31.7289658,48.825 C30.3622923,49.3416693 28.8873071,49.8249978 27.3039658,50.275 L27.1789658,49.825 C29.0456418,49.1916635 30.866457,48.3916715 32.6414658,47.425 C34.4164747,46.4583285 36.0456251,45.3916725 37.5289658,44.225 C36.9789631,43.691664 36.4664682,43.1125031 35.9914658,42.4875 C35.5164635,41.8624969 35.0539681,41.1583373 34.6039658,40.375 C33.9039623,41.2250043 33.1248035,42.0374961 32.2664658,42.8125 C31.4081282,43.5875039 30.3956383,44.3833293 29.2289658,45.2 L28.9039658,44.9 C29.6873031,44.099996 30.3956293,43.3291704 31.0289658,42.5875 C31.6623023,41.8458296 32.2456298,41.1041704 32.7789658,40.3625 C33.3123018,39.6208296 33.8039636,38.8583373 34.2539658,38.075 C34.7039681,37.2916628 35.1289638,36.4583378 35.5289658,35.575 L37.4539658,36.55 C37.6873003,36.683334 37.8081325,36.7916663 37.8164658,36.875 C37.8247992,36.9583338 37.7289668,37.0416663 37.5289658,37.125 C37.3789651,37.1750003 37.1206343,37.366665 36.7539658,37.7 C36.3872973,38.033335 36.0373008,38.4249978 35.7039658,38.875 L42.1289658,38.875 L43.3289658,37.55 L45.3039658,39.3 C45.7039678,39.6833353 45.6373018,39.8999998 45.1039658,39.95 C44.7372973,39.9833335 44.4289671,40.066666 44.1789658,40.2 C43.9289646,40.333334 43.6623006,40.566665 43.3789658,40.9 C42.2956271,42.1833398 41.0789726,43.3499948 39.7289658,44.4 C41.1623063,45.200004 42.7747902,45.7833315 44.5664658,46.15 C46.3581415,46.5166685 48.4456206,46.7749993 50.8289658,46.925 L50.8289658,47.35 Z M44.2039658,47.9 C43.1039603,47.566665 42.1039703,47.1833355 41.2039658,46.75 C40.3039613,46.3166645 39.4623031,45.8083363 38.6789658,45.225 C37.7956281,45.8416698 36.8498042,46.4208306 35.8414658,46.9625 C34.8331275,47.5041694 33.7456383,48.008331 32.5789658,48.475 L33.9789658,49.075 L43.3289658,49.075 L44.2039658,47.9 Z M34.9289658,39.95 C35.9956378,41.4333408 37.1372931,42.6249955 38.3539658,43.525 C39.1206363,42.8916635 39.8164627,42.24167 40.4414658,41.575 C41.066469,40.90833 41.6206301,40.24167 42.1039658,39.575 L35.2289658,39.575 C35.1622988,39.641667 35.1081327,39.7041664 35.0664658,39.7625 C35.024799,39.8208336 34.9789661,39.883333 34.9289658,39.95 Z M39.5289658,56.525 L43.8539658,56.525 L43.8539658,53.375 L39.5289658,53.375 L39.5289658,56.525 Z M33.5789658,56.525 L37.7039658,56.525 L37.7039658,53.375 L33.5789658,53.375 L33.5789658,56.525 Z M39.5289658,49.8 L39.5289658,52.675 L43.8539658,52.675 L43.8539658,49.8 L39.5289658,49.8 Z M33.5789658,52.675 L37.7039658,52.675 L37.7039658,49.8 L33.5789658,49.8 L33.5789658,52.675 Z M61.9489658,47.175 C62.2323006,47.2083335 62.5656306,47.2333333 62.9489658,47.25 C63.3323011,47.2666668 63.6656311,47.275 63.9489658,47.275 L67.9239658,47.275 L67.9239658,46.125 C67.9239658,45.591664 67.9156326,45.025003 67.8989658,44.425 C67.8822991,43.824997 67.8572993,43.2833358 67.8239658,42.8 L68.7739658,43.15 L71.6989658,39.025 L65.3989658,39.025 C64.9989638,39.025 64.6823003,39.0499998 64.4489658,39.1 C64.2156313,39.1500003 63.9823003,39.2166663 63.7489658,39.3 L62.8739658,38.225 C63.2573011,38.2750003 63.6031309,38.3083333 63.9114658,38.325 C64.2198007,38.3416668 64.5489641,38.35 64.8989658,38.35 L71.6239658,38.35 L72.6989658,37.175 L74.6489658,38.875 C74.8656336,39.0583343 74.9614659,39.1916663 74.9364658,39.275 C74.9114657,39.3583338 74.7656338,39.4166665 74.4989658,39.45 C74.2489646,39.5000003 74.0156336,39.5624996 73.7989658,39.6375 C73.5822981,39.7125004 73.2948009,39.8791654 72.9364658,40.1375 C72.5781307,40.3958346 72.1156353,40.7749975 71.5489658,41.275 C70.9822963,41.7750025 70.2406371,42.4666623 69.3239658,43.35 L69.8739658,43.575 C70.2073008,43.6750005 70.3864657,43.7624996 70.4114658,43.8375 C70.4364659,43.9125004 70.3406336,44.0416658 70.1239658,44.225 L69.7739658,44.525 L69.7739658,47.275 L72.2739658,47.275 L73.8739658,45.35 L75.6239658,47.425 C75.7906333,47.625001 75.8572993,47.7624996 75.8239658,47.8375 C75.7906323,47.9125004 75.6739668,47.95 75.4739658,47.95 L69.7739658,47.95 L69.7739658,55.275 C69.7739658,55.7250023 69.7614659,56.0999985 69.7364658,56.4 C69.7114657,56.7000015 69.6322998,56.9624989 69.4989658,57.1875 C69.3656318,57.4125011 69.1614672,57.6333323 68.8864658,57.85 C68.6114644,58.0666678 68.2239683,58.3249985 67.7239658,58.625 C67.3739641,58.8083343 67.1656328,58.7083353 67.0989658,58.325 C67.0656323,58.1083323 67.0114662,57.9083343 66.9364658,57.725 C66.8614654,57.5416658 66.7156336,57.3666675 66.4989658,57.2 C66.2822981,57.0333325 65.9698012,56.8666675 65.5614658,56.7 C65.1531304,56.5333325 64.6156358,56.350001 63.9489658,56.15 L63.9989658,55.675 C64.8823036,55.8416675 65.5864632,55.9458331 66.1114658,55.9875 C66.6364684,56.0291669 67.0322978,56.0291669 67.2989658,55.9875 C67.5656338,55.9458331 67.7364654,55.8708339 67.8114658,55.7625 C67.8864662,55.6541661 67.9239658,55.533334 67.9239658,55.4 L67.9239658,47.95 L64.4489658,47.95 C64.0489638,47.95 63.7281337,47.9708331 63.4864658,48.0125 C63.2447979,48.0541669 63.0073003,48.1166663 62.7739658,48.2 L61.9489658,47.175 Z M55.5739658,42.275 C54.8572956,42.2916668 54.2739681,42.4583318 53.8239658,42.775 L52.5989658,41.525 C53.1156351,41.5583335 53.5447974,41.5833333 53.8864658,41.6 C54.2281342,41.6166668 54.5656308,41.6166668 54.8989658,41.6 L56.5989658,41.6 C56.6989663,40.7166623 56.7864654,39.8166713 56.8614658,38.9 C56.9364662,37.9833288 56.9989656,36.9750055 57.0489658,35.875 L59.3739658,36.8 C59.5739668,36.8833338 59.6822991,36.9666663 59.6989658,37.05 C59.7156326,37.1333338 59.6323001,37.274999 59.4489658,37.475 L58.8739658,38.15 C58.7906321,38.7833365 58.7031329,39.3833305 58.6114658,39.95 C58.5197987,40.5166695 58.4322996,41.066664 58.3489658,41.6 L60.4239658,41.6 L61.2489658,40.475 L63.0739658,41.775 C63.2573001,41.908334 63.3489658,42.008333 63.3489658,42.075 C63.3489658,42.141667 63.2739666,42.241666 63.1239658,42.375 L62.3989658,42.875 C62.3489656,43.6416705 62.2614664,44.4458291 62.1364658,45.2875 C62.0114652,46.1291709 61.8573001,46.9583293 61.6739658,47.775 C61.4906316,48.5916708 61.2906336,49.366663 61.0739658,50.1 C60.8572981,50.833337 60.6406336,51.4583308 60.4239658,51.975 C61.1739696,52.3583353 61.7197974,52.7041651 62.0614658,53.0125 C62.4031342,53.3208349 62.6572983,53.608332 62.8239658,53.875 C62.9739666,54.1250013 63.0531324,54.3874986 63.0614658,54.6625 C63.0697992,54.9375014 63.0364662,55.1833323 62.9614658,55.4 C62.8864654,55.6166678 62.7781332,55.7958326 62.6364658,55.9375 C62.4947984,56.0791674 62.3489666,56.15 62.1989658,56.15 C62.0489651,56.15 61.9114664,56.0958339 61.7864658,55.9875 C61.6614652,55.8791661 61.5156333,55.6500018 61.3489658,55.3 C61.1656316,54.9333315 60.9531337,54.583335 60.7114658,54.25 C60.4697979,53.916665 60.1573011,53.5916683 59.7739658,53.275 C59.0239621,54.4250058 58.0698049,55.4083293 56.9114658,56.225 C55.7531267,57.0416708 54.4156401,57.6666645 52.8989658,58.1 L52.5739658,57.725 C53.9906396,56.9749963 55.2281272,56.1791709 56.2864658,55.3375 C57.3448044,54.4958291 58.1072968,53.5166723 58.5739658,52.4 C57.9406293,51.999998 57.2239698,51.6166685 56.4239658,51.25 C56.4072991,51.2666668 56.3989658,51.2916665 56.3989658,51.325 C56.3156321,51.658335 56.2114664,51.8708329 56.0864658,51.9625 C55.9614652,52.0541671 55.6823013,52.133333 55.2489658,52.2 C54.8489638,52.2500003 54.6114662,52.2458336 54.5364658,52.1875 C54.4614654,52.1291664 54.4656321,52.000001 54.5489658,51.8 C54.9656346,50.4333265 55.3406308,48.9708411 55.6739658,47.4125 C56.0073008,45.8541589 56.2906313,44.141676 56.5239658,42.275 L55.5739658,42.275 Z M58.2489658,42.275 C57.9989646,43.5583398 57.7448004,44.9083263 57.4864658,46.325 C57.2281312,47.7416738 56.9489673,49.083327 56.6489658,50.35 C57.0823013,50.5000008 57.5114637,50.6624991 57.9364658,50.8375 C58.3614679,51.0125009 58.7156311,51.166666 58.9989658,51.3 C59.4156346,50.0833273 59.7697977,48.6916745 60.0614658,47.125 C60.3531339,45.5583255 60.5239656,43.941675 60.5739658,42.275 L58.2489658,42.275 Z M81.6189658,49.2 C81.5856323,49.2833338 81.543966,49.3666663 81.4939658,49.45 C81.4439655,49.5333338 81.4106325,49.5999998 81.3939658,49.65 C81.310632,49.8166675 81.1939665,49.9 81.0439658,49.9 C80.893965,49.9 80.6523008,49.8583338 80.3189658,49.775 C80.0689645,49.708333 79.9356325,49.6333338 79.9189658,49.55 C79.902299,49.4666663 79.9856315,49.2833348 80.1689658,49 C80.3523,48.7166653 80.5439648,48.408335 80.7439658,48.075 C80.9439668,47.741665 81.1106318,47.4583345 81.2439658,47.225 L82.7939658,44.325 L81.2939658,44.325 C80.943964,44.325 80.6606335,44.3458331 80.4439658,44.3875 C80.227298,44.4291669 80.0106335,44.4999995 79.7939658,44.6 L78.9689658,43.525 C79.3189675,43.591667 79.6314644,43.6333333 79.9064658,43.65 C80.1814672,43.6666668 80.4856308,43.675 80.8189658,43.675 L82.8189658,43.675 L83.6939658,42.6 L84.8939658,43.875 C85.0272998,44.0583343 85.0897992,44.1958329 85.0814658,44.2875 C85.0731324,44.3791671 84.9606335,44.4666663 84.7439658,44.55 C84.5606315,44.616667 84.3731334,44.749999 84.1814658,44.95 C83.9897982,45.150001 83.7773003,45.4666645 83.5439658,45.9 L82.0189658,48.525 L83.2689658,48.525 L84.1439658,47.45 L85.4189658,48.65 C85.535633,48.783334 85.5897992,48.883333 85.5814658,48.95 C85.5731324,49.016667 85.4856333,49.0999995 85.3189658,49.2 L84.9689658,49.4 C84.885632,50.200004 84.7772998,50.9249968 84.6439658,51.575 C84.5106318,52.2250033 84.3356335,52.8333305 84.1189658,53.4 C84.835636,53.9833363 85.7772933,54.4958311 86.9439658,54.9375 C88.1106383,55.3791689 89.4606248,55.7249988 90.9939658,55.975 C92.5273068,56.2250013 94.2272898,56.3624999 96.0939658,56.3875 C97.9606418,56.4125001 99.9606218,56.3000013 102.093966,56.05 L102.093966,56.325 C101.51063,56.4750008 101.098134,56.6708321 100.856466,56.9125 C100.614798,57.1541679 100.460633,57.4833313 100.393966,57.9 C100.377299,58.033334 100.335633,58.1208331 100.268966,58.1625 C100.202299,58.2041669 100.068967,58.225 99.8689658,58.225 C97.6856215,58.2083333 95.7481409,58.1083343 94.0564658,57.925 C92.3647907,57.7416658 90.8648057,57.483335 89.5564658,57.15 C88.2481259,56.816665 87.1148039,56.416669 86.1564658,55.95 C85.1981277,55.483331 84.3773025,54.9583363 83.6939658,54.375 C83.2272968,55.2916713 82.6189695,56.08333 81.8689658,56.75 C81.118962,57.41667 80.152305,58.016664 78.9689658,58.55 L78.8189658,58.2 C79.7023035,57.6833308 80.4314629,57.0791701 81.0064658,56.3875 C81.5814687,55.6958299 82.043964,54.9583373 82.3939658,54.175 C82.7439675,53.3916628 83.0022983,52.5750043 83.1689658,51.725 C83.3356333,50.8749958 83.4522988,50.0333375 83.5189658,49.2 L81.6189658,49.2 Z M100.218966,38.875 C100.385633,39.008334 100.468966,39.1166663 100.468966,39.2 C100.468966,39.2833338 100.3773,39.391666 100.193966,39.525 L99.5439658,40 L99.5439658,49.675 C99.5439658,50.008335 99.518966,50.2874989 99.4689658,50.5125 C99.4189655,50.7375011 99.3314664,50.9458324 99.2064658,51.1375 C99.0814652,51.3291676 98.9064669,51.5166658 98.6814658,51.7 C98.4564647,51.8833343 98.1689675,52.0833323 97.8189658,52.3 C97.602298,52.433334 97.4397997,52.4833335 97.3314658,52.45 C97.2231319,52.4166665 97.1522993,52.2833345 97.1189658,52.05 C97.0689655,51.649998 96.8814674,51.2916683 96.5564658,50.975 C96.2314642,50.6583318 95.6689698,50.3916678 94.8689658,50.175 L94.8939658,49.85 C95.5773025,49.9500005 96.1189638,50.0124999 96.5189658,50.0375 C96.9189678,50.0625001 97.2231314,50.0500003 97.4314658,50 C97.6398002,49.9499998 97.7731322,49.8625006 97.8314658,49.7375 C97.8897994,49.6124994 97.9189658,49.450001 97.9189658,49.25 L97.9189658,39.325 L94.4939658,39.325 L94.4939658,49.75 C94.4939658,50.750005 94.502299,51.6041631 94.5189658,52.3125 C94.5356325,53.0208369 94.5606323,53.674997 94.5939658,54.275 C94.6106325,54.5583348 94.5731329,54.7624994 94.4814658,54.8875 C94.3897987,55.0125006 94.1773008,55.1666658 93.8439658,55.35 C93.3106298,55.616668 92.985633,55.716667 92.8689658,55.65 C92.7522985,55.583333 92.7189655,55.2666695 92.7689658,54.7 C92.7856325,54.433332 92.8064657,54.0625024 92.8314658,53.5875 C92.8564659,53.1124976 92.877299,52.6041694 92.8939658,52.0625 C92.9106325,51.5208306 92.9231324,50.9958359 92.9314658,50.4875 C92.9397992,49.9791641 92.9439658,49.5500018 92.9439658,49.2 L92.9439658,41.5 C92.9439658,41.233332 92.9397992,40.9166685 92.9314658,40.55 C92.9231324,40.1833315 92.9147992,39.8125019 92.9064658,39.4375 C92.8981324,39.0624981 92.8897992,38.7000018 92.8814658,38.35 C92.8731324,37.9999983 92.8606325,37.7000013 92.8439658,37.45 L94.4189658,38.65 L97.7689658,38.65 L98.6189658,37.5 L100.218966,38.875 Z M92.2189658,37.475 C92.4023,37.6583343 92.4772993,37.7916663 92.4439658,37.875 C92.4106323,37.9583338 92.2773003,38.0166665 92.0439658,38.05 C91.9106318,38.0666668 91.7356335,38.108333 91.5189658,38.175 C91.302298,38.241667 91.0773003,38.341666 90.8439658,38.475 C90.36063,38.7916683 89.960634,39.0291659 89.6439658,39.1875 C89.3272975,39.3458341 88.977301,39.5166658 88.5939658,39.7 L88.5939658,49.6 L91.7939658,48.475 L91.8689658,48.75 L88.3939658,50.925 C87.7939628,51.2916685 87.3273008,51.6499983 86.9939658,52 C86.8272983,52.1833343 86.6939663,52.2583335 86.5939658,52.225 C86.4939653,52.1916665 86.3939663,52.0833343 86.2939658,51.9 L85.6939658,50.625 L86.9689658,50.175 L86.9689658,42.475 C86.9689658,42.208332 86.9647992,41.8916685 86.9564658,41.525 C86.9481324,41.1583315 86.9397992,40.7875019 86.9314658,40.4125 C86.9231324,40.0374981 86.9147992,39.6750018 86.9064658,39.325 C86.8981324,38.9749983 86.8856325,38.6750013 86.8689658,38.425 L88.3439658,39.15 C88.9106353,38.6333308 89.3772973,38.1375024 89.7439658,37.6625 C90.1106343,37.1874976 90.4772973,36.6250033 90.8439658,35.975 L92.2189658,37.475 Z M84.3439658,40.275 C84.3439658,40.808336 84.2148004,41.1916655 83.9564658,41.425 C83.6981312,41.6583345 83.4023008,41.775 83.0689658,41.775 C82.785631,41.775 82.6022995,41.4583365 82.5189658,40.825 C82.4022985,40.2083303 82.1898007,39.6083363 81.8814658,39.025 C81.5731309,38.4416638 81.2023013,37.8333365 80.7689658,37.2 L80.9439658,36.875 C81.4773018,37.1250013 81.9564637,37.4083318 82.3814658,37.725 C82.8064679,38.0416683 83.1647977,38.3541651 83.4564658,38.6625 C83.7481339,38.9708349 83.968965,39.2666653 84.1189658,39.55 C84.2689665,39.8333348 84.3439658,40.074999 84.3439658,40.275 Z M118.788966,54.85 C118.522298,54.7499995 118.280634,54.666667 118.063966,54.6 L117.413966,54.4 C117.197298,54.333333 116.9723,54.2708336 116.738966,54.2125 C116.505631,54.1541664 116.255634,54.0833338 115.988966,54 C115.855632,54.1833343 115.7098,54.3124996 115.551466,54.3875 C115.393132,54.4625004 115.130634,54.5083333 114.763966,54.525 C114.380631,54.525 114.168133,54.491667 114.126466,54.425 C114.084799,54.358333 114.155632,54.1833348 114.338966,53.9 C114.655634,53.4166643 114.968131,52.8833363 115.276466,52.3 C115.584801,51.7166638 115.855631,51.1333363 116.088966,50.55 L113.588966,50.55 C113.205631,50.55 112.893134,50.5708331 112.651466,50.6125 C112.409798,50.6541669 112.1723,50.7249995 111.938966,50.825 L111.038966,49.725 C111.422301,49.791667 111.768131,49.8333333 112.076466,49.85 C112.384801,49.8666668 112.713964,49.875 113.063966,49.875 L116.388966,49.875 C116.6223,49.3249973 116.851465,48.7458364 117.076466,48.1375 C117.301467,47.5291636 117.538965,46.858337 117.788966,46.125 L119.413966,46.775 C119.613967,46.8583338 119.709799,46.9499995 119.701466,47.05 C119.693132,47.1500005 119.5723,47.2499995 119.338966,47.35 L119.013966,47.475 L117.913966,49.875 L124.813966,49.875 L126.263966,48.15 L127.888966,50.075 C128.038967,50.2583343 128.097299,50.383333 128.063966,50.45 C128.030632,50.516667 127.913967,50.55 127.713966,50.55 L123.288966,50.55 C122.955631,51.350004 122.609801,52.0666635 122.251466,52.7 C121.893131,53.3333365 121.497301,53.916664 121.063966,54.45 C121.680636,54.6166675 122.226463,54.7874991 122.701466,54.9625 C123.176468,55.1375009 123.713963,55.3666653 124.313966,55.65 C125.480638,56.183336 125.9723,56.9583283 125.788966,57.975 C125.705632,58.4250023 125.530634,58.683333 125.263966,58.75 C124.997298,58.816667 124.713967,58.683335 124.413966,58.35 C123.413961,57.2333278 122.005642,56.2500043 120.188966,55.4 C119.688963,55.9166693 119.130636,56.3624981 118.513966,56.7375 C117.897296,57.1125019 117.21397,57.4374986 116.463966,57.7125 C115.713962,57.9875014 114.88897,58.2208324 113.988966,58.4125 C113.088961,58.6041676 112.097305,58.766666 111.013966,58.9 L110.863966,58.475 C111.830637,58.2416655 112.713962,58.0000013 113.513966,57.75 C114.31397,57.4999988 115.034796,57.2291681 115.676466,56.9375 C116.318136,56.6458319 116.89313,56.3291684 117.401466,55.9875 C117.909802,55.6458316 118.372297,55.2666688 118.788966,54.85 Z M113.988966,42.275 C114.1223,42.4416675 114.176466,42.5708329 114.151466,42.6625 C114.126466,42.7541671 114.0223,42.8 113.838966,42.8 L110.438966,42.8 L110.438966,47.325 L113.538966,46.6 L113.663966,46.95 L110.438966,48.225 L110.438966,56.025 C110.438966,56.3916685 110.426466,56.6874989 110.401466,56.9125 C110.376466,57.1375011 110.301466,57.3458324 110.176466,57.5375 C110.051465,57.7291676 109.847301,57.9333323 109.563966,58.15 C109.280631,58.3666678 108.888968,58.6499983 108.388966,59 C108.055631,59.2166678 107.855633,59.125002 107.788966,58.725 C107.755632,58.5416658 107.6973,58.3666675 107.613966,58.2 C107.530632,58.0333325 107.393133,57.8666675 107.201466,57.7 C107.009798,57.5333325 106.755634,57.3708341 106.438966,57.2125 C106.122298,57.0541659 105.713968,56.8833343 105.213966,56.7 L105.363966,56.325 C106.11397,56.4250005 106.713964,56.4833333 107.163966,56.5 C107.613968,56.5166668 107.955631,56.491667 108.188966,56.425 C108.4223,56.358333 108.572299,56.2625006 108.638966,56.1375 C108.705633,56.0124994 108.738966,55.850001 108.738966,55.65 L108.738966,48.875 C108.172296,49.1083345 107.609802,49.3666653 107.051466,49.65 C106.49313,49.9333348 106.063967,50.208332 105.763966,50.475 C105.597298,50.608334 105.476466,50.6666668 105.401466,50.65 C105.326465,50.6333333 105.2473,50.558334 105.163966,50.425 L104.413966,48.7 L108.738966,47.7 L108.738966,42.8 L106.988966,42.8 C106.605631,42.8 106.293134,42.8208331 106.051466,42.8625 C105.809798,42.9041669 105.5723,42.9666663 105.338966,43.05 L104.463966,42 C104.847301,42.0500003 105.193131,42.0833333 105.501466,42.1 C105.809801,42.1166668 106.138964,42.125 106.488966,42.125 L108.738966,42.125 L108.738966,40.025 C108.738966,39.758332 108.734799,39.4416685 108.726466,39.075 C108.718132,38.7083315 108.709799,38.3375019 108.701466,37.9625 C108.693132,37.5874981 108.684799,37.2250018 108.676466,36.875 C108.668132,36.5249983 108.655633,36.2250013 108.638966,35.975 L110.838966,36.775 C111.255635,36.908334 111.263968,37.141665 110.863966,37.475 L110.438966,37.8 L110.438966,42.125 L111.338966,42.125 L112.588966,40.625 L113.988966,42.275 Z M127.438966,45.575 C127.5723,45.7416675 127.618133,45.8541664 127.576466,45.9125 C127.534799,45.9708336 127.4223,46 127.238966,46 L114.438966,46 C114.188965,46 113.909801,46.0208331 113.601466,46.0625 C113.293131,46.1041669 113.0223,46.1666663 112.788966,46.25 L111.863966,45.175 C112.247301,45.2250003 112.593131,45.2583333 112.901466,45.275 C113.209801,45.2916668 113.547297,45.3 113.913966,45.3 L120.138966,45.3 C120.338967,44.8499978 120.522298,44.4333353 120.688966,44.05 C120.855633,43.6666648 121.009798,43.2875019 121.151466,42.9125 C121.293133,42.5374981 121.426465,42.1541686 121.551466,41.7625 C121.676466,41.3708314 121.805632,40.9500023 121.938966,40.5 L123.738966,41.4 C123.988967,41.533334 124.105633,41.6624994 124.088966,41.7875 C124.072299,41.9125006 123.930634,42.0249995 123.663966,42.125 C123.563965,42.1583335 123.468133,42.208333 123.376466,42.275 C123.284799,42.341667 123.1473,42.4833323 122.963966,42.7 C122.780632,42.9166678 122.530634,43.224998 122.213966,43.625 C121.897298,44.025002 121.472302,44.5833298 120.938966,45.3 L124.163966,45.3 L125.688966,43.5 L127.438966,45.575 Z M117.663966,50.55 C117.397298,51.1666698 117.1598,51.6958311 116.951466,52.1375 C116.743131,52.5791689 116.538967,52.9916648 116.338966,53.375 C116.972302,53.4916673 117.522297,53.5999995 117.988966,53.7 C118.455635,53.8000005 118.963963,53.916666 119.513966,54.05 C120.230636,53.0999953 120.838963,51.9333403 121.338966,50.55 L117.663966,50.55 Z M126.213966,39.875 C126.3473,40.0416675 126.397299,40.1541664 126.363966,40.2125 C126.330632,40.2708336 126.2223,40.3 126.038966,40.3 L115.813966,40.3 C115.563965,40.3 115.284801,40.3208331 114.976466,40.3625 C114.668131,40.4041669 114.3973,40.4749995 114.163966,40.575 L113.263966,39.475 C113.647301,39.5250003 113.993131,39.5583333 114.301466,39.575 C114.609801,39.5916668 114.938964,39.6 115.288966,39.6 L123.313966,39.6 L124.638966,38.025 L126.213966,39.875 Z M118.088966,43.775 C118.005632,44.1583353 117.851467,44.4624989 117.626466,44.6875 C117.401465,44.9125011 117.180634,45.025 116.963966,45.025 C116.780632,45.025 116.643133,44.9541674 116.551466,44.8125 C116.459799,44.6708326 116.397299,44.4166685 116.363966,44.05 C116.330632,43.7499985 116.284799,43.4791679 116.226466,43.2375 C116.168132,42.9958321 116.0973,42.7583345 116.013966,42.525 C115.930632,42.2916655 115.8223,42.0625011 115.688966,41.8375 C115.555632,41.6124989 115.388967,41.366668 115.188966,41.1 L115.388966,40.9 C116.005636,41.233335 116.497297,41.533332 116.863966,41.8 C117.230634,42.066668 117.513965,42.3124989 117.713966,42.5375 C117.913967,42.7625011 118.034799,42.974999 118.076466,43.175 C118.118133,43.375001 118.122299,43.574999 118.088966,43.775 Z M120.538966,37.775 C120.538966,38.1583353 120.4473,38.5041651 120.263966,38.8125 C120.080632,39.1208349 119.863967,39.275 119.613966,39.275 C119.397298,39.275 119.205633,39.2041674 119.038966,39.0625 C118.872298,38.9208326 118.772299,38.7250013 118.738966,38.475 C118.655632,38.0416645 118.543133,37.6666683 118.401466,37.35 C118.259798,37.0333318 118.030634,36.6666688 117.713966,36.25 L117.888966,35.975 C118.472302,36.1583343 118.938964,36.3208326 119.288966,36.4625 C119.638968,36.6041674 119.905632,36.7458326 120.088966,36.8875 C120.2723,37.0291674 120.393132,37.1708326 120.451466,37.3125 C120.509799,37.4541674 120.538966,37.6083325 120.538966,37.775 Z M142.508966,43.225 L148.308966,38.6 L134.633966,38.6 C133.950629,38.6 133.400634,38.6916658 132.983966,38.875 L132.108966,37.8 C132.725635,37.8833338 133.392295,37.925 134.108966,37.925 L148.033966,37.925 L149.483966,36.7 L151.458966,38.7 C151.6423,38.900001 151.733966,39.0541661 151.733966,39.1625 C151.733966,39.2708339 151.521468,39.325 151.096466,39.325 C150.671464,39.325 149.950637,39.5791641 148.933966,40.0875 C147.917294,40.5958359 145.95898,41.7249913 143.058966,43.475 C143.2923,43.608334 143.408966,43.7208329 143.408966,43.8125 C143.408966,43.9041671 143.283967,44.0083328 143.033966,44.125 L142.633966,44.325 L142.633966,55.675 C142.633966,56.2583363 142.546467,56.7041651 142.371466,57.0125 C142.196465,57.3208349 141.771469,57.6708314 141.096466,58.0625 C140.421462,58.4541686 140.000633,58.65 139.833966,58.65 C139.667298,58.65 139.550633,58.4708351 139.483966,58.1125 C139.417299,57.7541649 139.083969,57.3833353 138.483966,57 C137.883963,56.6166648 137.083971,56.3416675 136.083966,56.175 L136.083966,55.725 C137.467306,55.9083343 138.496462,56 139.171466,56 C139.846469,56 140.279798,55.9250008 140.471466,55.775 C140.663133,55.6249993 140.758966,55.3916683 140.758966,55.075 L140.758966,46.375 C140.758966,44.8583258 140.725633,43.533339 140.658966,42.4 L142.508966,43.225 Z M172.903966,47.6 L174.403966,38.3 L168.028966,38.3 C167.295629,38.3 166.720634,38.399999 166.303966,38.6 L165.403966,37.5 C165.837301,37.566667 166.545627,37.6 167.528966,37.6 L174.328966,37.6 L175.303966,36.4 L176.903966,37.725 C177.120633,37.8916675 177.228966,38.041666 177.228966,38.175 C177.228966,38.308334 177.1123,38.441666 176.878966,38.575 L176.328966,38.9 L174.653966,47.6 L176.553966,47.6 L177.428966,46.5 L179.003966,47.875 C179.1873,48.008334 179.278966,48.1291661 179.278966,48.2375 C179.278966,48.3458339 179.195633,48.4583328 179.028966,48.575 L178.503966,48.925 C178.037297,52.8750198 177.691467,55.3249953 177.466466,56.275 C177.241465,57.2250048 176.69147,57.966664 175.816466,58.5 C174.941461,59.033336 174.353967,59.3 174.053966,59.3 C173.937298,59.3 173.870632,59.200001 173.853966,59 C173.787299,58.3833303 173.553968,57.9250015 173.153966,57.625 C172.753964,57.3249985 171.895639,57.0166683 170.578966,56.7 L170.703966,56.275 C172.070639,56.5083345 173.053963,56.625 173.653966,56.625 C174.253969,56.625 174.674798,56.5708339 174.916466,56.4625 C175.158134,56.3541661 175.333132,56.1958344 175.441466,55.9875 C175.5498,55.7791656 175.691465,55.2583375 175.866466,54.425 C176.041467,53.5916625 176.216465,52.5958391 176.391466,51.4375 C176.566467,50.2791609 176.670632,49.2583378 176.703966,48.375 L168.103966,48.375 L167.453966,49.2 C167.353965,49.3166673 167.258133,49.375 167.166466,49.375 C167.074799,49.375 166.970633,49.3166673 166.853966,49.2 L165.553966,47.875 C165.987301,47.6249988 166.266465,47.4125009 166.391466,47.2375 C166.516466,47.0624991 166.645632,46.6666698 166.778966,46.05 C166.9123,45.4333303 167.108131,44.3291746 167.366466,42.7375 C167.6248,41.1458254 167.770632,40.0416698 167.803966,39.425 L170.003966,40.475 C170.203967,40.5583338 170.303966,40.633333 170.303966,40.7 C170.303966,40.766667 170.2123,40.8416663 170.028966,40.925 L169.503966,41.225 L168.078966,47.6 L172.903966,47.6 Z M159.303966,38.85 L162.128966,38.85 L162.878966,37.8 L164.378966,39 C164.5123,39.1166673 164.578966,39.2333328 164.578966,39.35 C164.578966,39.4666673 164.520633,39.558333 164.403966,39.625 L163.603966,40.15 L163.603966,47.9 C163.603966,48.5500033 163.620632,49.1166643 163.653966,49.6 L163.753966,50.825 C163.753966,51.2083353 163.528968,51.4958324 163.078966,51.6875 C162.628963,51.8791676 162.341466,51.975 162.216466,51.975 C162.091465,51.975 162.028966,51.8666678 162.028966,51.65 L162.028966,50.2 L159.003966,50.2 L159.003966,52.575 C159.003966,52.8916683 158.933133,53.1249993 158.791466,53.275 C158.649798,53.4250008 158.420634,53.5791659 158.103966,53.7375 C157.787297,53.8958341 157.553966,53.975 157.403966,53.975 C157.187298,53.975 157.078966,53.8541679 157.078966,53.6125 C157.078966,53.3708321 157.087299,53.1583343 157.103966,52.975 C157.253966,51.574993 157.328966,50.2250065 157.328966,48.925 L157.328966,40.325 C157.328966,39.1416608 157.295633,38.083338 157.228966,37.15 L159.303966,38.85 Z M162.028966,49.45 L162.028966,39.675 L159.003966,39.675 L159.003966,49.45 L162.028966,49.45 Z M175.328966,52.35 C175.4623,52.5166675 175.528966,52.6499995 175.528966,52.75 C175.528966,52.8500005 175.395634,52.9 175.128966,52.9 L165.403966,52.9 C164.653962,52.9 164.070634,52.9916658 163.653966,53.175 L162.753966,52.025 C163.403969,52.1083338 164.112295,52.15 164.878966,52.15 L172.328966,52.15 L173.728966,50.425 L175.328966,52.35 Z"/>
  </g>
</svg>
