<svg xmlns="http://www.w3.org/2000/svg" width="412" height="32" viewBox="0 0 412 32">
  <g fill="none" fill-rule="evenodd">
    <path fill="#231F20" stroke="#231F20" stroke-width=".1" d="M164.131,2.867 L177.892,2.867 L179.344,1.052 L181.456,3.098 C181.610001,3.25200077 181.687,3.38399945 181.687,3.494 C181.687,3.60400055 181.588001,3.74699912 181.39,3.923 L180.598,4.484 L180.598,8.84 C180.598,9.56600363 180.62,10.2589967 180.664,10.919 L180.763,12.635 C180.763,12.9430015 180.680501,13.1629993 180.5155,13.295 C180.350499,13.4270007 180.015003,13.5754992 179.509,13.7405 C179.002997,13.9055008 178.651001,13.988 178.453,13.988 C178.254999,13.988 178.156,13.8560013 178.156,13.592 L178.156,12.503 L163.471,12.503 C163.515,12.9210021 163.218003,13.2564987 162.58,13.5095 C161.941997,13.7625013 161.513001,13.889 161.293,13.889 C161.072999,13.889 160.963,13.7020019 160.963,13.328 L161.062,11.579 C161.084,10.9189967 161.095,9.86300726 161.095,8.411 L161.095,4.187 C161.095,3.43899626 161.062,2.41600649 160.996,1.118 L164.131,2.867 Z M178.156,7.124 L178.156,3.791 L163.471,3.791 L163.471,7.124 L178.156,7.124 Z M178.156,11.579 L178.156,8.048 L163.471,8.048 L163.471,11.579 L178.156,11.579 Z M162.778,18.641 C161.215992,21.1710127 159.203012,23.5689887 156.739,25.835 L156.145,25.472 C159.137015,21.7099812 161.094995,17.9810185 162.019,14.285 L164.824,15.44 C165.044001,15.5280004 165.154,15.6269995 165.154,15.737 C165.154,15.8470006 165.000002,15.9569995 164.692,16.067 C164.383998,16.1770006 163.933003,16.7269951 163.339,17.717 L169.675,17.717 C169.675,16.1989924 169.631,14.6590078 169.543,13.097 L173.041,14.153 C173.283001,14.2190003 173.404,14.3234993 173.404,14.4665 C173.404,14.6095007 173.283001,14.7469993 173.041,14.879 L172.183,15.374 L172.183,17.717 L179.146,17.717 L181.093,15.341 L183.37,18.047 C183.480001,18.2230009 183.535,18.3659995 183.535,18.476 C183.535,18.5860006 183.403001,18.641 183.139,18.641 L172.183,18.641 L172.183,23.03 L177.364,23.03 L179.179,20.852 L181.291,23.36 C181.445001,23.5360009 181.522,23.6789995 181.522,23.789 C181.522,23.8990006 181.368002,23.954 181.06,23.954 L172.183,23.954 L172.183,28.739 L181.192,28.739 L183.337,26.198 L185.812,29.102 C185.944001,29.2780009 186.01,29.4209995 186.01,29.531 C186.01,29.6410006 185.856002,29.696 185.548,29.696 L159.082,29.696 C158.135995,29.696 157.377003,29.8059989 156.805,30.026 L155.617,28.574 C156.453004,28.6840006 157.365995,28.739 158.356,28.739 L169.675,28.739 L169.675,23.954 L164.032,23.954 C163.107995,23.954 162.360003,24.0639989 161.788,24.284 L160.567,22.832 C161.403004,22.9640007 162.315995,23.03 163.306,23.03 L169.675,23.03 L169.675,18.641 L162.778,18.641 Z M207.414,0.821 C208.910007,1.19500187 209.916497,1.59099791 210.4335,2.009 C210.950502,2.42700209 211.209,2.92749709 211.209,3.5105 C211.209,4.09350292 211.093501,4.54449841 210.8625,4.8635 C210.631499,5.1825016 210.301502,5.342 209.8725,5.342 C209.443498,5.342 209.152001,5.0120033 208.998,4.352 C208.689998,2.94399296 208.107004,1.9100033 207.249,1.25 L207.414,0.821 Z M199.659,5.441 L218.535,5.441 L220.515,3.098 L222.594,5.606 C222.836001,5.87000132 222.957,6.0624994 222.957,6.1835 C222.957,6.30450061 222.759002,6.365 222.363,6.365 L199.362,6.365 L199.362,13.922 C199.362,18.0140205 198.883505,21.4349863 197.9265,24.185 C196.969495,26.9350138 195.47901,29.3549896 193.455,31.445 L193.026,31.082 C194.456007,28.9699894 195.484497,26.814011 196.1115,24.614 C196.738503,22.413989 197.052,19.1030221 197.052,14.681 L197.052,7.025 C197.052,5.88099428 197.019,4.71500594 196.953,3.527 L199.659,5.441 Z M211.473,23.063 L211.473,28.838 L218.799,28.838 L220.812,26.462 L222.99,29.036 C223.166001,29.2560011 223.254,29.4264994 223.254,29.5475 C223.254,29.6685006 223.089002,29.729 222.759,29.729 L200.616,29.729 C199.691995,29.729 198.944003,29.8499988 198.372,30.092 L197.217,28.64 C198.053004,28.7720007 198.965995,28.838 199.956,28.838 L209.163,28.838 L209.163,23.063 L204.774,23.063 C203.871995,23.063 203.124003,23.1839988 202.53,23.426 L201.342,22.007 C202.178004,22.1170006 203.090995,22.172 204.081,22.172 L209.163,22.172 L209.163,10.424 C209.163,9.16999373 209.119,7.96000583 209.031,6.794 L211.902,7.883 C212.232002,7.99300055 212.397,8.13599912 212.397,8.312 C212.397,8.48800088 212.243001,8.65299923 211.935,8.807 L211.473,9.005 L211.473,22.172 L215.895,22.172 L217.842,19.862 L219.888,22.271 C220.086001,22.5350013 220.185,22.7329993 220.185,22.865 C220.185,22.9970007 219.998002,23.063 219.624,23.063 L211.473,23.063 Z M204.114,15.044 C203.079995,17.3540116 201.56201,19.50999 199.56,21.512 L199.164,21.248 C201.386011,18.1239844 202.936995,13.9550261 203.817,8.741 L206.193,10.127 C206.479001,10.2810008 206.622,10.4129995 206.622,10.523 C206.622,10.6330006 206.506501,10.7264996 206.2755,10.8035 C206.044499,10.8805004 205.874,11.0124991 205.764,11.1995 C205.653999,11.3865009 205.467001,11.8099967 205.203,12.47 L204.411,14.384 C207.073013,15.9680079 208.404,17.1889957 208.404,18.047 C208.404,18.5310024 208.277501,18.9819979 208.0245,19.4 C207.771499,19.8180021 207.485501,20.027 207.1665,20.027 C206.847498,20.027 206.589001,19.6860034 206.391,19.004 C206.104998,17.8159941 205.346006,16.4960073 204.114,15.044 Z M216.489,14.351 C220.207018,15.6050063 222.066,16.9249931 222.066,18.311 C222.066,18.8610028 221.967001,19.3284981 221.769,19.7135 C221.570999,20.0985019 221.334501,20.291 221.0595,20.291 C220.784498,20.291 220.493001,20.0160028 220.185,19.466 C219.260995,17.7719915 217.930009,16.2980063 216.192,15.044 C215.135995,17.442012 213.827008,19.4879915 212.265,21.182 L211.902,20.885 C213.618008,18.2449868 214.937995,14.2960263 215.862,9.038 L218.139,10.325 C218.447001,10.5010009 218.601,10.6549993 218.601,10.787 C218.601,10.9190007 218.452501,11.0234996 218.1555,11.1005 C217.858498,11.1775004 217.556001,11.6449957 217.248,12.503 L216.489,14.351 Z M230.369,27.617 C232.657011,26.1869929 234.405994,25.3180015 235.616,25.01 L235.616,13.955 L233.504,13.955 C232.887997,13.955 232.420501,13.9769998 232.1015,14.021 C231.782498,14.0650002 231.502001,14.1639992 231.26,14.318 L230.072,12.833 C230.600002,12.9210004 231.072998,12.9759999 231.491,12.998 C231.909002,13.0200001 232.348997,13.031 232.811,13.031 L235.616,13.031 L236.705,11.447 L238.553,13.262 C238.795001,13.5040012 238.916,13.6744995 238.916,13.7735 C238.916,13.8725005 238.806001,14.0099991 238.586,14.186 L237.893,14.813 L237.893,25.109 C237.981,25.1750003 238.085499,25.2519996 238.2065,25.34 C238.3275,25.4280004 238.453999,25.5269995 238.586,25.637 C239.400004,26.3190034 240.444993,26.7919987 241.721,27.056 C242.997006,27.3200013 244.712989,27.4629999 246.869,27.485 C248.277007,27.5070001 249.558494,27.5125001 250.7135,27.5015 C251.868506,27.4904999 252.990494,27.4630002 254.0795,27.419 C255.168505,27.3749998 256.273994,27.2980006 257.396,27.188 C258.518005,27.0779995 259.738993,26.924001 261.059,26.726 L261.059,27.221 C260.244996,27.5070014 259.667501,27.8864976 259.3265,28.3595 C258.985498,28.8325024 258.793,29.2559981 258.749,29.63 C258.705,29.7840008 258.628,29.8829998 258.518,29.927 C258.407999,29.9710002 258.199001,29.993 257.891,29.993 C256.570993,29.9489998 255.372005,29.9105002 254.294,29.8775 C253.215994,29.8444998 252.215004,29.8115002 251.291,29.7785 C250.366995,29.7454998 249.503504,29.7180001 248.7005,29.696 C247.897496,29.6739999 247.122003,29.6410002 246.374,29.597 C245.317994,29.5309997 244.405004,29.4540004 243.635,29.366 C242.864996,29.2779996 242.161003,29.1240011 241.523,28.904 C240.884997,28.6839989 240.247003,28.376002 239.609,27.98 C238.970997,27.583998 238.256004,27.0450034 237.464,26.363 C237.023998,25.9889981 236.606002,25.8129999 236.21,25.835 C235.813998,25.8570001 235.396002,26.0989977 234.956,26.561 C234.449997,27.0890026 234.037501,27.5784977 233.7185,28.0295 C233.399498,28.4805023 233.053002,28.9919971 232.679,29.564 C232.524999,29.8060012 232.404,29.9324999 232.316,29.9435 C232.227999,29.9545001 232.107001,29.8720009 231.953,29.696 L230.369,27.617 Z M258.518,22.634 C258.518,24.3720087 258.012005,25.241 257,25.241 C256.911999,25.241 256.763501,25.142001 256.5545,24.944 C256.345499,24.745999 256.186,24.4270022 256.076,23.987 C255.987999,23.7229987 255.911,23.4645013 255.845,23.2115 C255.778999,22.9584987 255.702,22.7110012 255.614,22.469 L248.552,23.327 C247.429994,23.4590007 246.522503,23.5744995 245.8295,23.6735 C245.136496,23.7725005 244.575502,23.8604996 244.1465,23.9375 C243.717498,24.0145004 243.371001,24.1024995 243.107,24.2015 C242.842998,24.3005005 242.601001,24.4159993 242.381,24.548 C241.962998,24.746001 241.677001,24.6690018 241.523,24.317 L240.467,22.073 L242.579,22.073 C243.327003,21.0609949 244.014497,20.0710048 244.6415,19.103 C245.268503,18.1349952 245.818497,17.2220043 246.2915,16.364 C246.764502,15.5059957 247.160498,14.7305035 247.4795,14.0375 C247.798501,13.3444965 248.034999,12.7670023 248.189,12.305 L243.041,12.305 C242.710998,12.305 242.337002,12.3324997 241.919,12.3875 C241.500998,12.4425003 241.127001,12.5359993 240.797,12.668 L239.576,11.216 C240.082002,11.2820003 240.543998,11.3259999 240.962,11.348 C241.380002,11.3700001 241.830997,11.381 242.315,11.381 L255.746,11.381 L257.759,9.038 L260.234,11.744 C260.454001,11.9860012 260.542,12.1399997 260.498,12.206 C260.454,12.2720003 260.278001,12.305 259.97,12.305 L248.75,12.305 L250.862,13.559 C251.148001,13.7350009 251.269,13.9109991 251.225,14.087 C251.181,14.2630009 251.016001,14.3839997 250.73,14.45 C250.553999,14.4940002 250.3945,14.5544996 250.2515,14.6315 C250.108499,14.7085004 249.954501,14.8239992 249.7895,14.978 C249.624499,15.1320008 249.432001,15.3409987 249.212,15.605 C248.991999,15.8690013 248.717001,16.2099979 248.387,16.628 C248.144999,16.9580017 247.842502,17.3594976 247.4795,17.8325 C247.116498,18.3055024 246.737002,18.7894975 246.341,19.2845 C245.944998,19.7795025 245.560002,20.2689976 245.186,20.753 C244.811998,21.2370024 244.482001,21.6439984 244.196,21.974 L255.317,21.71 C254.942998,20.8079955 254.486502,19.9775038 253.9475,19.2185 C253.408497,18.4594962 252.754004,17.7390034 251.984,17.057 L252.413,16.694 C253.513005,17.288003 254.447996,17.881997 255.218,18.476 C255.988004,19.070003 256.620497,19.6309974 257.1155,20.159 C257.610502,20.6870026 257.967999,21.1654979 258.188,21.5945 C258.408001,22.0235021 258.518,22.3699987 258.518,22.634 Z M253.469,4.055 L255.449,1.712 L257.858,4.352 C258.254002,4.77000209 258.166003,4.979 257.594,4.979 L245.615,4.979 C245.284998,4.979 244.911002,5.00649973 244.493,5.0615 C244.074998,5.11650028 243.701001,5.19899945 243.371,5.309 L242.117,3.857 C242.645002,3.92300033 243.112498,3.97249984 243.5195,4.0055 C243.926502,4.03850017 244.371997,4.055 244.856,4.055 L253.469,4.055 Z M239.048,5.573 C239.048,6.34300385 238.905001,6.95349775 238.619,7.4045 C238.332998,7.85550226 237.970002,8.081 237.53,8.081 C237.331999,8.081 237.128501,7.96550116 236.9195,7.7345 C236.710499,7.50349885 236.595,7.24500143 236.573,6.959 C236.551,6.58499813 236.463001,6.1780022 236.309,5.738 C236.154999,5.2979978 235.957001,4.85250226 235.715,4.4015 C235.472999,3.95049775 235.198001,3.52700198 234.89,3.131 C234.581998,2.73499802 234.263001,2.38300154 233.933,2.075 L234.263,1.613 C235.231005,2.03100209 236.022997,2.42699813 236.639,2.801 C237.255003,3.17500187 237.744498,3.52149841 238.1075,3.8405 C238.470502,4.1595016 238.717999,4.46199857 238.85,4.748 C238.982,5.03400143 239.048,5.30899868 239.048,5.573 Z M275.698,7.19 L272.497,7.19 C271.528995,7.19 270.792002,7.2999989 270.286,7.52 L269.164,6.101 C269.978004,6.23300066 270.868995,6.299 271.837,6.299 L275.698,6.299 C275.698,2.9989835 275.643,1.09600253 275.533,0.59 L278.635,1.976 C278.921001,2.10800066 279.064,2.22349951 279.064,2.3225 C279.064,2.4215005 278.921001,2.55899912 278.635,2.735 L277.744,3.23 L277.744,6.299 L279.064,6.299 L280.483,4.583 L282.133,6.497 C282.331001,6.73900121 282.43,6.91499945 282.43,7.025 C282.43,7.13500055 282.265001,7.19 281.935,7.19 L277.744,7.19 L277.744,9.995 L282.265,8.807 L282.43,9.434 L277.744,11.15 L277.744,14.945 C277.744,15.9790052 277.612001,16.7434975 277.348,17.2385 C277.083998,17.7335025 276.622003,18.2009978 275.962,18.641 C275.301996,19.0810022 274.8895,19.301 274.7245,19.301 C274.559499,19.301 274.455,19.1690013 274.411,18.905 C274.190998,18.0029955 273.01401,17.255003 270.88,16.661 L270.946,16.199 C272.442007,16.397001 273.508996,16.496 274.147,16.496 C274.785003,16.496 275.202999,16.4025009 275.401,16.2155 C275.599001,16.0284991 275.698,15.7040023 275.698,15.242 L275.698,11.876 C274.157992,12.4480029 272.497009,13.1739956 270.715,14.054 C270.560999,14.1640006 270.44,14.219 270.352,14.219 C270.263999,14.219 270.187,14.1530007 270.121,14.021 L269.098,12.206 L275.698,10.523 L275.698,7.19 Z M285.763,7.322 C284.574994,7.45400066 283.717002,7.59699923 283.189,7.751 L282.199,6.431 C282.771002,6.51900044 283.315497,6.563 283.8325,6.563 C284.349502,6.563 285.003996,6.53000033 285.796,6.464 C285.84,5.12199329 285.862,4.01650435 285.862,3.1475 C285.862,2.27849566 285.851,1.45900385 285.829,0.689 L288.7,2.042 C288.964001,2.17400066 289.096,2.28949951 289.096,2.3885 C289.096,2.4875005 288.964001,2.62499912 288.7,2.801 C288.435998,2.97700088 288.26,3.1749989 288.172,3.395 C288.083999,3.6150011 288.018,4.06599659 287.974,4.748 C287.929999,5.43000341 287.886,5.94699824 287.842,6.299 L291.34,5.969 L292.528,4.484 L294.442,6.266 C294.618,6.42000077 294.706,6.55199945 294.706,6.662 C294.706,6.77200055 294.607001,6.88199945 294.409,6.992 L293.287,7.652 C292.956998,8.77400561 292.792,9.86299472 292.792,10.919 C292.792,11.9750053 292.912998,12.9154959 293.155,13.7405 C293.397001,14.5655041 293.726998,15.2199976 294.145,15.704 C294.563002,16.1880024 294.892998,16.43 295.135,16.43 C295.377001,16.43 295.629998,16.1110032 295.894,15.473 C296.158001,14.8349968 296.564997,13.5920092 297.115,11.744 L297.709,11.876 C297.290998,13.6580089 297.082,15.0604949 297.082,16.0835 C297.082,17.1065051 297.164499,17.8049981 297.3295,18.179 C297.4945,18.5530019 297.577,18.8554988 297.577,19.0865 C297.577,19.3175012 297.357002,19.433 296.917,19.433 C296.476997,19.433 295.690505,19.1250031 294.5575,18.509 C293.424494,17.8929969 292.528003,16.9140067 291.868,15.572 C291.207996,14.2299933 290.878,12.6130095 290.878,10.721 C290.878,9.51099395 291.020998,8.21300693 291.307,6.827 L287.743,7.157 C287.478998,9.24701045 287.127002,10.896994 286.687,12.107 C287.743005,12.6570028 288.353499,13.0914984 288.5185,13.4105 C288.6835,13.7295016 288.766,14.0759981 288.766,14.45 C288.766,14.8240019 288.672501,15.1594985 288.4855,15.4565 C288.298499,15.7535015 288.034501,15.902 287.6935,15.902 C287.352498,15.902 287.077501,15.6765023 286.8685,15.2255 C286.659499,14.7744977 286.335002,14.2960025 285.895,13.79 C285.234996,14.8680054 284.278006,15.7809963 283.024,16.529 C281.769993,17.2770037 279.812013,18.1349952 277.15,19.103 L276.886,18.575 C281.04402,16.5949901 283.595995,14.60401 284.542,12.602 C283.771996,12.0299971 282.815005,11.4580029 281.671,10.886 L282.001,10.523 C282.947004,10.6990009 283.980994,10.9959979 285.103,11.414 C285.477001,10.2699943 285.696999,8.90600792 285.763,7.322 Z M280.054,21.545 L273.685,21.545 C272.782995,21.545 272.046002,21.6659988 271.474,21.908 L270.352,20.489 C271.144004,20.5990006 272.034995,20.654 273.025,20.654 L280.351,20.654 C280.593001,19.8179958 280.768999,18.8390056 280.879,17.717 L283.552,18.707 C283.904001,18.8390007 284.08,18.9599995 284.08,19.07 C284.08,19.1800006 283.898501,19.3449989 283.5355,19.565 C283.172498,19.7850011 282.881001,20.1479975 282.661,20.654 L289.822,20.654 L291.208,19.103 L293.617,21.083 C293.771,21.2590009 293.848,21.4349991 293.848,21.611 C293.848,21.7870009 293.716001,21.9079997 293.452,21.974 L292.33,22.304 C292.087998,23.6460067 291.785501,25.020993 291.4225,26.429 C291.059498,27.837007 290.652502,28.7884975 290.2015,29.2835 C289.750497,29.7785025 289.151003,30.1854984 288.403,30.5045 C287.654996,30.8235016 287.176501,30.983 286.9675,30.983 C286.758499,30.983 286.643,30.8290015 286.621,30.521 C286.576999,29.9929974 286.274502,29.5200021 285.7135,29.102 C285.152497,28.6839979 284.058008,28.2110026 282.43,27.683 L282.562,27.122 C284.63001,27.5620022 286.043496,27.782 286.8025,27.782 C287.561503,27.782 288.105998,27.6500013 288.436,27.386 C288.766001,27.1219987 289.101498,26.3025069 289.4425,24.9275 C289.783501,23.5524931 290.008999,22.4250044 290.119,21.545 L282.331,21.545 C280.658991,27.353029 275.907039,30.4769978 268.075,30.917 L268.075,30.488 C274.675033,29.0139926 278.667993,26.0330224 280.054,21.545 Z M321.224999,12.107 C320.784997,15.6050175 320.053505,18.4924886 319.030499,20.7695 C318.007494,23.0465114 316.379511,25.081491 314.146499,26.8745 C311.913488,28.667509 309.345014,30.0039956 306.440999,30.884 L306.242999,30.29 C310.159019,28.3759904 313.183989,25.8735155 315.317999,22.7825 C317.45201,19.6914845 318.650998,16.1330201 318.914999,12.107 L310.400999,12.107 C309.476995,12.107 308.729002,12.2279988 308.156999,12.47 L306.935999,11.018 C307.772004,11.1280006 308.695994,11.183 309.707999,11.183 L318.980999,11.183 C319.113,9.29099054 319.178999,7.40450941 319.178999,5.5235 C319.178999,3.6424906 319.157,1.86600836 319.112999,0.194 L322.676999,1.679 C323.051001,1.83300077 323.237999,1.9704994 323.237999,2.0915 C323.237999,2.21250061 323.089501,2.35549918 322.792499,2.5205 C322.495498,2.68550083 322.292,2.91099857 322.181999,3.197 C322.071999,3.48300143 321.951,4.5059912 321.818999,6.266 C321.686999,8.0260088 321.533,9.66499241 321.356999,11.183 L330.761999,11.183 L332.939999,8.543 L335.447999,11.546 C335.602,11.7000008 335.678999,11.8319995 335.678999,11.942 C335.678999,12.0520006 335.525001,12.107 335.216999,12.107 L322.874999,12.107 C324.437007,20.5770424 328.770964,25.614992 335.876999,27.221 L335.843999,27.782 C335.227996,27.8260002 334.634002,28.0239982 334.061999,28.376 C333.489997,28.7280018 333.094001,29.0964981 332.873999,29.4815 C332.653998,29.8665019 332.456,30.059 332.279999,30.059 C331.971998,30.059 330.828009,29.2285083 328.847999,27.5675 C326.86799,25.9064917 325.350005,23.9375114 324.293999,21.6605 C323.237994,19.3834886 322.512001,16.1990205 322.115999,12.107 L321.224999,12.107 Z M371.932999,5.045 C371.822999,5.81500385 371.7405,6.46949731 371.685499,7.0085 C371.630499,7.5475027 371.559,8.10299714 371.470999,8.675 C371.316999,9.51100418 371.031001,10.1654976 370.612999,10.6385 C370.194997,11.1115024 369.480004,11.5239982 368.467999,11.876 C368.247998,11.9420003 368.0995,11.9585002 368.022499,11.9255 C367.945499,11.8924998 367.895999,11.7660011 367.873999,11.546 C367.829999,11.2379985 367.560502,10.8750021 367.065499,10.457 C366.570497,10.0389979 365.883004,9.67600154 365.002999,9.368 L365.134999,8.84 C366.037004,9.01600088 366.751997,9.14249962 367.279999,9.2195 C367.808002,9.29650039 368.220498,9.29100044 368.517499,9.203 C368.814501,9.11499956 369.023499,8.95000121 369.144499,8.708 C369.2655,8.46599879 369.380999,8.1250022 369.490999,7.685 C369.535,7.50899912 369.578999,7.18450237 369.622999,6.7115 C369.667,6.23849764 369.743999,5.49600506 369.853999,4.484 L365.035999,4.484 C364.859998,5.65000583 364.651001,6.65649577 364.408999,7.5035 C364.166998,8.35050424 363.837001,9.1039967 363.418999,9.764 C363.000997,10.4240033 362.478502,11.0234973 361.851499,11.5625 C361.224496,12.1015027 360.438004,12.667997 359.491999,13.262 L359.194999,12.8 C359.811002,12.0959965 360.338997,11.4305031 360.778999,10.8035 C361.219002,10.1764969 361.587498,9.53850325 361.884499,8.8895 C362.181501,8.24049676 362.412499,7.55850358 362.577499,6.8435 C362.7425,6.12849643 362.868999,5.34200429 362.956999,4.484 L361.306999,4.484 C360.800997,4.484 360.388501,4.51149973 360.069499,4.5665 C359.750498,4.62150028 359.437001,4.71499934 359.128999,4.847 L357.973999,3.395 C358.480002,3.48300044 358.936497,3.53799989 359.343499,3.56 C359.750501,3.58200011 360.184997,3.593 360.646999,3.593 L369.424999,3.593 L370.612999,2.207 L372.757999,3.923 C373.154001,4.25300165 373.154001,4.49499923 372.757999,4.649 L371.932999,5.045 Z M359.293999,9.401 C359.47,9.55500077 359.546999,9.67599956 359.524999,9.764 C359.502999,9.85200044 359.393,9.96199934 359.194999,10.094 L358.732999,10.325 L358.732999,26.693 C358.732999,27.0670019 358.7055,27.3859987 358.650499,27.65 C358.595499,27.9140013 358.502,28.1669988 358.369999,28.409 C358.237999,28.6510012 358.0565,28.8874988 357.825499,29.1185 C357.594498,29.3495012 357.303001,29.6189985 356.950999,29.927 C356.708998,30.1030009 356.511,30.1635003 356.356999,30.1085 C356.202999,30.0534997 356.104,29.9050012 356.059999,29.663 C355.993999,29.2229978 355.774001,28.8105019 355.399999,28.4255 C355.025997,28.0404981 354.509003,27.749001 353.848999,27.551 L353.914999,26.99 C354.531002,27.0560003 355.014998,27.0944999 355.366999,27.1055 C355.719001,27.1165001 355.982998,27.0890003 356.158999,27.023 C356.335,26.9569997 356.450499,26.8415008 356.505499,26.6765 C356.5605,26.5114992 356.587999,26.2970013 356.587999,26.033 L356.587999,20.72 L348.601999,20.72 C348.535999,21.9520062 348.393,23.0519952 348.172999,24.02 C347.952998,24.9880048 347.645001,25.8789959 347.248999,26.693 C346.852997,27.5070041 346.363502,28.2494966 345.780499,28.9205 C345.197496,29.5915034 344.510003,30.2349969 343.717999,30.851 L343.288999,30.62 C343.927003,29.7179955 344.449497,28.9095036 344.856499,28.1945 C345.263501,27.4794964 345.582498,26.7700035 345.813499,26.066 C346.0445,25.3619965 346.214999,24.6030041 346.324999,23.789 C346.435,22.9749959 346.511999,22.0180055 346.555999,20.918 C346.622,19.3779923 346.665999,17.810508 346.687999,16.2155 C346.709999,14.620492 346.699,12.8550097 346.654999,10.919 C346.280997,11.4250025 345.901501,11.8704981 345.516499,12.2555 C345.131497,12.6405019 344.708002,13.0529978 344.245999,13.493 L343.816999,13.13 C344.543003,12.0959948 345.224996,11.0180056 345.862999,9.896 C346.501003,8.77399439 347.083997,7.65750556 347.611999,6.5465 C348.140002,5.43549445 348.601997,4.35750523 348.997999,3.3125 C349.394001,2.26749478 349.701998,1.31600429 349.921999,0.458 L352.759999,1.547 C353.002001,1.63500044 353.101,1.74499934 353.056999,1.877 C353.012999,2.00900066 352.870001,2.10799967 352.627999,2.174 C352.451998,2.21800022 352.243001,2.36649874 352.000999,2.6195 C351.758998,2.87250127 351.55,3.14199857 351.373999,3.428 C351.241999,3.67000121 351.1045,3.90649885 350.961499,4.1375 C350.818499,4.36850116 350.692,4.60499879 350.581999,4.847 L354.343999,4.847 L355.861999,3.593 L357.676999,5.375 C358.183002,5.8150022 358.128002,6.05699978 357.511999,6.101 C357.247998,6.12300011 357.017,6.16149973 356.818999,6.2165 C356.620998,6.27150028 356.384501,6.4089989 356.109499,6.629 C355.834498,6.8490011 355.493501,7.1789978 355.086499,7.619 C354.679497,8.0590022 354.146003,8.65299626 353.485999,9.401 L356.290999,9.401 L357.544999,7.883 L359.293999,9.401 Z M373.912999,21.974 C374.177001,22.3480019 374.122001,22.535 373.747999,22.535 L367.543999,22.535 L367.543999,23.591 C367.543999,24.9110066 367.549499,26.0384953 367.560499,26.9735 C367.571499,27.9085047 367.598999,28.771996 367.642999,29.564 C367.664999,29.8940017 367.6265,30.1469991 367.527499,30.323 C367.428499,30.4990009 367.104002,30.7079988 366.553999,30.95 C365.871996,31.2580015 365.443,31.3680004 365.266999,31.28 C365.090998,31.1919996 365.035999,30.8070034 365.101999,30.125 C365.123999,29.7729982 365.151499,29.3770022 365.184499,28.937 C365.217499,28.4969978 365.244999,27.974503 365.266999,27.3695 C365.288999,26.764497 365.305499,26.066004 365.316499,25.274 C365.327499,24.481996 365.332999,23.5690052 365.332999,22.535 L362.164999,22.535 C361.636997,22.535 361.213501,22.5624997 360.894499,22.6175 C360.575498,22.6725003 360.262001,22.7659993 359.953999,22.898 L358.798999,21.479 C359.305002,21.5670004 359.761497,21.6219999 360.168499,21.644 C360.575501,21.6660001 361.020997,21.677 361.504999,21.677 L365.332999,21.677 L365.332999,17.189 L362.230999,17.189 C361.966998,17.8270032 361.642501,18.4979965 361.257499,19.202 C360.872497,19.9060035 360.427002,20.6319963 359.920999,21.38 L359.359999,21.182 C359.624001,20.4999966 359.860498,19.8510031 360.069499,19.235 C360.2785,18.6189969 360.454499,17.9975031 360.597499,17.3705 C360.7405,16.7434969 360.861499,16.0890034 360.960499,15.407 C361.0595,14.7249966 361.141999,13.988004 361.207999,13.196 L363.484999,14.021 C363.793001,14.1310006 363.930499,14.2464994 363.897499,14.3675 C363.864499,14.4885006 363.727001,14.6259992 363.484999,14.78 C363.308998,14.8900006 363.144,15.0714987 362.989999,15.3245 C362.835999,15.5775013 362.682,15.8909981 362.527999,16.265 L365.332999,16.265 C365.332999,15.5829966 365.321999,14.8845036 365.299999,14.1695 C365.277999,13.4544964 365.245,12.7890031 365.200999,12.173 L367.939999,13.031 C368.226001,13.1190004 368.368999,13.2069996 368.368999,13.295 C368.368999,13.3830004 368.226001,13.5369989 367.939999,13.757 L367.543999,14.054 L367.543999,16.265 L369.721999,16.265 L371.371999,14.252 L373.285999,16.628 C373.418,16.8700012 373.467499,17.0239997 373.434499,17.09 C373.401499,17.1560003 373.264001,17.189 373.021999,17.189 L367.543999,17.189 L367.543999,21.677 L370.249999,21.677 L371.965999,19.631 L373.912999,21.974 Z M350.053999,5.738 C349.679997,6.37600319 349.339001,6.94799747 349.030999,7.454 C348.722998,7.96000253 348.426001,8.42199791 348.139999,8.84 L349.096999,9.401 L352.363999,9.401 L354.343999,5.738 L350.053999,5.738 Z M356.587999,10.292 L353.485999,10.292 L353.485999,14.45 L356.587999,14.45 L356.587999,10.292 Z M351.406999,10.292 L348.733999,10.292 L348.733999,14.45 L351.406999,14.45 L351.406999,10.292 Z M356.587999,15.374 L353.485999,15.374 L353.485999,19.796 L356.587999,19.796 L356.587999,15.374 Z M351.406999,15.374 L348.700999,15.374 C348.700999,16.2980046 348.695499,17.1449962 348.684499,17.915 C348.673499,18.6850039 348.656999,19.3119976 348.634999,19.796 L351.406999,19.796 L351.406999,15.374 Z M386.208999,9.5 L384.327999,9.5 C383.491995,9.5 382.755002,9.6099989 382.116999,9.83 L381.027999,8.411 C381.820003,8.52100055 382.710994,8.576 383.700999,8.576 L386.505999,8.576 L386.505999,5.903 C386.505999,4.07699087 386.462,2.29500869 386.373999,0.557 L389.640999,1.91 C389.883,2.02000055 390.003999,2.12999945 390.003999,2.24 C390.003999,2.35000055 389.883,2.48199923 389.640999,2.636 L388.683999,3.23 L388.683999,8.576 L390.960999,8.576 L392.577999,6.662 L394.359999,8.807 C394.492,8.96100077 394.557999,9.11499923 394.557999,9.269 C394.557999,9.42300077 394.415001,9.5 394.128999,9.5 L388.683999,9.5 L388.683999,12.866 C391.808015,14.1420064 393.369999,15.5169926 393.369999,16.991 C393.369999,17.4090021 393.249,17.7994982 393.006999,18.1625 C392.764998,18.5255018 392.512001,18.707 392.247999,18.707 C391.983998,18.707 391.8025,18.6410007 391.703499,18.509 C391.604499,18.3769993 391.532999,18.1680014 391.488999,17.882 C391.136997,16.3639924 390.202007,14.9230068 388.683999,13.559 L388.683999,23.261 C388.683999,25.26301 388.694999,26.6709959 388.716999,27.485 L388.782999,29.465 C388.782999,29.861002 388.469502,30.2514981 387.842499,30.6365 C387.215496,31.0215019 386.792,31.214 386.571999,31.214 C386.351998,31.214 386.241999,30.9720024 386.241999,30.488 L386.406999,27.188 C386.473,25.6259922 386.505999,24.1080074 386.505999,22.634 L386.505999,14.615 C385.361993,17.9370166 383.448013,21.0059859 380.763999,23.822 L380.400999,23.558 C382.975012,19.4659795 384.910993,14.7800264 386.208999,9.5 Z M397.527999,12.272 L407.427999,12.272 L409.143999,10.226 L411.090999,12.602 C411.245,12.7560008 411.321999,12.8879995 411.321999,12.998 C411.321999,13.1080006 411.179001,13.163 410.892999,13.163 L405.414999,13.163 L405.414999,23.195 L405.513999,29.333 C405.513999,29.7950023 405.189502,30.1634986 404.540499,30.4385 C403.891496,30.7135014 403.49,30.851 403.335999,30.851 C403.049998,30.851 402.906999,30.5760028 402.906999,30.026 L403.038999,26.858 C403.105,25.4059927 403.137999,23.9320075 403.137999,22.436 L403.137999,13.163 L397.527999,13.163 C397.505999,18.3110257 396.928505,22.1389875 395.795499,24.647 C394.662494,27.1550125 392.490015,29.2449916 389.277999,30.917 L388.947999,30.455 C390.818009,28.9589925 392.198495,27.512507 393.089499,26.1155 C393.980504,24.718493 394.585498,22.9475107 394.904499,20.8025 C395.223501,18.6574893 395.382999,15.2420234 395.382999,10.556 C395.382999,8.20198823 395.317,5.74901276 395.184999,3.197 L398.187999,4.748 C401.686017,3.8679956 404.765986,2.84500583 407.427999,1.679 L409.110999,3.791 C409.287,4.0110011 409.374999,4.18699934 409.374999,4.319 C409.374999,4.45100066 409.188001,4.49500022 408.813999,4.451 C408.439997,4.40699978 408.104501,4.385 407.807499,4.385 C407.510498,4.385 407.230001,4.40699978 406.965999,4.451 L397.626999,5.771 C397.626999,7.70700968 397.594,9.87398801 397.527999,12.272 Z"/>
    <path stroke="#221F20" stroke-width=".5" d="M113.279855,14.9966545 L156.431855,14.9966545"/>
    <path fill="#231F20" stroke="#231F20" stroke-width=".1" d="M15.18,0.689 C16.5660069,0.84300077 17.6109965,1.13449785 18.315,1.5635 C19.0190035,1.99250214 19.371,2.48749719 19.371,3.0485 C19.371,3.6095028 19.2060016,4.09899791 18.876,4.517 C18.5459983,4.93500209 18.1720021,5.144 17.754,5.144 C17.159997,5.144 16.8190004,4.77550368 16.731,4.0385 C16.6429996,3.30149631 16.4725013,2.72950203 16.2195,2.3225 C15.9664987,1.91549796 15.5650027,1.55800154 15.015,1.25 L15.18,0.689 Z M8.085,6.365 L8.085,13.823 C8.085,18.2010219 7.5350055,21.7484864 6.435,24.4655 C5.3349945,27.1825136 3.61901166,29.3769916 1.287,31.049 L0.924,30.686 C2.64000858,28.8599909 3.88849609,26.7260122 4.6695,24.284 C5.4505039,21.8419878 5.841,18.3330229 5.841,13.757 L5.841,6.794 C5.841,5.64999428 5.80800033,4.50600572 5.742,3.362 L8.943,5.474 L26.169,5.474 L28.116,3.164 L30.162,5.606 C30.4040012,5.87000132 30.525,6.06249939 30.525,6.1835 C30.525,6.3045006 30.327002,6.365 29.931,6.365 L8.085,6.365 Z M16.863,13.691 L16.863,10.622 L12.573,10.622 C11.6709955,10.622 10.9450027,10.7319989 10.395,10.952 L9.207,9.566 C10.0430042,9.69800066 10.9449952,9.764 11.913,9.764 L16.863,9.764 C16.863,8.53199384 16.8190004,7.46500451 16.731,6.563 L19.404,7.619 C19.602001,7.70700044 19.701,7.79499956 19.701,7.883 C19.701,7.97100044 19.602001,8.08099934 19.404,8.213 L18.942,8.543 L18.942,9.764 L24.024,9.764 L25.014,8.279 L27.423,9.83 C27.5990009,9.91800044 27.687,10.0114995 27.687,10.1105 C27.687,10.2095005 27.5990009,10.3139994 27.423,10.424 L26.565,11.051 L26.565,13.691 L27.951,13.691 L29.733,11.546 L31.845,14.021 C31.9990008,14.1970009 32.076,14.3344995 32.076,14.4335 C32.076,14.5325005 31.9220015,14.582 31.614,14.582 L26.565,14.582 C26.565,15.6820055 26.5869998,16.528997 26.631,17.123 L26.73,18.674 C26.73,19.0260018 26.427503,19.3834982 25.8225,19.7465 C25.217497,20.1095018 24.816001,20.291 24.618,20.291 C24.419999,20.291 24.321,20.1480014 24.321,19.862 L24.321,18.311 L18.942,18.311 C18.9860002,18.7290021 19.0189999,19.1689977 19.041,19.631 C19.041,20.1590026 18.7330031,20.5439988 18.117,20.786 C17.5009969,21.0280012 17.088501,21.149 16.8795,21.149 C16.670499,21.149 16.566,20.9290022 16.566,20.489 L16.731,18.311 L12.078,18.311 C11.1759955,18.311 10.4390029,18.4209989 9.867,18.641 L8.679,17.255 C9.49300407,17.3650005 10.394995,17.42 11.385,17.42 L16.731,17.42 C16.7970003,16.3639947 16.83,15.4180042 16.83,14.582 L11.616,14.582 C10.7799958,14.582 10.0430032,14.6919989 9.405,14.912 L8.25,13.493 C9.04200396,13.6250007 9.93299505,13.691 10.923,13.691 L16.863,13.691 Z M18.942,10.622 L18.942,13.691 L24.321,13.691 L24.321,10.622 L18.942,10.622 Z M18.942,14.582 L18.942,17.42 L24.321,17.42 L24.321,14.582 L18.942,14.582 Z M24.453,28.706 L12.771,28.706 L12.771,30.092 C12.771,30.4440018 12.6885008,30.6969992 12.5235,30.851 C12.3584992,31.0050008 12.0340024,31.180999 11.55,31.379 C11.0659976,31.577001 10.7305009,31.676 10.5435,31.676 C10.3564991,31.676 10.263,31.571501 10.263,31.3625 C10.263,31.153499 10.2739999,30.9280012 10.296,30.686 C10.4060005,30.0039966 10.461,29.0140065 10.461,27.716 L10.461,24.383 C10.461,23.6349963 10.4280003,22.458008 10.362,20.852 L12.54,22.007 L24.123,22.007 L25.212,20.621 L27.555,22.205 C27.7310009,22.3150005 27.819,22.4194995 27.819,22.5185 C27.819,22.6175005 27.7090011,22.7329993 27.489,22.865 L26.763,23.327 L26.763,26.858 C26.763,27.3420024 26.7959997,27.9579963 26.862,28.706 C26.9280003,29.4540037 26.961,29.8499998 26.961,29.894 C26.961,30.1800014 26.862001,30.3834994 26.664,30.5045 C26.465999,30.6255006 26.163502,30.7574993 25.7565,30.9005 C25.349498,31.0435007 25.0305012,31.115 24.7995,31.115 C24.5684988,31.115 24.453,30.917002 24.453,30.521 L24.453,28.706 Z M12.771,27.815 L24.453,27.815 L24.453,22.898 L12.771,22.898 L12.771,27.815 Z M51.3370002,1.085 C54.3950154,2.66900792 55.9240002,4.16499296 55.9240002,5.573 C55.9240002,6.18900308 55.7315021,6.74449752 55.3465002,7.2395 C54.9614982,7.73450247 54.5050028,7.982 53.9770002,7.982 C53.7349989,7.982 53.5095012,7.83900143 53.3005002,7.553 C53.0914991,7.26699857 52.9595004,6.73900385 52.9045002,5.969 C52.8494999,5.19899615 52.6625017,4.43450379 52.3435002,3.6755 C52.0244986,2.9164962 51.5680031,2.16300374 50.9740002,1.415 L51.3370002,1.085 Z M44.0110002,8.84 L62.5900002,8.84 L64.7350002,6.299 L67.1110002,9.203 C67.2650009,9.35700077 67.3420002,9.48899945 67.3420002,9.599 C67.3420002,9.70900055 67.1770018,9.764 66.8470002,9.764 L44.7370002,9.764 C43.8129955,9.764 43.065003,9.88499879 42.4930002,10.127 L41.2720002,8.675 C42.1080043,8.78500055 43.0209952,8.84 44.0110002,8.84 Z M55.2640002,28.475 C56.0560041,26.0549879 56.8919958,23.0355181 57.7720002,19.4165 C58.6520046,15.7974819 59.2019991,13.0640092 59.4220002,11.216 L62.6230002,12.866 C62.997002,13.064001 63.1840002,13.2509991 63.1840002,13.427 C63.1840002,13.6030009 63.0190018,13.7569993 62.6890002,13.889 C62.1829976,14.1530013 61.5835036,15.0989919 60.8905002,16.727 C60.1974967,18.3550081 58.7290114,22.270969 56.4850002,28.475 L64.5040002,28.475 L66.8140002,25.736 L69.4210002,28.838 C69.5750009,28.9920008 69.6520002,29.1239994 69.6520002,29.234 C69.6520002,29.3440005 69.4980017,29.399 69.1900002,29.399 L42.4600002,29.399 C41.5579956,29.399 40.8100031,29.5199988 40.2160002,29.762 L38.9950002,28.31 C39.8310043,28.4200005 40.7439952,28.475 41.7340002,28.475 L55.2640002,28.475 Z M46.4860002,12.503 C48.2240088,14.7470112 49.5439956,16.8314904 50.4460002,18.7565 C51.3480047,20.6815096 51.7990002,22.2159943 51.7990002,23.36 C51.7990002,24.0640035 51.6230019,24.7459967 51.2710002,25.406 C50.9189984,26.0660033 50.457003,26.396 49.8850002,26.396 C49.5769986,26.396 49.3515009,26.3080009 49.2085002,26.132 C49.0654994,25.9559991 48.9940002,25.7140015 48.9940002,25.406 L48.9940002,24.482 C48.9940002,23.2059936 48.6805033,21.3030126 48.0535002,18.773 C47.426497,16.2429873 46.7500038,14.2410074 46.0240002,12.767 L46.4860002,12.503 Z M89.8370003,7.685 C88.4949936,7.685 87.5490031,7.80599879 86.9990003,8.048 L85.7450003,6.53 C86.4710039,6.64000055 87.8349903,6.695 89.8370003,6.695 C89.8370003,4.36298834 89.7930007,2.47100726 89.7050003,1.019 L92.7740003,2.306 C93.0820018,2.41600055 93.2360003,2.52599945 93.2360003,2.636 C93.2360003,2.74600055 93.1150015,2.88899912 92.8730003,3.065 L92.0150003,3.626 L92.0150003,6.695 L99.1100003,6.695 C99.1100003,4.64898977 99.0660007,2.80100825 98.9780003,1.151 L102.146,2.438 C102.454002,2.52600044 102.608,2.63049939 102.608,2.7515 C102.608,2.8725006 102.487002,3.00999923 102.245,3.164 L101.387,3.758 L101.387,6.695 L103.004,6.695 L104.753,4.781 L106.799,7.058 C106.975001,7.25600099 107.063,7.40999945 107.063,7.52 C107.063,7.63000055 106.920002,7.685 106.634,7.685 L101.387,7.685 L101.387,21.314 L103.169,21.314 L105.116,19.235 L107.327,21.71 C107.503001,21.8640008 107.591,22.0124993 107.591,22.1555 C107.591,22.2985007 107.426002,22.37 107.096,22.37 L87.3950003,22.37 C86.5149959,22.37 85.7670034,22.4909988 85.1510003,22.733 L83.8970003,21.149 C84.7330045,21.2590005 85.6459954,21.314 86.6360003,21.314 L89.8370003,21.314 L89.8370003,7.685 Z M99.1100003,7.685 L92.0150003,7.685 L92.0150003,11.645 L99.1100003,11.645 L99.1100003,7.685 Z M92.0150003,16.496 L99.1100003,16.496 L99.1100003,12.536 L92.0150003,12.536 L92.0150003,16.496 Z M99.1100003,17.42 L92.0150003,17.42 L92.0150003,21.314 L99.1100003,21.314 L99.1100003,17.42 Z M80.0030003,2.438 C81.5210079,3.07600319 82.6814963,3.71399681 83.4845003,4.352 C84.2875043,4.99000319 84.6890003,5.61699692 84.6890003,6.233 C84.6890003,6.84900308 84.5515017,7.38249774 84.2765003,7.8335 C84.0014989,8.28450225 83.7155018,8.51 83.4185003,8.51 C83.1214988,8.51 82.901501,8.46050049 82.7585003,8.3615 C82.6154996,8.2624995 82.4890009,8.05900154 82.3790003,7.751 C81.7629972,5.59498922 80.9160057,3.93400583 79.8380003,2.768 L80.0030003,2.438 Z M86.6360003,9.104 L83.2370003,17.75 C82.7969981,18.8940057 82.4890012,19.8949957 82.3130003,20.753 C82.1369994,21.6110043 82.0490003,22.5459949 82.0490003,23.558 C82.0490003,24.5700051 82.1039998,25.6809939 82.2140003,26.891 C82.3240009,28.101006 82.3790003,28.8819982 82.3790003,29.234 C82.3790003,29.5860018 82.3240009,29.8554991 82.2140003,30.0425 C82.1039998,30.2295009 81.8290025,30.323 81.3890003,30.323 C80.0469936,30.323 79.3760003,29.6080071 79.3760003,28.178 C79.3760003,27.9579989 79.4529995,27.3420051 79.6070003,26.33 C79.7610011,25.3179949 79.8380003,24.4600035 79.8380003,23.756 C79.8380003,23.0519965 79.6785019,22.5350016 79.3595003,22.205 C79.0404987,21.8749983 78.3970051,21.5670014 77.4290003,21.281 L77.5610003,20.753 C77.9790024,20.7750001 78.4299979,20.786 78.9140003,20.786 C79.3980027,20.786 79.7994987,20.6705012 80.1185003,20.4395 C80.4375019,20.2084988 80.7509988,19.7850031 81.0590003,19.169 L86.1080003,8.807 L86.6360003,9.104 Z M77.4290003,8.972 C78.9030077,9.4120022 80.0414963,9.92899703 80.8445003,10.523 C81.6475043,11.117003 82.0490003,11.7219969 82.0490003,12.338 C82.0490003,12.9540031 81.9390014,13.459998 81.7190003,13.856 C81.4989992,14.252002 81.1745025,14.45 80.7455003,14.45 C80.3164982,14.45 80.0030013,14.1200033 79.8050003,13.46 C79.1889972,11.7879916 78.3640055,10.4240053 77.3300003,9.368 L77.4290003,8.972 Z M93.7970003,24.713 C94.0610016,24.911001 94.1930003,25.114499 94.1930003,25.3235 C94.1930003,25.532501 93.9620026,25.637 93.5000003,25.637 C93.2139989,25.637 92.7520035,25.8789976 92.1140003,26.363 C89.9579895,27.9910081 88.308006,29.1184969 87.1640003,29.7455 C86.0199946,30.3725031 84.7550072,30.9719971 83.3690003,31.544 L83.0390003,31.082 C86.6690185,28.8159887 89.5399897,26.1540153 91.6520003,23.096 L93.7970003,24.713 Z M97.4930003,23.591 C99.7590116,24.4270042 101.568494,25.2849956 102.9215,26.165 C104.274507,27.0450044 105.060999,27.6444984 105.281,27.9635 C105.501001,28.2825016 105.611,28.6509979 105.611,29.069 C105.611,29.4870021 105.473502,29.899498 105.1985,30.3065 C104.923499,30.713502 104.599002,30.917 104.225,30.917 C103.850998,30.917 103.455002,30.5870033 103.037,29.927 C101.936995,28.3429921 100.969004,27.1660038 100.133,26.396 C99.2969961,25.6259961 98.3290058,24.9110033 97.2290003,24.251 L97.4930003,23.591 Z"/>
  </g>
</svg>
