<svg xmlns="http://www.w3.org/2000/svg" width="100" height="39" viewBox="0 0 100 39">
  <g fill="#221F20" fill-rule="evenodd">
    <path d="M.971351351 38.9030571L.971351351 36.5045571 15.7564865 16.5226286C17.2051351 14.6046643 17.8254054 12.7925571 17.8254054 10.6071643 17.8254054 6.07898571 15.1889189 3.04116429 10.7416216 3.04116429 6.91594595 3.04116429 3.65918919 5.27809286 3.65918919 10.6071643L1.0227027 10.6071643C1.0227027 4.95912857 4.64297297.642664286 10.7416216.642664286 16.6362162.642664286 20.4618919 4.58584286 20.4618919 10.6071643 20.4618919 13.4318786 19.7902703 15.4027714 17.9281081 17.9085214L4.12540541 36.5045571 20.4618919 36.5045571 20.4618919 38.9030571.971351351 38.9030571zM43.4887838 5.54510357C42.1428378 4.16060357 40.3347297 3.36110357 38.3171622 3.36110357 36.3022973 3.36110357 34.4928378 4.16060357 33.1482432 5.54510357 31.0793243 7.676175 30.9252703 11.1402107 30.9252703 14.1237107 30.9252703 17.1086036 31.0793243 20.5712464 33.1482432 22.7023179 34.4928378 24.0882107 36.3022973 24.8891036 38.3171622 24.8891036 40.3347297 24.8891036 42.1428378 24.0882107 43.4887838 22.7023179 45.555 20.5712464 45.7117568 17.1086036 45.7117568 14.1237107 45.7117568 11.1402107 45.555 7.676175 43.4887838 5.54510357M45.2455405 24.4614964C43.4887838 26.2736036 41.1090541 27.2862107 38.3171622 27.2862107 35.5252703 27.2862107 33.1482432 26.2736036 31.3901351 24.4614964 28.7536486 21.7440321 28.2887838 17.8022464 28.2887838 14.1237107 28.2887838 10.4479607 28.7536486 6.50338929 31.3901351 3.785925 33.1482432 1.97521071 35.5252703.962603571 38.3171622.962603571 41.1090541.962603571 43.4887838 1.97521071 45.2455405 3.785925 47.882027 6.50338929 48.3482432 10.4479607 48.3482432 14.1237107 48.3482432 17.8022464 47.882027 21.7440321 45.2455405 24.4614964"/>
    <polygon points="63.528 38.903 63.528 4.052 56.859 10.128 56.859 6.877 63.528 .963 66.165 .963 66.165 38.903"/>
    <polygon points="86.741 38.903 84.053 38.903 97.08 3.36 83.122 3.36 83.122 9.329 80.486 9.329 80.486 .963 99.771 .963 99.771 3.36"/>
  </g>
</svg>
