<svg xmlns="http://www.w3.org/2000/svg" width="115" height="33" viewBox="0 0 115 33">
  <g fill="#221F20" fill-rule="evenodd" transform="translate(0 -.497)">
    <path d="M5.01705769 3.08203687L4.9855814 3.08203687C4.51200645 4.35917148 4.05560038 5.65207319 3.60062505 6.89767362L6.32332334 6.89767362 5.01705769 3.08203687zM6.43349032 10.9971181L6.43349032 10.5398723C7.40925503 10.4295027 7.51942201 10.3205664 7.34630247 9.76728473L6.54222657 7.55989157 3.34738406 7.55989157C3.12848083 8.15904114 2.93962315 8.75819071 2.73359658 9.35734029 2.40452638 10.3205664 2.5447389 10.4467031 3.64640873 10.5398723L3.64640873 10.9971181.435828083 10.9971181.435828083 10.5398723C1.38011651 10.4137356 1.56897419 10.3349001 2.08833283 9.02623131L5.04853397 1.47379328 5.53498558 1.34622315C6.41775218 3.76002191 7.42499317 6.62963302 8.33780531 9.10506678 8.7627351 10.3205664 8.96733093 10.4610369 9.9273575 10.5398723L9.9273575 10.9971181 6.43349032 10.9971181zM14.568392 6.346112C14.3008436 5.46315474 13.8129613 4.89410598 13.104745 4.89410598 12.521003 4.89410598 12.1447184 5.33701799 12.1447184 5.93616756 12.1447184 6.6141526 12.7570751 6.94526158 13.3880315 7.2118688 14.4739632 7.63758034 15.2451321 8.17366154 15.2451321 9.16842183 15.2451321 10.4928577 14.001819 11.1708428 12.8371966 11.1708428 12.0960732 11.1708428 11.4050258 10.8870351 11.1689537 10.6662958 11.0587867 10.4613235 10.9157127 9.46799662 10.9157127 8.96344961L11.3735495 8.88461414C11.6096216 9.86217397 12.2219784 10.6662958 13.104745 10.6662958 13.6555799 10.6662958 14.1906767 10.2405842 14.1906767 9.59413337 14.1906767 8.94768252 13.7185324 8.60080645 13.0417924 8.28546457 12.0817658 7.84398594 11.1689537 7.40107393 11.1689537 6.28304363 11.1689537 5.27394961 12.0488588 4.42109316 13.3722934 4.42109316 13.9703427 4.42109316 14.3637962 4.54722991 14.6628209 4.67336667 14.788726 5.00590901 14.9461074 5.841565 14.9933218 6.23574235L14.568392 6.346112zM19.3537882 10.9655839C19.0719324 11.1089211 18.8358603 11.1705561 18.6770482 11.1705561 17.7957123 11.1705561 17.30783 10.5871736 17.30783 9.45194285L17.30783 5.19482747 16.2691127 5.19482747 16.2061602 5.01995606 16.6153518 4.59567789 17.30783 4.59567789 17.30783 3.57081678 18.1104751 2.60902405 18.3308091 2.62479114 18.3308091 4.59567789 20.031959 4.59567789C20.1578641 4.73758174 20.1249571 5.06869071 19.9360994 5.19482747L18.3308091 5.19482747 18.3308091 8.93162875C18.3308091 10.1141608 18.8029533 10.3349001 19.1806687 10.3349001 19.5583841 10.3349001 19.9360994 10.1772292 20.1249571 10.08406L20.2680311 10.476804 19.3537882 10.9655839zM23.3986334 5.96684172C23.8393013 5.2415554 24.4530888 4.42166651 25.1927814 4.42166651 25.71214 4.42166651 26.042641 4.80151014 26.042641 5.13118574 26.042641 5.39922634 25.8852596 5.66726694 25.6019731 5.81060416 25.4445917 5.87367253 25.3186865 5.85647207 25.2242577 5.7776366 25.0196619 5.55689728 24.8622805 5.47806181 24.6262083 5.47806181 24.2170167 5.47806181 23.6819199 5.98404219 23.3671571 6.84979899L23.3671571 9.43703578C23.3671571 10.4131622 23.4286789 10.5091982 24.5789939 10.5880336L24.5789939 10.9979781 21.2882918 10.9979781 21.2882918 10.5880336C22.2483184 10.5091982 22.344178 10.4131622 22.344178 9.45280287L22.344178 6.48715583C22.344178 5.4938289 22.2812254 5.44796099 21.414197 5.35192506L21.414197 4.97494817C22.0923677 4.86314514 22.7061552 4.67394002 23.3671571 4.37436523L23.3671571 5.96684172 23.3986334 5.96684172zM28.1491195 7.48134277C28.1491195 9.31032568 28.983241 10.6505287 30.2422922 10.6505287 31.2023188 10.6505287 31.9734877 9.92524235 31.9734877 7.98588978 31.9734877 6.346112 31.2495332 4.92707354 29.913222 4.92707354 28.9989791 4.92707354 28.1491195 5.8257979 28.1491195 7.48134277M33.2168008 7.686315C33.2168008 10.0829133 31.4698672 11.1708428 30.0849108 11.1708428 28.1176433 11.1708428 26.9058065 9.56259918 26.9058065 7.93715513 26.9058065 5.49325556 28.7786452 4.42109316 30.0691727 4.42109316 31.8318444 4.42109316 33.2168008 5.85589872 33.2168008 7.686315M34.2382061 10.9976914L34.2382061 10.587747C35.1824945 10.5089115 35.3255685 10.4143089 35.3255685 9.4525162L35.3255685 2.63969821C35.3255685 1.6306042 35.2297089 1.59907001 34.2711131 1.53600163L34.2711131 1.14182428C35.042282 1.04722172 35.8907108.794948213 36.3485476.621510179L36.3485476 9.4525162C36.3485476 10.4143089 36.473022 10.5089115 37.4330486 10.587747L37.4330486 10.9976914 34.2382061 10.9976914zM39.8271059 7.48134277C39.8271059 9.31032568 40.6612273 10.6505287 41.9202786 10.6505287 42.8803051 10.6505287 43.651474 9.92524235 43.651474 7.98588978 43.651474 6.346112 42.9275195 4.92707354 41.5897776 4.92707354 40.6769655 4.92707354 39.8271059 5.8257979 39.8271059 7.48134277M44.8947871 7.686315C44.8947871 10.0829133 43.1478535 11.1708428 41.7614664 11.1708428 39.7941989 11.1708428 38.5837928 9.56259918 38.5837928 7.93715513 38.5837928 5.49325556 40.4552008 4.42109316 41.747159 4.42109316 43.5098307 4.42109316 44.8947871 5.85589872 44.8947871 7.686315M47.7267939 6.62905967C47.7267939 7.76572382 48.3563195 8.55407852 49.1747028 8.55407852 49.8514429 8.53831142 50.4652304 7.93772848 50.4652304 6.81969817 50.4652304 5.65149984 49.8514429 4.87891224 49.0158907 4.87891224 48.3405814 4.87891224 47.7267939 5.52536309 47.7267939 6.62905967L47.7267939 6.62905967zM48.073033 11.4236896C47.6466725 11.7547986 47.3648167 12.1805101 47.3648167 12.6062217 47.3648167 13.4103435 48.2146763 13.8833563 49.2848698 13.8833563 50.7170406 13.8833563 51.4581639 13.2053713 51.4581639 12.2908798 51.4581639 11.817867 51.2206611 11.4709909 50.8272076 11.2975529 50.4652304 11.1241148 50.0245624 11.0925807 49.3950368 11.0925807 48.6868205 11.0925807 48.3563195 11.1871832 48.073033 11.4236896L48.073033 11.4236896zM52.6213556 4.68970711C52.4797123 4.92764689 52.1806877 5.32039087 51.9603537 5.43076053L51.1419704 5.38345925C51.4095188 5.7002345 51.5669002 6.18758104 51.5669002 6.69212805 51.5669002 8.26883745 50.2763727 9.04285843 49.0158907 9.04285843 48.7969875 9.04285843 48.5294391 9.01132424 48.2776288 8.96402296 48.0572949 9.12026053 47.8054846 9.40406822 47.8054846 9.61047382 47.8054846 9.89284814 48.0415567 10.1623221 48.6868205 10.1623221 49.2691317 10.1623221 49.8042285 10.146555 50.2921108 10.146555 51.2206611 10.146555 52.3852835 10.4289293 52.3852835 11.8494012 52.3852835 13.3157409 50.7013025 14.6573773 48.7798186 14.6573773 47.1916972 14.6573773 46.2774543 13.7887537 46.2631469 12.9215636 46.2631469 12.6219888 46.3733139 12.3066469 46.609386 12.0859076 46.8755036 11.8020999 47.4592455 11.31332 47.7897465 11.0610465 47.2846953 10.9019422 46.9084106 10.5722666 46.7195529 10.2726918 46.609386 10.0662862 46.5621715 9.81544604 46.5764789 9.68930929 47.1115757 9.48433706 47.5837199 9.09015971 47.8054846 8.79058493 47.2231734 8.52111096 46.5764789 7.8746601 46.5764789 6.84979899 46.5764789 5.19425412 48.073033 4.42166651 49.190441 4.42166651 49.6468471 4.42166651 50.1504676 4.54780326 50.5596592 4.78430967 51.2521374 4.73844176 51.9446156 4.65817292 52.5283575 4.56500373L52.6213556 4.68970711zM60.3492118 5.00533566C59.5623047 5.11570532 59.4206615 5.24184207 59.027208 6.06173096 58.6652307 6.81998485 58.2245628 8.01828399 57.2015837 10.4621836 56.2243882 12.8114806 55.9110562 13.5367669 55.7221985 14.3093545 55.6435078 14.5773951 55.4532194 14.6562306 55.2500543 14.6562306 54.8093863 14.6562306 54.4145021 14.2935874 54.4145021 13.9624784 54.4145021 13.7417391 54.5404072 13.5998353 54.7779101 13.4263972 55.2171472 13.1569233 55.5004338 12.8114806 55.8323655 12.1807968 56.115652 11.6447156 56.2243882 11.3752416 56.3045097 11.1860365 56.3674622 10.9652972 56.3674622 10.7617584 56.2873408 10.5094848 55.7221985 8.96430963 55.1241491 7.22992929 54.6520049 6.11046562 54.3372421 5.32067754 54.1798607 5.09993823 53.3757848 5.00533566L53.3757848 4.59539122 56.2243882 4.59539122 56.2243882 5.00533566C55.5490789 5.09993823 55.4861264 5.27337626 55.6735533 5.81089083L57.0442023 9.54769211C57.4677013 8.47409635 58.0829195 6.81998485 58.4291586 5.82522455 58.6022782 5.25760917 58.5078493 5.09993823 57.6579898 5.00533566L57.6579898 4.59539122 60.3492118 4.59539122 60.3492118 5.00533566zM70.6103362 3.74411148C70.4844311 3.12776144 70.4214786 2.87548794 70.2326209 2.56157943 70.0122869 2.16596871 69.7132622 2.05559905 68.6430687 2.05559905L67.3997556 2.05559905C66.9748258 2.05559905 66.9276114 2.10290033 66.9276114 2.51427815L66.9276114 5.95150464 68.4856873 5.95150464C69.7919529 5.95150464 69.8391674 5.84113498 70.028025 4.89510934L70.5001693 4.89510934 70.5001693 7.71741917 70.028025 7.71741917C69.8391674 6.67679097 69.7919529 6.53488712 68.4856873 6.53488712L66.9276114 6.53488712 66.9276114 9.15222473C66.9276114 10.3834914 67.0678239 10.4608935 68.4370421 10.539729L68.4370421 10.9969747 64.5182452 10.9969747 64.5182452 10.539729C65.7143438 10.4766606 65.8245108 10.3834914 65.8245108 9.15222473L65.8245108 3.36426785C65.8245108 2.13586789 65.7143438 2.07279951 64.5654596 1.97819695L64.5654596 1.53671832 70.9408372 1.53671832C70.9565753 2.11866742 71.0195279 3.00162469 71.0824805 3.71114392L70.6103362 3.74411148zM73.5207476 7.48134277C73.5207476 9.31032568 74.3548691 10.6505287 75.6139203 10.6505287 76.5739469 10.6505287 77.3451157 9.92524235 77.3451157 7.98588978 77.3451157 6.346112 76.6211613 4.92707354 75.2834194 4.92707354 74.3706072 4.92707354 73.5207476 5.8257979 73.5207476 7.48134277M78.5884288 7.686315C78.5884288 10.0829133 76.8414953 11.1708428 75.4551082 11.1708428 73.4878406 11.1708428 72.2774345 9.56259918 72.2774345 7.93715513 72.2774345 5.49325556 74.1488425 4.42109316 75.4408008 4.42109316 77.2034725 4.42109316 78.5884288 5.85589872 78.5884288 7.686315M81.892723 5.96684172C82.3333909 5.2415554 82.9471784 4.42166651 83.686871 4.42166651 84.2062296 4.42166651 84.5367306 4.80151014 84.5367306 5.13118574 84.5367306 5.39922634 84.3793491 5.66726694 84.0960626 5.81060416 83.9386812 5.87367253 83.8127761 5.85647207 83.7183472 5.7776366 83.5137514 5.55689728 83.35637 5.47806181 83.1202979 5.47806181 82.7111063 5.47806181 82.1760095 5.98404219 81.8612467 6.84979899L81.8612467 9.43703578C81.8612467 10.4131622 81.9227685 10.5091982 83.0730835 10.5880336L83.0730835 10.9979781 79.7823814 10.9979781 79.7823814 10.5880336C80.742408 10.5091982 80.8382676 10.4131622 80.8382676 9.45280287L80.8382676 6.48715583C80.8382676 5.4938289 80.775315 5.44796099 79.9082865 5.35192506L79.9082865 4.97494817C80.5864573 4.86314514 81.2002448 4.67394002 81.8612467 4.37436523L81.8612467 5.96684172 81.892723 5.96684172zM86.5203085 6.77182354C87.3701681 6.78759064 88.218597 6.77182354 89.1171017 6.73885598 89.4003882 6.72452226 89.4948171 6.62848632 89.4948171 6.42494747 89.4948171 5.65235987 88.9597203 4.99014192 88.141337 4.99014192 87.4331207 4.99014192 86.7878569 5.60362521 86.5203085 6.77182354L86.5203085 6.77182354zM90.5807488 9.83063978C89.6364603 10.9185693 88.6764338 11.1708428 88.218597 11.1708428 86.4730941 11.1708428 85.417208 9.70450303 85.417208 8.04895816 85.417208 7.05563124 85.7648778 6.14113978 86.3629271 5.47892183 86.9452383 4.81670389 87.7321454 4.42109316 88.471838 4.42109316 89.6836748 4.42109316 90.6608702 5.49325556 90.6608702 6.66145389 90.6608702 6.99256286 90.5964869 7.10149915 90.3446767 7.16456752 90.1086046 7.21330218 88.251504 7.35520602 86.457356 7.40107393 86.4730941 9.38916115 87.6377165 10.20905 88.6449575 10.20905 89.258745 10.20905 89.7938417 9.95677653 90.3289385 9.46799662L90.5807488 9.83063978zM97.3793393 9.71969678C96.7340755 10.5252519 95.7583108 11.1717028 94.8927131 11.1717028 93.0656581 11.1717028 91.9954645 9.68959596 91.9954645 8.11145319 91.9954645 6.96045532 92.4833469 5.99866259 93.4605423 5.24184207 94.1844968 4.67279332 95.0500945 4.42195319 95.6166676 4.42195319 96.2461932 4.42195319 96.7340755 4.62692541 96.9544095 4.81613054 97.1432672 4.97523485 97.1904816 5.08417113 97.1904816 5.24184207 97.1904816 5.54141686 96.8599806 5.85675874 96.7183374 5.85675874 96.6396467 5.85675874 96.560956 5.84099165 96.450789 5.7148549 96.0258592 5.30491045 95.4907624 5.13147242 94.9871419 5.13147242 93.9484247 5.13147242 93.0813962 6.04596387 93.0813962 7.52950408 93.0656581 9.54769211 94.4205689 10.2099101 95.3019047 10.2099101 95.9156922 10.2099101 96.4021438 10.0207049 97.1117909 9.35705361L97.3793393 9.71969678zM102.083756 7.48134277L100.651585 8.12779363C100.053535 8.38006713 99.7230345 8.66387483 99.7230345 9.19995602 99.7230345 9.94100944 100.322515 10.3036526 100.794659 10.3036526 101.20242 10.3036526 101.8019 9.98831072 102.083756 9.72027012L102.083756 7.48134277zM103.090997 11.1708428C102.917877 11.1708428 102.603114 11.044706 102.462902 10.9028022 102.256875 10.69783 102.163877 10.4928577 102.115232 10.2405842 101.501444 10.6347616 100.824704 11.1708428 100.322515 11.1708428 99.329581 11.1708428 98.6056266 10.3208531 98.6056266 9.37339406 98.6056266 8.67964192 98.9833419 8.17366154 99.8174634 7.90705431 100.698799 7.60747953 101.768993 7.19753508 102.083756 6.96102867L102.083756 6.75605645C102.083756 5.68246068 101.548659 5.08331111 100.794659 5.08331111 100.478465 5.08331111 100.242393 5.21088124 100.10075 5.3828859 99.9118922 5.58929149 99.8017252 5.88886628 99.660082 6.31457782 99.6128676 6.53531713 99.4554861 6.62848632 99.2523211 6.62848632 99.0148182 6.62848632 98.652841 6.3618791 98.652841 6.01500303 98.652841 5.81003081 98.8416987 5.63659277 99.1249852 5.43018718 99.4869624 5.16357995 100.415513 4.5945312 101.266803 4.42109316 101.691733 4.42109316 102.146708 4.54722991 102.445733 4.81670389 102.917877 5.24241542 103.075258 5.8257979 103.075258 6.56541795L103.075258 9.32609277C103.075258 9.98831072 103.327069 10.20905 103.596048 10.20905 103.769167 10.20905 103.988071 10.1302146 104.131145 10.035612L104.288526 10.4613235 103.090997 11.1708428zM108.992942 6.346112C108.725394 5.46315474 108.237512 4.89410598 107.529295 4.89410598 106.945553 4.89410598 106.569269 5.33701799 106.569269 5.93616756 106.569269 6.6141526 107.181625 6.94526158 107.812582 7.2118688 108.898513 7.63758034 109.669682 8.17366154 109.669682 9.16842183 109.669682 10.4928577 108.424939 11.1708428 107.261747 11.1708428 106.520624 11.1708428 105.829576 10.8870351 105.593504 10.6662958 105.483337 10.4613235 105.340263 9.46799662 105.340263 8.96344961L105.7981 8.88461414C106.034172 9.86217397 106.646529 10.6662958 107.529295 10.6662958 108.08013 10.6662958 108.615227 10.2405842 108.615227 9.59413337 108.615227 8.94768252 108.143083 8.60080645 107.466343 8.28546457 106.506316 7.84398594 105.593504 7.40107393 105.593504 6.28304363 105.593504 5.27394961 106.473409 4.42109316 107.796844 4.42109316 108.394893 4.42109316 108.788346 4.54722991 109.087371 4.67336667 109.213276 5.00590901 109.370658 5.841565 109.417872 6.23574235L108.992942 6.346112zM113.778482 10.9655839C113.496626 11.1089211 113.260554 11.1705561 113.101742 11.1705561 112.220406 11.1705561 111.732523 10.5871736 111.732523 9.45194285L111.732523 5.19482747 110.693806 5.19482747 110.630854 5.01995606 111.040045 4.59567789 111.732523 4.59567789 111.732523 3.57081678 112.535169 2.60902405 112.755502 2.62479114 112.755502 4.59567789 114.456652 4.59567789C114.581127 4.73758174 114.54965 5.06869071 114.360793 5.19482747L112.755502 5.19482747 112.755502 8.93162875C112.755502 10.1141608 113.227647 10.3349001 113.605362 10.3349001 113.983077 10.3349001 114.360793 10.1772292 114.54965 10.08406L114.692724 10.476804 113.778482 10.9655839zM4.49726983 20.6113186C3.34695484 20.7059212 3.22104972 20.8005238 3.22104972 21.9988229L3.22104972 27.4714379C3.22104972 29.4580918 2.87481063 30.4198845 2.01064364 31.2397734 1.53849943 31.6826854 1.09640076 31.9191918.734423529 32.0596623L.515520304 31.6024166C1.34964175 31.1924721 1.78887894 30.49872 1.96342922 29.663064 2.08790361 28.9693118 2.10364175 28.1651901 2.10364175 26.9353567L2.10364175 21.9988229C2.10364175 20.8005238 1.9949055 20.7059212.781637951 20.6113186L.781637951 20.16984 4.49726983 20.16984 4.49726983 20.6113186zM6.65310892 25.4056619C7.5029685 25.421429 8.35139734 25.4056619 9.24990209 25.3726944 9.53318861 25.3583606 9.62761746 25.2623247 9.62761746 25.0587859 9.62761746 24.2861983 9.09252068 23.6239803 8.27413738 23.6239803 7.56592106 23.6239803 6.92065731 24.2374636 6.65310892 25.4056619L6.65310892 25.4056619zM10.7135491 28.4644782C9.76926072 29.5524077 8.80923416 29.8046812 8.35139734 29.8046812 6.6058945 29.8046812 5.55000835 28.3383414 5.55000835 26.6827965 5.55000835 25.6894696 5.89767818 24.7749782 6.49572751 24.1127602 7.07803871 23.4505423 7.86494573 23.0549315 8.60463833 23.0549315 9.81647514 23.0549315 10.7936706 24.1270939 10.7936706 25.2952923 10.7936706 25.6264012 10.7292873 25.7353375 10.477477 25.7984059 10.2414049 25.8471406 8.38430436 25.9890444 6.59015636 26.0349123 6.6058945 28.0229995 7.77051689 28.8428884 8.77775787 28.8428884 9.39154535 28.8428884 9.92664213 28.5906149 10.4617389 28.101835L10.7135491 28.4644782zM15.7978269 24.9799504C15.5302786 24.0969931 15.0423962 23.5279444 14.3341799 23.5279444 13.750438 23.5279444 13.3741533 23.9708564 13.3741533 24.5700059 13.3741533 25.247991 13.9865101 25.5791 14.6174664 25.8457072 15.7033981 26.2714187 16.474567 26.8074999 16.474567 27.8022602 16.474567 29.1266961 15.2312539 29.8046812 14.0666315 29.8046812 13.3255082 29.8046812 12.6344607 29.5208735 12.3983886 29.3001341 12.2882216 29.0951619 12.1451476 28.101835 12.1451476 27.597288L12.6029844 27.5184525C12.8390565 28.4960124 13.4514133 29.3001341 14.3341799 29.3001341 14.8850148 29.3001341 15.4201116 28.8744226 15.4201116 28.2279718 15.4201116 27.5815209 14.9479674 27.2346448 14.2712273 26.919303 13.3112008 26.4778243 12.3983886 26.0349123 12.3983886 24.916882 12.3983886 23.907788 13.2782937 23.0549315 14.6017283 23.0549315 15.1997776 23.0549315 15.5932311 23.1810683 15.8922558 23.3072051 16.0181609 23.6397474 16.1755423 24.4754034 16.2227567 24.8695807L15.7978269 24.9799504zM21.4482486 24.9799504C21.1807002 24.0969931 20.6928178 23.5279444 19.9846015 23.5279444 19.4008596 23.5279444 19.024575 23.9708564 19.024575 24.5700059 19.024575 25.247991 19.6369317 25.5791 20.267888 25.8457072 21.352389 26.2714187 22.1249886 26.8074999 22.1249886 27.8022602 22.1249886 29.1266961 20.8816755 29.8046812 19.7170531 29.8046812 18.9759298 29.8046812 18.2848824 29.5208735 18.0488102 29.3001341 17.9386433 29.0951619 17.7955693 28.101835 17.7955693 27.597288L18.2534061 27.5184525C18.4894782 28.4960124 19.1018349 29.3001341 19.9846015 29.3001341 20.5354364 29.3001341 21.0705332 28.8744226 21.0705332 28.2279718 21.0705332 27.5815209 20.598389 27.2346448 19.921649 26.919303 18.9616224 26.4778243 18.0488102 26.0349123 18.0488102 24.916882 18.0488102 23.907788 18.9287154 23.0549315 20.2521499 23.0549315 20.8501992 23.0549315 21.2436528 23.1810683 21.5426774 23.3072051 21.6685825 23.6397474 21.8259639 24.4754034 21.8731784 24.8695807L21.4482486 24.9799504zM24.7204941 25.4056619C25.5703537 25.421429 26.4187825 25.4056619 27.3172873 25.3726944 27.6005738 25.3583606 27.6950027 25.2623247 27.6950027 25.0587859 27.6950027 24.2861983 27.1599059 23.6239803 26.3415226 23.6239803 25.6333063 23.6239803 24.9866118 24.2374636 24.7204941 25.4056619L24.7204941 25.4056619zM28.7809343 28.4644782C27.8366459 29.5524077 26.8766194 29.8046812 26.4187825 29.8046812 24.6732797 29.8046812 23.6173935 28.3383414 23.6173935 26.6827965 23.6173935 25.6894696 23.9650634 24.7749782 24.5631127 24.1127602 25.1454239 23.4505423 25.9323309 23.0549315 26.6720235 23.0549315 27.8838603 23.0549315 28.859625 24.1270939 28.859625 25.2952923 28.859625 25.6264012 28.7966725 25.7353375 28.5448622 25.7984059 28.3087901 25.8471406 26.4516896 25.9890444 24.6575416 26.0349123 24.6732797 28.0229995 25.8379021 28.8428884 26.8451431 28.8428884 27.4589306 28.8428884 27.9940273 28.5906149 28.5291241 28.101835L28.7809343 28.4644782zM41.2298034 22.4087674C41.0881602 21.7164486 40.962255 21.3681392 40.8048736 21.1473998 40.5688015 20.8005238 40.3799438 20.6901541 39.278274 20.6901541L38.1766042 20.6901541 38.1766042 27.8168806C38.1766042 28.9535448 38.2853404 29.1112157 39.7032038 29.1742841L39.7032038 29.6315298 35.579811 29.6315298 35.579811 29.1742841C36.9332911 29.1112157 37.0591962 28.9693118 37.0591962 27.8168806L37.0591962 20.6901541 36.0347863 20.6901541C34.9345472 20.6901541 34.6355226 20.8005238 34.4466649 21.1316328 34.2878528 21.3681392 34.1776858 21.7780836 34.0045662 22.4087674L33.532422 22.4087674C33.5953746 21.5573443 33.675496 20.6270857 33.7055416 19.8071969L34.0203044 19.8071969C34.2406383 20.1383058 34.4137579 20.16984 34.8229495 20.16984L40.5215871 20.16984C40.9150406 20.16984 40.9937313 20.0752375 41.2140653 19.8071969L41.5445662 19.8071969C41.5617351 20.500949 41.6232569 21.5430106 41.7019476 22.3628995L41.2298034 22.4087674zM45.101529 26.1151812L43.6693583 26.761632C43.0713089 27.0139055 42.740808 27.2977132 42.740808 27.8337944 42.740808 28.5748478 43.340288 28.937491 43.8124323 28.937491 44.2201932 28.937491 44.8196732 28.6221491 45.101529 28.3541085L45.101529 26.1151812zM46.10877 29.8046812C45.9356505 29.8046812 45.6208877 29.6785444 45.4806751 29.5366406 45.2746486 29.3316683 45.1816505 29.1266961 45.1330053 28.8744226 44.5206486 29.2686 43.8424778 29.8046812 43.340288 29.8046812 42.3473545 29.8046812 41.6234 28.9546915 41.6234 28.0072324 41.6234 27.3134803 42.0011154 26.8074999 42.8352368 26.5408927 43.7165727 26.2413179 44.7867662 25.8313735 45.101529 25.5948671L45.101529 25.3898948C45.101529 24.3162991 44.5664323 23.7171495 43.8124323 23.7171495 43.4962387 23.7171495 43.2601666 23.8447196 43.1185233 24.0167243 42.9296657 24.2231299 42.8194987 24.5227047 42.6778554 24.9484162 42.630641 25.1691555 42.4732596 25.2623247 42.2700945 25.2623247 42.0325917 25.2623247 41.6706144 24.9957175 41.6706144 24.6488414 41.6706144 24.4438692 41.8594721 24.2704312 42.1427586 24.0640256 42.5061666 23.7974183 43.4332861 23.2283696 44.2845765 23.0549315 44.7095063 23.0549315 45.1644816 23.1810683 45.4635063 23.4505423 45.9356505 23.8762538 46.0930319 24.4596363 46.0930319 25.1992563L46.0930319 27.9599312C46.0930319 28.6221491 46.3448421 28.8428884 46.6138213 28.8428884 46.7869408 28.8428884 47.005844 28.764053 47.148918 28.6694504L47.3062994 29.0951619 46.10877 29.8046812zM52.2453571 29.6315298L52.2453571 29.2215854C53.1438619 29.1269828 53.2525981 29.000846 53.2525981 28.0232862L53.2525981 25.6094875C53.2525981 24.5846263 52.9077898 23.8908742 51.8676417 23.8908742 51.2381161 23.8908742 50.6243287 24.2864849 50.1679226 24.7107631L50.1679226 28.0705875C50.1679226 29.0954486 50.248044 29.1269828 51.1751636 29.2215854L51.1751636 29.6315298 48.0747499 29.6315298 48.0747499 29.2215854C49.0662528 29.1269828 49.1449435 29.0323802 49.1449435 28.0863546L49.1449435 25.1221409C49.1449435 24.1746819 49.0505146 24.1116135 48.2478694 23.9869101L48.2478694 23.6084999C48.9417784 23.4809298 49.6013495 23.3074917 50.1679226 23.0079169L50.1679226 24.1746819C50.4512091 23.9539426 50.7659719 23.7489704 51.145118 23.5138973 51.5371408 23.2444233 51.9635013 23.0552182 52.3884311 23.0552182 53.5358846 23.0552182 54.277008 23.8607734 54.277008 25.2626114L54.277008 28.0705875C54.277008 29.0796815 54.3556987 29.1269828 55.2370345 29.2215854L55.2370345 29.6315298 52.2453571 29.6315298zM57.7713044 25.2628981C57.7713044 26.3995622 58.40083 27.1879169 59.2192133 27.1879169 59.8959533 27.1721498 60.5097408 26.5715669 60.5097408 25.4535366 60.5097408 24.2853382 59.8959533 23.5127506 59.0604011 23.5127506 58.3850918 23.5127506 57.7713044 24.1592015 57.7713044 25.2628981L57.7713044 25.2628981zM58.1175435 30.057528C57.6911829 30.388637 57.4093271 30.8143485 57.4093271 31.2400601 57.4093271 32.0441819 58.2591867 32.5171947 59.3293803 32.5171947 60.761551 32.5171947 61.5026744 31.8392096 61.5026744 30.9247182 61.5026744 30.4517054 61.2651715 30.1048293 60.871718 29.9313913 60.5097408 29.7579532 60.0690729 29.726419 59.4395472 29.726419 58.7313309 29.726419 58.40083 29.8210216 58.1175435 30.057528L58.1175435 30.057528zM62.665866 23.3235455C62.5242228 23.5614853 62.2251981 23.9542293 62.0048641 24.0645989L61.1864808 24.0172976C61.4540292 24.3340729 61.6114106 24.8214194 61.6114106 25.3259664 61.6114106 26.9026758 60.3208831 27.6766968 59.0604011 27.6766968 58.8414979 27.6766968 58.5739495 27.6451626 58.3221393 27.5978613 58.1018053 27.7540989 57.8499951 28.0379066 57.8499951 28.2443122 57.8499951 28.5266865 58.0860672 28.7961605 58.7313309 28.7961605 59.3136421 28.7961605 59.8487389 28.7803934 60.3366213 28.7803934 61.2651715 28.7803934 62.4297939 29.0627677 62.4297939 30.4832395 62.4297939 31.9495793 60.7458129 33.2912157 58.824329 33.2912157 57.2362076 33.2912157 56.3219647 32.4225921 56.3076573 31.5554019 56.3076573 31.2558272 56.4178243 30.9404853 56.6538964 30.719746 56.920014 30.4359383 57.503756 29.9471584 57.8342569 29.6948848 57.3306364 29.5357805 56.9529211 29.2061049 56.7640634 28.9065301 56.6538964 28.7001246 56.606682 28.4492844 56.6209894 28.3231477 57.1560861 28.1181754 57.6282304 27.7239981 57.8499951 27.4244233 57.2676839 27.1549493 56.6209894 26.5084985 56.6209894 25.4836374 56.6209894 23.8280925 58.1175435 23.0555049 59.2349514 23.0555049 59.6913575 23.0555049 60.194978 23.1816416 60.6027389 23.4181481 61.2966478 23.3722801 61.989126 23.2920113 62.5728679 23.1988421L62.665866 23.3235455z"/>
  </g>
</svg>
